<?xml version="1.0" standalone="no"?>
<!DOCTYPE svg PUBLIC "-//W3C//DTD SVG 20010904//EN"
 "http://www.w3.org/TR/2001/REC-SVG-20010904/DTD/svg10.dtd">
<svg version="1.0" xmlns="http://www.w3.org/2000/svg"
 width="1067.000000pt" height="1067.000000pt" viewBox="0 0 1067.000000 1067.000000"
 preserveAspectRatio="xMidYMid meet">

<g transform="translate(0.000000,1067.000000) scale(0.100000,-0.100000)"
fill="#000000" stroke="none">
<path d="M1140 5335 l0 -1955 280 0 280 0 0 1955 0 1955 -280 0 -280 0 0
-1955z"/>
<path d="M2260 5335 l0 -1955 280 0 280 0 0 1955 0 1955 -280 0 -280 0 0
-1955z"/>
<path d="M3380 5335 l0 -1955 280 0 280 0 0 1955 0 1955 -280 0 -280 0 0
-1955z"/>
<path d="M4500 5335 l0 -1955 280 0 280 0 0 1955 0 1955 -280 0 -280 0 0
-1955z"/>
<path d="M5610 7010 l0 -280 1958 2 1957 3 3 278 2 277 -1960 0 -1960 0 0
-280z"/>
<path d="M5612 5893 l3 -278 1955 0 1955 0 3 278 2 277 -1960 0 -1960 0 2
-277z"/>
<path d="M5617 5053 c-4 -3 -7 -129 -7 -280 l0 -273 1960 0 1960 0 -2 278 -3
277 -1951 3 c-1073 1 -1954 -1 -1957 -5z"/>
<path d="M5610 3660 l0 -280 1960 0 1960 0 -2 278 -3 277 -1957 3 -1958 2 0
-280z"/>
</g>
</svg>
