<?xml version="1.0" encoding="UTF-8"?>
<!DOCTYPE svg PUBLIC "-//W3C//DTD SVG 1.1//EN" "http://www.w3.org/Graphics/SVG/1.1/DTD/svg11.dtd">
<svg xmlns="http://www.w3.org/2000/svg" version="1.1" width="1067px" height="1067px" style="shape-rendering:geometricPrecision; text-rendering:geometricPrecision; image-rendering:optimizeQuality; fill-rule:evenodd; clip-rule:evenodd" xmlns:xlink="http://www.w3.org/1999/xlink">
<g><path style="opacity:0.999" fill="#fefefe" d="M 1066.5,218.5 C 1066.5,428.833 1066.5,639.167 1066.5,849.5C 1050.32,946.376 996.982,1013.88 906.5,1052C 887.808,1058.59 868.808,1063.42 849.5,1066.5C 639.167,1066.5 428.833,1066.5 218.5,1066.5C 121.586,1050.3 54.0863,996.971 16,906.5C 8.00078,884.837 3.00078,862.503 1,839.5C 0.333333,635.833 0.333333,432.167 1,228.5C 10.617,142.639 52.117,77.4727 125.5,33C 154.493,16.6689 185.493,6.3356 218.5,2C 323.648,0.844227 428.815,0.344227 534,0.5C 639.185,0.344227 744.352,0.844227 849.5,2C 946.642,17.7898 1014.14,70.9565 1052,161.5C 1058.59,180.192 1063.42,199.192 1066.5,218.5 Z"/></g>
<g><path style="opacity:1" fill="#000000" d="M 114.5,337.5 C 132.833,337.5 151.167,337.5 169.5,337.5C 169.5,467.833 169.5,598.167 169.5,728.5C 151.167,728.5 132.833,728.5 114.5,728.5C 114.5,598.167 114.5,467.833 114.5,337.5 Z"/></g>
<g><path style="opacity:1" fill="#010101" d="M 225.5,337.5 C 244.167,337.5 262.833,337.5 281.5,337.5C 281.5,467.833 281.5,598.167 281.5,728.5C 262.833,728.5 244.167,728.5 225.5,728.5C 225.5,598.167 225.5,467.833 225.5,337.5 Z"/></g>
<g><path style="opacity:1" fill="#000000" d="M 337.5,337.5 C 356.167,337.5 374.833,337.5 393.5,337.5C 393.5,467.833 393.5,598.167 393.5,728.5C 374.833,728.5 356.167,728.5 337.5,728.5C 337.5,598.167 337.5,467.833 337.5,337.5 Z"/></g>
<g><path style="opacity:1" fill="#020202" d="M 449.5,337.5 C 468.167,337.5 486.833,337.5 505.5,337.5C 505.5,467.833 505.5,598.167 505.5,728.5C 486.833,728.5 468.167,728.5 449.5,728.5C 449.5,598.167 449.5,467.833 449.5,337.5 Z"/></g>
<g><path style="opacity:1" fill="#2d2d2d" d="M 561.5,337.5 C 561.5,355.833 561.5,374.167 561.5,392.5C 691.5,392.5 821.5,392.5 951.5,392.5C 951.5,374.167 951.5,355.833 951.5,337.5C 952.497,355.993 952.83,374.659 952.5,393.5C 821.833,393.5 691.167,393.5 560.5,393.5C 560.17,374.659 560.503,355.993 561.5,337.5 Z"/></g>
<g><path style="opacity:1" fill="#000000" d="M 561.5,337.5 C 691.5,337.5 821.5,337.5 951.5,337.5C 951.5,355.833 951.5,374.167 951.5,392.5C 821.5,392.5 691.5,392.5 561.5,392.5C 561.5,374.167 561.5,355.833 561.5,337.5 Z"/></g>
<g><path style="opacity:1" fill="#626262" d="M 561.5,449.5 C 561.5,467.833 561.5,486.167 561.5,504.5C 691.5,504.5 821.5,504.5 951.5,504.5C 951.5,486.167 951.5,467.833 951.5,449.5C 952.497,467.993 952.83,486.659 952.5,505.5C 821.833,505.5 691.167,505.5 560.5,505.5C 560.17,486.659 560.503,467.993 561.5,449.5 Z"/></g>
<g><path style="opacity:1" fill="#000000" d="M 561.5,449.5 C 691.5,449.5 821.5,449.5 951.5,449.5C 951.5,467.833 951.5,486.167 951.5,504.5C 821.5,504.5 691.5,504.5 561.5,504.5C 561.5,486.167 561.5,467.833 561.5,449.5 Z"/></g>
<g><path style="opacity:1" fill="#626262" d="M 951.5,616.5 C 951.5,598.167 951.5,579.833 951.5,561.5C 821.5,561.5 691.5,561.5 561.5,561.5C 561.5,579.833 561.5,598.167 561.5,616.5C 560.503,598.007 560.17,579.341 560.5,560.5C 691.167,560.5 821.833,560.5 952.5,560.5C 952.83,579.341 952.497,598.007 951.5,616.5 Z"/></g>
<g><path style="opacity:1" fill="#000000" d="M 951.5,616.5 C 821.5,616.5 691.5,616.5 561.5,616.5C 561.5,598.167 561.5,579.833 561.5,561.5C 691.5,561.5 821.5,561.5 951.5,561.5C 951.5,579.833 951.5,598.167 951.5,616.5 Z"/></g>
<g><path style="opacity:1" fill="#010101" d="M 560.5,672.5 C 690.833,672.5 821.167,672.5 951.5,672.5C 951.5,691.167 951.5,709.833 951.5,728.5C 821.167,728.5 690.833,728.5 560.5,728.5C 560.5,709.833 560.5,691.167 560.5,672.5 Z"/></g>
</svg>
