<?xml version="1.0" encoding="UTF-8"?>
<!DOCTYPE svg PUBLIC "-//W3C//DTD SVG 1.1//EN" "http://www.w3.org/Graphics/SVG/1.1/DTD/svg11.dtd">
<svg xmlns="http://www.w3.org/2000/svg" version="1.1" width="1067px" height="1067px" style="shape-rendering:geometricPrecision; text-rendering:geometricPrecision; image-rendering:optimizeQuality; fill-rule:evenodd; clip-rule:evenodd" xmlns:xlink="http://www.w3.org/1999/xlink">
<g><path style="opacity:0.999" fill="#5a45ff" d="M 1066.5,218.5 C 1066.5,428.833 1066.5,639.167 1066.5,849.5C 1050.32,946.376 996.982,1013.88 906.5,1052C 887.808,1058.59 868.808,1063.42 849.5,1066.5C 639.167,1066.5 428.833,1066.5 218.5,1066.5C 121.586,1050.3 54.0863,996.971 16,906.5C 8.00078,884.837 3.00078,862.503 1,839.5C 0.333333,635.833 0.333333,432.167 1,228.5C 10.617,142.639 52.117,77.4727 125.5,33C 154.493,16.6689 185.493,6.3356 218.5,2C 323.648,0.844227 428.815,0.344227 534,0.5C 639.185,0.344227 744.352,0.844227 849.5,2C 946.642,17.7898 1014.14,70.9565 1052,161.5C 1058.59,180.192 1063.42,199.192 1066.5,218.5 Z"/></g>
<g><path style="opacity:1" fill="#8370ff" d="M 538.5,225.5 C 543.844,225.334 549.177,225.501 554.5,226C 555.737,226.232 556.737,226.732 557.5,227.5C 551.008,227.006 544.675,226.339 538.5,225.5 Z"/></g>
<g><path style="opacity:1" fill="#fefeff" d="M 538.5,225.5 C 544.675,226.339 551.008,227.006 557.5,227.5C 559.435,228.15 561.435,228.483 563.5,228.5C 565.515,229.924 567.848,230.59 570.5,230.5C 596.935,236.976 619.435,250.309 638,270.5C 654.144,294.446 667.978,319.78 679.5,346.5C 679.166,349.491 680.166,351.824 682.5,353.5C 697.965,390.427 713.965,427.093 730.5,463.5C 730.166,466.491 731.166,468.824 733.5,470.5C 748.759,504.951 763.425,539.618 777.5,574.5C 777.369,579.375 779.036,583.375 782.5,586.5C 788.779,604.499 795.946,622.165 804,639.5C 817.578,674.939 815.578,709.605 798,743.5C 790.414,756.831 781.247,768.998 770.5,780C 736.536,804.834 698.536,814.667 656.5,809.5C 651.95,808.509 647.283,807.509 642.5,806.5C 634.126,803.992 625.792,801.659 617.5,799.5C 615.485,798.076 613.152,797.41 610.5,797.5C 605.728,796.474 601.061,795.141 596.5,793.5C 594.485,792.076 592.152,791.41 589.5,791.5C 582.167,789.833 574.833,788.167 567.5,786.5C 567.082,785.778 566.416,785.278 565.5,785C 562.854,784.503 560.187,784.336 557.5,784.5C 538.75,782.863 520.083,783.196 501.5,785.5C 496.876,785.763 492.542,786.763 488.5,788.5C 487.833,788.5 487.167,788.5 486.5,788.5C 483.848,788.41 481.515,789.076 479.5,790.5C 478.833,790.5 478.167,790.5 477.5,790.5C 473.838,790.723 470.505,791.723 467.5,793.5C 456.255,796.917 444.921,799.917 433.5,802.5C 427.235,803.204 421.235,804.538 415.5,806.5C 415.167,806.5 414.833,806.5 414.5,806.5C 397.788,808.022 381.122,807.689 364.5,805.5C 326.034,801.369 296.201,783.369 275,751.5C 262.668,733.003 255.834,712.67 254.5,690.5C 254.365,678.815 254.698,667.148 255.5,655.5C 257.02,647.421 258.853,639.421 261,631.5C 270.529,609.768 279.529,587.768 288,565.5C 325.864,482.115 362.864,398.449 399,314.5C 407.911,297.672 417.577,281.339 428,265.5C 437.34,253.651 448.84,244.651 462.5,238.5C 468.13,236.692 473.797,234.859 479.5,233C 480.056,232.617 480.389,232.117 480.5,231.5C 484.515,229.627 488.849,228.627 493.5,228.5C 497.79,228.802 501.79,228.136 505.5,226.5C 516.487,225.834 527.487,225.501 538.5,225.5 Z"/></g>
<g><path style="opacity:1" fill="#c3b9ff" d="M 505.5,226.5 C 501.79,228.136 497.79,228.802 493.5,228.5C 497.21,226.864 501.21,226.198 505.5,226.5 Z"/></g>
<g><path style="opacity:1" fill="#9381ff" d="M 563.5,228.5 C 566.152,228.41 568.485,229.076 570.5,230.5C 567.848,230.59 565.515,229.924 563.5,228.5 Z"/></g>
<g><path style="opacity:1" fill="#d8d1ff" d="M 480.5,231.5 C 480.389,232.117 480.056,232.617 479.5,233C 473.797,234.859 468.13,236.692 462.5,238.5C 467.823,234.611 473.823,232.278 480.5,231.5 Z"/></g>
<g><path style="opacity:1" fill="#c6bbff" d="M 679.5,346.5 C 681.065,348.509 682.065,350.843 682.5,353.5C 680.166,351.824 679.166,349.491 679.5,346.5 Z"/></g>
<g><path style="opacity:1" fill="#5a45ff" d="M 507.5,646.5 C 501.596,646.321 495.929,646.988 490.5,648.5C 489.833,648.5 489.167,648.5 488.5,648.5C 482.196,648.439 476.196,649.439 470.5,651.5C 457.864,654.074 445.53,657.407 433.5,661.5C 429.085,661.861 425.085,663.194 421.5,665.5C 414.134,667.684 407.134,670.684 400.5,674.5C 397.508,674.02 396.341,672.353 397,669.5C 442.055,569.667 486.721,469.667 531,369.5C 531.615,367.884 532.615,366.551 534,365.5C 579.843,466.353 625.009,567.52 669.5,669C 669.531,672.808 667.698,674.641 664,674.5C 650.782,668.643 637.282,663.476 623.5,659C 585.394,649.679 546.728,645.513 507.5,646.5 Z"/></g>
<g><path style="opacity:1" fill="#c2b8ff" d="M 730.5,463.5 C 732.065,465.509 733.065,467.843 733.5,470.5C 731.166,468.824 730.166,466.491 730.5,463.5 Z"/></g>
<g><path style="opacity:1" fill="#d6ceff" d="M 777.5,574.5 C 779.679,578.203 781.345,582.203 782.5,586.5C 779.036,583.375 777.369,579.375 777.5,574.5 Z"/></g>
<g><path style="opacity:1" fill="#bfb5ff" d="M 507.5,646.5 C 502.04,647.737 496.373,648.404 490.5,648.5C 495.929,646.988 501.596,646.321 507.5,646.5 Z"/></g>
<g><path style="opacity:1" fill="#beb4ff" d="M 488.5,648.5 C 482.777,650.421 476.777,651.421 470.5,651.5C 476.196,649.439 482.196,648.439 488.5,648.5 Z"/></g>
<g><path style="opacity:1" fill="#cfc7ff" d="M 433.5,661.5 C 429.767,663.411 425.767,664.744 421.5,665.5C 425.085,663.194 429.085,661.861 433.5,661.5 Z"/></g>
<g><path style="opacity:1" fill="#b7acff" d="M 255.5,655.5 C 254.698,667.148 254.365,678.815 254.5,690.5C 253.834,685.845 253.501,681.012 253.5,676C 253.303,668.93 253.97,662.097 255.5,655.5 Z"/></g>
<g><path style="opacity:1" fill="#c9bfff" d="M 557.5,784.5 C 560.187,784.336 562.854,784.503 565.5,785C 566.416,785.278 567.082,785.778 567.5,786.5C 563.96,786.247 560.627,785.581 557.5,784.5 Z"/></g>
<g><path style="opacity:1" fill="#8774ff" d="M 501.5,785.5 C 501.082,786.222 500.416,786.722 499.5,787C 495.83,787.548 492.163,788.048 488.5,788.5C 492.542,786.763 496.876,785.763 501.5,785.5 Z"/></g>
<g><path style="opacity:1" fill="#9b8cff" d="M 486.5,788.5 C 484.485,789.924 482.152,790.59 479.5,790.5C 481.515,789.076 483.848,788.41 486.5,788.5 Z"/></g>
<g><path style="opacity:1" fill="#9381ff" d="M 477.5,790.5 C 474.495,792.277 471.162,793.277 467.5,793.5C 470.505,791.723 473.838,790.723 477.5,790.5 Z"/></g>
<g><path style="opacity:1" fill="#c4b9ff" d="M 589.5,791.5 C 592.152,791.41 594.485,792.076 596.5,793.5C 593.848,793.59 591.515,792.924 589.5,791.5 Z"/></g>
<g><path style="opacity:1" fill="#c5bbff" d="M 610.5,797.5 C 613.152,797.41 615.485,798.076 617.5,799.5C 614.848,799.59 612.515,798.924 610.5,797.5 Z"/></g>
<g><path style="opacity:1" fill="#9888ff" d="M 433.5,802.5 C 433.389,803.117 433.056,803.617 432.5,804C 427.763,804.699 423.096,805.532 418.5,806.5C 417.5,806.5 416.5,806.5 415.5,806.5C 421.235,804.538 427.235,803.204 433.5,802.5 Z"/></g>
<g><path style="opacity:1" fill="#a99dff" d="M 364.5,805.5 C 381.122,807.689 397.788,808.022 414.5,806.5C 413.048,807.302 411.382,807.802 409.5,808C 395.095,808.963 380.761,808.463 366.5,806.5C 365.508,806.672 364.842,806.338 364.5,805.5 Z"/></g>
<g><path style="opacity:1" fill="#6e5bff" d="M 366.5,806.5 C 380.761,808.463 395.095,808.963 409.5,808C 411.382,807.802 413.048,807.302 414.5,806.5C 414.833,806.5 415.167,806.5 415.5,806.5C 416.5,806.5 417.5,806.5 418.5,806.5C 417.942,807.79 416.942,808.623 415.5,809C 401.833,809.667 388.167,809.667 374.5,809C 371.478,808.902 368.811,808.068 366.5,806.5 Z"/></g>
<g><path style="opacity:1" fill="#bcb2ff" d="M 642.5,806.5 C 647.283,807.509 651.95,808.509 656.5,809.5C 651.404,809.956 646.738,808.956 642.5,806.5 Z"/></g>
</svg>
