<?xml version="1.0" standalone="no"?>
<!DOCTYPE svg PUBLIC "-//W3C//DTD SVG 20010904//EN"
 "http://www.w3.org/TR/2001/REC-SVG-20010904/DTD/svg10.dtd">
<svg version="1.0" xmlns="http://www.w3.org/2000/svg"
 width="1067.000000pt" height="1067.000000pt" viewBox="0 0 1067.000000 1067.000000"
 preserveAspectRatio="xMidYMid meet">

<g transform="translate(0.000000,1067.000000) scale(0.100000,-0.100000)"
fill="#000000" stroke="none">
<path d="M2355 10653 c-500 -28 -1003 -224 -1409 -547 -496 -395 -814 -958
-913 -1621 -17 -113 -18 -285 -18 -3160 0 -2875 1 -3047 18 -3160 49 -329 144
-616 290 -880 384 -695 1065 -1161 1855 -1269 100 -14 463 -16 3167 -16 2704
0 3067 2 3167 16 548 75 1046 321 1433 709 388 387 634 885 709 1433 14 100
16 463 16 3167 0 2704 -2 3067 -16 3167 -108 790 -574 1471 -1269 1855 -256
142 -526 233 -849 286 l-131 22 -2995 0 c-1647 1 -3022 0 -3055 -2z m3170
-2253 c108 -11 341 -77 443 -125 127 -60 313 -199 403 -300 122 -139 335 -538
503 -945 79 -191 101 -241 168 -395 88 -201 153 -347 213 -475 35 -74 75 -167
89 -207 14 -40 37 -96 52 -125 40 -78 141 -311 175 -401 16 -43 38 -96 49
-117 22 -43 146 -343 193 -465 77 -204 181 -464 202 -505 63 -126 125 -369
125 -487 -1 -163 -53 -416 -114 -548 -95 -205 -275 -429 -417 -519 -153 -96
-344 -172 -514 -203 -69 -13 -148 -16 -335 -16 -237 0 -248 1 -335 27 -49 15
-144 42 -210 61 -66 19 -192 55 -280 80 -269 77 -346 88 -600 87 -175 0 -243
-5 -330 -21 -140 -25 -318 -67 -342 -79 -33 -18 -276 -81 -430 -112 -306 -61
-615 -32 -916 87 -198 77 -287 134 -413 264 -191 197 -326 470 -354 718 -15
130 -8 377 15 481 22 104 80 266 159 450 37 85 89 211 116 280 26 69 78 193
115 275 86 193 223 505 290 665 29 69 110 247 180 395 70 149 133 286 140 305
7 19 42 100 77 180 111 248 164 368 263 598 117 274 124 288 243 487 143 239
213 321 360 418 146 96 260 141 432 171 196 34 362 38 585 16z"/>
<path d="M5332 6993 c-6 -10 -85 -187 -177 -393 -92 -206 -307 -688 -477
-1070 -171 -382 -394 -882 -495 -1110 -102 -228 -191 -427 -199 -441 -12 -23
-11 -29 4 -42 15 -14 24 -12 97 24 161 78 578 194 810 224 323 42 682 25 1085
-51 226 -42 387 -89 528 -154 72 -33 140 -60 152 -60 12 0 25 10 32 25 10 21
8 34 -9 73 -12 26 -81 180 -153 342 -73 162 -179 399 -235 525 -56 127 -150
336 -208 465 -57 129 -206 462 -330 740 -365 820 -407 914 -412 918 -2 2 -8
-5 -13 -15z"/>
</g>
</svg>
