<?xml version="1.0" encoding="UTF-8"?>
<!DOCTYPE svg PUBLIC "-//W3C//DTD SVG 1.1//EN" "http://www.w3.org/Graphics/SVG/1.1/DTD/svg11.dtd">
<svg xmlns="http://www.w3.org/2000/svg" version="1.1" width="1067px" height="1067px" style="shape-rendering:geometricPrecision; text-rendering:geometricPrecision; image-rendering:optimizeQuality; fill-rule:evenodd; clip-rule:evenodd" xmlns:xlink="http://www.w3.org/1999/xlink">
<g><path style="opacity:0.999" fill="#fefefe" d="M 1066.5,218.5 C 1066.5,428.833 1066.5,639.167 1066.5,849.5C 1050.32,946.376 996.982,1013.88 906.5,1052C 887.808,1058.59 868.808,1063.42 849.5,1066.5C 639.167,1066.5 428.833,1066.5 218.5,1066.5C 121.586,1050.3 54.0863,996.971 16,906.5C 8.00078,884.837 3.00078,862.503 1,839.5C 0.333333,635.833 0.333333,432.167 1,228.5C 10.617,142.639 52.117,77.4727 125.5,33C 154.493,16.6689 185.493,6.3356 218.5,2C 323.648,0.844227 428.815,0.344227 534,0.5C 639.185,0.344227 744.352,0.844227 849.5,2C 946.642,17.7898 1014.14,70.9565 1052,161.5C 1058.59,180.192 1063.42,199.192 1066.5,218.5 Z"/></g>
<g><path style="opacity:1" fill="#2d3441" d="M 685.5,724.5 C 562.001,725.5 438.334,725.833 314.5,725.5C 247.701,659.201 181.035,592.701 114.5,526C 176.347,463.986 238.347,402.153 300.5,340.5C 428.854,468.521 557.188,596.521 685.5,724.5 Z"/></g>
<g><path style="opacity:1" fill="#77c1d2" d="M 764.5,340.5 C 827.25,401.749 889.583,463.583 951.5,526C 889.653,588.014 827.653,649.847 765.5,711.5C 703.347,649.847 641.347,588.014 579.5,526C 641.368,464.299 703.035,402.465 764.5,340.5 Z"/></g>
<g><path style="opacity:1" fill="#f1f1f2" d="M 685.5,724.5 C 686.043,724.56 686.376,724.893 686.5,725.5C 562.334,726.832 438.334,726.832 314.5,725.5C 438.334,725.833 562.001,725.5 685.5,724.5 Z"/></g>
</svg>
