<?xml version="1.0" standalone="no"?>
<!DOCTYPE svg PUBLIC "-//W3C//DTD SVG 20010904//EN"
 "http://www.w3.org/TR/2001/REC-SVG-20010904/DTD/svg10.dtd">
<svg version="1.0" xmlns="http://www.w3.org/2000/svg"
 width="1067.000000pt" height="1067.000000pt" viewBox="0 0 1067.000000 1067.000000"
 preserveAspectRatio="xMidYMid meet">

<g transform="translate(0.000000,1067.000000) scale(0.100000,-0.100000)"
fill="#000000" stroke="none">
<path d="M2285 10649 c-592 -57 -1125 -308 -1540 -723 -135 -135 -213 -231
-322 -393 -199 -299 -335 -662 -389 -1038 -18 -125 -19 -258 -19 -3180 l0
-3050 23 -140 c44 -278 113 -498 233 -741 119 -244 275 -461 474 -659 198
-199 415 -355 659 -474 178 -88 301 -133 490 -181 301 -76 37 -71 3506 -68
l3105 3 110 22 c540 109 966 333 1330 697 200 200 355 416 474 660 110 225
178 430 228 696 17 90 18 254 18 3245 0 3519 7 3173 -69 3470 -86 332 -256
669 -476 941 -82 101 -263 282 -364 364 -196 159 -477 319 -707 404 -130 48
-341 102 -496 128 l-128 22 -3025 2 c-1664 1 -3065 -2 -3115 -7z m2655 -5314
l1925 -1925 -1860 0 -1860 0 -997 997 -998 998 927 927 c511 511 930 928 933
928 3 0 871 -866 1930 -1925z m3657 993 l923 -923 -930 -930 -930 -930 -930
930 -930 930 923 923 c507 507 929 922 937 922 8 0 429 -415 937 -922z"/>
</g>
</svg>
