<?xml version="1.0" standalone="no"?>
<!DOCTYPE svg PUBLIC "-//W3C//DTD SVG 20010904//EN"
 "http://www.w3.org/TR/2001/REC-SVG-20010904/DTD/svg10.dtd">
<svg version="1.0" xmlns="http://www.w3.org/2000/svg"
 width="1067.000000pt" height="1067.000000pt" viewBox="0 0 1067.000000 1067.000000"
 preserveAspectRatio="xMidYMid meet">

<g transform="translate(0.000000,1067.000000) scale(0.100000,-0.100000)"
fill="#000000" stroke="none">
<path d="M3580 8495 c-959 -342 -1750 -627 -1756 -631 -10 -7 50 -553 256
-2333 148 -1278 272 -2327 277 -2330 16 -15 2964 -1643 2976 -1645 7 0 681
370 1499 823 1435 794 1488 824 1493 855 8 50 535 4630 532 4631 -1 1 -263 94
-582 208 -319 113 -1110 395 -1759 627 -648 231 -1181 420 -1185 419 -3 0
-791 -281 -1751 -624z m2860 -2695 c595 -1339 1085 -2441 1087 -2448 4 -10
-78 -12 -407 -10 l-412 3 -221 553 -221 552 -935 -2 -934 -3 -222 -550 -221
-550 -413 -3 c-330 -2 -412 0 -408 10 3 7 495 1109 1092 2448 598 1339 1091
2446 1097 2460 l10 25 13 -25 c7 -14 500 -1121 1095 -2460z"/>
<path d="M5328 6659 c-3 -8 -146 -351 -317 -762 -171 -412 -311 -753 -311
-758 0 -5 259 -9 635 -9 393 0 635 4 635 9 0 10 -614 1493 -629 1519 -7 12 -9
12 -13 1z"/>
</g>
</svg>
