<?xml version="1.0" encoding="UTF-8"?>
<!DOCTYPE svg PUBLIC "-//W3C//DTD SVG 1.1//EN" "http://www.w3.org/Graphics/SVG/1.1/DTD/svg11.dtd">
<svg xmlns="http://www.w3.org/2000/svg" version="1.1" width="1067px" height="1067px" style="shape-rendering:geometricPrecision; text-rendering:geometricPrecision; image-rendering:optimizeQuality; fill-rule:evenodd; clip-rule:evenodd" xmlns:xlink="http://www.w3.org/1999/xlink">
<g><path style="opacity:0.999" fill="#dc0030" d="M 1066.5,218.5 C 1066.5,428.833 1066.5,639.167 1066.5,849.5C 1050.32,946.376 996.982,1013.88 906.5,1052C 887.808,1058.59 868.808,1063.42 849.5,1066.5C 639.167,1066.5 428.833,1066.5 218.5,1066.5C 121.586,1050.3 54.0863,996.971 16,906.5C 8.00078,884.837 3.00078,862.503 1,839.5C 0.333333,635.833 0.333333,432.167 1,228.5C 10.617,142.639 52.117,77.4727 125.5,33C 154.493,16.6689 185.493,6.3356 218.5,2C 323.648,0.844227 428.815,0.344227 534,0.5C 639.185,0.344227 744.352,0.844227 849.5,2C 946.642,17.7898 1014.14,70.9565 1052,161.5C 1058.59,180.192 1063.42,199.192 1066.5,218.5 Z"/></g>
<g><path style="opacity:1" fill="#c3002e" d="M 533.5,622.5 C 564.5,622.5 595.5,622.5 626.5,622.5C 641.167,658.833 655.833,695.167 670.5,731.5C 697.67,732.829 725.003,732.829 752.5,731.5C 752.376,730.893 752.043,730.56 751.5,730.5C 678.833,566.5 606.167,402.5 533.5,238.5C 533.333,210.498 533.5,182.498 534,154.5C 650.745,196.45 767.578,238.283 884.5,280C 885.081,280.893 885.415,281.893 885.5,283C 867.926,434.163 850.426,585.33 833,736.5C 832.216,740.05 831.383,743.55 830.5,747C 731.98,801.668 633.314,856.168 534.5,910.5C 533.5,814.502 533.167,718.502 533.5,622.5 Z"/></g>
<g><path style="opacity:1" fill="#fefefe" d="M 533.5,238.5 C 606.167,402.5 678.833,566.5 751.5,730.5C 724.672,731.498 697.672,731.831 670.5,731.5C 655.833,695.167 641.167,658.833 626.5,622.5C 595.335,621.833 564.002,621.5 532.5,621.5C 500.826,621.5 469.493,622.167 438.5,623.5C 423.795,659.563 409.129,695.563 394.5,731.5C 367.328,731.831 340.328,731.498 313.5,730.5C 386.32,566.2 459.653,402.2 533.5,238.5 Z"/></g>
<g><path style="opacity:1" fill="#c3032f" d="M 534.5,402.5 C 555.955,452.536 576.621,502.869 596.5,553.5C 554.5,553.5 512.5,553.5 470.5,553.5C 491.327,552.503 512.327,552.169 533.5,552.5C 533.168,502.331 533.501,452.331 534.5,402.5 Z"/></g>
<g><path style="opacity:1" fill="#dc0230" d="M 534.5,402.5 C 533.501,452.331 533.168,502.331 533.5,552.5C 512.327,552.169 491.327,552.503 470.5,553.5C 469.402,552.399 469.235,551.066 470,549.5C 490.814,499.385 511.814,449.385 533,399.5C 534.039,400.244 534.539,401.244 534.5,402.5 Z"/></g>
<g><path style="opacity:1" fill="#d2224b" d="M 626.5,622.5 C 595.5,622.5 564.5,622.5 533.5,622.5C 501.76,622.175 470.093,622.508 438.5,623.5C 469.493,622.167 500.826,621.5 532.5,621.5C 564.002,621.5 595.335,621.833 626.5,622.5 Z"/></g>
<g><path style="opacity:1" fill="#f3acbc" d="M 313.5,730.5 C 340.328,731.498 367.328,731.831 394.5,731.5C 367.33,732.829 339.997,732.829 312.5,731.5C 312.624,730.893 312.957,730.56 313.5,730.5 Z"/></g>
<g><path style="opacity:1" fill="#ebadbd" d="M 751.5,730.5 C 752.043,730.56 752.376,730.893 752.5,731.5C 725.003,732.829 697.67,732.829 670.5,731.5C 697.672,731.831 724.672,731.498 751.5,730.5 Z"/></g>
</svg>
