<?xml version="1.0" encoding="UTF-8"?>
<!DOCTYPE svg PUBLIC "-//W3C//DTD SVG 1.1//EN" "http://www.w3.org/Graphics/SVG/1.1/DTD/svg11.dtd">
<svg xmlns="http://www.w3.org/2000/svg" version="1.1" width="1067px" height="1067px" style="shape-rendering:geometricPrecision; text-rendering:geometricPrecision; image-rendering:optimizeQuality; fill-rule:evenodd; clip-rule:evenodd" xmlns:xlink="http://www.w3.org/1999/xlink">
<g><path style="opacity:0.999" fill="#fefefe" d="M 1066.5,218.5 C 1066.5,428.833 1066.5,639.167 1066.5,849.5C 1050.32,946.376 996.982,1013.88 906.5,1052C 887.808,1058.59 868.808,1063.42 849.5,1066.5C 639.167,1066.5 428.833,1066.5 218.5,1066.5C 121.586,1050.3 54.0863,996.971 16,906.5C 8.00078,884.837 3.00078,862.503 1,839.5C 0.333333,635.833 0.333333,432.167 1,228.5C 10.617,142.639 52.117,77.4727 125.5,33C 154.493,16.6689 185.493,6.3356 218.5,2C 323.648,0.844227 428.815,0.344227 534,0.5C 639.185,0.344227 744.352,0.844227 849.5,2C 946.642,17.7898 1014.14,70.9565 1052,161.5C 1058.59,180.192 1063.42,199.192 1066.5,218.5 Z"/></g>
<g><path style="opacity:1" fill="#dd0131" d="M 533.5,154.5 C 533.5,182.5 533.5,210.5 533.5,238.5C 459.653,402.2 386.32,566.2 313.5,730.5C 312.957,730.56 312.624,730.893 312.5,731.5C 339.997,732.829 367.33,732.829 394.5,731.5C 409.129,695.563 423.795,659.563 438.5,623.5C 470.093,622.508 501.76,622.175 533.5,622.5C 534.164,718.839 533.498,814.839 531.5,910.5C 431.985,856.158 332.818,801.158 234,745.5C 216.491,591.126 198.658,436.792 180.5,282.5C 180.709,281.006 181.376,279.839 182.5,279C 299.422,237.193 416.422,195.693 533.5,154.5 Z"/></g>
<g><path style="opacity:1" fill="#c3002f" d="M 533.5,154.5 C 650.689,196.563 768.022,238.23 885.5,279.5C 867.805,435.26 849.638,590.927 831,746.5C 731.812,801.761 632.478,856.761 533,911.5C 532.235,911.43 531.735,911.097 531.5,910.5C 533.498,814.839 534.164,718.839 533.5,622.5C 564.5,622.5 595.5,622.5 626.5,622.5C 641.167,658.833 655.833,695.167 670.5,731.5C 697.67,732.829 725.003,732.829 752.5,731.5C 752.376,730.893 752.043,730.56 751.5,730.5C 678.833,566.5 606.167,402.5 533.5,238.5C 533.5,210.5 533.5,182.5 533.5,154.5 Z"/></g>
<g><path style="opacity:1" fill="#fefefe" d="M 533.5,238.5 C 606.167,402.5 678.833,566.5 751.5,730.5C 724.672,731.498 697.672,731.831 670.5,731.5C 655.833,695.167 641.167,658.833 626.5,622.5C 595.335,621.833 564.002,621.5 532.5,621.5C 500.826,621.5 469.493,622.167 438.5,623.5C 423.795,659.563 409.129,695.563 394.5,731.5C 367.328,731.831 340.328,731.498 313.5,730.5C 386.32,566.2 459.653,402.2 533.5,238.5 Z"/></g>
<g><path style="opacity:1" fill="#c3032f" d="M 534.5,402.5 C 555.955,452.536 576.621,502.869 596.5,553.5C 554.5,553.5 512.5,553.5 470.5,553.5C 491.327,552.503 512.327,552.169 533.5,552.5C 533.168,502.331 533.501,452.331 534.5,402.5 Z"/></g>
<g><path style="opacity:1" fill="#dc0230" d="M 534.5,402.5 C 533.501,452.331 533.168,502.331 533.5,552.5C 512.327,552.169 491.327,552.503 470.5,553.5C 469.402,552.399 469.235,551.066 470,549.5C 490.814,499.385 511.814,449.385 533,399.5C 534.039,400.244 534.539,401.244 534.5,402.5 Z"/></g>
<g><path style="opacity:1" fill="#d2224b" d="M 626.5,622.5 C 595.5,622.5 564.5,622.5 533.5,622.5C 501.76,622.175 470.093,622.508 438.5,623.5C 469.493,622.167 500.826,621.5 532.5,621.5C 564.002,621.5 595.335,621.833 626.5,622.5 Z"/></g>
<g><path style="opacity:1" fill="#f3acbc" d="M 313.5,730.5 C 340.328,731.498 367.328,731.831 394.5,731.5C 367.33,732.829 339.997,732.829 312.5,731.5C 312.624,730.893 312.957,730.56 313.5,730.5 Z"/></g>
<g><path style="opacity:1" fill="#ebadbd" d="M 751.5,730.5 C 752.043,730.56 752.376,730.893 752.5,731.5C 725.003,732.829 697.67,732.829 670.5,731.5C 697.672,731.831 724.672,731.498 751.5,730.5 Z"/></g>
</svg>
