<?xml version="1.0" standalone="no"?>
<!DOCTYPE svg PUBLIC "-//W3C//DTD SVG 20010904//EN"
 "http://www.w3.org/TR/2001/REC-SVG-20010904/DTD/svg10.dtd">
<svg version="1.0" xmlns="http://www.w3.org/2000/svg"
 width="1067.000000pt" height="1067.000000pt" viewBox="0 0 1067.000000 1067.000000"
 preserveAspectRatio="xMidYMid meet">

<g transform="translate(0.000000,1067.000000) scale(0.100000,-0.100000)"
fill="#000000" stroke="none">
<path d="M2340 10653 c-127 -9 -310 -39 -435 -70 -445 -111 -834 -332 -1160
-658 -326 -326 -547 -715 -658 -1160 -78 -312 -72 -34 -72 -3440 0 -2906 1
-3046 19 -3170 78 -551 322 -1041 711 -1430 382 -383 867 -627 1397 -705 130
-19 207 -20 3203 -20 2996 0 3073 1 3203 20 530 78 1015 322 1397 705 384 384
627 866 706 1400 18 126 19 227 19 3200 0 2996 -1 3073 -20 3203 -78 530 -322
1014 -705 1397 -318 319 -697 537 -1131 651 -73 19 -191 45 -261 56 l-128 22
-3020 1 c-1661 1 -3040 0 -3065 -2z m4100 -4853 c595 -1339 1085 -2441 1087
-2448 4 -10 -78 -12 -407 -10 l-412 3 -221 553 -221 552 -935 -2 -934 -3 -222
-550 -221 -550 -413 -3 c-330 -2 -412 0 -408 10 3 7 495 1109 1092 2448 598
1339 1091 2446 1097 2460 l10 25 13 -25 c7 -14 500 -1121 1095 -2460z"/>
<path d="M5328 6659 c-3 -8 -146 -351 -317 -762 -171 -412 -311 -753 -311
-758 0 -5 259 -9 635 -9 393 0 635 4 635 9 0 10 -614 1493 -629 1519 -7 12 -9
12 -13 1z"/>
</g>
</svg>
