<?xml version="1.0" encoding="UTF-8"?>
<!DOCTYPE svg PUBLIC "-//W3C//DTD SVG 1.1//EN" "http://www.w3.org/Graphics/SVG/1.1/DTD/svg11.dtd">
<svg xmlns="http://www.w3.org/2000/svg" version="1.1" width="1067px" height="1067px" style="shape-rendering:geometricPrecision; text-rendering:geometricPrecision; image-rendering:optimizeQuality; fill-rule:evenodd; clip-rule:evenodd" xmlns:xlink="http://www.w3.org/1999/xlink">
<g><path style="opacity:0.999" fill="#fefefe" d="M 1066.5,218.5 C 1066.5,428.833 1066.5,639.167 1066.5,849.5C 1050.32,946.376 996.982,1013.88 906.5,1052C 887.808,1058.59 868.808,1063.42 849.5,1066.5C 639.167,1066.5 428.833,1066.5 218.5,1066.5C 121.586,1050.3 54.0863,996.971 16,906.5C 8.00078,884.837 3.00078,862.503 1,839.5C 0.333333,635.833 0.333333,432.167 1,228.5C 10.617,142.639 52.117,77.4727 125.5,33C 154.493,16.6689 185.493,6.3356 218.5,2C 323.648,0.844227 428.815,0.344227 534,0.5C 639.185,0.344227 744.352,0.844227 849.5,2C 946.642,17.7898 1014.14,70.9565 1052,161.5C 1058.59,180.192 1063.42,199.192 1066.5,218.5 Z"/></g>
<g><path style="opacity:1" fill="#1893d1" d="M 532.5,165.5 C 554.598,216.38 576.765,267.38 599,318.5C 635.462,397.091 673.796,474.758 714,551.5C 746.324,613.484 779.157,675.151 812.5,736.5C 781.209,720.225 748.209,707.725 713.5,699C 759.516,723.02 801.683,752.52 840,787.5C 859.912,824.993 880.079,862.326 900.5,899.5C 899.998,900.521 899.332,900.688 898.5,900C 846.432,869.465 792.766,841.798 737.5,817C 697.535,799.511 656.201,786.345 613.5,777.5C 619.628,743.645 618.794,709.978 611,676.5C 604.266,649.513 590.766,626.679 570.5,608C 545.744,590.097 521.077,590.097 496.5,608C 475.626,627.902 462.126,652.069 456,680.5C 451.228,700.908 449.561,721.574 451,742.5C 452.549,753.842 454.049,765.175 455.5,776.5C 397.407,788.921 341.74,808.421 288.5,835C 247.371,855.395 207.038,877.061 167.5,900C 166.668,900.688 166.002,900.521 165.5,899.5C 258.493,734.341 348.159,567.508 434.5,399C 465.04,423.44 498.707,442.44 535.5,456C 503.639,433.49 474.139,407.99 447,379.5C 445.924,377.933 445.091,376.266 444.5,374.5C 475.776,305.619 505.109,235.952 532.5,165.5 Z"/></g>
</svg>
