<?xml version="1.0" standalone="no"?>
<!DOCTYPE svg PUBLIC "-//W3C//DTD SVG 20010904//EN"
 "http://www.w3.org/TR/2001/REC-SVG-20010904/DTD/svg10.dtd">
<svg version="1.0" xmlns="http://www.w3.org/2000/svg"
 width="1067.000000pt" height="1067.000000pt" viewBox="0 0 1067.000000 1067.000000"
 preserveAspectRatio="xMidYMid meet">

<g transform="translate(0.000000,1067.000000) scale(0.100000,-0.100000)"
fill="#000000" stroke="none">
<path d="M5221 8723 c-367 -906 -479 -1173 -665 -1582 l-107 -235 123 -124
c173 -175 340 -326 503 -456 146 -117 287 -221 308 -229 6 -2 9 -8 5 -12 -8
-9 -177 65 -389 171 -227 113 -377 205 -568 348 -62 46 -96 66 -99 57 -10 -29
-473 -949 -623 -1236 -415 -797 -1046 -1960 -1756 -3240 l-288 -520 160 92
c410 233 966 521 1267 656 490 220 946 378 1313 457 83 18 151 33 152 34 1 1
-7 51 -18 111 -26 144 -36 434 -20 584 43 406 196 758 417 959 91 83 220 148
327 164 336 51 666 -241 827 -731 98 -298 126 -679 72 -989 -18 -102 -18 -103
3 -107 280 -59 701 -187 985 -300 471 -186 1079 -487 1695 -839 l160 -91 -81
150 c-45 82 -183 338 -307 568 l-225 418 -233 187 c-364 293 -628 472 -916
624 -65 34 -120 63 -122 65 -48 38 385 -96 614 -189 66 -27 180 -80 253 -118
72 -37 132 -67 132 -66 0 1 -72 136 -160 299 -534 994 -979 1847 -1354 2597
-470 942 -627 1283 -1066 2320 -106 250 -195 461 -200 468 -4 9 -51 -94 -119
-265z"/>
</g>
</svg>
