<?xml version="1.0" encoding="UTF-8"?>
<!DOCTYPE svg PUBLIC "-//W3C//DTD SVG 1.1//EN" "http://www.w3.org/Graphics/SVG/1.1/DTD/svg11.dtd">
<svg xmlns="http://www.w3.org/2000/svg" version="1.1" width="1067px" height="1067px" style="shape-rendering:geometricPrecision; text-rendering:geometricPrecision; image-rendering:optimizeQuality; fill-rule:evenodd; clip-rule:evenodd" xmlns:xlink="http://www.w3.org/1999/xlink">
<g><path style="opacity:0.999" fill="#2b2f3a" d="M 1066.5,218.5 C 1066.5,428.833 1066.5,639.167 1066.5,849.5C 1050.32,946.376 996.982,1013.88 906.5,1052C 887.808,1058.59 868.808,1063.42 849.5,1066.5C 639.167,1066.5 428.833,1066.5 218.5,1066.5C 121.586,1050.3 54.0863,996.971 16,906.5C 8.00078,884.837 3.00078,862.503 1,839.5C 0.333333,635.833 0.333333,432.167 1,228.5C 10.617,142.639 52.117,77.4727 125.5,33C 154.493,16.6689 185.493,6.3356 218.5,2C 323.648,0.844227 428.815,0.344227 534,0.5C 639.185,0.344227 744.352,0.844227 849.5,2C 946.642,17.7898 1014.14,70.9565 1052,161.5C 1058.59,180.192 1063.42,199.192 1066.5,218.5 Z"/></g>
<g><path style="opacity:1" fill="#1792d0" d="M 532.5,165.5 C 554.598,216.38 576.765,267.38 599,318.5C 635.462,397.091 673.796,474.758 714,551.5C 746.324,613.484 779.157,675.151 812.5,736.5C 781.193,720.221 748.193,707.721 713.5,699C 759.516,723.02 801.683,752.52 840,787.5C 859.912,824.993 880.079,862.326 900.5,899.5C 899.998,900.521 899.332,900.688 898.5,900C 846.432,869.465 792.766,841.798 737.5,817C 697.815,799.716 656.815,786.549 614.5,777.5C 614.167,776.667 613.833,775.833 613.5,775C 620.687,737.234 618.521,700.068 607,663.5C 599.034,640.033 585.534,620.533 566.5,605C 545.845,591.894 524.845,591.228 503.5,603C 485.823,615.683 472.99,632.183 465,652.5C 454.099,679.803 449.433,708.136 451,737.5C 452.081,750.566 453.581,763.566 455.5,776.5C 398.154,788.783 343.154,807.949 290.5,834C 248.705,854.728 207.705,876.728 167.5,900C 166.668,900.688 166.002,900.521 165.5,899.5C 258.507,734.31 348.174,567.476 434.5,399C 465.04,423.44 498.707,442.44 535.5,456C 503.639,433.49 474.139,407.99 447,379.5C 446.15,377.99 445.317,376.49 444.5,375C 475.641,305.889 504.975,236.055 532.5,165.5 Z"/></g>
</svg>
