<?xml version="1.0" encoding="UTF-8"?>
<!DOCTYPE svg PUBLIC "-//W3C//DTD SVG 1.1//EN" "http://www.w3.org/Graphics/SVG/1.1/DTD/svg11.dtd">
<svg xmlns="http://www.w3.org/2000/svg" version="1.1" width="1067px" height="1067px" style="shape-rendering:geometricPrecision; text-rendering:geometricPrecision; image-rendering:optimizeQuality; fill-rule:evenodd; clip-rule:evenodd" xmlns:xlink="http://www.w3.org/1999/xlink">
<g><path style="opacity:0.999" fill="#000000" d="M 1066.5,218.5 C 1066.5,428.833 1066.5,639.167 1066.5,849.5C 1050.32,946.376 996.982,1013.88 906.5,1052C 887.808,1058.59 868.808,1063.42 849.5,1066.5C 639.167,1066.5 428.833,1066.5 218.5,1066.5C 121.586,1050.3 54.0863,996.971 16,906.5C 8.00078,884.837 3.00078,862.503 1,839.5C 0.333333,635.833 0.333333,432.167 1,228.5C 10.617,142.639 52.117,77.4727 125.5,33C 154.493,16.6689 185.493,6.3356 218.5,2C 323.648,0.844227 428.815,0.344227 534,0.5C 639.185,0.344227 744.352,0.844227 849.5,2C 946.642,17.7898 1014.14,70.9565 1052,161.5C 1058.59,180.192 1063.42,199.192 1066.5,218.5 Z"/></g>
<g><path style="opacity:1" fill="#121212" d="M 562.5,178.5 C 560.833,178.5 559.167,178.5 557.5,178.5C 557.5,220.167 557.5,261.833 557.5,303.5C 556.335,261.669 556.169,219.669 557,177.5C 559.118,176.261 560.951,176.595 562.5,178.5 Z"/></g>
<g><path style="opacity:1" fill="#fefefe" d="M 562.5,179.5 C 563.29,180.794 564.29,181.961 565.5,183C 568.06,183.384 570.394,184.217 572.5,185.5C 574.566,187.199 576.9,188.532 579.5,189.5C 581.167,190.833 582.833,192.167 584.5,193.5C 588.754,195.749 592.754,198.415 596.5,201.5C 598.045,202.452 599.712,202.785 601.5,202.5C 602.605,203.6 603.938,204.267 605.5,204.5C 607.147,206.326 609.147,207.66 611.5,208.5C 614.074,210.024 616.741,211.358 619.5,212.5C 619.973,213.906 620.973,214.573 622.5,214.5C 625.686,217.241 629.353,219.241 633.5,220.5C 635.167,221.833 636.833,223.167 638.5,224.5C 640.03,226.346 642.03,227.346 644.5,227.5C 646.289,228.877 648.289,229.877 650.5,230.5C 652.484,233.164 655.151,234.831 658.5,235.5C 660.033,237.245 662.033,238.245 664.5,238.5C 664.842,239.338 665.508,239.672 666.5,239.5C 668.566,241.199 670.9,242.532 673.5,243.5C 675.034,245.369 677.034,246.702 679.5,247.5C 680.048,249.532 681.381,250.532 683.5,250.5C 688.368,253.434 693.368,256.1 698.5,258.5C 699.605,259.6 700.938,260.267 702.5,260.5C 702.973,261.906 703.973,262.573 705.5,262.5C 707.566,264.199 709.9,265.532 712.5,266.5C 714.566,268.199 716.9,269.532 719.5,270.5C 721.566,272.199 723.9,273.532 726.5,274.5C 727.048,276.532 728.381,277.532 730.5,277.5C 732.547,279.075 734.881,280.075 737.5,280.5C 738.29,281.401 739.29,282.068 740.5,282.5C 741.899,283.89 743.566,284.89 745.5,285.5C 746.659,287.25 748.326,288.25 750.5,288.5C 750.842,289.338 751.508,289.672 752.5,289.5C 753.59,290.857 754.924,291.857 756.5,292.5C 758.34,294.669 760.674,296.002 763.5,296.5C 764.391,297.11 765.391,297.443 766.5,297.5C 766.973,298.906 767.973,299.573 769.5,299.5C 770.492,299.328 771.158,299.662 771.5,300.5C 771.973,301.906 772.973,302.573 774.5,302.5C 776.034,304.369 778.034,305.702 780.5,306.5C 784.272,308.934 788.272,310.934 792.5,312.5C 792.953,313.458 793.619,314.292 794.5,315C 798.415,317.097 802.415,318.931 806.5,320.5C 806.833,321.167 807.167,321.833 807.5,322.5C 809.03,324.346 811.03,325.346 813.5,325.5C 816.762,328.253 820.429,330.253 824.5,331.5C 828.431,334.011 832.431,336.345 836.5,338.5C 836.973,339.906 837.973,340.573 839.5,340.5C 840.287,342.104 841.62,342.771 843.5,342.5C 843.833,342.5 844.167,342.5 844.5,342.5C 844.649,343.552 844.483,344.552 844,345.5C 842.348,346.399 840.848,347.399 839.5,348.5C 837.326,348.75 835.659,349.75 834.5,351.5C 833.833,351.5 833.167,351.5 832.5,351.5C 828.131,353.346 824.131,355.679 820.5,358.5C 816.442,360.4 812.775,362.733 809.5,365.5C 808.448,365.351 807.448,365.517 806.5,366C 804.681,366.74 803.348,367.907 802.5,369.5C 801.329,370.345 799.995,371.011 798.5,371.5C 795.052,372.39 792.052,374.057 789.5,376.5C 787.973,376.427 786.973,377.094 786.5,378.5C 785.713,380.104 784.38,380.771 782.5,380.5C 780.973,380.427 779.973,381.094 779.5,382.5C 776.9,383.468 774.566,384.801 772.5,386.5C 770.034,387.298 768.034,388.631 766.5,390.5C 761.432,391.59 757.099,393.924 753.5,397.5C 750.669,398.079 748.336,399.412 746.5,401.5C 743.9,402.468 741.566,403.801 739.5,405.5C 734.679,407.608 730.346,410.274 726.5,413.5C 726.167,413.5 725.833,413.5 725.5,413.5C 719.262,416.116 713.596,419.449 708.5,423.5C 707.833,424.167 707.167,424.833 706.5,425.5C 704.326,425.75 702.659,426.75 701.5,428.5C 701.167,428.5 700.833,428.5 700.5,428.5C 696.353,429.759 692.686,431.759 689.5,434.5C 684.996,436.011 680.996,438.344 677.5,441.5C 675.152,441.592 673.486,442.592 672.5,444.5C 669.081,445.708 665.747,447.208 662.5,449C 661.619,449.708 660.953,450.542 660.5,451.5C 657.454,451.725 655.121,453.058 653.5,455.5C 650.9,456.468 648.566,457.801 646.5,459.5C 637.312,463.709 628.645,468.709 620.5,474.5C 617.454,474.725 615.121,476.058 613.5,478.5C 613.027,479.906 612.027,480.573 610.5,480.5C 607.149,481.898 603.816,483.398 600.5,485C 598.907,485.949 597.574,487.115 596.5,488.5C 596.167,488.5 595.833,488.5 595.5,488.5C 591.446,491.135 587.112,493.302 582.5,495C 580.959,496.371 579.625,497.871 578.5,499.5C 573.5,502.167 568.5,504.833 563.5,507.5C 559.491,508.59 556.158,510.59 553.5,513.5C 550.009,514.503 546.675,516.003 543.5,518C 541.382,519.049 539.716,520.549 538.5,522.5C 537.508,522.328 536.842,522.662 536.5,523.5C 535.833,523.5 535.167,523.5 534.5,523.5C 531.136,522.439 527.803,521.439 524.5,520.5C 521.939,517.283 518.605,515.283 514.5,514.5C 512.566,513.89 510.899,512.89 509.5,511.5C 507.526,510.094 505.526,508.594 503.5,507C 502.207,506.51 500.873,506.343 499.5,506.5C 499.027,505.094 498.027,504.427 496.5,504.5C 490.918,499.542 484.584,495.875 477.5,493.5C 476.167,492.833 474.833,492.167 473.5,491.5C 470.69,488.864 467.69,486.364 464.5,484C 463.207,483.51 461.873,483.343 460.5,483.5C 459.833,482.833 459.167,482.167 458.5,481.5C 455.129,478.481 451.129,476.481 446.5,475.5C 443.755,473.432 440.755,471.766 437.5,470.5C 435.139,466.982 431.805,464.982 427.5,464.5C 426.078,463.075 424.411,462.075 422.5,461.5C 419.947,460.113 417.614,458.28 415.5,456C 413.348,454.587 411.014,453.754 408.5,453.5C 405.054,449.6 400.72,446.933 395.5,445.5C 392.144,444.389 389.144,442.723 386.5,440.5C 384.685,437.593 382.019,436.259 378.5,436.5C 376.815,434.877 374.815,433.544 372.5,432.5C 369.758,429.579 366.425,427.579 362.5,426.5C 358.005,422.749 353.005,419.749 347.5,417.5C 345.833,416.833 344.167,416.167 342.5,415.5C 341.341,413.75 339.674,412.75 337.5,412.5C 332.975,407.398 327.308,404.064 320.5,402.5C 318.223,401.551 316.223,400.218 314.5,398.5C 311.496,395.379 307.829,393.379 303.5,392.5C 286.922,382.542 270.255,372.875 253.5,363.5C 253.047,362.542 252.381,361.708 251.5,361C 247.914,359.232 244.247,357.732 240.5,356.5C 238.168,353.728 235.168,352.061 231.5,351.5C 229.853,349.674 227.853,348.34 225.5,347.5C 223.959,346.333 222.625,345 221.5,343.5C 224.915,341.161 228.248,338.827 231.5,336.5C 234.546,336.275 236.879,334.942 238.5,332.5C 239.167,332.5 239.833,332.5 240.5,332.5C 243.546,332.275 245.879,330.942 247.5,328.5C 247.833,327.833 248.167,327.167 248.5,326.5C 250.933,326.727 252.599,325.727 253.5,323.5C 253.833,323.5 254.167,323.5 254.5,323.5C 257.78,322.193 260.78,320.527 263.5,318.5C 265.404,318.262 266.738,317.262 267.5,315.5C 267.833,315.5 268.167,315.5 268.5,315.5C 271.267,314.568 273.933,313.401 276.5,312C 277.381,311.292 278.047,310.458 278.5,309.5C 281.546,309.275 283.879,307.942 285.5,305.5C 289.425,304.421 292.758,302.421 295.5,299.5C 298.022,298.989 300.355,297.989 302.5,296.5C 304.674,296.25 306.341,295.25 307.5,293.5C 308.167,293.5 308.5,293.167 308.5,292.5C 309.167,292.167 309.833,291.833 310.5,291.5C 312.404,291.262 313.738,290.262 314.5,288.5C 314.833,288.5 315.167,288.5 315.5,288.5C 318.267,287.568 320.933,286.401 323.5,285C 324.381,284.292 325.047,283.458 325.5,282.5C 327.027,282.573 328.027,281.906 328.5,280.5C 331.326,280.002 333.66,278.669 335.5,276.5C 340.719,273.919 346.052,271.419 351.5,269C 354.726,266.263 358.059,263.763 361.5,261.5C 364.546,261.275 366.879,259.942 368.5,257.5C 373.683,256.572 378.016,254.072 381.5,250C 384.488,249.498 387.155,248.331 389.5,246.5C 393.651,245.791 396.984,243.791 399.5,240.5C 401.456,239.508 403.456,238.508 405.5,237.5C 408.1,236.532 410.434,235.199 412.5,233.5C 413.833,232.833 414.833,231.833 415.5,230.5C 417.027,230.573 418.027,229.906 418.5,228.5C 419.492,228.672 420.158,228.338 420.5,227.5C 424.083,225.64 427.749,223.973 431.5,222.5C 435.173,221 438.506,219 441.5,216.5C 442.833,215.833 443.833,214.833 444.5,213.5C 447.546,213.275 449.879,211.942 451.5,209.5C 452.167,209.5 452.833,209.5 453.5,209.5C 456.546,209.275 458.879,207.942 460.5,205.5C 460.833,204.833 461.167,204.167 461.5,203.5C 463.38,203.771 464.713,203.104 465.5,201.5C 468.1,200.532 470.434,199.199 472.5,197.5C 474.38,197.771 475.713,197.104 476.5,195.5C 478.404,195.262 479.738,194.262 480.5,192.5C 482.967,192.245 484.967,191.245 486.5,189.5C 489.671,188.564 492.338,186.897 494.5,184.5C 497.619,183.683 500.619,182.683 503.5,181.5C 504.499,221.997 504.832,262.663 504.5,303.5C 502.596,303.738 501.262,304.738 500.5,306.5C 499.833,306.5 499.167,306.5 498.5,306.5C 496.973,306.427 495.973,307.094 495.5,308.5C 493.033,308.755 491.033,309.755 489.5,311.5C 487.034,312.298 485.034,313.631 483.5,315.5C 482.5,315.833 481.833,316.5 481.5,317.5C 480.833,317.5 480.167,317.5 479.5,317.5C 477.821,317.285 476.821,317.952 476.5,319.5C 474.099,320.049 471.765,320.882 469.5,322C 468.619,322.708 467.953,323.542 467.5,324.5C 465.152,324.592 463.486,325.592 462.5,327.5C 460.483,328.529 458.483,329.529 456.5,330.5C 454.973,330.427 453.973,331.094 453.5,332.5C 452.167,332.5 451.5,333.167 451.5,334.5C 449.938,334.733 448.605,335.4 447.5,336.5C 445.517,336.157 444.183,336.824 443.5,338.5C 440.329,339.436 437.662,341.103 435.5,343.5C 434.833,343.5 434.5,343.833 434.5,344.5C 432.716,344.893 431.05,345.559 429.5,346.5C 427.821,346.285 426.821,346.952 426.5,348.5C 424.77,349.026 423.436,350.026 422.5,351.5C 421.833,351.5 421.167,351.5 420.5,351.5C 418.847,351.66 417.514,352.326 416.5,353.5C 414.322,354.657 412.322,355.99 410.5,357.5C 407.9,358.468 405.566,359.801 403.5,361.5C 401.596,361.738 400.262,362.738 399.5,364.5C 398.391,364.557 397.391,364.89 396.5,365.5C 393.638,366.247 391.638,367.914 390.5,370.5C 389.848,371.449 389.514,372.615 389.5,374C 389.307,376.008 389.974,377.508 391.5,378.5C 391.833,378.5 392.167,378.5 392.5,378.5C 392.973,379.906 393.973,380.573 395.5,380.5C 397.662,382.897 400.329,384.564 403.5,385.5C 405.566,387.199 407.9,388.532 410.5,389.5C 412.566,391.199 414.9,392.532 417.5,393.5C 419.15,396.061 421.484,397.727 424.5,398.5C 424.833,398.5 425.167,398.5 425.5,398.5C 428.239,401.421 431.572,403.421 435.5,404.5C 440.315,407.547 445.315,410.213 450.5,412.5C 452.566,414.199 454.9,415.532 457.5,416.5C 459.566,418.199 461.9,419.532 464.5,420.5C 464.973,421.906 465.973,422.573 467.5,422.5C 469.53,425.182 472.197,426.849 475.5,427.5C 477.216,429.025 479.216,430.025 481.5,430.5C 482.492,430.328 483.158,430.662 483.5,431.5C 484.262,433.262 485.596,434.262 487.5,434.5C 488.486,436.408 490.152,437.408 492.5,437.5C 495.828,439.166 499.162,440.832 502.5,442.5C 502.842,443.338 503.508,443.672 504.5,443.5C 504.973,444.906 505.973,445.573 507.5,445.5C 508.833,446.167 510.167,446.833 511.5,447.5C 512.802,449.822 514.802,451.155 517.5,451.5C 517.804,452.15 518.137,452.817 518.5,453.5C 521.325,454.255 523.991,455.255 526.5,456.5C 526.611,457.117 526.944,457.617 527.5,458C 532.829,459.129 537.162,457.629 540.5,453.5C 541.167,453.5 541.833,453.5 542.5,453.5C 544.404,453.262 545.738,452.262 546.5,450.5C 546.833,450.5 547.167,450.5 547.5,450.5C 549.404,450.262 550.738,449.262 551.5,447.5C 555.554,444.865 559.888,442.698 564.5,441C 565.381,440.292 566.047,439.458 566.5,438.5C 569.546,438.275 571.879,436.942 573.5,434.5C 578.529,433.779 582.529,431.446 585.5,427.5C 587.674,427.25 589.341,426.25 590.5,424.5C 591.167,424.5 591.833,424.5 592.5,424.5C 595.546,424.275 597.879,422.942 599.5,420.5C 602.915,418.161 606.248,415.827 609.5,413.5C 613.299,412.985 616.299,411.319 618.5,408.5C 621.481,408.818 623.815,407.818 625.5,405.5C 625.833,404.833 626.167,404.167 626.5,403.5C 628.38,403.771 629.713,403.104 630.5,401.5C 632.027,401.573 633.027,400.906 633.5,399.5C 636.326,399.002 638.66,397.669 640.5,395.5C 644.721,393.946 648.721,391.946 652.5,389.5C 655.478,388.011 658.478,386.511 661.5,385C 662.381,384.292 663.047,383.458 663.5,382.5C 665.848,382.408 667.514,381.408 668.5,379.5C 670.017,379.489 671.184,378.823 672,377.5C 672.796,374.961 672.629,372.628 671.5,370.5C 670.123,366.795 667.456,364.461 663.5,363.5C 662.833,363.5 662.167,363.5 661.5,363.5C 661.158,362.662 660.492,362.328 659.5,362.5C 659.027,361.094 658.027,360.427 656.5,360.5C 656.158,359.662 655.492,359.328 654.5,359.5C 653.475,357.799 651.975,356.465 650,355.5C 644.702,352.101 639.202,349.101 633.5,346.5C 633.027,345.094 632.027,344.427 630.5,344.5C 629.833,344.5 629.167,344.5 628.5,344.5C 627.306,343.728 626.306,342.728 625.5,341.5C 622.947,339.416 619.947,338.083 616.5,337.5C 616.047,336.542 615.381,335.708 614.5,335C 607.015,330.832 599.682,326.665 592.5,322.5C 591.101,321.11 589.434,320.11 587.5,319.5C 586.609,318.89 585.609,318.557 584.5,318.5C 584.027,317.094 583.027,316.427 581.5,316.5C 580.833,316.5 580.167,316.5 579.5,316.5C 578.833,315.167 577.833,314.167 576.5,313.5C 574.967,311.755 572.967,310.755 570.5,310.5C 569.07,309.463 567.403,308.796 565.5,308.5C 565.167,307.833 564.833,307.167 564.5,306.5C 562.544,305.508 560.544,304.508 558.5,303.5C 559.171,262.17 559.504,220.837 559.5,179.5C 560.5,179.5 561.5,179.5 562.5,179.5 Z"/></g>
<g><path style="opacity:1" fill="#7f7f7f" d="M 562.5,179.5 C 564.828,181.3 567.495,182.467 570.5,183C 571.381,183.708 572.047,184.542 572.5,185.5C 570.394,184.217 568.06,183.384 565.5,183C 564.29,181.961 563.29,180.794 562.5,179.5 Z"/></g>
<g><path style="opacity:1" fill="#a9a9a9" d="M 562.5,178.5 C 562.5,178.833 562.5,179.167 562.5,179.5C 561.5,179.5 560.5,179.5 559.5,179.5C 559.504,220.837 559.171,262.17 558.5,303.5C 558.167,303.5 557.833,303.5 557.5,303.5C 557.5,261.833 557.5,220.167 557.5,178.5C 559.167,178.5 560.833,178.5 562.5,178.5 Z"/></g>
<g><path style="opacity:1" fill="#606060" d="M 572.5,185.5 C 575.546,185.725 577.879,187.058 579.5,189.5C 576.9,188.532 574.566,187.199 572.5,185.5 Z"/></g>
<g><path style="opacity:1" fill="#636363" d="M 494.5,184.5 C 492.338,186.897 489.671,188.564 486.5,189.5C 488.662,187.103 491.329,185.436 494.5,184.5 Z"/></g>
<g><path style="opacity:1" fill="#4d4d4d" d="M 579.5,189.5 C 582.707,190.179 585.707,191.346 588.5,193C 589.381,193.708 590.047,194.542 590.5,195.5C 588.685,194.37 586.685,193.704 584.5,193.5C 582.833,192.167 581.167,190.833 579.5,189.5 Z"/></g>
<g><path style="opacity:1" fill="#5e5e5e" d="M 486.5,189.5 C 484.967,191.245 482.967,192.245 480.5,192.5C 482.033,190.755 484.033,189.755 486.5,189.5 Z"/></g>
<g><path style="opacity:1" fill="#6b6b6b" d="M 480.5,192.5 C 479.738,194.262 478.404,195.262 476.5,195.5C 477.262,193.738 478.596,192.738 480.5,192.5 Z"/></g>
<g><path style="opacity:1" fill="#b0afb0" d="M 584.5,193.5 C 586.685,193.704 588.685,194.37 590.5,195.5C 592.289,196.877 594.289,197.877 596.5,198.5C 596.973,199.906 597.973,200.573 599.5,200.5C 599.842,201.338 600.508,201.672 601.5,201.5C 601.5,201.833 601.5,202.167 601.5,202.5C 599.712,202.785 598.045,202.452 596.5,201.5C 592.754,198.415 588.754,195.749 584.5,193.5 Z"/></g>
<g><path style="opacity:1" fill="#636363" d="M 505.5,303.5 C 505.833,262.495 505.5,221.495 504.5,180.5C 503.893,180.624 503.56,180.957 503.5,181.5C 500.619,182.683 497.619,183.683 494.5,184.5C 497.959,181.56 501.959,179.56 506.5,178.5C 506.832,220.337 506.499,262.003 505.5,303.5 Z"/></g>
<g><path style="opacity:1" fill="#7f7f7f" d="M 476.5,195.5 C 475.713,197.104 474.38,197.771 472.5,197.5C 473.514,196.326 474.847,195.66 476.5,195.5 Z"/></g>
<g><path style="opacity:1" fill="#c7c7c7" d="M 503.5,181.5 C 503.56,180.957 503.893,180.624 504.5,180.5C 505.5,221.495 505.833,262.495 505.5,303.5C 505.167,303.5 504.833,303.5 504.5,303.5C 504.832,262.663 504.499,221.997 503.5,181.5 Z"/></g>
<g><path style="opacity:1" fill="#505050" d="M 472.5,197.5 C 470.434,199.199 468.1,200.532 465.5,201.5C 467.121,199.058 469.454,197.725 472.5,197.5 Z"/></g>
<g><path style="opacity:1" fill="#424242" d="M 596.5,198.5 C 598.027,198.427 599.027,199.094 599.5,200.5C 597.973,200.573 596.973,199.906 596.5,198.5 Z"/></g>
<g><path style="opacity:1" fill="#4f4f4f" d="M 601.5,202.5 C 601.5,202.167 601.5,201.833 601.5,201.5C 603.404,201.738 604.738,202.738 605.5,204.5C 603.938,204.267 602.605,203.6 601.5,202.5 Z"/></g>
<g><path style="opacity:1" fill="#5f5f5f" d="M 465.5,201.5 C 464.713,203.104 463.38,203.771 461.5,203.5C 462.514,202.326 463.847,201.66 465.5,201.5 Z"/></g>
<g><path style="opacity:1" fill="#636363" d="M 461.5,203.5 C 461.167,204.167 460.833,204.833 460.5,205.5C 459.833,205.5 459.167,205.5 458.5,205.5C 458.973,204.094 459.973,203.427 461.5,203.5 Z"/></g>
<g><path style="opacity:1" fill="#717171" d="M 458.5,205.5 C 458.027,206.906 457.027,207.573 455.5,207.5C 455.973,206.094 456.973,205.427 458.5,205.5 Z"/></g>
<g><path style="opacity:1" fill="#868686" d="M 605.5,204.5 C 607.403,204.796 609.07,205.463 610.5,206.5C 610.833,207.167 611.167,207.833 611.5,208.5C 609.147,207.66 607.147,206.326 605.5,204.5 Z"/></g>
<g><path style="opacity:1" fill="#5d5d5d" d="M 454.5,207.5 C 454.167,208.167 453.833,208.833 453.5,209.5C 452.833,209.5 452.167,209.5 451.5,209.5C 451.973,208.094 452.973,207.427 454.5,207.5 Z"/></g>
<g><path style="opacity:1" fill="#c9c9c9" d="M 458.5,205.5 C 459.167,205.5 459.833,205.5 460.5,205.5C 458.879,207.942 456.546,209.275 453.5,209.5C 453.833,208.833 454.167,208.167 454.5,207.5C 454.833,207.5 455.167,207.5 455.5,207.5C 457.027,207.573 458.027,206.906 458.5,205.5 Z"/></g>
<g><path style="opacity:1" fill="#525252" d="M 610.5,206.5 C 613.782,208.14 616.782,210.14 619.5,212.5C 616.741,211.358 614.074,210.024 611.5,208.5C 611.167,207.833 610.833,207.167 610.5,206.5 Z"/></g>
<g><path style="opacity:1" fill="#656565" d="M 451.5,209.5 C 449.879,211.942 447.546,213.275 444.5,213.5C 446.566,211.801 448.9,210.468 451.5,209.5 Z"/></g>
<g><path style="opacity:1" fill="#6f6f6f" d="M 619.5,212.5 C 621.027,212.427 622.027,213.094 622.5,214.5C 620.973,214.573 619.973,213.906 619.5,212.5 Z"/></g>
<g><path style="opacity:1" fill="#7b7b7b" d="M 444.5,213.5 C 443.833,214.833 442.833,215.833 441.5,216.5C 441.167,216.5 440.833,216.5 440.5,216.5C 441.262,214.738 442.596,213.738 444.5,213.5 Z"/></g>
<g><path style="opacity:1" fill="#5e5e5e" d="M 622.5,214.5 C 625.707,215.179 628.707,216.346 631.5,218C 632.381,218.708 633.047,219.542 633.5,220.5C 629.353,219.241 625.686,217.241 622.5,214.5 Z"/></g>
<g><path style="opacity:1" fill="#b8b8b8" d="M 440.5,216.5 C 440.833,216.5 441.167,216.5 441.5,216.5C 438.506,219 435.173,221 431.5,222.5C 431.833,221.833 432.167,221.167 432.5,220.5C 434.853,218.657 437.52,217.323 440.5,216.5 Z"/></g>
<g><path style="opacity:1" fill="#444444" d="M 633.5,220.5 C 636.707,221.179 639.707,222.346 642.5,224C 643.381,224.708 644.047,225.542 644.5,226.5C 642.685,225.37 640.685,224.704 638.5,224.5C 636.833,223.167 635.167,221.833 633.5,220.5 Z"/></g>
<g><path style="opacity:1" fill="#676767" d="M 432.5,220.5 C 432.167,221.167 431.833,221.833 431.5,222.5C 427.749,223.973 424.083,225.64 420.5,227.5C 424.008,224.43 428.008,222.097 432.5,220.5 Z"/></g>
<g><path style="opacity:1" fill="#afafaf" d="M 638.5,224.5 C 640.685,224.704 642.685,225.37 644.5,226.5C 644.5,226.833 644.5,227.167 644.5,227.5C 642.03,227.346 640.03,226.346 638.5,224.5 Z"/></g>
<g><path style="opacity:1" fill="#6d6d6d" d="M 418.5,228.5 C 418.027,229.906 417.027,230.573 415.5,230.5C 415.973,229.094 416.973,228.427 418.5,228.5 Z"/></g>
<g><path style="opacity:1" fill="#434343" d="M 644.5,227.5 C 644.5,227.167 644.5,226.833 644.5,226.5C 647.1,227.468 649.434,228.801 651.5,230.5C 651.167,230.5 650.833,230.5 650.5,230.5C 648.289,229.877 646.289,228.877 644.5,227.5 Z"/></g>
<g><path style="opacity:1" fill="#7e7e7e" d="M 650.5,230.5 C 650.833,230.5 651.167,230.5 651.5,230.5C 653.259,231.871 655.259,232.871 657.5,233.5C 658.298,233.957 658.631,234.624 658.5,235.5C 655.151,234.831 652.484,233.164 650.5,230.5 Z"/></g>
<g><path style="opacity:1" fill="#787878" d="M 415.5,230.5 C 414.833,231.833 413.833,232.833 412.5,233.5C 411.167,233.833 409.833,234.167 408.5,234.5C 410.566,232.801 412.9,231.468 415.5,230.5 Z"/></g>
<g><path style="opacity:1" fill="#6a6a6a" d="M 407.5,234.5 C 406.833,235.5 406.167,236.5 405.5,237.5C 403.456,238.508 401.456,239.508 399.5,240.5C 399.167,240.5 398.833,240.5 398.5,240.5C 400.903,237.791 403.903,235.791 407.5,234.5 Z"/></g>
<g><path style="opacity:1" fill="#cccccc" d="M 412.5,233.5 C 410.434,235.199 408.1,236.532 405.5,237.5C 406.167,236.5 406.833,235.5 407.5,234.5C 407.833,234.5 408.167,234.5 408.5,234.5C 409.833,234.167 411.167,233.833 412.5,233.5 Z"/></g>
<g><path style="opacity:1" fill="#727272" d="M 658.5,235.5 C 660.967,235.755 662.967,236.755 664.5,238.5C 662.033,238.245 660.033,237.245 658.5,235.5 Z"/></g>
<g><path style="opacity:1" fill="#454545" d="M 666.5,239.5 C 669.546,239.725 671.879,241.058 673.5,243.5C 670.9,242.532 668.566,241.199 666.5,239.5 Z"/></g>
<g><path style="opacity:1" fill="#707070" d="M 397.5,240.5 C 396.147,242.738 394.147,244.071 391.5,244.5C 393.034,242.631 395.034,241.298 397.5,240.5 Z"/></g>
<g><path style="opacity:1" fill="#d5d5d5" d="M 397.5,240.5 C 397.833,240.5 398.167,240.5 398.5,240.5C 398.833,240.5 399.167,240.5 399.5,240.5C 396.984,243.791 393.651,245.791 389.5,246.5C 389.833,245.833 390.167,245.167 390.5,244.5C 390.833,244.5 391.167,244.5 391.5,244.5C 394.147,244.071 396.147,242.738 397.5,240.5 Z"/></g>
<g><path style="opacity:1" fill="#6b6b6b" d="M 673.5,243.5 C 676.198,243.845 678.198,245.178 679.5,247.5C 677.034,246.702 675.034,245.369 673.5,243.5 Z"/></g>
<g><path style="opacity:1" fill="#b1b1b1" d="M 679.5,247.5 C 681.153,247.66 682.486,248.326 683.5,249.5C 683.5,249.833 683.5,250.167 683.5,250.5C 681.381,250.532 680.048,249.532 679.5,247.5 Z"/></g>
<g><path style="opacity:1" fill="#767676" d="M 390.5,244.5 C 390.167,245.167 389.833,245.833 389.5,246.5C 387.155,248.331 384.488,249.498 381.5,250C 378.016,254.072 373.683,256.572 368.5,257.5C 375.354,252.303 382.688,247.97 390.5,244.5 Z"/></g>
<g><path style="opacity:1" fill="#6f6f6f" d="M 683.5,250.5 C 683.5,250.167 683.5,249.833 683.5,249.5C 688.67,251.784 693.67,254.451 698.5,257.5C 698.5,257.833 698.5,258.167 698.5,258.5C 693.368,256.1 688.368,253.434 683.5,250.5 Z"/></g>
<g><path style="opacity:1" fill="#3e3d3e" d="M 698.5,258.5 C 698.5,258.167 698.5,257.833 698.5,257.5C 700.544,258.508 702.544,259.508 704.5,260.5C 703.833,260.5 703.167,260.5 702.5,260.5C 700.938,260.267 699.605,259.6 698.5,258.5 Z"/></g>
<g><path style="opacity:1" fill="#6b6b6b" d="M 368.5,257.5 C 366.879,259.942 364.546,261.275 361.5,261.5C 363.566,259.801 365.9,258.468 368.5,257.5 Z"/></g>
<g><path style="opacity:1" fill="#7a7a7a" d="M 702.5,260.5 C 703.167,260.5 703.833,260.5 704.5,260.5C 704.833,261.167 705.167,261.833 705.5,262.5C 703.973,262.573 702.973,261.906 702.5,260.5 Z"/></g>
<g><path style="opacity:1" fill="#727272" d="M 705.5,262.5 C 708.546,262.725 710.879,264.058 712.5,266.5C 709.9,265.532 707.566,264.199 705.5,262.5 Z"/></g>
<g><path style="opacity:1" fill="#646464" d="M 712.5,266.5 C 715.546,266.725 717.879,268.058 719.5,270.5C 716.9,269.532 714.566,268.199 712.5,266.5 Z"/></g>
<g><path style="opacity:1" fill="#7c7c7c" d="M 361.5,261.5 C 358.059,263.763 354.726,266.263 351.5,269C 346.052,271.419 340.719,273.919 335.5,276.5C 343.656,270.691 352.323,265.691 361.5,261.5 Z"/></g>
<g><path style="opacity:1" fill="#6b6b6b" d="M 719.5,270.5 C 722.546,270.725 724.879,272.058 726.5,274.5C 723.9,273.532 721.566,272.199 719.5,270.5 Z"/></g>
<g><path style="opacity:1" fill="#b4b4b4" d="M 726.5,274.5 C 727.833,275.167 729.167,275.833 730.5,276.5C 730.5,276.833 730.5,277.167 730.5,277.5C 728.381,277.532 727.048,276.532 726.5,274.5 Z"/></g>
<g><path style="opacity:1" fill="#6a6a6a" d="M 335.5,276.5 C 333.66,278.669 331.326,280.002 328.5,280.5C 330.336,278.412 332.669,277.079 335.5,276.5 Z"/></g>
<g><path style="opacity:1" fill="#606060" d="M 730.5,277.5 C 730.5,277.167 730.5,276.833 730.5,276.5C 733.1,277.468 735.434,278.801 737.5,280.5C 734.881,280.075 732.547,279.075 730.5,277.5 Z"/></g>
<g><path style="opacity:1" fill="#777777" d="M 328.5,280.5 C 328.027,281.906 327.027,282.573 325.5,282.5C 325.973,281.094 326.973,280.427 328.5,280.5 Z"/></g>
<g><path style="opacity:1" fill="#464646" d="M 740.5,282.5 C 743.238,282.706 745.572,283.706 747.5,285.5C 746.833,285.5 746.167,285.5 745.5,285.5C 743.566,284.89 741.899,283.89 740.5,282.5 Z"/></g>
<g><path style="opacity:1" fill="#7d7d7d" d="M 325.5,282.5 C 325.047,283.458 324.381,284.292 323.5,285C 320.933,286.401 318.267,287.568 315.5,288.5C 318.158,285.59 321.491,283.59 325.5,282.5 Z"/></g>
<g><path style="opacity:1" fill="#797979" d="M 745.5,285.5 C 746.167,285.5 746.833,285.5 747.5,285.5C 748.9,286.1 749.9,287.1 750.5,288.5C 748.326,288.25 746.659,287.25 745.5,285.5 Z"/></g>
<g><path style="opacity:1" fill="#7d7d7d" d="M 314.5,288.5 C 313.738,290.262 312.404,291.262 310.5,291.5C 311.262,289.738 312.596,288.738 314.5,288.5 Z"/></g>
<g><path style="opacity:1" fill="#555555" d="M 752.5,289.5 C 754.967,289.755 756.967,290.755 758.5,292.5C 757.833,292.5 757.167,292.5 756.5,292.5C 754.924,291.857 753.59,290.857 752.5,289.5 Z"/></g>
<g><path style="opacity:1" fill="#616161" d="M 308.5,292.5 C 308.5,293.167 308.167,293.5 307.5,293.5C 306.391,293.557 305.391,293.89 304.5,294.5C 305.183,292.824 306.517,292.157 308.5,292.5 Z"/></g>
<g><path style="opacity:1" fill="#b9b9b9" d="M 756.5,292.5 C 757.167,292.5 757.833,292.5 758.5,292.5C 758.842,293.338 759.508,293.672 760.5,293.5C 760.973,294.906 761.973,295.573 763.5,295.5C 763.5,295.833 763.5,296.167 763.5,296.5C 760.674,296.002 758.34,294.669 756.5,292.5 Z"/></g>
<g><path style="opacity:1" fill="#494a49" d="M 760.5,293.5 C 762.027,293.427 763.027,294.094 763.5,295.5C 761.973,295.573 760.973,294.906 760.5,293.5 Z"/></g>
<g><path style="opacity:1" fill="#aaaaaa" d="M 307.5,293.5 C 306.341,295.25 304.674,296.25 302.5,296.5C 302.5,296.167 302.5,295.833 302.5,295.5C 302.842,294.662 303.508,294.328 304.5,294.5C 305.391,293.89 306.391,293.557 307.5,293.5 Z"/></g>
<g><path style="opacity:1" fill="#5f5f5f" d="M 763.5,296.5 C 763.5,296.167 763.5,295.833 763.5,295.5C 765.027,295.427 766.027,296.094 766.5,297.5C 765.391,297.443 764.391,297.11 763.5,296.5 Z"/></g>
<g><path style="opacity:1" fill="#656565" d="M 302.5,295.5 C 302.5,295.833 302.5,296.167 302.5,296.5C 300.355,297.989 298.022,298.989 295.5,299.5C 297.336,297.412 299.669,296.079 302.5,295.5 Z"/></g>
<g><path style="opacity:1" fill="#737373" d="M 766.5,297.5 C 768.027,297.427 769.027,298.094 769.5,299.5C 767.973,299.573 766.973,298.906 766.5,297.5 Z"/></g>
<g><path style="opacity:1" fill="#5a5a5a" d="M 295.5,299.5 C 292.758,302.421 289.425,304.421 285.5,305.5C 285.953,304.542 286.619,303.708 287.5,303C 290.064,301.604 292.731,300.437 295.5,299.5 Z"/></g>
<g><path style="opacity:1" fill="#828282" d="M 771.5,300.5 C 773.027,300.427 774.027,301.094 774.5,302.5C 772.973,302.573 771.973,301.906 771.5,300.5 Z"/></g>
<g><path style="opacity:1" fill="#aaaaaa" d="M 774.5,302.5 C 776.784,302.975 778.784,303.975 780.5,305.5C 780.5,305.833 780.5,306.167 780.5,306.5C 778.034,305.702 776.034,304.369 774.5,302.5 Z"/></g>
<g><path style="opacity:1" fill="#5d5d5d" d="M 504.5,303.5 C 503.738,305.262 502.404,306.262 500.5,306.5C 501.262,304.738 502.596,303.738 504.5,303.5 Z"/></g>
<g><path style="opacity:1" fill="#a7a7a7" d="M 558.5,303.5 C 560.544,304.508 562.544,305.508 564.5,306.5C 563.833,306.5 563.167,306.5 562.5,306.5C 560.596,306.262 559.262,305.262 558.5,303.5 Z"/></g>
<g><path style="opacity:1" fill="#8a8a8a" d="M 498.5,306.5 C 498.027,307.906 497.027,308.573 495.5,308.5C 495.973,307.094 496.973,306.427 498.5,306.5 Z"/></g>
<g><path style="opacity:1" fill="#656565" d="M 562.5,306.5 C 563.167,306.5 563.833,306.5 564.5,306.5C 564.833,307.167 565.167,307.833 565.5,308.5C 563.973,308.573 562.973,307.906 562.5,306.5 Z"/></g>
<g><path style="opacity:1" fill="#767676" d="M 285.5,305.5 C 283.879,307.942 281.546,309.275 278.5,309.5C 280.566,307.801 282.9,306.468 285.5,305.5 Z"/></g>
<g><path style="opacity:1" fill="#686868" d="M 780.5,306.5 C 780.5,306.167 780.5,305.833 780.5,305.5C 785.024,307.043 789.024,309.377 792.5,312.5C 788.272,310.934 784.272,308.934 780.5,306.5 Z"/></g>
<g><path style="opacity:1" fill="#696969" d="M 565.5,308.5 C 567.403,308.796 569.07,309.463 570.5,310.5C 568.302,310.88 566.635,310.213 565.5,308.5 Z"/></g>
<g><path style="opacity:1" fill="#9d9d9d" d="M 495.5,308.5 C 493.967,310.245 491.967,311.245 489.5,311.5C 491.033,309.755 493.033,308.755 495.5,308.5 Z"/></g>
<g><path style="opacity:1" fill="#727272" d="M 278.5,309.5 C 278.047,310.458 277.381,311.292 276.5,312C 273.933,313.401 271.267,314.568 268.5,315.5C 271.158,312.59 274.491,310.59 278.5,309.5 Z"/></g>
<g><path style="opacity:1" fill="#c3c3c3" d="M 570.5,310.5 C 572.967,310.755 574.967,311.755 576.5,313.5C 575.167,313.167 573.833,312.833 572.5,312.5C 571.5,312.167 570.833,311.5 570.5,310.5 Z"/></g>
<g><path style="opacity:1" fill="#949494" d="M 489.5,311.5 C 488.328,313.539 486.662,314.872 484.5,315.5C 484.167,315.5 483.833,315.5 483.5,315.5C 485.034,313.631 487.034,312.298 489.5,311.5 Z"/></g>
<g><path style="opacity:1" fill="#767676" d="M 572.5,312.5 C 573.833,312.833 575.167,313.167 576.5,313.5C 577.833,314.167 578.833,315.167 579.5,316.5C 576.9,315.532 574.566,314.199 572.5,312.5 Z"/></g>
<g><path style="opacity:1" fill="#737373" d="M 267.5,315.5 C 266.738,317.262 265.404,318.262 263.5,318.5C 264.262,316.738 265.596,315.738 267.5,315.5 Z"/></g>
<g><path style="opacity:1" fill="#3c3c3c" d="M 483.5,315.5 C 483.833,315.5 484.167,315.5 484.5,315.5C 484.027,316.906 483.027,317.573 481.5,317.5C 481.833,316.5 482.5,315.833 483.5,315.5 Z"/></g>
<g><path style="opacity:1" fill="#b4b4b4" d="M 479.5,317.5 C 478.71,318.401 477.71,319.068 476.5,319.5C 476.821,317.952 477.821,317.285 479.5,317.5 Z"/></g>
<g><path style="opacity:1" fill="#4c4c4c" d="M 579.5,316.5 C 580.167,316.5 580.833,316.5 581.5,316.5C 581.973,317.906 582.973,318.573 584.5,318.5C 584.5,318.833 584.5,319.167 584.5,319.5C 582.067,319.727 580.401,318.727 579.5,316.5 Z"/></g>
<g><path style="opacity:1" fill="#b0b0b0" d="M 581.5,316.5 C 583.027,316.427 584.027,317.094 584.5,318.5C 582.973,318.573 581.973,317.906 581.5,316.5 Z"/></g>
<g><path style="opacity:1" fill="#575757" d="M 792.5,312.5 C 797.827,314.159 802.493,316.826 806.5,320.5C 802.415,318.931 798.415,317.097 794.5,315C 793.619,314.292 792.953,313.458 792.5,312.5 Z"/></g>
<g><path style="opacity:1" fill="#2e2e2e" d="M 479.5,317.5 C 480.167,317.5 480.833,317.5 481.5,317.5C 480.514,319.408 478.848,320.408 476.5,320.5C 476.5,320.167 476.5,319.833 476.5,319.5C 477.71,319.068 478.71,318.401 479.5,317.5 Z"/></g>
<g><path style="opacity:1" fill="#949494" d="M 584.5,319.5 C 584.5,319.167 584.5,318.833 584.5,318.5C 585.609,318.557 586.609,318.89 587.5,319.5C 587.833,320.167 588.167,320.833 588.5,321.5C 586.938,321.267 585.605,320.6 584.5,319.5 Z"/></g>
<g><path style="opacity:1" fill="#757575" d="M 263.5,318.5 C 260.78,320.527 257.78,322.193 254.5,323.5C 256.748,320.607 259.748,318.94 263.5,318.5 Z"/></g>
<g><path style="opacity:1" fill="#c4c4c4" d="M 587.5,319.5 C 589.434,320.11 591.101,321.11 592.5,322.5C 591.833,322.5 591.167,322.5 590.5,322.5C 589.508,322.672 588.842,322.338 588.5,321.5C 588.167,320.833 587.833,320.167 587.5,319.5 Z"/></g>
<g><path style="opacity:1" fill="#a6a6a6" d="M 476.5,319.5 C 476.5,319.833 476.5,320.167 476.5,320.5C 473.9,321.468 471.566,322.801 469.5,324.5C 468.833,324.5 468.167,324.5 467.5,324.5C 467.953,323.542 468.619,322.708 469.5,322C 471.765,320.882 474.099,320.049 476.5,319.5 Z"/></g>
<g><path style="opacity:1" fill="#c0bfc0" d="M 807.5,322.5 C 809.685,322.704 811.685,323.37 813.5,324.5C 813.5,324.833 813.5,325.167 813.5,325.5C 811.03,325.346 809.03,324.346 807.5,322.5 Z"/></g>
<g><path style="opacity:1" fill="#494949" d="M 806.5,320.5 C 809.546,320.725 811.879,322.058 813.5,324.5C 811.685,323.37 809.685,322.704 807.5,322.5C 807.167,321.833 806.833,321.167 806.5,320.5 Z"/></g>
<g><path style="opacity:1" fill="#303030" d="M 476.5,320.5 C 474.879,322.942 472.546,324.275 469.5,324.5C 471.566,322.801 473.9,321.468 476.5,320.5 Z"/></g>
<g><path style="opacity:1" fill="#606060" d="M 253.5,323.5 C 252.599,325.727 250.933,326.727 248.5,326.5C 249.899,325.11 251.566,324.11 253.5,323.5 Z"/></g>
<g><path style="opacity:1" fill="#b2b2b2" d="M 467.5,324.5 C 466.41,325.857 465.076,326.857 463.5,327.5C 463.167,327.5 462.833,327.5 462.5,327.5C 463.486,325.592 465.152,324.592 467.5,324.5 Z"/></g>
<g><path style="opacity:1" fill="#303030" d="M 467.5,324.5 C 468.167,324.5 468.833,324.5 469.5,324.5C 468.313,326.975 466.313,327.975 463.5,327.5C 465.076,326.857 466.41,325.857 467.5,324.5 Z"/></g>
<g><path style="opacity:1" fill="#868686" d="M 813.5,325.5 C 813.5,325.167 813.5,324.833 813.5,324.5C 817.17,326.505 820.836,328.505 824.5,330.5C 824.5,330.833 824.5,331.167 824.5,331.5C 820.429,330.253 816.762,328.253 813.5,325.5 Z"/></g>
<g><path style="opacity:1" fill="#656565" d="M 248.5,326.5 C 248.167,327.167 247.833,327.833 247.5,328.5C 246.833,328.5 246.167,328.5 245.5,328.5C 245.973,327.094 246.973,326.427 248.5,326.5 Z"/></g>
<g><path style="opacity:1" fill="#5d5d5d" d="M 245.5,328.5 C 244.713,330.104 243.38,330.771 241.5,330.5C 242.514,329.326 243.847,328.66 245.5,328.5 Z"/></g>
<g><path style="opacity:1" fill="#474747" d="M 462.5,327.5 C 462.833,327.5 463.167,327.5 463.5,327.5C 461.418,329.88 458.751,331.546 455.5,332.5C 455.833,331.833 456.167,331.167 456.5,330.5C 458.483,329.529 460.483,328.529 462.5,327.5 Z"/></g>
<g><path style="opacity:1" fill="#8e8e8e" d="M 590.5,322.5 C 591.167,322.5 591.833,322.5 592.5,322.5C 599.682,326.665 607.015,330.832 614.5,335C 615.381,335.708 616.047,336.542 616.5,337.5C 607.312,333.291 598.645,328.291 590.5,322.5 Z"/></g>
<g><path style="opacity:1" fill="#616161" d="M 241.5,330.5 C 241.167,331.167 240.833,331.833 240.5,332.5C 239.833,332.5 239.167,332.5 238.5,332.5C 238.973,331.094 239.973,330.427 241.5,330.5 Z"/></g>
<g><path style="opacity:1" fill="#cbcbcb" d="M 245.5,328.5 C 246.167,328.5 246.833,328.5 247.5,328.5C 245.879,330.942 243.546,332.275 240.5,332.5C 240.833,331.833 241.167,331.167 241.5,330.5C 243.38,330.771 244.713,330.104 245.5,328.5 Z"/></g>
<g><path style="opacity:1" fill="#a2a2a2" d="M 456.5,330.5 C 456.167,331.167 455.833,331.833 455.5,332.5C 454.833,332.5 454.167,332.5 453.5,332.5C 453.973,331.094 454.973,330.427 456.5,330.5 Z"/></g>
<g><path style="opacity:1" fill="#606060" d="M 453.5,332.5 C 454.167,332.5 454.833,332.5 455.5,332.5C 454.486,333.674 453.153,334.34 451.5,334.5C 451.5,333.167 452.167,332.5 453.5,332.5 Z"/></g>
<g><path style="opacity:1" fill="#5d5d5d" d="M 824.5,331.5 C 824.5,331.167 824.5,330.833 824.5,330.5C 829.5,332.664 834.167,335.331 838.5,338.5C 837.833,338.5 837.167,338.5 836.5,338.5C 832.431,336.345 828.431,334.011 824.5,331.5 Z"/></g>
<g><path style="opacity:1" fill="#6d6d6d" d="M 238.5,332.5 C 236.879,334.942 234.546,336.275 231.5,336.5C 233.566,334.801 235.9,333.468 238.5,332.5 Z"/></g>
<g><path style="opacity:1" fill="#959595" d="M 447.5,336.5 C 446.329,337.345 444.995,338.011 443.5,338.5C 444.183,336.824 445.517,336.157 447.5,336.5 Z"/></g>
<g><path style="opacity:1" fill="#2c2c2c" d="M 451.5,334.5 C 449.797,337.632 447.13,339.299 443.5,339.5C 443.5,339.167 443.5,338.833 443.5,338.5C 444.995,338.011 446.329,337.345 447.5,336.5C 448.605,335.4 449.938,334.733 451.5,334.5 Z"/></g>
<g><path style="opacity:1" fill="#959595" d="M 616.5,337.5 C 619.947,338.083 622.947,339.416 625.5,341.5C 624.833,341.5 624.167,341.5 623.5,341.5C 620.9,340.532 618.566,339.199 616.5,337.5 Z"/></g>
<g><path style="opacity:1" fill="#a6a6a6" d="M 836.5,338.5 C 837.167,338.5 837.833,338.5 838.5,338.5C 838.833,339.167 839.167,339.833 839.5,340.5C 837.973,340.573 836.973,339.906 836.5,338.5 Z"/></g>
<g><path style="opacity:1" fill="#494949" d="M 838.5,338.5 C 840.027,338.427 841.027,339.094 841.5,340.5C 840.833,340.5 840.167,340.5 839.5,340.5C 839.167,339.833 838.833,339.167 838.5,338.5 Z"/></g>
<g><path style="opacity:1" fill="#7b7b7b" d="M 443.5,338.5 C 443.5,338.833 443.5,339.167 443.5,339.5C 440.926,341.024 438.259,342.358 435.5,343.5C 437.662,341.103 440.329,339.436 443.5,338.5 Z"/></g>
<g><path style="opacity:1" fill="#b8b8b8" d="M 839.5,340.5 C 840.167,340.5 840.833,340.5 841.5,340.5C 842.167,341.167 842.833,341.833 843.5,342.5C 841.62,342.771 840.287,342.104 839.5,340.5 Z"/></g>
<g><path style="opacity:1" fill="#575757" d="M 623.5,341.5 C 624.167,341.5 624.833,341.5 625.5,341.5C 626.306,342.728 627.306,343.728 628.5,344.5C 626.067,344.727 624.401,343.727 623.5,341.5 Z"/></g>
<g><path style="opacity:1" fill="#616161" d="M 628.5,344.5 C 629.167,344.5 629.833,344.5 630.5,344.5C 630.833,345.167 631.167,345.833 631.5,346.5C 629.973,346.573 628.973,345.906 628.5,344.5 Z"/></g>
<g><path style="opacity:1" fill="#b6b6b6" d="M 630.5,344.5 C 632.027,344.427 633.027,345.094 633.5,346.5C 632.833,346.5 632.167,346.5 631.5,346.5C 631.167,345.833 630.833,345.167 630.5,344.5 Z"/></g>
<g><path style="opacity:1" fill="#c1c1c1" d="M 221.5,343.5 C 222.625,345 223.959,346.333 225.5,347.5C 224.167,347.167 222.833,346.833 221.5,346.5C 221.167,346.5 220.833,346.5 220.5,346.5C 220.263,345.209 220.596,344.209 221.5,343.5 Z"/></g>
<g><path style="opacity:1" fill="#b0b0b0" d="M 429.5,346.5 C 429.5,346.833 429.5,347.167 429.5,347.5C 428.508,347.328 427.842,347.662 427.5,348.5C 427.167,348.5 426.833,348.5 426.5,348.5C 426.821,346.952 427.821,346.285 429.5,346.5 Z"/></g>
<g><path style="opacity:1" fill="#3b3b3b" d="M 434.5,344.5 C 433.514,346.408 431.848,347.408 429.5,347.5C 429.5,347.167 429.5,346.833 429.5,346.5C 431.05,345.559 432.716,344.893 434.5,344.5 Z"/></g>
<g><path style="opacity:1" fill="#808080" d="M 221.5,346.5 C 222.833,346.833 224.167,347.167 225.5,347.5C 227.853,348.34 229.853,349.674 231.5,351.5C 234.144,353.723 237.144,355.389 240.5,356.5C 243.577,358.387 246.577,360.554 249.5,363C 250.793,363.49 252.127,363.657 253.5,363.5C 270.255,372.875 286.922,382.542 303.5,392.5C 305.862,394.244 308.195,396.077 310.5,398C 311.793,398.49 313.127,398.657 314.5,398.5C 316.223,400.218 318.223,401.551 320.5,402.5C 325.673,406.569 331.34,409.902 337.5,412.5C 338.486,414.408 340.152,415.408 342.5,415.5C 344.167,416.167 345.833,416.833 347.5,417.5C 351.528,422.17 356.528,425.17 362.5,426.5C 365.061,429.717 368.395,431.717 372.5,432.5C 374.815,433.544 376.815,434.877 378.5,436.5C 380.612,438.771 383.279,440.104 386.5,440.5C 389.144,442.723 392.144,444.389 395.5,445.5C 395.953,446.458 396.619,447.292 397.5,448C 401.303,449.655 404.97,451.489 408.5,453.5C 411.614,455.393 414.614,457.559 417.5,460C 419.154,460.608 420.821,461.108 422.5,461.5C 424.411,462.075 426.078,463.075 427.5,464.5C 430.061,467.717 433.395,469.717 437.5,470.5C 440.755,471.766 443.755,473.432 446.5,475.5C 449.803,478.827 453.803,480.827 458.5,481.5C 459.167,482.167 459.833,482.833 460.5,483.5C 464.56,486.53 468.893,489.197 473.5,491.5C 474.833,492.167 476.167,492.833 477.5,493.5C 477.953,494.458 478.619,495.292 479.5,496C 485.097,499.129 490.764,501.962 496.5,504.5C 498.027,504.427 499.027,505.094 499.5,506.5C 502.337,508.967 505.671,510.633 509.5,511.5C 510.899,512.89 512.566,513.89 514.5,514.5C 517.426,517.115 520.759,519.115 524.5,520.5C 527.258,523.901 530.591,524.901 534.5,523.5C 535.167,523.5 535.833,523.5 536.5,523.5C 536.027,524.906 535.027,525.573 533.5,525.5C 532.5,645.666 532.167,765.999 532.5,886.5C 531.5,886.5 530.5,886.5 529.5,886.5C 526.537,882.675 522.537,880.342 517.5,879.5C 517.047,878.542 516.381,877.708 515.5,877C 512.707,875.346 509.707,874.179 506.5,873.5C 506.027,872.094 505.027,871.427 503.5,871.5C 502.486,870.326 501.153,869.66 499.5,869.5C 499.631,868.624 499.298,867.957 498.5,867.5C 496.026,866.68 493.693,865.68 491.5,864.5C 489.222,861.528 486.222,859.861 482.5,859.5C 480.797,856.368 478.13,854.701 474.5,854.5C 471.996,853.416 469.663,852.083 467.5,850.5C 465.621,848.582 463.621,846.749 461.5,845C 459.846,844.392 458.179,843.892 456.5,843.5C 455.833,843.5 455.167,843.5 454.5,843.5C 451.166,839.369 446.832,836.703 441.5,835.5C 439.879,833.058 437.546,831.725 434.5,831.5C 432.879,829.058 430.546,827.725 427.5,827.5C 425.621,825.582 423.621,823.749 421.5,822C 420.207,821.51 418.873,821.343 417.5,821.5C 415.955,820.36 414.288,819.36 412.5,818.5C 410.441,816.406 408.107,814.572 405.5,813C 404.207,812.51 402.873,812.343 401.5,812.5C 401.027,811.094 400.027,810.427 398.5,810.5C 395.887,809.531 393.553,808.197 391.5,806.5C 391.027,805.094 390.027,804.427 388.5,804.5C 388.047,803.542 387.381,802.708 386.5,802C 383.707,800.346 380.707,799.179 377.5,798.5C 377.027,797.094 376.027,796.427 374.5,796.5C 372.614,793.052 369.614,791.386 365.5,791.5C 365.027,790.094 364.027,789.427 362.5,789.5C 359.339,788.087 356.339,786.42 353.5,784.5C 352.71,783.206 351.71,782.039 350.5,781C 343.975,778.11 337.642,774.943 331.5,771.5C 329.142,770.126 326.808,768.793 324.5,767.5C 324.063,765.926 323.063,764.759 321.5,764C 318.707,762.346 315.707,761.179 312.5,760.5C 310.621,758.582 308.621,756.749 306.5,755C 301.065,752.584 295.731,750.084 290.5,747.5C 287.296,746.617 284.629,744.95 282.5,742.5C 274.1,736.574 265.1,731.574 255.5,727.5C 252.996,726.416 250.663,725.083 248.5,723.5C 247.266,721.602 247.599,719.935 249.5,718.5C 250.262,716.738 251.596,715.738 253.5,715.5C 259.811,712.344 266.145,709.178 272.5,706C 273.381,705.292 274.047,704.458 274.5,703.5C 277.969,704.113 279.969,702.779 280.5,699.5C 281.167,699.5 281.833,699.5 282.5,699.5C 285.063,699.269 286.73,697.935 287.5,695.5C 294.587,693.067 300.921,689.4 306.5,684.5C 309.546,684.275 311.879,682.942 313.5,680.5C 317.299,679.985 320.299,678.319 322.5,675.5C 325.049,675.613 327.382,674.946 329.5,673.5C 336.21,668.819 342.877,664.152 349.5,659.5C 350.167,659.5 350.833,659.5 351.5,659.5C 354.271,659.421 356.937,659.921 359.5,661C 360.889,663.188 362.889,664.354 365.5,664.5C 367.677,664.586 369.677,665.253 371.5,666.5C 376.782,670.583 382.449,673.917 388.5,676.5C 390.662,678.897 393.329,680.564 396.5,681.5C 397.167,681.833 397.833,682.167 398.5,682.5C 400.978,685.786 404.311,687.786 408.5,688.5C 409.899,689.89 411.566,690.89 413.5,691.5C 415.619,693.717 418.286,695.05 421.5,695.5C 424.061,698.717 427.395,700.717 431.5,701.5C 433.336,703.588 435.669,704.921 438.5,705.5C 439.585,707.587 441.251,708.92 443.5,709.5C 446.833,711.167 450.167,712.833 453.5,714.5C 454.687,716.975 456.687,717.975 459.5,717.5C 461.195,719.344 463.195,720.677 465.5,721.5C 466.274,722.147 467.274,722.48 468.5,722.5C 470.355,722.66 471.688,721.993 472.5,720.5C 473.6,719.395 474.267,718.062 474.5,716.5C 474.833,716.5 475.167,716.5 475.5,716.5C 476.833,690.509 477.5,664.175 477.5,637.5C 477.333,611.167 477.167,584.833 477,558.5C 476.617,557.944 476.117,557.611 475.5,557.5C 475.167,555.167 473.833,553.833 471.5,553.5C 469.967,551.755 467.967,550.755 465.5,550.5C 463.879,548.058 461.546,546.725 458.5,546.5C 458.063,544.926 457.063,543.759 455.5,543C 452.707,541.346 449.707,540.179 446.5,539.5C 444.879,537.058 442.546,535.725 439.5,535.5C 437.879,533.058 435.546,531.725 432.5,531.5C 430.338,529.103 427.671,527.436 424.5,526.5C 421.842,523.59 418.509,521.59 414.5,520.5C 412.181,520.008 410.181,519.008 408.5,517.5C 405.842,514.59 402.509,512.59 398.5,511.5C 394.816,508.248 390.483,505.915 385.5,504.5C 382.69,501.864 379.69,499.364 376.5,497C 375.207,496.51 373.873,496.343 372.5,496.5C 372.063,494.926 371.063,493.759 369.5,493C 367.073,491.409 364.407,490.575 361.5,490.5C 359.797,487.368 357.13,485.701 353.5,485.5C 351.879,483.058 349.546,481.725 346.5,481.5C 346.027,480.094 345.027,479.427 343.5,479.5C 342.019,476.113 339.352,474.779 335.5,475.5C 331.248,474.769 328.581,476.435 327.5,480.5C 325.505,524.154 324.839,568.154 325.5,612.5C 324.5,612.833 323.833,613.5 323.5,614.5C 320.293,615.179 317.293,616.346 314.5,618C 313.748,618.671 313.414,619.504 313.5,620.5C 311.833,621.167 310.167,621.833 308.5,622.5C 306.002,623.912 303.336,625.079 300.5,626C 299.748,626.671 299.414,627.504 299.5,628.5C 299.167,628.5 298.833,628.5 298.5,628.5C 292.254,631.13 286.587,634.463 281.5,638.5C 281.167,638.5 280.833,638.5 280.5,638.5C 278.034,639.298 276.034,640.631 274.5,642.5C 273.167,643.167 271.833,643.833 270.5,644.5C 265.653,646.35 261.32,649.017 257.5,652.5C 255.847,652.66 254.514,653.326 253.5,654.5C 247.825,657.069 242.491,660.069 237.5,663.5C 237.167,664.167 236.833,664.833 236.5,665.5C 231.753,666.742 227.42,668.742 223.5,671.5C 221.502,563.505 220.835,455.172 221.5,346.5 Z"/></g>
<g><path style="opacity:1" fill="#464646" d="M 631.5,346.5 C 632.167,346.5 632.833,346.5 633.5,346.5C 633.833,347.167 634.167,347.833 634.5,348.5C 632.973,348.573 631.973,347.906 631.5,346.5 Z"/></g>
<g><path style="opacity:1" fill="#343434" d="M 218.5,343.5 C 218.833,343.5 219.167,343.5 219.5,343.5C 219.5,453.5 219.5,563.5 219.5,673.5C 220.5,673.5 221.5,673.5 222.5,673.5C 222.5,674.167 222.167,674.5 221.5,674.5C 220.5,674.5 219.5,674.5 218.5,674.5C 218.5,564.167 218.5,453.833 218.5,343.5 Z"/></g>
<g><path style="opacity:1" fill="#575757" d="M 231.5,336.5 C 228.248,338.827 224.915,341.161 221.5,343.5C 220.596,344.209 220.263,345.209 220.5,346.5C 219.835,455.505 220.502,564.172 222.5,672.5C 222.5,672.833 222.5,673.167 222.5,673.5C 221.5,673.5 220.5,673.5 219.5,673.5C 219.5,563.5 219.5,453.5 219.5,343.5C 222.996,340.344 226.996,338.011 231.5,336.5 Z"/></g>
<g><path style="opacity:1" fill="#727272" d="M 220.5,346.5 C 220.833,346.5 221.167,346.5 221.5,346.5C 220.835,455.172 221.502,563.505 223.5,671.5C 223.5,672.167 223.167,672.5 222.5,672.5C 220.502,564.172 219.835,455.505 220.5,346.5 Z"/></g>
<g><path style="opacity:1" fill="#343434" d="M 845.5,342.5 C 846.499,452.665 846.833,562.999 846.5,673.5C 845.209,673.737 844.209,673.404 843.5,672.5C 845.498,562.838 846.165,452.838 845.5,342.5 Z"/></g>
<g><path style="opacity:1" fill="#4b4b4b" d="M 844.5,342.5 C 844.833,342.5 845.167,342.5 845.5,342.5C 846.165,452.838 845.498,562.838 843.5,672.5C 825.332,663.371 807.665,653.204 790.5,642C 773.308,632.91 756.642,623.077 740.5,612.5C 739.89,611.609 739.557,610.609 739.5,609.5C 740.665,566.669 740.831,523.669 740,480.5C 739.617,479.944 739.117,479.611 738.5,479.5C 736.804,479.315 735.471,478.481 734.5,477C 731.167,476.333 727.833,476.333 724.5,477C 708.12,488.743 690.787,498.91 672.5,507.5C 670.565,508.15 668.565,508.483 666.5,508.5C 666.719,509.675 666.386,510.675 665.5,511.5C 662.459,513.235 659.792,515.235 657.5,517.5C 650.531,521.954 643.198,525.788 635.5,529C 634.833,530 634.167,531 633.5,532C 628.583,532.88 624.583,535.213 621.5,539C 612.287,543.101 603.62,547.934 595.5,553.5C 592.909,554.254 591.076,555.921 590,558.5C 589.833,584.833 589.667,611.167 589.5,637.5C 589.5,664.175 590.167,690.509 591.5,716.5C 592.156,721.5 594.822,723.167 599.5,721.5C 625.969,706.585 652.302,691.085 678.5,675C 680.5,674.667 682.5,674.333 684.5,674C 692.56,666.97 701.56,661.47 711.5,657.5C 712.5,657.667 713.5,657.833 714.5,658C 721.099,663.603 728.432,667.937 736.5,671C 746.077,678.23 756.41,684.23 767.5,689C 769.585,690.041 771.252,691.541 772.5,693.5C 788.395,701.943 804.061,710.61 819.5,719.5C 819.5,720.5 819.5,721.5 819.5,722.5C 809.999,726.908 800.666,731.908 791.5,737.5C 790.081,740.418 787.748,741.918 784.5,742C 781.633,743.596 778.966,745.429 776.5,747.5C 773.618,748.811 770.618,749.978 767.5,751C 766.619,751.708 765.953,752.542 765.5,753.5C 757.956,756.2 751.29,760.367 745.5,766C 737.596,769.294 729.929,772.961 722.5,777C 711.42,785.386 699.754,793.052 687.5,800C 680.346,801.758 674.013,804.925 668.5,809.5C 664.053,810.615 660.387,812.948 657.5,816.5C 649.339,820.077 641.672,824.411 634.5,829.5C 632.821,829.892 631.154,830.392 629.5,831C 623.165,835.863 616.498,840.03 609.5,843.5C 606.794,846.521 603.461,848.521 599.5,849.5C 597.456,850.031 595.789,851.198 594.5,853C 587.495,855.498 581.162,858.998 575.5,863.5C 572.121,865.031 569.121,867.198 566.5,870C 561.844,871.706 557.51,873.873 553.5,876.5C 547.676,878.663 542.343,881.663 537.5,885.5C 536.713,887.104 535.38,887.771 533.5,887.5C 533.5,766.833 533.5,646.167 533.5,525.5C 535.027,525.573 536.027,524.906 536.5,523.5C 536.842,522.662 537.508,522.328 538.5,522.5C 544.3,520.673 549.3,517.673 553.5,513.5C 556.267,512.568 558.933,511.401 561.5,510C 562.381,509.292 563.047,508.458 563.5,507.5C 568.5,504.833 573.5,502.167 578.5,499.5C 582.086,496.684 586.086,494.517 590.5,493C 592.618,491.951 594.284,490.451 595.5,488.5C 595.833,488.5 596.167,488.5 596.5,488.5C 601.784,486.755 606.451,484.088 610.5,480.5C 612.027,480.573 613.027,479.906 613.5,478.5C 616.1,477.532 618.434,476.199 620.5,474.5C 629.688,470.291 638.355,465.291 646.5,459.5C 649.546,459.275 651.879,457.942 653.5,455.5C 656.1,454.532 658.434,453.199 660.5,451.5C 665.004,449.989 669.004,447.656 672.5,444.5C 674.565,444.047 676.232,443.047 677.5,441.5C 682.169,440.275 686.169,437.941 689.5,434.5C 692.707,433.821 695.707,432.654 698.5,431C 699.381,430.292 700.047,429.458 700.5,428.5C 700.833,428.5 701.167,428.5 701.5,428.5C 703.848,428.408 705.514,427.408 706.5,425.5C 707.167,424.833 707.833,424.167 708.5,423.5C 714.689,420.961 720.356,417.627 725.5,413.5C 725.833,413.5 726.167,413.5 726.5,413.5C 731.443,411.759 735.776,409.092 739.5,405.5C 742.812,405.851 745.145,404.518 746.5,401.5C 749.326,401.002 751.66,399.669 753.5,397.5C 758.09,395.561 762.423,393.227 766.5,390.5C 769.147,390.071 771.147,388.738 772.5,386.5C 774.579,386.029 776.579,385.363 778.5,384.5C 783.562,382.934 787.896,380.267 791.5,376.5C 794.047,375.066 796.381,373.4 798.5,371.5C 799.995,371.011 801.329,370.345 802.5,369.5C 805.317,368.905 807.65,367.572 809.5,365.5C 814.434,364.646 818.434,362.312 821.5,358.5C 825.678,356.914 829.345,354.581 832.5,351.5C 833.167,351.5 833.833,351.5 834.5,351.5C 836.848,351.408 838.514,350.408 839.5,348.5C 840.848,347.399 842.348,346.399 844,345.5C 844.483,344.552 844.649,343.552 844.5,342.5 Z"/></g>
<g><path style="opacity:1" fill="#131313" d="M 218.5,343.5 C 218.5,453.833 218.5,564.167 218.5,674.5C 219.5,674.5 220.5,674.5 221.5,674.5C 220.432,675.434 219.099,675.768 217.5,675.5C 217.167,564.665 217.501,453.999 218.5,343.5 Z"/></g>
<g><path style="opacity:1" fill="#3b3b3b" d="M 426.5,348.5 C 426.833,348.5 427.167,348.5 427.5,348.5C 426.514,350.408 424.848,351.408 422.5,351.5C 423.436,350.026 424.77,349.026 426.5,348.5 Z"/></g>
<g><path style="opacity:1" fill="#828282" d="M 839.5,348.5 C 838.514,350.408 836.848,351.408 834.5,351.5C 835.659,349.75 837.326,348.75 839.5,348.5 Z"/></g>
<g><path style="opacity:1" fill="#c5c5c5" d="M 231.5,351.5 C 235.168,352.061 238.168,353.728 240.5,356.5C 237.144,355.389 234.144,353.723 231.5,351.5 Z"/></g>
<g><path style="opacity:1" fill="#808080" d="M 633.5,346.5 C 639.202,349.101 644.702,352.101 650,355.5C 651.975,356.465 653.475,357.799 654.5,359.5C 647.61,356.206 640.943,352.54 634.5,348.5C 634.167,347.833 633.833,347.167 633.5,346.5 Z"/></g>
<g><path style="opacity:1" fill="#b1b1b1" d="M 420.5,351.5 C 420.167,352.167 419.833,352.833 419.5,353.5C 418.5,353.5 417.5,353.5 416.5,353.5C 417.514,352.326 418.847,351.66 420.5,351.5 Z"/></g>
<g><path style="opacity:1" fill="#6a6a6a" d="M 416.5,353.5 C 417.5,353.5 418.5,353.5 419.5,353.5C 416.947,355.584 413.947,356.917 410.5,357.5C 412.322,355.99 414.322,354.657 416.5,353.5 Z"/></g>
<g><path style="opacity:1" fill="#c0c0c0" d="M 832.5,351.5 C 829.345,354.581 825.678,356.914 821.5,358.5C 821.167,358.5 820.833,358.5 820.5,358.5C 824.131,355.679 828.131,353.346 832.5,351.5 Z"/></g>
<g><path style="opacity:1" fill="#c8c8c8" d="M 240.5,356.5 C 244.247,357.732 247.914,359.232 251.5,361C 252.381,361.708 253.047,362.542 253.5,363.5C 252.127,363.657 250.793,363.49 249.5,363C 246.577,360.554 243.577,358.387 240.5,356.5 Z"/></g>
<g><path style="opacity:1" fill="#888888" d="M 410.5,357.5 C 408.879,359.942 406.546,361.275 403.5,361.5C 405.566,359.801 407.9,358.468 410.5,357.5 Z"/></g>
<g><path style="opacity:1" fill="#6c6c6c" d="M 656.5,360.5 C 658.027,360.427 659.027,361.094 659.5,362.5C 657.973,362.573 656.973,361.906 656.5,360.5 Z"/></g>
<g><path style="opacity:1" fill="#777777" d="M 403.5,361.5 C 402.738,363.262 401.404,364.262 399.5,364.5C 400.262,362.738 401.596,361.738 403.5,361.5 Z"/></g>
<g><path style="opacity:1" fill="#9b9b9b" d="M 820.5,358.5 C 820.833,358.5 821.167,358.5 821.5,358.5C 818.434,362.312 814.434,364.646 809.5,365.5C 812.775,362.733 816.442,360.4 820.5,358.5 Z"/></g>
<g><path style="opacity:1" fill="#565656" d="M 661.5,363.5 C 662.167,363.5 662.833,363.5 663.5,363.5C 663.833,364.167 664.167,364.833 664.5,365.5C 662.973,365.573 661.973,364.906 661.5,363.5 Z"/></g>
<g><path style="opacity:1" fill="#8f8f8f" d="M 663.5,363.5 C 667.456,364.461 670.123,366.795 671.5,370.5C 669.305,368.576 666.972,366.909 664.5,365.5C 664.167,364.833 663.833,364.167 663.5,363.5 Z"/></g>
<g><path style="opacity:1" fill="#464646" d="M 399.5,364.5 C 399.027,365.906 398.027,366.573 396.5,366.5C 396.5,366.167 396.5,365.833 396.5,365.5C 397.391,364.89 398.391,364.557 399.5,364.5 Z"/></g>
<g><path style="opacity:1" fill="#7a7a7a" d="M 396.5,365.5 C 396.5,365.833 396.5,366.167 396.5,366.5C 391.978,368.236 390.312,371.569 391.5,376.5C 390.539,374.735 390.205,372.735 390.5,370.5C 391.638,367.914 393.638,366.247 396.5,365.5 Z"/></g>
<g><path style="opacity:1" fill="#bebebe" d="M 809.5,365.5 C 807.65,367.572 805.317,368.905 802.5,369.5C 803.348,367.907 804.681,366.74 806.5,366C 807.448,365.517 808.448,365.351 809.5,365.5 Z"/></g>
<g><path style="opacity:1" fill="#c0c0c0" d="M 798.5,371.5 C 796.381,373.4 794.047,375.066 791.5,376.5C 790.833,376.5 790.167,376.5 789.5,376.5C 792.052,374.057 795.052,372.39 798.5,371.5 Z"/></g>
<g><path style="opacity:1" fill="#acabac" d="M 390.5,370.5 C 390.205,372.735 390.539,374.735 391.5,376.5C 391.5,377.167 391.5,377.833 391.5,378.5C 389.974,377.508 389.307,376.008 389.5,374C 389.514,372.615 389.848,371.449 390.5,370.5 Z"/></g>
<g><path style="opacity:1" fill="#b4b4b4" d="M 789.5,376.5 C 789.027,377.906 788.027,378.573 786.5,378.5C 786.973,377.094 787.973,376.427 789.5,376.5 Z"/></g>
<g><path style="opacity:1" fill="#575757" d="M 392.5,378.5 C 394.027,378.427 395.027,379.094 395.5,380.5C 393.973,380.573 392.973,379.906 392.5,378.5 Z"/></g>
<g><path style="opacity:1" fill="#7e7d7e" d="M 671.5,370.5 C 672.629,372.628 672.796,374.961 672,377.5C 671.184,378.823 670.017,379.489 668.5,379.5C 671.076,377.112 672.076,374.112 671.5,370.5 Z"/></g>
<g><path style="opacity:1" fill="#777777" d="M 668.5,379.5 C 667.514,381.408 665.848,382.408 663.5,382.5C 664.659,380.75 666.326,379.75 668.5,379.5 Z"/></g>
<g><path style="opacity:1" fill="#afafaf" d="M 782.5,380.5 C 782.027,381.906 781.027,382.573 779.5,382.5C 779.973,381.094 780.973,380.427 782.5,380.5 Z"/></g>
<g><path style="opacity:1" fill="#686868" d="M 789.5,376.5 C 790.167,376.5 790.833,376.5 791.5,376.5C 787.896,380.267 783.562,382.934 778.5,384.5C 778.833,383.833 779.167,383.167 779.5,382.5C 781.027,382.573 782.027,381.906 782.5,380.5C 784.38,380.771 785.713,380.104 786.5,378.5C 788.027,378.573 789.027,377.906 789.5,376.5 Z"/></g>
<g><path style="opacity:1" fill="#616161" d="M 395.5,380.5 C 398.671,381.436 401.338,383.103 403.5,385.5C 400.329,384.564 397.662,382.897 395.5,380.5 Z"/></g>
<g><path style="opacity:1" fill="#808080" d="M 663.5,382.5 C 663.047,383.458 662.381,384.292 661.5,385C 658.478,386.511 655.478,388.011 652.5,389.5C 652.5,389.167 652.5,388.833 652.5,388.5C 655.762,385.747 659.429,383.747 663.5,382.5 Z"/></g>
<g><path style="opacity:1" fill="#b3b3b3" d="M 779.5,382.5 C 779.167,383.167 778.833,383.833 778.5,384.5C 776.579,385.363 774.579,386.029 772.5,386.5C 774.566,384.801 776.9,383.468 779.5,382.5 Z"/></g>
<g><path style="opacity:1" fill="#626262" d="M 403.5,385.5 C 406.546,385.725 408.879,387.058 410.5,389.5C 407.9,388.532 405.566,387.199 403.5,385.5 Z"/></g>
<g><path style="opacity:1" fill="#a1a1a1" d="M 772.5,386.5 C 771.147,388.738 769.147,390.071 766.5,390.5C 768.034,388.631 770.034,387.298 772.5,386.5 Z"/></g>
<g><path style="opacity:1" fill="#5f5f5f" d="M 652.5,388.5 C 652.5,388.833 652.5,389.167 652.5,389.5C 648.721,391.946 644.721,393.946 640.5,395.5C 643.996,392.344 647.996,390.011 652.5,388.5 Z"/></g>
<g><path style="opacity:1" fill="#5f5f5f" d="M 410.5,389.5 C 413.546,389.725 415.879,391.058 417.5,393.5C 414.9,392.532 412.566,391.199 410.5,389.5 Z"/></g>
<g><path style="opacity:1" fill="#b7b7b7" d="M 766.5,390.5 C 762.423,393.227 758.09,395.561 753.5,397.5C 757.099,393.924 761.432,391.59 766.5,390.5 Z"/></g>
<g><path style="opacity:1" fill="#d1d1d1" d="M 303.5,392.5 C 307.829,393.379 311.496,395.379 314.5,398.5C 313.127,398.657 311.793,398.49 310.5,398C 308.195,396.077 305.862,394.244 303.5,392.5 Z"/></g>
<g><path style="opacity:1" fill="#aaaaaa" d="M 417.5,393.5 C 419.483,394.471 421.483,395.471 423.5,396.5C 423.833,397.167 424.167,397.833 424.5,398.5C 421.484,397.727 419.15,396.061 417.5,393.5 Z"/></g>
<g><path style="opacity:1" fill="#565656" d="M 423.5,396.5 C 425.027,396.427 426.027,397.094 426.5,398.5C 426.167,398.5 425.833,398.5 425.5,398.5C 425.167,398.5 424.833,398.5 424.5,398.5C 424.167,397.833 423.833,397.167 423.5,396.5 Z"/></g>
<g><path style="opacity:1" fill="#5c5c5c" d="M 640.5,395.5 C 638.66,397.669 636.326,399.002 633.5,399.5C 635.336,397.412 637.669,396.079 640.5,395.5 Z"/></g>
<g><path style="opacity:1" fill="#a4a4a4" d="M 425.5,398.5 C 425.833,398.5 426.167,398.5 426.5,398.5C 429.414,400.357 432.414,402.023 435.5,403.5C 435.5,403.833 435.5,404.167 435.5,404.5C 431.572,403.421 428.239,401.421 425.5,398.5 Z"/></g>
<g><path style="opacity:1" fill="#696969" d="M 633.5,399.5 C 633.027,400.906 632.027,401.573 630.5,401.5C 630.973,400.094 631.973,399.427 633.5,399.5 Z"/></g>
<g><path style="opacity:1" fill="#b6b5b6" d="M 753.5,397.5 C 751.66,399.669 749.326,401.002 746.5,401.5C 748.336,399.412 750.669,398.079 753.5,397.5 Z"/></g>
<g><path style="opacity:1" fill="#626262" d="M 630.5,401.5 C 629.713,403.104 628.38,403.771 626.5,403.5C 627.514,402.326 628.847,401.66 630.5,401.5 Z"/></g>
<g><path style="opacity:1" fill="#d1d1d1" d="M 320.5,402.5 C 327.308,404.064 332.975,407.398 337.5,412.5C 331.34,409.902 325.673,406.569 320.5,402.5 Z"/></g>
<g><path style="opacity:1" fill="#656565" d="M 435.5,404.5 C 435.5,404.167 435.5,403.833 435.5,403.5C 441.292,405.315 446.292,408.315 450.5,412.5C 445.315,410.213 440.315,407.547 435.5,404.5 Z"/></g>
<g><path style="opacity:1" fill="#616161" d="M 626.5,403.5 C 626.167,404.167 625.833,404.833 625.5,405.5C 624.833,405.5 624.167,405.5 623.5,405.5C 623.973,404.094 624.973,403.427 626.5,403.5 Z"/></g>
<g><path style="opacity:1" fill="#999999" d="M 746.5,401.5 C 745.145,404.518 742.812,405.851 739.5,405.5C 741.566,403.801 743.9,402.468 746.5,401.5 Z"/></g>
<g><path style="opacity:1" fill="#9b9b9b" d="M 623.5,405.5 C 624.167,405.5 624.833,405.5 625.5,405.5C 623.815,407.818 621.481,408.818 618.5,408.5C 619.659,406.75 621.326,405.75 623.5,405.5 Z"/></g>
<g><path style="opacity:1" fill="#7c7c7c" d="M 618.5,408.5 C 616.299,411.319 613.299,412.985 609.5,413.5C 612.22,411.473 615.22,409.807 618.5,408.5 Z"/></g>
<g><path style="opacity:1" fill="#ababab" d="M 739.5,405.5 C 735.776,409.092 731.443,411.759 726.5,413.5C 730.346,410.274 734.679,407.608 739.5,405.5 Z"/></g>
<g><path style="opacity:1" fill="#b3b3b3" d="M 337.5,412.5 C 339.674,412.75 341.341,413.75 342.5,415.5C 340.152,415.408 338.486,414.408 337.5,412.5 Z"/></g>
<g><path style="opacity:1" fill="#606060" d="M 450.5,412.5 C 453.546,412.725 455.879,414.058 457.5,416.5C 454.9,415.532 452.566,414.199 450.5,412.5 Z"/></g>
<g><path style="opacity:1" fill="#bcbcbc" d="M 725.5,413.5 C 720.356,417.627 714.689,420.961 708.5,423.5C 713.596,419.449 719.262,416.116 725.5,413.5 Z"/></g>
<g><path style="opacity:1" fill="#6b6b6b" d="M 609.5,413.5 C 606.248,415.827 602.915,418.161 599.5,420.5C 596.9,421.468 594.566,422.801 592.5,424.5C 591.833,424.5 591.167,424.5 590.5,424.5C 590.953,423.542 591.619,422.708 592.5,422C 598.189,419.156 603.855,416.322 609.5,413.5 Z"/></g>
<g><path style="opacity:1" fill="#626262" d="M 457.5,416.5 C 460.546,416.725 462.879,418.058 464.5,420.5C 461.9,419.532 459.566,418.199 457.5,416.5 Z"/></g>
<g><path style="opacity:1" fill="#717171" d="M 464.5,420.5 C 466.027,420.427 467.027,421.094 467.5,422.5C 465.973,422.573 464.973,421.906 464.5,420.5 Z"/></g>
<g><path style="opacity:1" fill="#c4c4c4" d="M 347.5,417.5 C 353.005,419.749 358.005,422.749 362.5,426.5C 356.528,425.17 351.528,422.17 347.5,417.5 Z"/></g>
<g><path style="opacity:1" fill="#cdcdcd" d="M 599.5,420.5 C 597.879,422.942 595.546,424.275 592.5,424.5C 594.566,422.801 596.9,421.468 599.5,420.5 Z"/></g>
<g><path style="opacity:1" fill="#a6a6a6" d="M 467.5,422.5 C 469.167,423.167 470.833,423.833 472.5,424.5C 472.973,425.906 473.973,426.573 475.5,426.5C 475.5,426.833 475.5,427.167 475.5,427.5C 472.197,426.849 469.53,425.182 467.5,422.5 Z"/></g>
<g><path style="opacity:1" fill="#464646" d="M 472.5,424.5 C 474.027,424.427 475.027,425.094 475.5,426.5C 473.973,426.573 472.973,425.906 472.5,424.5 Z"/></g>
<g><path style="opacity:1" fill="#626262" d="M 590.5,424.5 C 589.341,426.25 587.674,427.25 585.5,427.5C 586.659,425.75 588.326,424.75 590.5,424.5 Z"/></g>
<g><path style="opacity:1" fill="#c8c8c8" d="M 362.5,426.5 C 366.425,427.579 369.758,429.579 372.5,432.5C 368.395,431.717 365.061,429.717 362.5,426.5 Z"/></g>
<g><path style="opacity:1" fill="#5f5f5f" d="M 475.5,427.5 C 475.5,427.167 475.5,426.833 475.5,426.5C 477.966,427.298 479.966,428.631 481.5,430.5C 479.216,430.025 477.216,429.025 475.5,427.5 Z"/></g>
<g><path style="opacity:1" fill="#808080" d="M 706.5,425.5 C 705.514,427.408 703.848,428.408 701.5,428.5C 702.659,426.75 704.326,425.75 706.5,425.5 Z"/></g>
<g><path style="opacity:1" fill="#a1a1a1" d="M 700.5,428.5 C 700.047,429.458 699.381,430.292 698.5,431C 695.707,432.654 692.707,433.821 689.5,434.5C 692.686,431.759 696.353,429.759 700.5,428.5 Z"/></g>
<g><path style="opacity:1" fill="#898989" d="M 483.5,431.5 C 484.609,431.557 485.609,431.89 486.5,432.5C 486.833,433.167 487.167,433.833 487.5,434.5C 485.596,434.262 484.262,433.262 483.5,431.5 Z"/></g>
<g><path style="opacity:1" fill="#8c8c8c" d="M 585.5,427.5 C 582.529,431.446 578.529,433.779 573.5,434.5C 577.164,431.665 581.164,429.332 585.5,427.5 Z"/></g>
<g><path style="opacity:1" fill="#4a4a4a" d="M 486.5,432.5 C 488.027,432.427 489.027,433.094 489.5,434.5C 488.833,434.5 488.167,434.5 487.5,434.5C 487.167,433.833 486.833,433.167 486.5,432.5 Z"/></g>
<g><path style="opacity:1" fill="#cdcdcd" d="M 487.5,434.5 C 488.167,434.5 488.833,434.5 489.5,434.5C 490.29,435.401 491.29,436.068 492.5,436.5C 492.5,436.833 492.5,437.167 492.5,437.5C 490.152,437.408 488.486,436.408 487.5,434.5 Z"/></g>
<g><path style="opacity:1" fill="#777777" d="M 573.5,434.5 C 571.879,436.942 569.546,438.275 566.5,438.5C 568.566,436.801 570.9,435.468 573.5,434.5 Z"/></g>
<g><path style="opacity:1" fill="#c7c7c7" d="M 378.5,436.5 C 382.019,436.259 384.685,437.593 386.5,440.5C 383.279,440.104 380.612,438.771 378.5,436.5 Z"/></g>
<g><path style="opacity:1" fill="#676767" d="M 492.5,437.5 C 492.5,437.167 492.5,436.833 492.5,436.5C 496.509,437.59 499.842,439.59 502.5,442.5C 499.162,440.832 495.828,439.166 492.5,437.5 Z"/></g>
<g><path style="opacity:1" fill="#a7a7a7" d="M 689.5,434.5 C 686.169,437.941 682.169,440.275 677.5,441.5C 680.996,438.344 684.996,436.011 689.5,434.5 Z"/></g>
<g><path style="opacity:1" fill="#b9b9b9" d="M 677.5,441.5 C 676.232,443.047 674.565,444.047 672.5,444.5C 673.486,442.592 675.152,441.592 677.5,441.5 Z"/></g>
<g><path style="opacity:1" fill="#6c6c6c" d="M 566.5,438.5 C 566.047,439.458 565.381,440.292 564.5,441C 559.888,442.698 555.554,444.865 551.5,447.5C 552.716,445.549 554.382,444.049 556.5,443C 559.816,441.398 563.149,439.898 566.5,438.5 Z"/></g>
<g><path style="opacity:1" fill="#676767" d="M 504.5,443.5 C 506.027,443.427 507.027,444.094 507.5,445.5C 505.973,445.573 504.973,444.906 504.5,443.5 Z"/></g>
<g><path style="opacity:1" fill="#bbbbbb" d="M 672.5,444.5 C 669.004,447.656 665.004,449.989 660.5,451.5C 660.953,450.542 661.619,449.708 662.5,449C 665.747,447.208 669.081,445.708 672.5,444.5 Z"/></g>
<g><path style="opacity:1" fill="#787878" d="M 511.5,447.5 C 513.966,448.298 515.966,449.631 517.5,451.5C 514.802,451.155 512.802,449.822 511.5,447.5 Z"/></g>
<g><path style="opacity:1" fill="#a6a6a6" d="M 551.5,447.5 C 550.738,449.262 549.404,450.262 547.5,450.5C 547.833,449.833 548.167,449.167 548.5,448.5C 549.391,447.89 550.391,447.557 551.5,447.5 Z"/></g>
<g><path style="opacity:1" fill="#d3d3d3" d="M 395.5,445.5 C 400.72,446.933 405.054,449.6 408.5,453.5C 404.97,451.489 401.303,449.655 397.5,448C 396.619,447.292 395.953,446.458 395.5,445.5 Z"/></g>
<g><path style="opacity:1" fill="#666666" d="M 548.5,448.5 C 548.167,449.167 547.833,449.833 547.5,450.5C 547.167,450.5 546.833,450.5 546.5,450.5C 546.167,450.5 545.833,450.5 545.5,450.5C 545.973,449.094 546.973,448.427 548.5,448.5 Z"/></g>
<g><path style="opacity:1" fill="#acacac" d="M 545.5,450.5 C 545.833,450.5 546.167,450.5 546.5,450.5C 545.738,452.262 544.404,453.262 542.5,453.5C 542.833,452.833 543.167,452.167 543.5,451.5C 544.167,451.167 544.833,450.833 545.5,450.5 Z"/></g>
<g><path style="opacity:1" fill="#4a4a4a" d="M 543.5,451.5 C 543.167,452.167 542.833,452.833 542.5,453.5C 541.833,453.5 541.167,453.5 540.5,453.5C 540.167,453.5 539.833,453.5 539.5,453.5C 540.514,452.326 541.847,451.66 543.5,451.5 Z"/></g>
<g><path style="opacity:1" fill="#c1c1c1" d="M 660.5,451.5 C 658.434,453.199 656.1,454.532 653.5,455.5C 655.121,453.058 657.454,451.725 660.5,451.5 Z"/></g>
<g><path style="opacity:1" fill="#919191" d="M 517.5,451.5 C 521.112,452.243 524.112,453.91 526.5,456.5C 523.991,455.255 521.325,454.255 518.5,453.5C 518.137,452.817 517.804,452.15 517.5,451.5 Z"/></g>
<g><path style="opacity:1" fill="#cccccc" d="M 408.5,453.5 C 411.014,453.754 413.348,454.587 415.5,456C 417.614,458.28 419.947,460.113 422.5,461.5C 420.821,461.108 419.154,460.608 417.5,460C 414.614,457.559 411.614,455.393 408.5,453.5 Z"/></g>
<g><path style="opacity:1" fill="#848484" d="M 539.5,453.5 C 539.833,453.5 540.167,453.5 540.5,453.5C 537.162,457.629 532.829,459.129 527.5,458C 526.944,457.617 526.611,457.117 526.5,456.5C 531.471,458.173 535.804,457.173 539.5,453.5 Z"/></g>
<g><path style="opacity:1" fill="#aaaaaa" d="M 653.5,455.5 C 651.879,457.942 649.546,459.275 646.5,459.5C 648.566,457.801 650.9,456.468 653.5,455.5 Z"/></g>
<g><path style="opacity:1" fill="#b9b9b9" d="M 646.5,459.5 C 638.355,465.291 629.688,470.291 620.5,474.5C 628.645,468.709 637.312,463.709 646.5,459.5 Z"/></g>
<g><path style="opacity:1" fill="#bebebe" d="M 427.5,464.5 C 431.805,464.982 435.139,466.982 437.5,470.5C 433.395,469.717 430.061,467.717 427.5,464.5 Z"/></g>
<g><path style="opacity:1" fill="#cacaca" d="M 620.5,474.5 C 618.434,476.199 616.1,477.532 613.5,478.5C 615.121,476.058 617.454,474.725 620.5,474.5 Z"/></g>
<g><path style="opacity:1" fill="#3e3e3e" d="M 343.5,479.5 C 341.042,478.067 338.375,477.067 335.5,476.5C 332.675,476.119 330.509,477.119 329,479.5C 328.833,523.669 328.333,567.669 327.5,611.5C 327.5,567.833 327.5,524.167 327.5,480.5C 328.581,476.435 331.248,474.769 335.5,475.5C 339.352,474.779 342.019,476.113 343.5,479.5 Z"/></g>
<g><path style="opacity:1" fill="#d2d2d2" d="M 446.5,475.5 C 451.129,476.481 455.129,478.481 458.5,481.5C 453.803,480.827 449.803,478.827 446.5,475.5 Z"/></g>
<g><path style="opacity:1" fill="#454545" d="M 343.5,479.5 C 345.027,479.427 346.027,480.094 346.5,481.5C 344.973,481.573 343.973,480.906 343.5,479.5 Z"/></g>
<g><path style="opacity:1" fill="#2e2e2e" d="M 738.5,481.5 C 739.499,523.997 739.832,566.663 739.5,609.5C 739.557,610.609 739.89,611.609 740.5,612.5C 738.505,569.179 737.839,525.513 738.5,481.5 Z"/></g>
<g><path style="opacity:1" fill="#676767" d="M 327.5,480.5 C 327.5,524.167 327.5,567.833 327.5,611.5C 327.158,612.338 326.492,612.672 325.5,612.5C 324.839,568.154 325.505,524.154 327.5,480.5 Z"/></g>
<g><path style="opacity:1" fill="#494949" d="M 346.5,481.5 C 349.546,481.725 351.879,483.058 353.5,485.5C 350.9,484.532 348.566,483.199 346.5,481.5 Z"/></g>
<g><path style="opacity:1" fill="#424242" d="M 738.5,479.5 C 739.117,479.611 739.617,479.944 740,480.5C 740.831,523.669 740.665,566.669 739.5,609.5C 739.832,566.663 739.499,523.997 738.5,481.5C 738.5,480.833 738.5,480.167 738.5,479.5 Z"/></g>
<g><path style="opacity:1" fill="#b0b0b0" d="M 610.5,480.5 C 606.451,484.088 601.784,486.755 596.5,488.5C 597.574,487.115 598.907,485.949 600.5,485C 603.816,483.398 607.149,481.898 610.5,480.5 Z"/></g>
<g><path style="opacity:1" fill="#4b4b4b" d="M 353.5,485.5 C 357.13,485.701 359.797,487.368 361.5,490.5C 358.787,488.828 356.12,487.162 353.5,485.5 Z"/></g>
<g><path style="opacity:1" fill="#cccccc" d="M 460.5,483.5 C 461.873,483.343 463.207,483.51 464.5,484C 467.69,486.364 470.69,488.864 473.5,491.5C 468.893,489.197 464.56,486.53 460.5,483.5 Z"/></g>
<g><path style="opacity:1" fill="#b9b9b9" d="M 595.5,488.5 C 594.284,490.451 592.618,491.951 590.5,493C 586.086,494.517 582.086,496.684 578.5,499.5C 579.625,497.871 580.959,496.371 582.5,495C 587.112,493.302 591.446,491.135 595.5,488.5 Z"/></g>
<g><path style="opacity:1" fill="#505050" d="M 361.5,490.5 C 364.407,490.575 367.073,491.409 369.5,493C 371.063,493.759 372.063,494.926 372.5,496.5C 368.313,495.244 364.646,493.244 361.5,490.5 Z"/></g>
<g><path style="opacity:1" fill="#484848" d="M 372.5,496.5 C 373.873,496.343 375.207,496.51 376.5,497C 379.69,499.364 382.69,501.864 385.5,504.5C 380.893,502.197 376.56,499.53 372.5,496.5 Z"/></g>
<g><path style="opacity:1" fill="#c6c6c6" d="M 477.5,493.5 C 484.584,495.875 490.918,499.542 496.5,504.5C 490.764,501.962 485.097,499.129 479.5,496C 478.619,495.292 477.953,494.458 477.5,493.5 Z"/></g>
<g><path style="opacity:1" fill="#494949" d="M 385.5,504.5 C 390.483,505.915 394.816,508.248 398.5,511.5C 393.779,509.718 389.446,507.385 385.5,504.5 Z"/></g>
<g><path style="opacity:1" fill="#c7c7c7" d="M 499.5,506.5 C 500.873,506.343 502.207,506.51 503.5,507C 505.526,508.594 507.526,510.094 509.5,511.5C 505.671,510.633 502.337,508.967 499.5,506.5 Z"/></g>
<g><path style="opacity:1" fill="#323232" d="M 672.5,507.5 C 668.569,512.43 663.569,515.763 657.5,517.5C 659.792,515.235 662.459,513.235 665.5,511.5C 666.386,510.675 666.719,509.675 666.5,508.5C 668.565,508.483 670.565,508.15 672.5,507.5 Z"/></g>
<g><path style="opacity:1" fill="#adadad" d="M 563.5,507.5 C 563.047,508.458 562.381,509.292 561.5,510C 558.933,511.401 556.267,512.568 553.5,513.5C 556.158,510.59 559.491,508.59 563.5,507.5 Z"/></g>
<g><path style="opacity:1" fill="#434343" d="M 398.5,511.5 C 402.509,512.59 405.842,514.59 408.5,517.5C 405.731,516.563 403.064,515.396 400.5,514C 399.619,513.292 398.953,512.458 398.5,511.5 Z"/></g>
<g><path style="opacity:1" fill="#d3d3d3" d="M 514.5,514.5 C 518.605,515.283 521.939,517.283 524.5,520.5C 520.759,519.115 517.426,517.115 514.5,514.5 Z"/></g>
<g><path style="opacity:1" fill="#d6d6d6" d="M 524.5,520.5 C 527.803,521.439 531.136,522.439 534.5,523.5C 530.591,524.901 527.258,523.901 524.5,520.5 Z"/></g>
<g><path style="opacity:1" fill="#aaaaaa" d="M 553.5,513.5 C 549.3,517.673 544.3,520.673 538.5,522.5C 539.716,520.549 541.382,519.049 543.5,518C 546.675,516.003 550.009,514.503 553.5,513.5 Z"/></g>
<g><path style="opacity:1" fill="#4c4c4c" d="M 414.5,520.5 C 418.509,521.59 421.842,523.59 424.5,526.5C 421.731,525.563 419.064,524.396 416.5,523C 415.619,522.292 414.953,521.458 414.5,520.5 Z"/></g>
<g><path style="opacity:1" fill="#656565" d="M 533.5,525.5 C 533.5,646.167 533.5,766.833 533.5,887.5C 531.872,888.853 530.538,888.519 529.5,886.5C 530.5,886.5 531.5,886.5 532.5,886.5C 532.167,765.999 532.5,645.666 533.5,525.5 Z"/></g>
<g><path style="opacity:1" fill="#434343" d="M 424.5,526.5 C 427.671,527.436 430.338,529.103 432.5,531.5C 429.329,530.564 426.662,528.897 424.5,526.5 Z"/></g>
<g><path style="opacity:1" fill="#424242" d="M 432.5,531.5 C 435.546,531.725 437.879,533.058 439.5,535.5C 436.9,534.532 434.566,533.199 432.5,531.5 Z"/></g>
<g><path style="opacity:1" fill="#464646" d="M 439.5,535.5 C 442.546,535.725 444.879,537.058 446.5,539.5C 443.9,538.532 441.566,537.199 439.5,535.5 Z"/></g>
<g><path style="opacity:1" fill="#4e4e4e" d="M 446.5,539.5 C 449.707,540.179 452.707,541.346 455.5,543C 457.063,543.759 458.063,544.926 458.5,546.5C 453.955,544.924 449.955,542.591 446.5,539.5 Z"/></g>
<g><path style="opacity:1" fill="#424242" d="M 458.5,546.5 C 461.546,546.725 463.879,548.058 465.5,550.5C 462.9,549.532 460.566,548.199 458.5,546.5 Z"/></g>
<g><path style="opacity:1" fill="#484848" d="M 465.5,550.5 C 467.967,550.755 469.967,551.755 471.5,553.5C 469.033,553.245 467.033,552.245 465.5,550.5 Z"/></g>
<g><path style="opacity:1" fill="#292929" d="M 471.5,553.5 C 473.833,553.833 475.167,555.167 475.5,557.5C 475.5,610.5 475.5,663.5 475.5,716.5C 475.167,716.5 474.833,716.5 474.5,716.5C 474.667,663.166 474.5,609.832 474,556.5C 472.955,555.627 472.122,554.627 471.5,553.5 Z"/></g>
<g><path style="opacity:1" fill="#616161" d="M 475.5,557.5 C 476.117,557.611 476.617,557.944 477,558.5C 477.167,584.833 477.333,611.167 477.5,637.5C 477.5,664.175 476.833,690.509 475.5,716.5C 475.5,663.5 475.5,610.5 475.5,557.5 Z"/></g>
<g><path style="opacity:1" fill="#1d1d1d" d="M 595.5,553.5 C 594.542,554.962 593.376,556.295 592,557.5C 591.5,610.499 591.333,663.499 591.5,716.5C 590.167,690.509 589.5,664.175 589.5,637.5C 589.667,611.167 589.833,584.833 590,558.5C 591.076,555.921 592.909,554.254 595.5,553.5 Z"/></g>
<g><path style="opacity:1" fill="#3a3a3a" d="M 323.5,614.5 C 320.451,616.863 317.118,618.863 313.5,620.5C 313.414,619.504 313.748,618.671 314.5,618C 317.293,616.346 320.293,615.179 323.5,614.5 Z"/></g>
<g><path style="opacity:1" fill="#393939" d="M 308.5,622.5 C 308.092,623.643 307.425,624.643 306.5,625.5C 303.913,626.054 301.58,627.054 299.5,628.5C 299.414,627.504 299.748,626.671 300.5,626C 303.336,625.079 306.002,623.912 308.5,622.5 Z"/></g>
<g><path style="opacity:1" fill="#3d3d3d" d="M 298.5,628.5 C 293.347,632.641 287.681,635.974 281.5,638.5C 286.587,634.463 292.254,631.13 298.5,628.5 Z"/></g>
<g><path style="opacity:1" fill="#515151" d="M 280.5,638.5 C 279.147,640.738 277.147,642.071 274.5,642.5C 276.034,640.631 278.034,639.298 280.5,638.5 Z"/></g>
<g><path style="opacity:1" fill="#484848" d="M 270.5,644.5 C 266.71,647.903 262.376,650.569 257.5,652.5C 261.32,649.017 265.653,646.35 270.5,644.5 Z"/></g>
<g><path style="opacity:1" fill="#616161" d="M 365.5,664.5 C 362.889,664.354 360.889,663.188 359.5,661C 356.937,659.921 354.271,659.421 351.5,659.5C 351.791,658.351 352.624,657.684 354,657.5C 358.713,658.453 362.547,660.786 365.5,664.5 Z"/></g>
<g><path style="opacity:1" fill="#464646" d="M 253.5,654.5 C 248.872,658.578 243.538,661.578 237.5,663.5C 242.491,660.069 247.825,657.069 253.5,654.5 Z"/></g>
<g><path style="opacity:1" fill="#212121" d="M 236.5,665.5 C 232.481,669.058 227.815,671.725 222.5,673.5C 222.5,673.167 222.5,672.833 222.5,672.5C 223.167,672.5 223.5,672.167 223.5,671.5C 227.42,668.742 231.753,666.742 236.5,665.5 Z"/></g>
<g><path style="opacity:1" fill="#535353" d="M 349.5,659.5 C 342.877,664.152 336.21,668.819 329.5,673.5C 327.382,674.946 325.049,675.613 322.5,675.5C 331.267,669.797 340.267,664.464 349.5,659.5 Z"/></g>
<g><path style="opacity:1" fill="#454545" d="M 322.5,675.5 C 320.299,678.319 317.299,679.985 313.5,680.5C 316.22,678.473 319.22,676.807 322.5,675.5 Z"/></g>
<g><path style="opacity:1" fill="#343434" d="M 388.5,676.5 C 391.671,677.436 394.338,679.103 396.5,681.5C 393.329,680.564 390.662,678.897 388.5,676.5 Z"/></g>
<g><path style="opacity:1" fill="#383838" d="M 313.5,680.5 C 311.879,682.942 309.546,684.275 306.5,684.5C 308.566,682.801 310.9,681.468 313.5,680.5 Z"/></g>
<g><path style="opacity:1" fill="#404040" d="M 398.5,682.5 C 402.509,683.59 405.842,685.59 408.5,688.5C 404.311,687.786 400.978,685.786 398.5,682.5 Z"/></g>
<g><path style="opacity:1" fill="#3c3c3c" d="M 306.5,684.5 C 300.921,689.4 294.587,693.067 287.5,695.5C 293.57,691.442 299.903,687.775 306.5,684.5 Z"/></g>
<g><path style="opacity:1" fill="#2f2f2f" d="M 408.5,688.5 C 410.989,688.241 412.656,689.241 413.5,691.5C 411.566,690.89 409.899,689.89 408.5,688.5 Z"/></g>
<g><path style="opacity:1" fill="#333333" d="M 421.5,695.5 C 425.241,696.885 428.574,698.885 431.5,701.5C 427.395,700.717 424.061,698.717 421.5,695.5 Z"/></g>
<g><path style="opacity:1" fill="#4c4c4c" d="M 287.5,695.5 C 286.73,697.935 285.063,699.269 282.5,699.5C 283.539,697.469 285.205,696.136 287.5,695.5 Z"/></g>
<g><path style="opacity:1" fill="#555555" d="M 280.5,699.5 C 279.969,702.779 277.969,704.113 274.5,703.5C 276.147,701.674 278.147,700.34 280.5,699.5 Z"/></g>
<g><path style="opacity:1" fill="#404040" d="M 274.5,703.5 C 274.047,704.458 273.381,705.292 272.5,706C 266.145,709.178 259.811,712.344 253.5,715.5C 260,710.676 267,706.676 274.5,703.5 Z"/></g>
<g><path style="opacity:1" fill="#4b4b4b" d="M 438.5,705.5 C 440.749,706.08 442.415,707.413 443.5,709.5C 441.251,708.92 439.585,707.587 438.5,705.5 Z"/></g>
<g><path style="opacity:1" fill="#303030" d="M 453.5,714.5 C 455.967,714.755 457.967,715.755 459.5,717.5C 456.687,717.975 454.687,716.975 453.5,714.5 Z"/></g>
<g><path style="opacity:1" fill="#4e4e4e" d="M 249.5,718.5 C 247.599,719.935 247.266,721.602 248.5,723.5C 246.748,723.582 245.748,722.749 245.5,721C 246.356,719.405 247.689,718.572 249.5,718.5 Z"/></g>
<g><path style="opacity:1" fill="#3a3a3a" d="M 472.5,720.5 C 471.688,721.993 470.355,722.66 468.5,722.5C 467.274,722.48 466.274,722.147 465.5,721.5C 467.903,721.552 470.236,721.219 472.5,720.5 Z"/></g>
<g><path style="opacity:1" fill="#4a4a4a" d="M 255.5,727.5 C 265.1,731.574 274.1,736.574 282.5,742.5C 279.293,741.821 276.293,740.654 273.5,739C 267.352,735.249 261.352,731.416 255.5,727.5 Z"/></g>
<g><path style="opacity:1" fill="#202020" d="M 776.5,747.5 C 776.047,748.458 775.381,749.292 774.5,750C 771.324,750.889 768.324,752.055 765.5,753.5C 765.953,752.542 766.619,751.708 767.5,751C 770.618,749.978 773.618,748.811 776.5,747.5 Z"/></g>
<g><path style="opacity:1" fill="#4f4f4f" d="M 290.5,747.5 C 295.731,750.084 301.065,752.584 306.5,755C 308.621,756.749 310.621,758.582 312.5,760.5C 305.972,756.822 299.305,753.322 292.5,750C 291.619,749.292 290.953,748.458 290.5,747.5 Z"/></g>
<g><path style="opacity:1" fill="#535353" d="M 312.5,760.5 C 315.707,761.179 318.707,762.346 321.5,764C 323.063,764.759 324.063,765.926 324.5,767.5C 319.955,765.924 315.955,763.591 312.5,760.5 Z"/></g>
<g><path style="opacity:1" fill="#434343" d="M 331.5,771.5 C 337.642,774.943 343.975,778.11 350.5,781C 351.71,782.039 352.71,783.206 353.5,784.5C 345.64,780.956 338.307,776.622 331.5,771.5 Z"/></g>
<g><path style="opacity:1" fill="#414141" d="M 362.5,789.5 C 364.027,789.427 365.027,790.094 365.5,791.5C 363.973,791.573 362.973,790.906 362.5,789.5 Z"/></g>
<g><path style="opacity:1" fill="#535353" d="M 365.5,791.5 C 369.614,791.386 372.614,793.052 374.5,796.5C 371.008,795.59 368.008,793.924 365.5,791.5 Z"/></g>
<g><path style="opacity:1" fill="#3e3e3e" d="M 374.5,796.5 C 376.027,796.427 377.027,797.094 377.5,798.5C 375.973,798.573 374.973,797.906 374.5,796.5 Z"/></g>
<g><path style="opacity:1" fill="#454545" d="M 377.5,798.5 C 380.707,799.179 383.707,800.346 386.5,802C 387.381,802.708 388.047,803.542 388.5,804.5C 384.353,803.241 380.686,801.241 377.5,798.5 Z"/></g>
<g><path style="opacity:1" fill="#434343" d="M 388.5,804.5 C 390.027,804.427 391.027,805.094 391.5,806.5C 389.973,806.573 388.973,805.906 388.5,804.5 Z"/></g>
<g><path style="opacity:1" fill="#2b2b2b" d="M 668.5,809.5 C 665.106,812.221 661.439,814.554 657.5,816.5C 660.387,812.948 664.053,810.615 668.5,809.5 Z"/></g>
<g><path style="opacity:1" fill="#3a3a3a" d="M 398.5,810.5 C 400.027,810.427 401.027,811.094 401.5,812.5C 399.973,812.573 398.973,811.906 398.5,810.5 Z"/></g>
<g><path style="opacity:1" fill="#4d4d4d" d="M 401.5,812.5 C 402.873,812.343 404.207,812.51 405.5,813C 408.107,814.572 410.441,816.406 412.5,818.5C 408.322,817.295 404.655,815.295 401.5,812.5 Z"/></g>
<g><path style="opacity:1" fill="#464646" d="M 417.5,821.5 C 418.873,821.343 420.207,821.51 421.5,822C 423.621,823.749 425.621,825.582 427.5,827.5C 423.575,826.421 420.242,824.421 417.5,821.5 Z"/></g>
<g><path style="opacity:1" fill="#444444" d="M 427.5,827.5 C 430.546,827.725 432.879,829.058 434.5,831.5C 431.9,830.532 429.566,829.199 427.5,827.5 Z"/></g>
<g><path style="opacity:1" fill="#2a2a2a" d="M 634.5,829.5 C 629.737,832.412 625.071,835.579 620.5,839C 616.898,840.804 613.231,842.304 609.5,843.5C 616.498,840.03 623.165,835.863 629.5,831C 631.154,830.392 632.821,829.892 634.5,829.5 Z"/></g>
<g><path style="opacity:1" fill="#4b4b4b" d="M 434.5,831.5 C 437.546,831.725 439.879,833.058 441.5,835.5C 438.9,834.532 436.566,833.199 434.5,831.5 Z"/></g>
<g><path style="opacity:1" fill="#444444" d="M 441.5,835.5 C 446.832,836.703 451.166,839.369 454.5,843.5C 449.624,841.569 445.29,838.903 441.5,835.5 Z"/></g>
<g><path style="opacity:1" fill="#525252" d="M 456.5,843.5 C 458.179,843.892 459.846,844.392 461.5,845C 463.621,846.749 465.621,848.582 467.5,850.5C 463.046,849.374 459.379,847.041 456.5,843.5 Z"/></g>
<g><path style="opacity:1" fill="#4b4b4b" d="M 474.5,854.5 C 478.13,854.701 480.797,856.368 482.5,859.5C 479.787,857.828 477.12,856.162 474.5,854.5 Z"/></g>
<g><path style="opacity:1" fill="#2a2a2a" d="M 599.5,849.5 C 597.064,853.604 593.397,855.771 588.5,856C 584.646,859.339 580.313,861.839 575.5,863.5C 581.162,858.998 587.495,855.498 594.5,853C 595.789,851.198 597.456,850.031 599.5,849.5 Z"/></g>
<g><path style="opacity:1" fill="#4e4e4e" d="M 482.5,859.5 C 486.222,859.861 489.222,861.528 491.5,864.5C 488.144,863.389 485.144,861.723 482.5,859.5 Z"/></g>
<g><path style="opacity:1" fill="#3b3b3b" d="M 491.5,864.5 C 493.693,865.68 496.026,866.68 498.5,867.5C 499.298,867.957 499.631,868.624 499.5,869.5C 496.151,868.831 493.484,867.164 491.5,864.5 Z"/></g>
<g><path style="opacity:1" fill="#3e3e3e" d="M 503.5,871.5 C 505.027,871.427 506.027,872.094 506.5,873.5C 504.973,873.573 503.973,872.906 503.5,871.5 Z"/></g>
<g><path style="opacity:1" fill="#464646" d="M 506.5,873.5 C 509.707,874.179 512.707,875.346 515.5,877C 516.381,877.708 517.047,878.542 517.5,879.5C 513.353,878.241 509.686,876.241 506.5,873.5 Z"/></g>
<g><path style="opacity:1" fill="#4c4c4c" d="M 517.5,879.5 C 522.537,880.342 526.537,882.675 529.5,886.5C 525.008,884.903 521.008,882.57 517.5,879.5 Z"/></g>
<g><path style="opacity:1" fill="#282828" d="M 553.5,876.5 C 550.507,878.531 547.507,880.697 544.5,883C 542.235,884.118 539.901,884.951 537.5,885.5C 542.343,881.663 547.676,878.663 553.5,876.5 Z"/></g>
</svg>
