<?xml version="1.0" encoding="UTF-8"?>
<!DOCTYPE svg PUBLIC "-//W3C//DTD SVG 1.1//EN" "http://www.w3.org/Graphics/SVG/1.1/DTD/svg11.dtd">
<svg xmlns="http://www.w3.org/2000/svg" version="1.1" width="1067px" height="1067px" style="shape-rendering:geometricPrecision; text-rendering:geometricPrecision; image-rendering:optimizeQuality; fill-rule:evenodd; clip-rule:evenodd" xmlns:xlink="http://www.w3.org/1999/xlink">
<g><path style="opacity:0.999" fill="#2b2f3a" d="M 1066.5,218.5 C 1066.5,428.833 1066.5,639.167 1066.5,849.5C 1050.32,946.376 996.982,1013.88 906.5,1052C 887.808,1058.59 868.808,1063.42 849.5,1066.5C 639.167,1066.5 428.833,1066.5 218.5,1066.5C 121.586,1050.3 54.0863,996.971 16,906.5C 8.00078,884.837 3.00078,862.503 1,839.5C 0.333333,635.833 0.333333,432.167 1,228.5C 10.617,142.639 52.117,77.4727 125.5,33C 154.493,16.6689 185.493,6.3356 218.5,2C 323.648,0.844227 428.815,0.344227 534,0.5C 639.185,0.344227 744.352,0.844227 849.5,2C 946.642,17.7898 1014.14,70.9565 1052,161.5C 1058.59,180.192 1063.42,199.192 1066.5,218.5 Z"/></g>
<g><path style="opacity:1" fill="#50535c" d="M 507.5,137.5 C 505.833,138.167 504.167,138.833 502.5,139.5C 500.5,139.5 498.5,139.5 496.5,139.5C 492.466,139.505 488.466,139.838 484.5,140.5C 486.277,139.4 488.277,138.566 490.5,138C 496.157,137.501 501.824,137.334 507.5,137.5 Z"/></g>
<g><path style="opacity:1" fill="#c4c5c8" d="M 543.5,137.5 C 547.167,137.5 550.833,137.5 554.5,137.5C 555.167,138.167 555.833,138.833 556.5,139.5C 551.99,139.116 547.657,138.449 543.5,137.5 Z"/></g>
<g><path style="opacity:1" fill="#cecfd2" d="M 507.5,137.5 C 514.5,137.5 521.5,137.5 528.5,137.5C 520.051,139.072 511.384,139.739 502.5,139.5C 504.167,138.833 505.833,138.167 507.5,137.5 Z"/></g>
<g><path style="opacity:1" fill="#fafafa" d="M 528.5,137.5 C 533.5,137.5 538.5,137.5 543.5,137.5C 547.657,138.449 551.99,139.116 556.5,139.5C 561.833,139.5 567.167,139.5 572.5,139.5C 580.113,140.801 587.78,141.801 595.5,142.5C 599.159,144.342 603.159,145.342 607.5,145.5C 608.5,145.5 609.5,145.5 610.5,145.5C 610.918,146.222 611.584,146.722 612.5,147C 615.146,147.497 617.813,147.664 620.5,147.5C 621.568,148.434 622.901,148.768 624.5,148.5C 626.102,150.074 628.102,150.741 630.5,150.5C 634.652,150.996 638.652,151.996 642.5,153.5C 642.611,154.117 642.944,154.617 643.5,155C 645.866,155.44 648.199,155.94 650.5,156.5C 657.251,158.188 663.918,160.188 670.5,162.5C 672.033,164.245 674.033,165.245 676.5,165.5C 677.167,165.5 677.833,165.5 678.5,165.5C 680.837,167.396 683.504,168.73 686.5,169.5C 688.214,170.738 690.214,171.405 692.5,171.5C 695.337,173.967 698.671,175.633 702.5,176.5C 704.033,178.245 706.033,179.245 708.5,179.5C 710.033,181.245 712.033,182.245 714.5,182.5C 716.033,184.245 718.033,185.245 720.5,185.5C 747.98,202.094 773.98,220.928 798.5,242C 808.403,251.4 817.736,261.233 826.5,271.5C 827.419,274.089 829.086,276.089 831.5,277.5C 833.914,278.911 835.581,280.911 836.5,283.5C 837.08,285.749 838.413,287.415 840.5,288.5C 846.463,295.068 851.963,302.068 857,309.5C 866.884,324.605 875.718,340.272 883.5,356.5C 883.755,358.967 884.755,360.967 886.5,362.5C 886.755,364.967 887.755,366.967 889.5,368.5C 893.273,375.48 896.273,382.813 898.5,390.5C 898.77,394.358 900.103,397.691 902.5,400.5C 903.054,403.746 904.054,406.746 905.5,409.5C 906.407,411.657 907.073,413.99 907.5,416.5C 908.057,421.165 909.39,425.498 911.5,429.5C 911.833,431.5 912.167,433.5 912.5,435.5C 912.41,438.152 913.076,440.485 914.5,442.5C 916.126,447.008 917.126,451.675 917.5,456.5C 917.763,461.124 918.763,465.458 920.5,469.5C 920.5,471.167 920.5,472.833 920.5,474.5C 921.051,477.807 921.384,481.14 921.5,484.5C 921.362,489.414 922.028,494.081 923.5,498.5C 923.5,500.833 923.5,503.167 923.5,505.5C 924.75,523.169 924.75,540.835 923.5,558.5C 923.5,561.167 923.5,563.833 923.5,566.5C 922.71,567.609 922.21,568.942 922,570.5C 921.501,575.823 921.334,581.156 921.5,586.5C 920.631,588.717 920.298,591.05 920.5,593.5C 918.783,596.845 918.116,600.511 918.5,604.5C 917.539,606.265 917.205,608.265 917.5,610.5C 916.778,610.918 916.278,611.584 916,612.5C 915.452,616.17 914.952,619.837 914.5,623.5C 914.5,623.833 914.5,624.167 914.5,624.5C 912.926,626.102 912.259,628.102 912.5,630.5C 912.167,632.5 911.833,634.5 911.5,636.5C 909.926,638.102 909.259,640.102 909.5,642.5C 907.577,651.162 904.911,659.495 901.5,667.5C 900.883,667.611 900.383,667.944 900,668.5C 899.261,671.546 898.428,674.546 897.5,677.5C 896.37,679.315 895.704,681.315 895.5,683.5C 893.416,686.053 892.083,689.053 891.5,692.5C 890.058,693.82 889.392,695.486 889.5,697.5C 887.755,699.033 886.755,701.033 886.5,703.5C 883.833,708.833 881.167,714.167 878.5,719.5C 876.755,721.033 875.755,723.033 875.5,725.5C 873.75,726.659 872.75,728.326 872.5,730.5C 870.412,732.336 869.079,734.669 868.5,737.5C 867.662,737.842 867.328,738.508 867.5,739.5C 865.178,740.802 863.845,742.802 863.5,745.5C 862.094,745.973 861.427,746.973 861.5,748.5C 860.094,748.973 859.427,749.973 859.5,751.5C 853.923,758.984 848.59,766.65 843.5,774.5C 841.086,775.911 839.419,777.911 838.5,780.5C 837.094,780.973 836.427,781.973 836.5,783.5C 833.757,785.239 831.757,787.573 830.5,790.5C 829.5,790.833 828.833,791.5 828.5,792.5C 826.413,793.585 825.08,795.251 824.5,797.5C 823.833,797.5 823.5,797.833 823.5,798.5C 820.097,800.9 817.43,803.9 815.5,807.5C 810.452,811.881 805.785,816.548 801.5,821.5C 797.9,823.43 794.9,826.097 792.5,829.5C 778.446,840.89 764.113,851.89 749.5,862.5C 747.147,863.34 745.147,864.674 743.5,866.5C 741.326,866.75 739.659,867.75 738.5,869.5C 734.879,871.142 731.546,873.142 728.5,875.5C 725.669,876.079 723.336,877.412 721.5,879.5C 718.9,880.468 716.566,881.801 714.5,883.5C 712.033,883.755 710.033,884.755 708.5,886.5C 706.033,886.755 704.033,887.755 702.5,889.5C 700.033,889.755 698.033,890.755 696.5,892.5C 696.167,892.5 695.833,892.5 695.5,892.5C 692.053,893.083 689.053,894.416 686.5,896.5C 683.504,897.27 680.837,898.604 678.5,900.5C 677.833,900.5 677.167,900.5 676.5,900.5C 674.033,900.755 672.033,901.755 670.5,903.5C 669.833,903.5 669.167,903.5 668.5,903.5C 666.033,903.755 664.033,904.755 662.5,906.5C 661.209,906.263 660.209,906.596 659.5,907.5C 647.776,910.84 636.109,914.173 624.5,917.5C 622.901,917.232 621.568,917.566 620.5,918.5C 617.813,918.336 615.146,918.503 612.5,919C 611.584,919.278 610.918,919.778 610.5,920.5C 609.5,920.5 608.5,920.5 607.5,920.5C 602.876,920.763 598.542,921.763 594.5,923.5C 594.167,923.5 593.833,923.5 593.5,923.5C 587.949,923.527 582.616,924.194 577.5,925.5C 569.243,925.626 561.243,926.626 553.5,928.5C 545.5,928.5 537.5,928.5 529.5,928.5C 520.717,926.903 511.717,926.236 502.5,926.5C 496.828,926.24 491.161,925.907 485.5,925.5C 484.833,925.5 484.167,925.5 483.5,925.5C 482.653,924.034 481.32,923.2 479.5,923C 473.511,922.301 467.511,921.801 461.5,921.5C 457.96,921.247 454.627,920.581 451.5,919.5C 446.545,917.11 441.212,915.776 435.5,915.5C 432.135,914.96 428.802,914.294 425.5,913.5C 422.323,911.18 418.656,909.846 414.5,909.5C 414.167,909.5 413.833,909.5 413.5,909.5C 409.785,907.595 405.785,906.262 401.5,905.5C 397.115,903.32 392.448,901.653 387.5,900.5C 385.967,898.755 383.967,897.755 381.5,897.5C 379.486,897.608 377.82,896.942 376.5,895.5C 374.967,893.755 372.967,892.755 370.5,892.5C 302.413,861.434 247.746,814.434 206.5,751.5C 206.573,749.973 205.906,748.973 204.5,748.5C 204.573,746.973 203.906,745.973 202.5,745.5C 199.099,739.791 195.766,734.124 192.5,728.5C 192.573,726.973 191.906,725.973 190.5,725.5C 189.069,722.299 187.403,719.299 185.5,716.5C 185.245,714.033 184.245,712.033 182.5,710.5C 181.99,707.914 180.99,705.581 179.5,703.5C 179.245,701.033 178.245,699.033 176.5,697.5C 173.739,690.784 171.073,684.117 168.5,677.5C 167.572,674.546 166.739,671.546 166,668.5C 165.617,667.944 165.117,667.611 164.5,667.5C 162.309,662.42 160.642,657.087 159.5,651.5C 159.073,648.99 158.407,646.657 157.5,644.5C 156.662,644.158 156.328,643.492 156.5,642.5C 156.324,639.273 155.657,636.273 154.5,633.5C 153.323,629.125 151.989,624.792 150.5,620.5C 150.773,614.784 149.773,609.451 147.5,604.5C 145.813,594.678 144.48,584.678 143.5,574.5C 143.093,568.839 142.76,563.172 142.5,557.5C 141.281,538.837 141.281,520.17 142.5,501.5C 142.916,496.507 143.249,491.507 143.5,486.5C 143.5,485.833 143.5,485.167 143.5,484.5C 144.581,481.373 145.247,478.04 145.5,474.5C 145.5,472.833 145.5,471.167 145.5,469.5C 146.222,469.082 146.722,468.416 147,467.5C 147.548,463.83 148.048,460.163 148.5,456.5C 148.5,455.5 148.5,454.5 148.5,453.5C 150.074,451.898 150.741,449.898 150.5,447.5C 150.366,445.708 150.699,444.042 151.5,442.5C 152.924,440.485 153.59,438.152 153.5,435.5C 154.221,429.674 155.555,424.007 157.5,418.5C 158.946,415.746 159.946,412.746 160.5,409.5C 161.946,406.746 162.946,403.746 163.5,400.5C 165.254,395.942 166.92,391.275 168.5,386.5C 170.245,384.967 171.245,382.967 171.5,380.5C 171.392,378.486 172.058,376.82 173.5,375.5C 175.245,373.967 176.245,371.967 176.5,369.5C 176.595,367.214 177.262,365.214 178.5,363.5C 180.975,362.313 181.975,360.313 181.5,357.5C 182.338,357.158 182.672,356.492 182.5,355.5C 184.408,354.514 185.408,352.848 185.5,350.5C 186.65,347.702 187.983,345.035 189.5,342.5C 191.942,340.879 193.275,338.546 193.5,335.5C 195,331.827 197,328.494 199.5,325.5C 201.25,324.341 202.25,322.674 202.5,320.5C 210.012,307.656 218.679,295.656 228.5,284.5C 230.587,283.415 231.92,281.749 232.5,279.5C 232.833,278.5 233.5,277.833 234.5,277.5C 236.587,276.415 237.92,274.749 238.5,272.5C 238.833,271.5 239.5,270.833 240.5,270.5C 243.903,268.1 246.57,265.1 248.5,261.5C 267.471,240.18 288.804,221.846 312.5,206.5C 314.853,205.66 316.853,204.326 318.5,202.5C 318.973,201.094 319.973,200.427 321.5,200.5C 323.853,199.66 325.853,198.326 327.5,196.5C 333.072,191.611 339.405,187.944 346.5,185.5C 348.848,185.408 350.514,184.408 351.5,182.5C 354.802,182.088 357.469,180.755 359.5,178.5C 359.842,177.662 360.508,177.328 361.5,177.5C 363.967,177.245 365.967,176.245 367.5,174.5C 372.702,173.156 377.702,171.322 382.5,169C 384.431,168.098 386.097,166.931 387.5,165.5C 388.167,165.5 388.833,165.5 389.5,165.5C 392.486,165.097 395.152,164.097 397.5,162.5C 400.486,162.097 403.152,161.097 405.5,159.5C 405.611,158.883 405.944,158.383 406.5,158C 409.168,157.433 411.834,156.933 414.5,156.5C 418.395,155.538 422.061,154.204 425.5,152.5C 427.117,151.962 428.784,151.629 430.5,151.5C 434.463,151.139 438.13,150.139 441.5,148.5C 441.833,148.5 442.167,148.5 442.5,148.5C 447.471,147.623 452.471,146.789 457.5,146C 458.416,145.722 459.082,145.222 459.5,144.5C 472.212,144.371 484.546,142.704 496.5,139.5C 498.5,139.5 500.5,139.5 502.5,139.5C 511.384,139.739 520.051,139.072 528.5,137.5 Z"/></g>
<g><path style="opacity:1" fill="#81838a" d="M 554.5,137.5 C 560.75,137.184 566.75,137.85 572.5,139.5C 567.167,139.5 561.833,139.5 556.5,139.5C 555.833,138.833 555.167,138.167 554.5,137.5 Z"/></g>
<g><path style="opacity:1" fill="#c3c4c7" d="M 496.5,139.5 C 484.546,142.704 472.212,144.371 459.5,144.5C 467.688,142.805 476.022,141.472 484.5,140.5C 488.466,139.838 492.466,139.505 496.5,139.5 Z"/></g>
<g><path style="opacity:1" fill="#a0a3a7" d="M 595.5,142.5 C 599.841,142.658 603.841,143.658 607.5,145.5C 603.159,145.342 599.159,144.342 595.5,142.5 Z"/></g>
<g><path style="opacity:1" fill="#979a9f" d="M 459.5,144.5 C 459.082,145.222 458.416,145.722 457.5,146C 452.471,146.789 447.471,147.623 442.5,148.5C 442.611,147.883 442.944,147.383 443.5,147C 448.827,146.057 454.16,145.223 459.5,144.5 Z"/></g>
<g><path style="opacity:1" fill="#9fa0a5" d="M 610.5,145.5 C 614.04,145.753 617.373,146.419 620.5,147.5C 617.813,147.664 615.146,147.497 612.5,147C 611.584,146.722 610.918,146.222 610.5,145.5 Z"/></g>
<g><path style="opacity:1" fill="#82848b" d="M 441.5,148.5 C 438.13,150.139 434.463,151.139 430.5,151.5C 430.611,150.883 430.944,150.383 431.5,150C 434.827,149.39 438.161,148.89 441.5,148.5 Z"/></g>
<g><path style="opacity:1" fill="#9b9ca2" d="M 624.5,148.5 C 626.898,148.259 628.898,148.926 630.5,150.5C 628.102,150.741 626.102,150.074 624.5,148.5 Z"/></g>
<g><path style="opacity:1" fill="#62656e" d="M 425.5,152.5 C 422.061,154.204 418.395,155.538 414.5,156.5C 414.953,155.542 415.619,154.708 416.5,154C 419.478,153.304 422.478,152.804 425.5,152.5 Z"/></g>
<g><path style="opacity:1" fill="#adaeb3" d="M 579.5,158.5 C 553.564,155.468 527.564,154.802 501.5,156.5C 497.466,156.505 493.466,156.838 489.5,157.5C 490.263,156.732 491.263,156.232 492.5,156C 518.832,154.031 545.165,154.031 571.5,156C 574.31,156.782 576.977,157.616 579.5,158.5 Z"/></g>
<g><path style="opacity:1" fill="#adaeb2" d="M 642.5,153.5 C 644.801,154.06 647.134,154.56 649.5,155C 650.056,155.383 650.389,155.883 650.5,156.5C 648.199,155.94 645.866,155.44 643.5,155C 642.944,154.617 642.611,154.117 642.5,153.5 Z"/></g>
<g><path style="opacity:1" fill="#2b2f3a" d="M 579.5,158.5 C 589.544,159.844 599.544,161.51 609.5,163.5C 612.273,164.657 615.273,165.324 618.5,165.5C 619.5,165.5 620.5,165.5 621.5,165.5C 623.515,166.924 625.848,167.59 628.5,167.5C 631.008,169.554 634.008,170.554 637.5,170.5C 637.833,170.5 638.167,170.5 638.5,170.5C 638.611,171.117 638.944,171.617 639.5,172C 641.866,172.44 644.199,172.94 646.5,173.5C 655.841,175.502 664.841,178.502 673.5,182.5C 674.635,184.213 676.302,184.88 678.5,184.5C 680.456,185.492 682.456,186.492 684.5,187.5C 686.033,189.245 688.033,190.245 690.5,190.5C 690.833,190.5 691.167,190.5 691.5,190.5C 693.033,192.245 695.033,193.245 697.5,193.5C 699.033,195.245 701.033,196.245 703.5,196.5C 705.566,198.199 707.9,199.532 710.5,200.5C 732.484,212.472 753.151,226.472 772.5,242.5C 773.585,244.587 775.251,245.92 777.5,246.5C 789.438,257.937 801.272,269.604 813,281.5C 817.456,286.11 821.29,291.11 824.5,296.5C 825.419,299.089 827.086,301.089 829.5,302.5C 840.003,315.679 849.336,329.679 857.5,344.5C 857.427,346.027 858.094,347.027 859.5,347.5C 860.814,350.128 862.147,352.795 863.5,355.5C 863.427,357.027 864.094,358.027 865.5,358.5C 867.592,361.088 868.925,364.088 869.5,367.5C 869.755,369.967 870.755,371.967 872.5,373.5C 872.896,376.721 874.229,379.388 876.5,381.5C 879.372,389.075 882.372,396.741 885.5,404.5C 886.054,407.746 887.054,410.746 888.5,413.5C 889.84,418.518 891.174,423.518 892.5,428.5C 892.259,430.898 892.926,432.898 894.5,434.5C 895.234,435.708 895.567,437.041 895.5,438.5C 895.952,442.163 896.452,445.83 897,449.5C 897.278,450.416 897.778,451.082 898.5,451.5C 899.434,452.568 899.768,453.901 899.5,455.5C 899.336,458.187 899.503,460.854 900,463.5C 901.043,465.833 901.876,468.166 902.5,470.5C 903.354,476.142 904.02,481.809 904.5,487.5C 904.198,491.79 904.864,495.79 906.5,499.5C 906.5,502.5 906.5,505.5 906.5,508.5C 906.5,523.5 906.5,538.5 906.5,553.5C 906.823,559.69 906.49,565.69 905.5,571.5C 904.066,579.31 903.066,587.31 902.5,595.5C 901.437,599.639 900.77,603.972 900.5,608.5C 899.883,608.611 899.383,608.944 899,609.5C 897.834,615.165 896.668,620.832 895.5,626.5C 894.707,630.88 893.707,635.214 892.5,639.5C 891.883,639.611 891.383,639.944 891,640.5C 890.56,642.866 890.06,645.199 889.5,647.5C 887.805,654.285 885.805,660.952 883.5,667.5C 881.755,669.033 880.755,671.033 880.5,673.5C 880.5,674.167 880.5,674.833 880.5,675.5C 878.755,677.033 877.755,679.033 877.5,681.5C 876.058,682.82 875.392,684.486 875.5,686.5C 873.755,688.033 872.755,690.033 872.5,692.5C 871.01,694.581 870.01,696.914 869.5,699.5C 867.801,701.566 866.468,703.9 865.5,706.5C 863.805,708.897 862.472,711.563 861.5,714.5C 859.755,716.033 858.755,718.033 858.5,720.5C 852.17,730.492 845.836,740.492 839.5,750.5C 837.178,751.802 835.845,753.802 835.5,756.5C 829.484,763.186 823.818,770.186 818.5,777.5C 816.413,778.585 815.08,780.251 814.5,782.5C 810.176,787.125 805.843,791.792 801.5,796.5C 796.833,800.5 792.5,804.833 788.5,809.5C 786.833,810.5 785.5,811.833 784.5,813.5C 780.9,815.43 777.9,818.097 775.5,821.5C 754.57,838.101 732.57,853.101 709.5,866.5C 707.033,866.755 705.033,867.755 703.5,869.5C 701.033,869.755 699.033,870.755 697.5,872.5C 695.033,872.755 693.033,873.755 691.5,875.5C 691.167,875.5 690.833,875.5 690.5,875.5C 688.033,875.755 686.033,876.755 684.5,878.5C 678.83,880.239 673.497,882.572 668.5,885.5C 665.185,886.329 661.852,887.162 658.5,888C 657.944,888.383 657.611,888.883 657.5,889.5C 654.008,889.446 651.008,890.446 648.5,892.5C 636.977,895.264 625.643,898.264 614.5,901.5C 614.167,901.5 613.833,901.5 613.5,901.5C 609.51,901.999 605.51,902.499 601.5,903C 600.584,903.278 599.918,903.778 599.5,904.5C 592.914,905.936 586.247,906.936 579.5,907.5C 574.566,907.229 569.9,907.896 565.5,909.5C 559.162,909.767 552.829,910.1 546.5,910.5C 531.817,910.661 517.151,910.328 502.5,909.5C 498.081,908.028 493.414,907.362 488.5,907.5C 485.14,907.384 481.807,907.051 478.5,906.5C 470.678,905.339 463.012,904.005 455.5,902.5C 450.594,899.977 445.26,898.643 439.5,898.5C 428.586,896.107 417.919,893.107 407.5,889.5C 406.097,888.069 404.431,886.902 402.5,886C 401.207,885.51 399.873,885.343 398.5,885.5C 393.225,884.241 388.225,882.241 383.5,879.5C 381.815,877.182 379.481,876.182 376.5,876.5C 367.353,872.093 358.353,867.427 349.5,862.5C 349.027,861.094 348.027,860.427 346.5,860.5C 305.404,836.589 269.904,805.923 240,768.5C 230.07,755.622 220.903,742.289 212.5,728.5C 212.573,726.973 211.906,725.973 210.5,725.5C 208.322,720.468 205.655,715.801 202.5,711.5C 202.245,709.033 201.245,707.033 199.5,705.5C 199.245,703.033 198.245,701.033 196.5,699.5C 196.245,697.033 195.245,695.033 193.5,693.5C 193.5,693.167 193.5,692.833 193.5,692.5C 192.917,689.053 191.584,686.053 189.5,683.5C 188.662,683.158 188.328,682.492 188.5,681.5C 186.675,677.174 185.008,672.841 183.5,668.5C 182.833,667.167 182.167,665.833 181.5,664.5C 181.31,661.145 180.31,658.145 178.5,655.5C 176.606,648.467 174.606,641.467 172.5,634.5C 172.741,632.102 172.074,630.102 170.5,628.5C 170.5,628.167 170.5,627.833 170.5,627.5C 170.88,625.302 170.213,623.635 168.5,622.5C 168.5,622.167 168.5,621.833 168.5,621.5C 168.237,616.876 167.237,612.542 165.5,608.5C 165.806,605.615 165.473,602.948 164.5,600.5C 164.664,597.813 164.497,595.146 164,592.5C 163.617,591.944 163.117,591.611 162.5,591.5C 161.767,578.133 160.6,564.8 159,551.5C 158.3,535.486 158.467,519.486 159.5,503.5C 159.5,502.833 159.5,502.167 159.5,501.5C 160.889,496.731 161.556,491.731 161.5,486.5C 162.074,478.972 163.074,471.639 164.5,464.5C 166.956,460.274 167.956,455.607 167.5,450.5C 169.245,446.8 170.245,442.8 170.5,438.5C 170.517,436.435 170.85,434.435 171.5,432.5C 173.13,429.47 174.13,426.137 174.5,422.5C 177.666,411.69 181.332,401.024 185.5,390.5C 187.245,388.967 188.245,386.967 188.5,384.5C 191.831,377.168 195.164,369.835 198.5,362.5C 200.755,360.469 202.088,357.802 202.5,354.5C 203.079,351.669 204.412,349.336 206.5,347.5C 208.942,345.879 210.275,343.546 210.5,340.5C 218.002,327.005 226.669,314.338 236.5,302.5C 238.587,301.415 239.92,299.749 240.5,297.5C 241.08,295.251 242.413,293.585 244.5,292.5C 246.587,291.415 247.92,289.749 248.5,287.5C 256.16,278.507 264.16,269.84 272.5,261.5C 276.1,259.57 279.1,256.903 281.5,253.5C 285.664,248.503 290.331,244.003 295.5,240C 304.117,232.869 313.117,226.369 322.5,220.5C 324.853,219.66 326.853,218.326 328.5,216.5C 331.932,214.248 335.266,211.748 338.5,209C 343.216,207.414 347.55,205.247 351.5,202.5C 353.674,202.25 355.341,201.25 356.5,199.5C 358.967,199.245 360.967,198.245 362.5,196.5C 366.252,196.06 369.252,194.393 371.5,191.5C 372.833,191.167 374.167,190.833 375.5,190.5C 378.549,189.792 381.215,188.459 383.5,186.5C 383.842,185.662 384.508,185.328 385.5,185.5C 387.967,185.245 389.967,184.245 391.5,182.5C 392.167,182.5 392.833,182.5 393.5,182.5C 395.967,182.245 397.967,181.245 399.5,179.5C 400.167,179.5 400.833,179.5 401.5,179.5C 403.967,179.245 405.967,178.245 407.5,176.5C 408.167,176.5 408.833,176.5 409.5,176.5C 412.811,176.117 415.811,175.117 418.5,173.5C 420.403,173.204 422.07,172.537 423.5,171.5C 425.117,170.962 426.784,170.629 428.5,170.5C 435.629,168.44 442.962,166.94 450.5,166C 452.97,164.979 455.304,163.812 457.5,162.5C 458.167,162.5 458.833,162.5 459.5,162.5C 464.45,162.23 469.117,161.23 473.5,159.5C 474.5,159.5 475.5,159.5 476.5,159.5C 485.067,159.271 493.4,158.271 501.5,156.5C 527.564,154.802 553.564,155.468 579.5,158.5 Z"/></g>
<g><path style="opacity:1" fill="#76787f" d="M 501.5,156.5 C 493.4,158.271 485.067,159.271 476.5,159.5C 480.591,158.105 484.924,157.438 489.5,157.5C 493.466,156.838 497.466,156.505 501.5,156.5 Z"/></g>
<g><path style="opacity:1" fill="#a3a4a9" d="M 405.5,159.5 C 403.152,161.097 400.486,162.097 397.5,162.5C 399.522,160.307 402.189,159.307 405.5,159.5 Z"/></g>
<g><path style="opacity:1" fill="#8f9197" d="M 473.5,159.5 C 469.117,161.23 464.45,162.23 459.5,162.5C 463.883,160.77 468.55,159.77 473.5,159.5 Z"/></g>
<g><path style="opacity:1" fill="#a1a3a8" d="M 397.5,162.5 C 395.152,164.097 392.486,165.097 389.5,165.5C 391.522,163.307 394.189,162.307 397.5,162.5 Z"/></g>
<g><path style="opacity:1" fill="#9e9fa4" d="M 609.5,163.5 C 612.187,163.336 614.854,163.503 617.5,164C 618.056,164.383 618.389,164.883 618.5,165.5C 615.273,165.324 612.273,164.657 609.5,163.5 Z"/></g>
<g><path style="opacity:1" fill="#95979d" d="M 670.5,162.5 C 672.967,162.755 674.967,163.755 676.5,165.5C 674.033,165.245 672.033,164.245 670.5,162.5 Z"/></g>
<g><path style="opacity:1" fill="#63666e" d="M 457.5,162.5 C 455.304,163.812 452.97,164.979 450.5,166C 442.962,166.94 435.629,168.44 428.5,170.5C 437.802,167.095 447.468,164.428 457.5,162.5 Z"/></g>
<g><path style="opacity:1" fill="#aaabb0" d="M 621.5,165.5 C 624.152,165.41 626.485,166.076 628.5,167.5C 625.848,167.59 623.515,166.924 621.5,165.5 Z"/></g>
<g><path style="opacity:1" fill="#8d9096" d="M 678.5,165.5 C 681.721,165.896 684.388,167.229 686.5,169.5C 683.504,168.73 680.837,167.396 678.5,165.5 Z"/></g>
<g><path style="opacity:1" fill="#93959a" d="M 387.5,165.5 C 386.097,166.931 384.431,168.098 382.5,169C 377.702,171.322 372.702,173.156 367.5,174.5C 373.719,170.75 380.386,167.75 387.5,165.5 Z"/></g>
<g><path style="opacity:1" fill="#6f7279" d="M 628.5,167.5 C 631.746,168.054 634.746,169.054 637.5,170.5C 634.008,170.554 631.008,169.554 628.5,167.5 Z"/></g>
<g><path style="opacity:1" fill="#898b91" d="M 423.5,171.5 C 422.07,172.537 420.403,173.204 418.5,173.5C 419.635,171.787 421.302,171.12 423.5,171.5 Z"/></g>
<g><path style="opacity:1" fill="#73767d" d="M 638.5,170.5 C 640.801,171.06 643.134,171.56 645.5,172C 646.056,172.383 646.389,172.883 646.5,173.5C 644.199,172.94 641.866,172.44 639.5,172C 638.944,171.617 638.611,171.117 638.5,170.5 Z"/></g>
<g><path style="opacity:1" fill="#767980" d="M 692.5,171.5 C 696.329,172.367 699.663,174.033 702.5,176.5C 698.671,175.633 695.337,173.967 692.5,171.5 Z"/></g>
<g><path style="opacity:1" fill="#7b7e85" d="M 418.5,173.5 C 415.811,175.117 412.811,176.117 409.5,176.5C 412.008,174.446 415.008,173.446 418.5,173.5 Z"/></g>
<g><path style="opacity:1" fill="#95979c" d="M 367.5,174.5 C 365.967,176.245 363.967,177.245 361.5,177.5C 363.033,175.755 365.033,174.755 367.5,174.5 Z"/></g>
<g><path style="opacity:1" fill="#7d8086" d="M 407.5,176.5 C 405.967,178.245 403.967,179.245 401.5,179.5C 403.033,177.755 405.033,176.755 407.5,176.5 Z"/></g>
<g><path style="opacity:1" fill="#83858b" d="M 702.5,176.5 C 704.967,176.755 706.967,177.755 708.5,179.5C 706.033,179.245 704.033,178.245 702.5,176.5 Z"/></g>
<g><path style="opacity:1" fill="#aaacb0" d="M 359.5,178.5 C 357.469,180.755 354.802,182.088 351.5,182.5C 353.789,180.613 356.455,179.279 359.5,178.5 Z"/></g>
<g><path style="opacity:1" fill="#898b91" d="M 399.5,179.5 C 397.967,181.245 395.967,182.245 393.5,182.5C 395.033,180.755 397.033,179.755 399.5,179.5 Z"/></g>
<g><path style="opacity:1" fill="#81838a" d="M 708.5,179.5 C 710.967,179.755 712.967,180.755 714.5,182.5C 712.033,182.245 710.033,181.245 708.5,179.5 Z"/></g>
<g><path style="opacity:1" fill="#878990" d="M 673.5,182.5 C 675.403,182.796 677.07,183.463 678.5,184.5C 676.302,184.88 674.635,184.213 673.5,182.5 Z"/></g>
<g><path style="opacity:1" fill="#b0b1b6" d="M 351.5,182.5 C 350.514,184.408 348.848,185.408 346.5,185.5C 347.659,183.75 349.326,182.75 351.5,182.5 Z"/></g>
<g><path style="opacity:1" fill="#989aa0" d="M 391.5,182.5 C 389.967,184.245 387.967,185.245 385.5,185.5C 387.033,183.755 389.033,182.755 391.5,182.5 Z"/></g>
<g><path style="opacity:1" fill="#6d6f77" d="M 714.5,182.5 C 716.967,182.755 718.967,183.755 720.5,185.5C 718.033,185.245 716.033,184.245 714.5,182.5 Z"/></g>
<g><path style="opacity:1" fill="#7b7d84" d="M 383.5,186.5 C 381.215,188.459 378.549,189.792 375.5,190.5C 377.482,187.863 380.148,186.53 383.5,186.5 Z"/></g>
<g><path style="opacity:1" fill="#7f8288" d="M 684.5,187.5 C 686.967,187.755 688.967,188.755 690.5,190.5C 688.033,190.245 686.033,189.245 684.5,187.5 Z"/></g>
<g><path style="opacity:1" fill="#97999f" d="M 691.5,190.5 C 693.967,190.755 695.967,191.755 697.5,193.5C 695.033,193.245 693.033,192.245 691.5,190.5 Z"/></g>
<g><path style="opacity:1" fill="#808389" d="M 371.5,191.5 C 369.252,194.393 366.252,196.06 362.5,196.5C 365.22,194.473 368.22,192.807 371.5,191.5 Z"/></g>
<g><path style="opacity:1" fill="#9d9fa4" d="M 697.5,193.5 C 699.967,193.755 701.967,194.755 703.5,196.5C 701.033,196.245 699.033,195.245 697.5,193.5 Z"/></g>
<g><path style="opacity:1" fill="#95969c" d="M 327.5,196.5 C 325.853,198.326 323.853,199.66 321.5,200.5C 322.802,198.178 324.802,196.845 327.5,196.5 Z"/></g>
<g><path style="opacity:1" fill="#85878d" d="M 362.5,196.5 C 360.967,198.245 358.967,199.245 356.5,199.5C 358.033,197.755 360.033,196.755 362.5,196.5 Z"/></g>
<g><path style="opacity:1" fill="#97999f" d="M 703.5,196.5 C 706.546,196.725 708.879,198.058 710.5,200.5C 707.9,199.532 705.566,198.199 703.5,196.5 Z"/></g>
<g><path style="opacity:1" fill="#86888e" d="M 356.5,199.5 C 355.341,201.25 353.674,202.25 351.5,202.5C 352.659,200.75 354.326,199.75 356.5,199.5 Z"/></g>
<g><path style="opacity:1" fill="#a2a4a9" d="M 318.5,202.5 C 316.853,204.326 314.853,205.66 312.5,206.5C 313.802,204.178 315.802,202.845 318.5,202.5 Z"/></g>
<g><path style="opacity:1" fill="#7d8086" d="M 328.5,216.5 C 326.853,218.326 324.853,219.66 322.5,220.5C 323.802,218.178 325.802,216.845 328.5,216.5 Z"/></g>
<g><path style="opacity:1" fill="#a7a8ad" d="M 772.5,242.5 C 774.749,243.08 776.415,244.413 777.5,246.5C 775.251,245.92 773.585,244.587 772.5,242.5 Z"/></g>
<g><path style="opacity:1" fill="#6a6d75" d="M 281.5,253.5 C 279.1,256.903 276.1,259.57 272.5,261.5C 274.9,258.097 277.9,255.43 281.5,253.5 Z"/></g>
<g><path style="opacity:1" fill="#bbbdc0" d="M 248.5,261.5 C 246.57,265.1 243.903,268.1 240.5,270.5C 242.43,266.9 245.097,263.9 248.5,261.5 Z"/></g>
<g><path style="opacity:1" fill="#b0b2b6" d="M 826.5,271.5 C 828.914,272.911 830.581,274.911 831.5,277.5C 829.086,276.089 827.419,274.089 826.5,271.5 Z"/></g>
<g><path style="opacity:1" fill="#aeafb4" d="M 238.5,272.5 C 237.92,274.749 236.587,276.415 234.5,277.5C 235.08,275.251 236.413,273.585 238.5,272.5 Z"/></g>
<g><path style="opacity:1" fill="#a5a7ac" d="M 232.5,279.5 C 231.92,281.749 230.587,283.415 228.5,284.5C 229.08,282.251 230.413,280.585 232.5,279.5 Z"/></g>
<g><path style="opacity:1" fill="#aeb0b4" d="M 836.5,283.5 C 838.587,284.585 839.92,286.251 840.5,288.5C 838.413,287.415 837.08,285.749 836.5,283.5 Z"/></g>
<g><path style="opacity:1" fill="#70727a" d="M 248.5,287.5 C 247.92,289.749 246.587,291.415 244.5,292.5C 245.08,290.251 246.413,288.585 248.5,287.5 Z"/></g>
<g><path style="opacity:1" fill="#b0b1b6" d="M 506.5,298.5 C 504.312,297.377 501.979,297.377 499.5,298.5C 499.611,297.883 499.944,297.383 500.5,297C 503.863,296.374 507.196,296.041 510.5,296C 509.529,297.481 508.196,298.315 506.5,298.5 Z"/></g>
<g><path style="opacity:1" fill="#fefefe" d="M 506.5,298.5 C 503.94,300.273 501.607,302.273 499.5,304.5C 496.911,305.419 494.911,307.086 493.5,309.5C 490.833,311.5 488.5,313.833 486.5,316.5C 482.874,319.095 480.208,322.428 478.5,326.5C 476.738,327.262 475.738,328.596 475.5,330.5C 474.094,330.973 473.427,331.973 473.5,333.5C 471.177,336.135 469.344,339.135 468,342.5C 467.023,344.74 466.523,347.073 466.5,349.5C 465.662,349.842 465.328,350.508 465.5,351.5C 464.4,353.277 463.566,355.277 463,357.5C 462.181,363.681 462.347,369.681 463.5,375.5C 463.335,378.518 463.502,381.518 464,384.5C 464.278,385.416 464.778,386.082 465.5,386.5C 465.855,391.214 467.355,395.547 470,399.5C 471.039,400.71 472.206,401.71 473.5,402.5C 474.343,404.173 475.676,405.34 477.5,406C 480.696,406.805 483.696,406.638 486.5,405.5C 488.421,404.637 490.421,403.971 492.5,403.5C 493.333,483.999 493.833,564.666 494,645.5C 494.949,647.093 496.115,648.426 497.5,649.5C 500.935,653.438 504.602,657.271 508.5,661C 510.653,661.099 512.319,661.933 513.5,663.5C 514.808,664.232 516.142,665.066 517.5,666C 524.5,666.667 531.5,666.667 538.5,666C 541.231,664.828 543.898,663.661 546.5,662.5C 548.967,662.245 550.967,661.245 552.5,659.5C 564.003,653.251 575.003,646.251 585.5,638.5C 586.833,605.34 587.5,571.84 587.5,538C 587.333,504.5 587.167,471 587,437.5C 586.617,436.944 586.117,436.611 585.5,436.5C 585.5,435.833 585.5,435.167 585.5,434.5C 585.59,431.848 584.924,429.515 583.5,427.5C 582.425,423.134 580.759,419.134 578.5,415.5C 578.573,413.973 577.906,412.973 576.5,412.5C 572.634,404.964 567.301,398.631 560.5,393.5C 560.389,392.883 560.056,392.383 559.5,392C 564.155,391.501 568.821,391.334 573.5,391.5C 576.86,391.616 580.193,391.949 583.5,392.5C 585.102,394.074 587.102,394.741 589.5,394.5C 589.833,394.5 590.167,394.5 590.5,394.5C 590.611,395.117 590.944,395.617 591.5,396C 594.546,396.739 597.546,397.572 600.5,398.5C 602.449,401.147 604.449,401.147 606.5,398.5C 610.5,395.167 614.167,391.5 617.5,387.5C 621.278,382.383 625.945,378.383 631.5,375.5C 635.207,373.312 638.54,370.645 641.5,367.5C 648.804,361.177 656.804,355.844 665.5,351.5C 668.578,351.413 670.911,350.08 672.5,347.5C 673.605,346.4 674.938,345.733 676.5,345.5C 679.435,344.886 682.268,343.886 685,342.5C 686.03,342.164 686.53,341.497 686.5,340.5C 689.077,340.545 691.077,339.545 692.5,337.5C 694.214,336.262 696.214,335.595 698.5,335.5C 703.081,333.87 707.414,331.87 711.5,329.5C 714.152,329.59 716.485,328.924 718.5,327.5C 721.574,326.698 724.574,325.698 727.5,324.5C 729.898,324.741 731.898,324.074 733.5,322.5C 737.93,321.881 742.263,320.881 746.5,319.5C 748.262,319.643 749.929,319.309 751.5,318.5C 752.298,318.957 752.631,319.624 752.5,320.5C 751.5,320.833 750.833,321.5 750.5,322.5C 748.413,323.585 747.08,325.251 746.5,327.5C 744.413,328.585 743.08,330.251 742.5,332.5C 740.413,333.585 739.08,335.251 738.5,337.5C 736.413,338.585 735.08,340.251 734.5,342.5C 732.413,343.585 731.08,345.251 730.5,347.5C 728.086,348.911 726.419,350.911 725.5,353.5C 711.696,369.77 699.363,387.103 688.5,405.5C 687.094,405.973 686.427,406.973 686.5,408.5C 685.599,409.29 684.932,410.29 684.5,411.5C 683.683,413.969 683.183,416.635 683,419.5C 682.168,469.002 682.335,518.335 683.5,567.5C 683.5,568.5 683.5,569.5 683.5,570.5C 683.333,593.836 683.5,617.169 684,640.5C 684.708,641.381 685.542,642.047 686.5,642.5C 689.196,646.415 692.863,648.748 697.5,649.5C 707.616,651.667 717.283,650.334 726.5,645.5C 728.674,645.25 730.341,644.25 731.5,642.5C 733.967,642.245 735.967,641.245 737.5,639.5C 739.822,637.336 742.489,635.669 745.5,634.5C 748.37,633.567 750.704,631.9 752.5,629.5C 758.808,624.196 765.142,618.863 771.5,613.5C 776.833,610.167 781.167,605.833 784.5,600.5C 785.492,600.328 786.158,600.662 786.5,601.5C 783.29,606.586 780.624,611.92 778.5,617.5C 776.801,619.566 775.468,621.9 774.5,624.5C 769.503,632.492 764.503,640.492 759.5,648.5C 757.178,649.802 755.845,651.802 755.5,654.5C 751.147,659.527 747.147,664.86 743.5,670.5C 741.413,671.585 740.08,673.251 739.5,675.5C 737.367,677.091 735.701,679.091 734.5,681.5C 732.413,682.585 731.08,684.251 730.5,686.5C 727.041,689.415 724.041,692.748 721.5,696.5C 712.833,704.5 704.5,712.833 696.5,721.5C 687.975,727.929 679.642,734.595 671.5,741.5C 668.802,741.845 666.802,743.178 665.5,745.5C 663.973,745.427 662.973,746.094 662.5,747.5C 660.326,747.75 658.659,748.75 657.5,750.5C 655.589,751.075 653.922,752.075 652.5,753.5C 651.504,753.414 650.671,753.748 650,754.5C 648.549,752.536 646.716,751.203 644.5,750.5C 641.216,748.883 638.549,746.55 636.5,743.5C 635.415,741.413 633.749,740.08 631.5,739.5C 623.753,733.629 616.42,727.296 609.5,720.5C 608.415,718.413 606.749,717.08 604.5,716.5C 602.46,714.823 600.46,713.156 598.5,711.5C 595.765,710.179 594.098,711.179 593.5,714.5C 590.833,716.5 588.5,718.833 586.5,721.5C 583.097,723.9 580.43,726.9 578.5,730.5C 575.5,732.833 572.833,735.5 570.5,738.5C 567.757,740.239 565.757,742.573 564.5,745.5C 562.833,746.5 561.5,747.833 560.5,749.5C 556.766,752.231 553.766,755.564 551.5,759.5C 547.833,762.5 544.5,765.833 541.5,769.5C 534.167,768.833 526.833,768.167 519.5,767.5C 514.021,767.129 508.688,766.129 503.5,764.5C 503.389,763.883 503.056,763.383 502.5,763C 499.854,762.503 497.187,762.336 494.5,762.5C 493.791,761.596 492.791,761.263 491.5,761.5C 491.389,760.883 491.056,760.383 490.5,760C 487.456,759.637 484.456,759.137 481.5,758.5C 476.09,756.831 470.756,755.164 465.5,753.5C 461.051,750.595 456.051,748.928 450.5,748.5C 445.38,745.873 440.047,743.54 434.5,741.5C 432.967,739.755 430.967,738.755 428.5,738.5C 425.702,737.35 423.035,736.017 420.5,734.5C 419.313,732.025 417.313,731.025 414.5,731.5C 406.319,726.909 398.653,721.576 391.5,715.5C 390.415,713.413 388.749,712.08 386.5,711.5C 385.5,711.167 384.833,710.5 384.5,709.5C 382.431,706.427 379.764,704.094 376.5,702.5C 375.833,702.167 375.167,701.833 374.5,701.5C 372.57,697.9 369.903,694.9 366.5,692.5C 366.262,690.596 365.262,689.262 363.5,688.5C 363.297,686.956 362.63,685.622 361.5,684.5C 362,684.167 362.5,683.833 363,683.5C 369.788,684.445 376.621,684.778 383.5,684.5C 387.868,684.721 391.202,683.054 393.5,679.5C 393.427,677.973 394.094,676.973 395.5,676.5C 397.554,673.992 398.554,670.992 398.5,667.5C 399.665,603.001 399.832,538.335 399,473.5C 398.617,472.944 398.117,472.611 397.5,472.5C 397.672,471.508 397.338,470.842 396.5,470.5C 396.573,468.973 395.906,467.973 394.5,467.5C 392.182,465.683 390.016,463.683 388,461.5C 386.56,460.852 385.06,460.519 383.5,460.5C 379.019,459.352 374.352,459.185 369.5,460C 368.944,460.383 368.611,460.883 368.5,461.5C 368.167,461.5 367.833,461.5 367.5,461.5C 365.517,461.157 364.183,461.824 363.5,463.5C 360.509,463.166 358.176,464.166 356.5,466.5C 347.418,471.043 339.418,477.043 332.5,484.5C 326.167,488.833 320.833,494.167 316.5,500.5C 314.167,502.167 312.167,504.167 310.5,506.5C 308.413,507.585 307.08,509.251 306.5,511.5C 301.085,516.579 296.418,522.246 292.5,528.5C 290.413,529.585 289.08,531.251 288.5,533.5C 286.738,534.262 285.738,535.596 285.5,537.5C 283.1,539.296 281.433,541.63 280.5,544.5C 276.39,548.951 273.056,553.951 270.5,559.5C 267.061,562.31 264.727,565.977 263.5,570.5C 259.142,575.879 255.808,581.879 253.5,588.5C 251.399,591.248 249.566,594.248 248,597.5C 247.5,588.173 247.334,578.839 247.5,569.5C 247.5,568.833 247.5,568.167 247.5,567.5C 248.222,567.082 248.722,566.416 249,565.5C 249.411,560.481 249.911,555.481 250.5,550.5C 252.237,546.458 253.237,542.124 253.5,537.5C 254.924,535.485 255.59,533.152 255.5,530.5C 255.875,528.302 256.542,526.302 257.5,524.5C 259.897,521.691 261.23,518.358 261.5,514.5C 261.5,514.167 261.5,513.833 261.5,513.5C 263.874,511.066 265.208,508.066 265.5,504.5C 265.733,502.938 266.4,501.605 267.5,500.5C 269.245,498.967 270.245,496.967 270.5,494.5C 270.66,492.847 271.326,491.514 272.5,490.5C 273.376,490.631 274.043,490.298 274.5,489.5C 276.058,487.009 277.058,484.343 277.5,481.5C 278.906,481.027 279.573,480.027 279.5,478.5C 279.328,477.508 279.662,476.842 280.5,476.5C 282.822,475.198 284.155,473.198 284.5,470.5C 287.73,464.273 291.73,458.607 296.5,453.5C 298.587,452.415 299.92,450.749 300.5,448.5C 302.785,444.273 305.785,440.607 309.5,437.5C 311.914,436.089 313.581,434.089 314.5,431.5C 317.142,427.225 320.475,423.558 324.5,420.5C 328.898,417.105 332.564,413.105 335.5,408.5C 343.5,399.833 351.833,391.5 360.5,383.5C 364.1,381.57 367.1,378.903 369.5,375.5C 393.343,352.575 420.01,333.575 449.5,318.5C 451.027,318.573 452.027,317.906 452.5,316.5C 452.833,316.5 453.167,316.5 453.5,316.5C 455.967,316.245 457.967,315.245 459.5,313.5C 461.967,313.245 463.967,312.245 465.5,310.5C 465.833,310.5 466.167,310.5 466.5,310.5C 468.967,310.245 470.967,309.245 472.5,307.5C 473.833,307.167 475.167,306.833 476.5,306.5C 480.358,306.23 483.691,304.897 486.5,302.5C 487.568,301.566 488.901,301.232 490.5,301.5C 493.811,301.117 496.811,300.117 499.5,298.5C 501.979,297.377 504.312,297.377 506.5,298.5 Z"/></g>
<g><path style="opacity:1" fill="#70737b" d="M 240.5,297.5 C 239.92,299.749 238.587,301.415 236.5,302.5C 237.08,300.251 238.413,298.585 240.5,297.5 Z"/></g>
<g><path style="opacity:1" fill="#a2a4a9" d="M 499.5,298.5 C 496.811,300.117 493.811,301.117 490.5,301.5C 493.008,299.446 496.008,298.446 499.5,298.5 Z"/></g>
<g><path style="opacity:1" fill="#71737b" d="M 824.5,296.5 C 826.914,297.911 828.581,299.911 829.5,302.5C 827.086,301.089 825.419,299.089 824.5,296.5 Z"/></g>
<g><path style="opacity:1" fill="#b0b1b5" d="M 486.5,302.5 C 483.691,304.897 480.358,306.23 476.5,306.5C 478.382,305.249 480.382,304.082 482.5,303C 483.793,302.51 485.127,302.343 486.5,302.5 Z"/></g>
<g><path style="opacity:1" fill="#6c6f76" d="M 499.5,304.5 C 498.089,306.914 496.089,308.581 493.5,309.5C 494.911,307.086 496.911,305.419 499.5,304.5 Z"/></g>
<g><path style="opacity:1" fill="#8c8f95" d="M 472.5,307.5 C 470.967,309.245 468.967,310.245 466.5,310.5C 468.033,308.755 470.033,307.755 472.5,307.5 Z"/></g>
<g><path style="opacity:1" fill="#808289" d="M 465.5,310.5 C 463.967,312.245 461.967,313.245 459.5,313.5C 461.033,311.755 463.033,310.755 465.5,310.5 Z"/></g>
<g><path style="opacity:1" fill="#9a9ca1" d="M 459.5,313.5 C 457.967,315.245 455.967,316.245 453.5,316.5C 455.033,314.755 457.033,313.755 459.5,313.5 Z"/></g>
<g><path style="opacity:1" fill="#898c92" d="M 452.5,316.5 C 452.027,317.906 451.027,318.573 449.5,318.5C 449.973,317.094 450.973,316.427 452.5,316.5 Z"/></g>
<g><path style="opacity:1" fill="#797b82" d="M 752.5,320.5 C 752.631,319.624 752.298,318.957 751.5,318.5C 749.929,319.309 748.262,319.643 746.5,319.5C 748.515,318.076 750.848,317.41 753.5,317.5C 753.737,318.791 753.404,319.791 752.5,320.5 Z"/></g>
<g><path style="opacity:1" fill="#6e7078" d="M 486.5,316.5 C 484.312,320.207 481.645,323.54 478.5,326.5C 480.208,322.428 482.874,319.095 486.5,316.5 Z"/></g>
<g><path style="opacity:1" fill="#919399" d="M 202.5,320.5 C 202.25,322.674 201.25,324.341 199.5,325.5C 199.75,323.326 200.75,321.659 202.5,320.5 Z"/></g>
<g><path style="opacity:1" fill="#8c8e94" d="M 733.5,322.5 C 731.898,324.074 729.898,324.741 727.5,324.5C 729.102,322.926 731.102,322.259 733.5,322.5 Z"/></g>
<g><path style="opacity:1" fill="#6e7179" d="M 750.5,322.5 C 749.92,324.749 748.587,326.415 746.5,327.5C 747.08,325.251 748.413,323.585 750.5,322.5 Z"/></g>
<g><path style="opacity:1" fill="#898c92" d="M 718.5,327.5 C 716.485,328.924 714.152,329.59 711.5,329.5C 713.515,328.076 715.848,327.41 718.5,327.5 Z"/></g>
<g><path style="opacity:1" fill="#6b6d75" d="M 746.5,327.5 C 745.92,329.749 744.587,331.415 742.5,332.5C 743.08,330.251 744.413,328.585 746.5,327.5 Z"/></g>
<g><path style="opacity:1" fill="#93959b" d="M 711.5,329.5 C 707.414,331.87 703.081,333.87 698.5,335.5C 702.176,332.372 706.509,330.372 711.5,329.5 Z"/></g>
<g><path style="opacity:1" fill="#87898f" d="M 475.5,330.5 C 475.573,332.027 474.906,333.027 473.5,333.5C 473.427,331.973 474.094,330.973 475.5,330.5 Z"/></g>
<g><path style="opacity:1" fill="#6a6d75" d="M 742.5,332.5 C 741.92,334.749 740.587,336.415 738.5,337.5C 739.08,335.251 740.413,333.585 742.5,332.5 Z"/></g>
<g><path style="opacity:1" fill="#adafb3" d="M 692.5,337.5 C 691.077,339.545 689.077,340.545 686.5,340.5C 688.03,338.654 690.03,337.654 692.5,337.5 Z"/></g>
<g><path style="opacity:1" fill="#aeafb4" d="M 193.5,335.5 C 193.275,338.546 191.942,340.879 189.5,342.5C 190.468,339.9 191.801,337.566 193.5,335.5 Z"/></g>
<g><path style="opacity:1" fill="#6a6c74" d="M 738.5,337.5 C 737.92,339.749 736.587,341.415 734.5,342.5C 735.08,340.251 736.413,338.585 738.5,337.5 Z"/></g>
<g><path style="opacity:1" fill="#73757d" d="M 473.5,333.5 C 471.678,339.136 469.344,344.47 466.5,349.5C 466.523,347.073 467.023,344.74 468,342.5C 469.344,339.135 471.177,336.135 473.5,333.5 Z"/></g>
<g><path style="opacity:1" fill="#b1b2b6" d="M 686.5,340.5 C 686.53,341.497 686.03,342.164 685,342.5C 682.268,343.886 679.435,344.886 676.5,345.5C 679.368,343.088 682.701,341.421 686.5,340.5 Z"/></g>
<g><path style="opacity:1" fill="#767980" d="M 210.5,340.5 C 210.275,343.546 208.942,345.879 206.5,347.5C 207.468,344.9 208.801,342.566 210.5,340.5 Z"/></g>
<g><path style="opacity:1" fill="#8e9096" d="M 857.5,344.5 C 858.906,344.973 859.573,345.973 859.5,347.5C 858.094,347.027 857.427,346.027 857.5,344.5 Z"/></g>
<g><path style="opacity:1" fill="#aaacb0" d="M 672.5,347.5 C 670.911,350.08 668.578,351.413 665.5,351.5C 667.336,349.412 669.669,348.079 672.5,347.5 Z"/></g>
<g><path style="opacity:1" fill="#6f727a" d="M 730.5,347.5 C 729.581,350.089 727.914,352.089 725.5,353.5C 726.419,350.911 728.086,348.911 730.5,347.5 Z"/></g>
<g><path style="opacity:1" fill="#aeb0b4" d="M 185.5,350.5 C 185.408,352.848 184.408,354.514 182.5,355.5C 182.75,353.326 183.75,351.659 185.5,350.5 Z"/></g>
<g><path style="opacity:1" fill="#8a8c92" d="M 863.5,355.5 C 864.906,355.973 865.573,356.973 865.5,358.5C 864.094,358.027 863.427,357.027 863.5,355.5 Z"/></g>
<g><path style="opacity:1" fill="#81848a" d="M 202.5,354.5 C 202.088,357.802 200.755,360.469 198.5,362.5C 199.279,359.455 200.613,356.789 202.5,354.5 Z"/></g>
<g><path style="opacity:1" fill="#a8aaae" d="M 181.5,357.5 C 181.975,360.313 180.975,362.313 178.5,363.5C 179.508,361.456 180.508,359.456 181.5,357.5 Z"/></g>
<g><path style="opacity:1" fill="#aaabb0" d="M 883.5,356.5 C 885.245,358.033 886.245,360.033 886.5,362.5C 884.755,360.967 883.755,358.967 883.5,356.5 Z"/></g>
<g><path style="opacity:1" fill="#bcbdc1" d="M 465.5,351.5 C 465.5,352.833 465.5,354.167 465.5,355.5C 464.732,356.263 464.232,357.263 464,358.5C 463.501,364.157 463.334,369.824 463.5,375.5C 462.347,369.681 462.181,363.681 463,357.5C 463.566,355.277 464.4,353.277 465.5,351.5 Z"/></g>
<g><path style="opacity:1" fill="#5d6068" d="M 465.5,355.5 C 464.197,365.829 464.197,376.162 465.5,386.5C 464.778,386.082 464.278,385.416 464,384.5C 463.502,381.518 463.335,378.518 463.5,375.5C 463.334,369.824 463.501,364.157 464,358.5C 464.232,357.263 464.732,356.263 465.5,355.5 Z"/></g>
<g><path style="opacity:1" fill="#999ba1" d="M 886.5,362.5 C 888.245,364.033 889.245,366.033 889.5,368.5C 887.755,366.967 886.755,364.967 886.5,362.5 Z"/></g>
<g><path style="opacity:1" fill="#afb0b5" d="M 641.5,367.5 C 638.54,370.645 635.207,373.312 631.5,375.5C 634.095,371.874 637.428,369.208 641.5,367.5 Z"/></g>
<g><path style="opacity:1" fill="#6d7077" d="M 869.5,367.5 C 871.245,369.033 872.245,371.033 872.5,373.5C 870.755,371.967 869.755,369.967 869.5,367.5 Z"/></g>
<g><path style="opacity:1" fill="#acadb2" d="M 176.5,369.5 C 176.245,371.967 175.245,373.967 173.5,375.5C 173.755,373.033 174.755,371.033 176.5,369.5 Z"/></g>
<g><path style="opacity:1" fill="#babbbf" d="M 369.5,375.5 C 367.1,378.903 364.1,381.57 360.5,383.5C 362.9,380.097 365.9,377.43 369.5,375.5 Z"/></g>
<g><path style="opacity:1" fill="#96989e" d="M 872.5,373.5 C 874.396,375.837 875.73,378.504 876.5,381.5C 874.229,379.388 872.896,376.721 872.5,373.5 Z"/></g>
<g><path style="opacity:1" fill="#888a91" d="M 171.5,380.5 C 171.245,382.967 170.245,384.967 168.5,386.5C 168.755,384.033 169.755,382.033 171.5,380.5 Z"/></g>
<g><path style="opacity:1" fill="#93969b" d="M 188.5,384.5 C 188.245,386.967 187.245,388.967 185.5,390.5C 185.755,388.033 186.755,386.033 188.5,384.5 Z"/></g>
<g><path style="opacity:1" fill="#5a5d66" d="M 568.5,390.5 C 564.671,389.931 561.337,390.598 558.5,392.5C 556.952,392.179 556.285,391.179 556.5,389.5C 560.702,389.183 564.702,389.517 568.5,390.5 Z"/></g>
<g><path style="opacity:1" fill="#acaeb2" d="M 568.5,390.5 C 570.415,390.216 572.081,390.549 573.5,391.5C 568.821,391.334 564.155,391.501 559.5,392C 560.056,392.383 560.389,392.883 560.5,393.5C 559.508,393.672 558.842,393.338 558.5,392.5C 561.337,390.598 564.671,389.931 568.5,390.5 Z"/></g>
<g><path style="opacity:1" fill="#a0a2a7" d="M 583.5,392.5 C 585.898,392.259 587.898,392.926 589.5,394.5C 587.102,394.741 585.102,394.074 583.5,392.5 Z"/></g>
<g><path style="opacity:1" fill="#a5a6ab" d="M 617.5,387.5 C 614.167,391.5 610.5,395.167 606.5,398.5C 609.167,393.833 612.833,390.167 617.5,387.5 Z"/></g>
<g><path style="opacity:1" fill="#a0a1a6" d="M 898.5,390.5 C 899.751,392.382 900.918,394.382 902,396.5C 902.49,397.793 902.657,399.127 902.5,400.5C 900.103,397.691 898.77,394.358 898.5,390.5 Z"/></g>
<g><path style="opacity:1" fill="#9b9ca2" d="M 590.5,394.5 C 594.313,394.938 597.646,396.271 600.5,398.5C 597.546,397.572 594.546,396.739 591.5,396C 590.944,395.617 590.611,395.117 590.5,394.5 Z"/></g>
<g><path style="opacity:1" fill="#75777e" d="M 473.5,402.5 C 477.45,404.879 481.784,405.879 486.5,405.5C 483.696,406.638 480.696,406.805 477.5,406C 475.676,405.34 474.343,404.173 473.5,402.5 Z"/></g>
<g><path style="opacity:1" fill="#cdced0" d="M 492.5,403.5 C 492.56,402.957 492.893,402.624 493.5,402.5C 494.167,483.167 494.833,563.833 495.5,644.5C 496.562,646.022 497.229,647.688 497.5,649.5C 496.115,648.426 494.949,647.093 494,645.5C 493.833,564.666 493.333,483.999 492.5,403.5 Z"/></g>
<g><path style="opacity:1" fill="#72757c" d="M 163.5,400.5 C 162.946,403.746 161.946,406.746 160.5,409.5C 160.446,406.008 161.446,403.008 163.5,400.5 Z"/></g>
<g><path style="opacity:1" fill="#6e7179" d="M 902.5,400.5 C 904.554,403.008 905.554,406.008 905.5,409.5C 904.054,406.746 903.054,403.746 902.5,400.5 Z"/></g>
<g><path style="opacity:1" fill="#92949a" d="M 688.5,405.5 C 688.573,407.027 687.906,408.027 686.5,408.5C 686.427,406.973 687.094,405.973 688.5,405.5 Z"/></g>
<g><path style="opacity:1" fill="#acaeb2" d="M 885.5,404.5 C 887.554,407.008 888.554,410.008 888.5,413.5C 887.054,410.746 886.054,407.746 885.5,404.5 Z"/></g>
<g><path style="opacity:1" fill="#8a8c92" d="M 576.5,412.5 C 577.906,412.973 578.573,413.973 578.5,415.5C 577.094,415.027 576.427,414.027 576.5,412.5 Z"/></g>
<g><path style="opacity:1" fill="#6c6f77" d="M 160.5,409.5 C 159.946,412.746 158.946,415.746 157.5,418.5C 157.446,415.008 158.446,412.008 160.5,409.5 Z"/></g>
<g><path style="opacity:1" fill="#abadb1" d="M 335.5,408.5 C 332.564,413.105 328.898,417.105 324.5,420.5C 327.436,415.895 331.102,411.895 335.5,408.5 Z"/></g>
<g><path style="opacity:1" fill="#93959a" d="M 907.5,416.5 C 909.61,420.502 910.943,424.835 911.5,429.5C 909.39,425.498 908.057,421.165 907.5,416.5 Z"/></g>
<g><path style="opacity:1" fill="#8c8e95" d="M 583.5,427.5 C 584.924,429.515 585.59,431.848 585.5,434.5C 584.076,432.485 583.41,430.152 583.5,427.5 Z"/></g>
<g><path style="opacity:1" fill="#9fa1a6" d="M 174.5,422.5 C 174.13,426.137 173.13,429.47 171.5,432.5C 171.804,429.478 172.304,426.478 173,423.5C 173.383,422.944 173.883,422.611 174.5,422.5 Z"/></g>
<g><path style="opacity:1" fill="#898b91" d="M 684.5,411.5 C 683.576,463.492 683.243,515.492 683.5,567.5C 682.335,518.335 682.168,469.002 683,419.5C 683.183,416.635 683.683,413.969 684.5,411.5 Z"/></g>
<g><path style="opacity:1" fill="#696c73" d="M 892.5,428.5 C 894.074,430.102 894.741,432.102 894.5,434.5C 892.926,432.898 892.259,430.898 892.5,428.5 Z"/></g>
<g><path style="opacity:1" fill="#b1b3b7" d="M 314.5,431.5 C 313.581,434.089 311.914,436.089 309.5,437.5C 310.419,434.911 312.086,432.911 314.5,431.5 Z"/></g>
<g><path style="opacity:1" fill="#b0b2b6" d="M 153.5,435.5 C 153.59,438.152 152.924,440.485 151.5,442.5C 151.41,439.848 152.076,437.515 153.5,435.5 Z"/></g>
<g><path style="opacity:1" fill="#adafb3" d="M 912.5,435.5 C 913.924,437.515 914.59,439.848 914.5,442.5C 913.076,440.485 912.41,438.152 912.5,435.5 Z"/></g>
<g><path style="opacity:1" fill="#c8c9cb" d="M 585.5,436.5 C 586.117,436.611 586.617,436.944 587,437.5C 587.167,471 587.333,504.5 587.5,538C 587.5,571.84 586.833,605.34 585.5,638.5C 585.5,571.167 585.5,503.833 585.5,436.5 Z"/></g>
<g><path style="opacity:1" fill="#70727a" d="M 170.5,438.5 C 170.245,442.8 169.245,446.8 167.5,450.5C 167.952,446.837 168.452,443.17 169,439.5C 169.383,438.944 169.883,438.611 170.5,438.5 Z"/></g>
<g><path style="opacity:1" fill="#61646c" d="M 895.5,438.5 C 897.237,442.542 898.237,446.876 898.5,451.5C 897.778,451.082 897.278,450.416 897,449.5C 896.452,445.83 895.952,442.163 895.5,438.5 Z"/></g>
<g><path style="opacity:1" fill="#adafb3" d="M 300.5,448.5 C 299.92,450.749 298.587,452.415 296.5,453.5C 297.08,451.251 298.413,449.585 300.5,448.5 Z"/></g>
<g><path style="opacity:1" fill="#82848b" d="M 150.5,447.5 C 150.741,449.898 150.074,451.898 148.5,453.5C 148.259,451.102 148.926,449.102 150.5,447.5 Z"/></g>
<g><path style="opacity:1" fill="#5d6068" d="M 167.5,450.5 C 167.956,455.607 166.956,460.274 164.5,464.5C 164.87,459.578 165.87,454.911 167.5,450.5 Z"/></g>
<g><path style="opacity:1" fill="#9ea0a5" d="M 383.5,460.5 C 378.438,460.274 373.438,460.608 368.5,461.5C 368.611,460.883 368.944,460.383 369.5,460C 374.352,459.185 379.019,459.352 383.5,460.5 Z"/></g>
<g><path style="opacity:1" fill="#87898f" d="M 367.5,461.5 C 366.486,462.674 365.153,463.34 363.5,463.5C 364.183,461.824 365.517,461.157 367.5,461.5 Z"/></g>
<g><path style="opacity:1" fill="#74777e" d="M 917.5,456.5 C 918.222,456.918 918.722,457.584 919,458.5C 919.548,462.17 920.048,465.837 920.5,469.5C 918.763,465.458 917.763,461.124 917.5,456.5 Z"/></g>
<g><path style="opacity:1" fill="#7f8288" d="M 148.5,456.5 C 148.048,460.163 147.548,463.83 147,467.5C 146.722,468.416 146.222,469.082 145.5,469.5C 145.763,464.876 146.763,460.542 148.5,456.5 Z"/></g>
<g><path style="opacity:1" fill="#74777e" d="M 363.5,463.5 C 361.491,465.065 359.157,466.065 356.5,466.5C 358.176,464.166 360.509,463.166 363.5,463.5 Z"/></g>
<g><path style="opacity:1" fill="#8e9096" d="M 394.5,467.5 C 395.906,467.973 396.573,468.973 396.5,470.5C 395.094,470.027 394.427,469.027 394.5,467.5 Z"/></g>
<g><path style="opacity:1" fill="#83858c" d="M 899.5,455.5 C 901.875,460.089 902.875,465.089 902.5,470.5C 901.876,468.166 901.043,465.833 900,463.5C 899.503,460.854 899.336,458.187 899.5,455.5 Z"/></g>
<g><path style="opacity:1" fill="#9ea0a5" d="M 284.5,470.5 C 284.155,473.198 282.822,475.198 280.5,476.5C 281.34,474.147 282.674,472.147 284.5,470.5 Z"/></g>
<g><path style="opacity:1" fill="#c2c3c6" d="M 902.5,470.5 C 903.117,470.611 903.617,470.944 904,471.5C 904.83,476.808 905.33,482.141 905.5,487.5C 905.167,487.5 904.833,487.5 904.5,487.5C 904.02,481.809 903.354,476.142 902.5,470.5 Z"/></g>
<g><path style="opacity:1" fill="#6c6f76" d="M 145.5,474.5 C 145.247,478.04 144.581,481.373 143.5,484.5C 143.336,481.813 143.503,479.146 144,476.5C 144.278,475.584 144.778,474.918 145.5,474.5 Z"/></g>
<g><path style="opacity:1" fill="#6a6d75" d="M 920.5,474.5 C 921.222,474.918 921.722,475.584 922,476.5C 922.497,479.146 922.664,481.813 922.5,484.5C 922.167,484.5 921.833,484.5 921.5,484.5C 921.384,481.14 921.051,477.807 920.5,474.5 Z"/></g>
<g><path style="opacity:1" fill="#94959b" d="M 279.5,478.5 C 279.573,480.027 278.906,481.027 277.5,481.5C 277.427,479.973 278.094,478.973 279.5,478.5 Z"/></g>
<g><path style="opacity:1" fill="#babbbf" d="M 397.5,472.5 C 398.117,472.611 398.617,472.944 399,473.5C 399.832,538.335 399.665,603.001 398.5,667.5C 398.826,602.459 398.493,537.459 397.5,472.5 Z"/></g>
<g><path style="opacity:1" fill="#c0c1c4" d="M 277.5,481.5 C 277.058,484.343 276.058,487.009 274.5,489.5C 274.043,490.298 273.376,490.631 272.5,490.5C 273.41,487.008 275.076,484.008 277.5,481.5 Z"/></g>
<g><path style="opacity:1" fill="#6a6d75" d="M 332.5,484.5 C 327.5,490.167 322.167,495.5 316.5,500.5C 320.833,494.167 326.167,488.833 332.5,484.5 Z"/></g>
<g><path style="opacity:1" fill="#50535c" d="M 922.5,486.5 C 923.268,487.263 923.768,488.263 924,489.5C 924.611,496.164 925.111,502.83 925.5,509.5C 924.833,508.167 924.167,506.833 923.5,505.5C 923.5,503.167 923.5,500.833 923.5,498.5C 923.495,494.466 923.162,490.466 922.5,486.5 Z"/></g>
<g><path style="opacity:1" fill="#75787f" d="M 161.5,486.5 C 161.556,491.731 160.889,496.731 159.5,501.5C 159.444,496.269 160.111,491.269 161.5,486.5 Z"/></g>
<g><path style="opacity:1" fill="#4b4f58" d="M 143.5,486.5 C 143.249,491.507 142.916,496.507 142.5,501.5C 141.833,502.833 141.167,504.167 140.5,505.5C 139.755,498.676 140.755,492.342 143.5,486.5 Z"/></g>
<g><path style="opacity:1" fill="#adafb3" d="M 921.5,484.5 C 921.833,484.5 922.167,484.5 922.5,484.5C 922.5,485.167 922.5,485.833 922.5,486.5C 923.162,490.466 923.495,494.466 923.5,498.5C 922.028,494.081 921.362,489.414 921.5,484.5 Z"/></g>
<g><path style="opacity:1" fill="#898b91" d="M 904.5,487.5 C 904.833,487.5 905.167,487.5 905.5,487.5C 906.162,491.466 906.495,495.466 906.5,499.5C 904.864,495.79 904.198,491.79 904.5,487.5 Z"/></g>
<g><path style="opacity:1" fill="#9fa1a6" d="M 270.5,494.5 C 270.245,496.967 269.245,498.967 267.5,500.5C 267.755,498.033 268.755,496.033 270.5,494.5 Z"/></g>
<g><path style="opacity:1" fill="#73757c" d="M 310.5,506.5 C 309.92,508.749 308.587,510.415 306.5,511.5C 307.08,509.251 308.413,507.585 310.5,506.5 Z"/></g>
<g><path style="opacity:1" fill="#999ba0" d="M 265.5,504.5 C 265.208,508.066 263.874,511.066 261.5,513.5C 262.083,510.053 263.416,507.053 265.5,504.5 Z"/></g>
<g><path style="opacity:1" fill="#adaeb3" d="M 261.5,514.5 C 261.23,518.358 259.897,521.691 257.5,524.5C 257.343,523.127 257.51,521.793 258,520.5C 259.082,518.382 260.249,516.382 261.5,514.5 Z"/></g>
<g><path style="opacity:1" fill="#a8aaae" d="M 906.5,508.5 C 907.117,508.611 907.617,508.944 908,509.5C 908.167,516.833 908.333,524.167 908.5,531.5C 908.497,539.198 907.831,546.532 906.5,553.5C 906.5,538.5 906.5,523.5 906.5,508.5 Z"/></g>
<g><path style="opacity:1" fill="#6f7279" d="M 292.5,528.5 C 291.92,530.749 290.587,532.415 288.5,533.5C 289.08,531.251 290.413,529.585 292.5,528.5 Z"/></g>
<g><path style="opacity:1" fill="#bdbec2" d="M 923.5,505.5 C 924.167,506.833 924.833,508.167 925.5,509.5C 925.5,524.5 925.5,539.5 925.5,554.5C 924.833,555.833 924.167,557.167 923.5,558.5C 924.75,540.835 924.75,523.169 923.5,505.5 Z"/></g>
<g><path style="opacity:1" fill="#94969b" d="M 255.5,530.5 C 255.59,533.152 254.924,535.485 253.5,537.5C 253.41,534.848 254.076,532.515 255.5,530.5 Z"/></g>
<g><path style="opacity:1" fill="#b3b4b8" d="M 159.5,503.5 C 158.467,519.486 158.3,535.486 159,551.5C 160.6,564.8 161.767,578.133 162.5,591.5C 160.323,579.719 158.823,567.719 158,555.5C 157.333,540.5 157.333,525.5 158,510.5C 158.186,507.964 158.686,505.631 159.5,503.5 Z"/></g>
<g><path style="opacity:1" fill="#b8b9bd" d="M 142.5,501.5 C 141.281,520.17 141.281,538.837 142.5,557.5C 141.833,556.5 141.167,555.5 140.5,554.5C 140.5,538.167 140.5,521.833 140.5,505.5C 141.167,504.167 141.833,502.833 142.5,501.5 Z"/></g>
<g><path style="opacity:1" fill="#6d6f77" d="M 285.5,537.5 C 284.567,540.37 282.9,542.704 280.5,544.5C 281.433,541.63 283.1,539.296 285.5,537.5 Z"/></g>
<g><path style="opacity:1" fill="#a7a8ad" d="M 253.5,537.5 C 253.237,542.124 252.237,546.458 250.5,550.5C 250.952,546.837 251.452,543.17 252,539.5C 252.278,538.584 252.778,537.918 253.5,537.5 Z"/></g>
<g><path style="opacity:1" fill="#656870" d="M 925.5,554.5 C 925.771,559.434 925.104,564.1 923.5,568.5C 923.5,567.833 923.5,567.167 923.5,566.5C 923.5,563.833 923.5,561.167 923.5,558.5C 924.167,557.167 924.833,555.833 925.5,554.5 Z"/></g>
<g><path style="opacity:1" fill="#acadb2" d="M 250.5,550.5 C 249.911,555.481 249.411,560.481 249,565.5C 248.722,566.416 248.222,567.082 247.5,567.5C 247.783,561.566 248.783,555.9 250.5,550.5 Z"/></g>
<g><path style="opacity:1" fill="#63666e" d="M 270.5,559.5 C 268.863,562.817 267.196,566.15 265.5,569.5C 265.043,570.298 264.376,570.631 263.5,570.5C 264.727,565.977 267.061,562.31 270.5,559.5 Z"/></g>
<g><path style="opacity:1" fill="#686b73" d="M 140.5,554.5 C 141.167,555.5 141.833,556.5 142.5,557.5C 142.76,563.172 143.093,568.839 143.5,574.5C 142.778,574.082 142.278,573.416 142,572.5C 141.301,566.511 140.801,560.511 140.5,554.5 Z"/></g>
<g><path style="opacity:1" fill="#a4a5aa" d="M 923.5,566.5 C 923.5,567.167 923.5,567.833 923.5,568.5C 923.156,574.678 922.489,580.678 921.5,586.5C 921.334,581.156 921.501,575.823 922,570.5C 922.21,568.942 922.71,567.609 923.5,566.5 Z"/></g>
<g><path style="opacity:1" fill="#c1c2c6" d="M 905.5,571.5 C 905.665,578.192 905.332,584.859 904.5,591.5C 904.415,593.333 903.748,594.666 902.5,595.5C 903.066,587.31 904.066,579.31 905.5,571.5 Z"/></g>
<g><path style="opacity:1" fill="#7c7e86" d="M 162.5,591.5 C 163.117,591.611 163.617,591.944 164,592.5C 164.497,595.146 164.664,597.813 164.5,600.5C 163.343,597.727 162.676,594.727 162.5,591.5 Z"/></g>
<g><path style="opacity:1" fill="#6a6c74" d="M 247.5,569.5 C 247.334,578.839 247.5,588.173 248,597.5C 249.566,594.248 251.399,591.248 253.5,588.5C 252.704,591.556 251.704,594.556 250.5,597.5C 249.476,598.853 248.143,599.52 246.5,599.5C 246.173,589.319 246.506,579.319 247.5,569.5 Z"/></g>
<g><path style="opacity:1" fill="#a9abaf" d="M 786.5,601.5 C 786.158,600.662 785.492,600.328 784.5,600.5C 785.6,597.984 787.267,596.984 789.5,597.5C 788.965,599.261 787.965,600.594 786.5,601.5 Z"/></g>
<g><path style="opacity:1" fill="#9a9ca1" d="M 920.5,593.5 C 920.192,597.36 919.525,601.026 918.5,604.5C 918.116,600.511 918.783,596.845 920.5,593.5 Z"/></g>
<g><path style="opacity:1" fill="#bcbdc1" d="M 784.5,600.5 C 781.167,605.833 776.833,610.167 771.5,613.5C 775.5,608.833 779.833,604.5 784.5,600.5 Z"/></g>
<g><path style="opacity:1" fill="#9a9ca1" d="M 147.5,604.5 C 149.773,609.451 150.773,614.784 150.5,620.5C 148.956,615.394 147.956,610.061 147.5,604.5 Z"/></g>
<g><path style="opacity:1" fill="#9b9da2" d="M 900.5,608.5 C 900.018,614.93 898.351,620.93 895.5,626.5C 896.668,620.832 897.834,615.165 899,609.5C 899.383,608.944 899.883,608.611 900.5,608.5 Z"/></g>
<g><path style="opacity:1" fill="#b6b7bb" d="M 165.5,608.5 C 167.237,612.542 168.237,616.876 168.5,621.5C 167.778,621.082 167.278,620.416 167,619.5C 166.452,615.83 165.952,612.163 165.5,608.5 Z"/></g>
<g><path style="opacity:1" fill="#6d6f77" d="M 778.5,617.5 C 778.275,620.546 776.942,622.879 774.5,624.5C 775.468,621.9 776.801,619.566 778.5,617.5 Z"/></g>
<g><path style="opacity:1" fill="#85878e" d="M 917.5,610.5 C 917.237,615.124 916.237,619.458 914.5,623.5C 914.952,619.837 915.452,616.17 916,612.5C 916.278,611.584 916.778,610.918 917.5,610.5 Z"/></g>
<g><path style="opacity:1" fill="#909398" d="M 168.5,622.5 C 170.213,623.635 170.88,625.302 170.5,627.5C 168.787,626.365 168.12,624.698 168.5,622.5 Z"/></g>
<g><path style="opacity:1" fill="#82848b" d="M 683.5,570.5 C 684.109,594.363 685.109,618.363 686.5,642.5C 685.542,642.047 684.708,641.381 684,640.5C 683.5,617.169 683.333,593.836 683.5,570.5 Z"/></g>
<g><path style="opacity:1" fill="#909298" d="M 914.5,624.5 C 914.741,626.898 914.074,628.898 912.5,630.5C 912.259,628.102 912.926,626.102 914.5,624.5 Z"/></g>
<g><path style="opacity:1" fill="#a9abaf" d="M 752.5,629.5 C 750.704,631.9 748.37,633.567 745.5,634.5C 747.296,632.1 749.63,630.433 752.5,629.5 Z"/></g>
<g><path style="opacity:1" fill="#7b7e85" d="M 170.5,628.5 C 172.074,630.102 172.741,632.102 172.5,634.5C 170.926,632.898 170.259,630.898 170.5,628.5 Z"/></g>
<g><path style="opacity:1" fill="#a3a5a9" d="M 154.5,633.5 C 155.657,636.273 156.324,639.273 156.5,642.5C 154.882,639.829 154.215,636.829 154.5,633.5 Z"/></g>
<g><path style="opacity:1" fill="#919399" d="M 737.5,639.5 C 735.967,641.245 733.967,642.245 731.5,642.5C 733.033,640.755 735.033,639.755 737.5,639.5 Z"/></g>
<g><path style="opacity:1" fill="#83858c" d="M 911.5,636.5 C 911.741,638.898 911.074,640.898 909.5,642.5C 909.259,640.102 909.926,638.102 911.5,636.5 Z"/></g>
<g><path style="opacity:1" fill="#a6a8ac" d="M 731.5,642.5 C 730.341,644.25 728.674,645.25 726.5,645.5C 727.486,643.592 729.152,642.592 731.5,642.5 Z"/></g>
<g><path style="opacity:1" fill="#7a7d84" d="M 892.5,639.5 C 891.94,641.801 891.44,644.134 891,646.5C 890.617,647.056 890.117,647.389 889.5,647.5C 890.06,645.199 890.56,642.866 891,640.5C 891.383,639.944 891.883,639.611 892.5,639.5 Z"/></g>
<g><path style="opacity:1" fill="#97999e" d="M 726.5,645.5 C 717.283,650.334 707.616,651.667 697.5,649.5C 707.397,649.657 717.064,648.324 726.5,645.5 Z"/></g>
<g><path style="opacity:1" fill="#9a9ca2" d="M 157.5,644.5 C 158.407,646.657 159.073,648.99 159.5,651.5C 158.883,651.389 158.383,651.056 158,650.5C 157.505,648.527 157.338,646.527 157.5,644.5 Z"/></g>
<g><path style="opacity:1" fill="#6f727a" d="M 759.5,648.5 C 758.66,650.853 757.326,652.853 755.5,654.5C 755.845,651.802 757.178,649.802 759.5,648.5 Z"/></g>
<g><path style="opacity:1" fill="#a5a7ab" d="M 178.5,655.5 C 180.31,658.145 181.31,661.145 181.5,664.5C 179.528,661.916 178.528,658.916 178.5,655.5 Z"/></g>
<g><path style="opacity:1" fill="#909298" d="M 552.5,659.5 C 550.967,661.245 548.967,662.245 546.5,662.5C 548.033,660.755 550.033,659.755 552.5,659.5 Z"/></g>
<g><path style="opacity:1" fill="#a7a8ad" d="M 546.5,662.5 C 543.898,663.661 541.231,664.828 538.5,666C 531.5,666.667 524.5,666.667 517.5,666C 516.142,665.066 514.808,664.232 513.5,663.5C 518.119,664.988 522.952,665.655 528,665.5C 534.307,665.189 540.474,664.189 546.5,662.5 Z"/></g>
<g><path style="opacity:1" fill="#94969b" d="M 883.5,667.5 C 883.245,669.967 882.245,671.967 880.5,673.5C 880.755,671.033 881.755,669.033 883.5,667.5 Z"/></g>
<g><path style="opacity:1" fill="#a0a2a7" d="M 164.5,667.5 C 165.117,667.611 165.617,667.944 166,668.5C 166.739,671.546 167.572,674.546 168.5,677.5C 166.271,674.646 164.938,671.313 164.5,667.5 Z"/></g>
<g><path style="opacity:1" fill="#73767d" d="M 743.5,670.5 C 742.92,672.749 741.587,674.415 739.5,675.5C 740.08,673.251 741.413,671.585 743.5,670.5 Z"/></g>
<g><path style="opacity:1" fill="#9c9ea3" d="M 901.5,667.5 C 901.062,671.313 899.729,674.646 897.5,677.5C 898.428,674.546 899.261,671.546 900,668.5C 900.383,667.944 900.883,667.611 901.5,667.5 Z"/></g>
<g><path style="opacity:1" fill="#a3a4a9" d="M 398.5,667.5 C 398.554,670.992 397.554,673.992 395.5,676.5C 396.054,673.254 397.054,670.254 398.5,667.5 Z"/></g>
<g><path style="opacity:1" fill="#aeafb4" d="M 183.5,668.5 C 185.008,672.841 186.675,677.174 188.5,681.5C 185.14,677.93 183.473,673.597 183.5,668.5 Z"/></g>
<g><path style="opacity:1" fill="#a4a5aa" d="M 880.5,675.5 C 880.245,677.967 879.245,679.967 877.5,681.5C 877.755,679.033 878.755,677.033 880.5,675.5 Z"/></g>
<g><path style="opacity:1" fill="#c1c2c5" d="M 393.5,679.5 C 391.202,683.054 387.868,684.721 383.5,684.5C 383.5,684.167 383.5,683.833 383.5,683.5C 387.135,682.848 390.469,681.514 393.5,679.5 Z"/></g>
<g><path style="opacity:1" fill="#71747c" d="M 734.5,681.5 C 733.92,683.749 732.587,685.415 730.5,686.5C 731.08,684.251 732.413,682.585 734.5,681.5 Z"/></g>
<g><path style="opacity:1" fill="#a1a3a8" d="M 189.5,683.5 C 191.584,686.053 192.917,689.053 193.5,692.5C 192.069,691.097 190.902,689.431 190,687.5C 189.51,686.207 189.343,684.873 189.5,683.5 Z"/></g>
<g><path style="opacity:1" fill="#74767e" d="M 383.5,683.5 C 383.5,683.833 383.5,684.167 383.5,684.5C 376.621,684.778 369.788,684.445 363,683.5C 362.5,683.833 362,684.167 361.5,684.5C 362.63,685.622 363.297,686.956 363.5,688.5C 360.818,686.47 359.151,683.803 358.5,680.5C 366.583,683.042 374.916,684.042 383.5,683.5 Z"/></g>
<g><path style="opacity:1" fill="#81848a" d="M 895.5,683.5 C 895.208,687.066 893.874,690.066 891.5,692.5C 892.083,689.053 893.416,686.053 895.5,683.5 Z"/></g>
<g><path style="opacity:1" fill="#94969c" d="M 875.5,686.5 C 875.245,688.967 874.245,690.967 872.5,692.5C 872.755,690.033 873.755,688.033 875.5,686.5 Z"/></g>
<g><path style="opacity:1" fill="#61646c" d="M 366.5,692.5 C 369.903,694.9 372.57,697.9 374.5,701.5C 371.097,699.1 368.43,696.1 366.5,692.5 Z"/></g>
<g><path style="opacity:1" fill="#a8aaae" d="M 193.5,693.5 C 195.245,695.033 196.245,697.033 196.5,699.5C 194.755,697.967 193.755,695.967 193.5,693.5 Z"/></g>
<g><path style="opacity:1" fill="#8e9196" d="M 176.5,697.5 C 178.245,699.033 179.245,701.033 179.5,703.5C 177.755,701.967 176.755,699.967 176.5,697.5 Z"/></g>
<g><path style="opacity:1" fill="#b2b3b7" d="M 376.5,702.5 C 379.764,704.094 382.431,706.427 384.5,709.5C 381.236,707.906 378.569,705.573 376.5,702.5 Z"/></g>
<g><path style="opacity:1" fill="#898b91" d="M 889.5,697.5 C 889.245,699.967 888.245,701.967 886.5,703.5C 886.755,701.033 887.755,699.033 889.5,697.5 Z"/></g>
<g><path style="opacity:1" fill="#a8aaaf" d="M 196.5,699.5 C 198.245,701.033 199.245,703.033 199.5,705.5C 197.755,703.967 196.755,701.967 196.5,699.5 Z"/></g>
<g><path style="opacity:1" fill="#a1a3a7" d="M 869.5,699.5 C 869.275,702.546 867.942,704.879 865.5,706.5C 866.468,703.9 867.801,701.566 869.5,699.5 Z"/></g>
<g><path style="opacity:1" fill="#64676f" d="M 721.5,696.5 C 714.426,705.078 706.76,713.245 698.5,721C 697.906,721.464 697.239,721.631 696.5,721.5C 704.5,712.833 712.833,704.5 721.5,696.5 Z"/></g>
<g><path style="opacity:1" fill="#afb1b5" d="M 865.5,706.5 C 865.391,709.899 864.058,712.566 861.5,714.5C 862.472,711.563 863.805,708.897 865.5,706.5 Z"/></g>
<g><path style="opacity:1" fill="#a8aaae" d="M 199.5,705.5 C 201.245,707.033 202.245,709.033 202.5,711.5C 200.755,709.967 199.755,707.967 199.5,705.5 Z"/></g>
<g><path style="opacity:1" fill="#acaeb2" d="M 386.5,711.5 C 388.749,712.08 390.415,713.413 391.5,715.5C 389.251,714.92 387.585,713.587 386.5,711.5 Z"/></g>
<g><path style="opacity:1" fill="#787b82" d="M 598.5,711.5 C 596.589,712.075 594.922,713.075 593.5,714.5C 594.098,711.179 595.765,710.179 598.5,711.5 Z"/></g>
<g><path style="opacity:1" fill="#6d7078" d="M 182.5,710.5 C 184.245,712.033 185.245,714.033 185.5,716.5C 183.755,714.967 182.755,712.967 182.5,710.5 Z"/></g>
<g><path style="opacity:1" fill="#abadb1" d="M 604.5,716.5 C 606.749,717.08 608.415,718.413 609.5,720.5C 607.251,719.92 605.585,718.587 604.5,716.5 Z"/></g>
<g><path style="opacity:1" fill="#a5a6ab" d="M 861.5,714.5 C 861.245,716.967 860.245,718.967 858.5,720.5C 858.755,718.033 859.755,716.033 861.5,714.5 Z"/></g>
<g><path style="opacity:1" fill="#7f8188" d="M 878.5,719.5 C 878.245,721.967 877.245,723.967 875.5,725.5C 875.755,723.033 876.755,721.033 878.5,719.5 Z"/></g>
<g><path style="opacity:1" fill="#919399" d="M 190.5,725.5 C 191.906,725.973 192.573,726.973 192.5,728.5C 191.094,728.027 190.427,727.027 190.5,725.5 Z"/></g>
<g><path style="opacity:1" fill="#8c8e94" d="M 210.5,725.5 C 211.906,725.973 212.573,726.973 212.5,728.5C 211.094,728.027 210.427,727.027 210.5,725.5 Z"/></g>
<g><path style="opacity:1" fill="#70737a" d="M 586.5,721.5 C 584.57,725.1 581.903,728.1 578.5,730.5C 580.43,726.9 583.097,723.9 586.5,721.5 Z"/></g>
<g><path style="opacity:1" fill="#afb1b5" d="M 414.5,731.5 C 417.313,731.025 419.313,732.025 420.5,734.5C 418.456,733.492 416.456,732.492 414.5,731.5 Z"/></g>
<g><path style="opacity:1" fill="#696c74" d="M 872.5,730.5 C 872.264,733.621 870.931,735.954 868.5,737.5C 869.079,734.669 870.412,732.336 872.5,730.5 Z"/></g>
<g><path style="opacity:1" fill="#acadb1" d="M 631.5,739.5 C 633.749,740.08 635.415,741.413 636.5,743.5C 634.251,742.92 632.585,741.587 631.5,739.5 Z"/></g>
<g><path style="opacity:1" fill="#9a9ca1" d="M 428.5,738.5 C 430.967,738.755 432.967,739.755 434.5,741.5C 432.033,741.245 430.033,740.245 428.5,738.5 Z"/></g>
<g><path style="opacity:1" fill="#6d7078" d="M 570.5,738.5 C 569.243,741.427 567.243,743.761 564.5,745.5C 565.757,742.573 567.757,740.239 570.5,738.5 Z"/></g>
<g><path style="opacity:1" fill="#797b82" d="M 671.5,741.5 C 669.853,743.326 667.853,744.66 665.5,745.5C 666.802,743.178 668.802,741.845 671.5,741.5 Z"/></g>
<g><path style="opacity:1" fill="#797c83" d="M 867.5,739.5 C 866.66,741.853 865.326,743.853 863.5,745.5C 863.845,742.802 865.178,740.802 867.5,739.5 Z"/></g>
<g><path style="opacity:1" fill="#85888e" d="M 202.5,745.5 C 203.906,745.973 204.573,746.973 204.5,748.5C 203.094,748.027 202.427,747.027 202.5,745.5 Z"/></g>
<g><path style="opacity:1" fill="#8c8e94" d="M 662.5,747.5 C 661.341,749.25 659.674,750.25 657.5,750.5C 658.659,748.75 660.326,747.75 662.5,747.5 Z"/></g>
<g><path style="opacity:1" fill="#bebfc2" d="M 450.5,748.5 C 456.051,748.928 461.051,750.595 465.5,753.5C 460.293,752.252 455.293,750.586 450.5,748.5 Z"/></g>
<g><path style="opacity:1" fill="#8f9197" d="M 204.5,748.5 C 205.906,748.973 206.573,749.973 206.5,751.5C 205.094,751.027 204.427,750.027 204.5,748.5 Z"/></g>
<g><path style="opacity:1" fill="#a8aaae" d="M 644.5,750.5 C 646.716,751.203 648.549,752.536 650,754.5C 650.671,753.748 651.504,753.414 652.5,753.5C 651.686,755.273 650.352,755.773 648.5,755C 646.959,753.629 645.625,752.129 644.5,750.5 Z"/></g>
<g><path style="opacity:1" fill="#8a8c92" d="M 861.5,748.5 C 861.573,750.027 860.906,751.027 859.5,751.5C 859.427,749.973 860.094,748.973 861.5,748.5 Z"/></g>
<g><path style="opacity:1" fill="#afb1b5" d="M 839.5,750.5 C 838.66,752.853 837.326,754.853 835.5,756.5C 835.845,753.802 837.178,751.802 839.5,750.5 Z"/></g>
<g><path style="opacity:1" fill="#666971" d="M 560.5,749.5 C 558.234,753.436 555.234,756.769 551.5,759.5C 553.766,755.564 556.766,752.231 560.5,749.5 Z"/></g>
<g><path style="opacity:1" fill="#a1a2a7" d="M 481.5,758.5 C 484.456,759.137 487.456,759.637 490.5,760C 491.056,760.383 491.389,760.883 491.5,761.5C 488.544,760.863 485.544,760.363 482.5,760C 481.944,759.617 481.611,759.117 481.5,758.5 Z"/></g>
<g><path style="opacity:1" fill="#9fa1a6" d="M 494.5,762.5 C 497.187,762.336 499.854,762.503 502.5,763C 503.056,763.383 503.389,763.883 503.5,764.5C 500.273,764.324 497.273,763.657 494.5,762.5 Z"/></g>
<g><path style="opacity:1" fill="#919399" d="M 519.5,767.5 C 526.833,768.167 534.167,768.833 541.5,769.5C 534.075,770.442 526.742,769.775 519.5,767.5 Z"/></g>
<g><path style="opacity:1" fill="#7b7e85" d="M 843.5,774.5 C 842.581,777.089 840.914,779.089 838.5,780.5C 839.419,777.911 841.086,775.911 843.5,774.5 Z"/></g>
<g><path style="opacity:1" fill="#a6a7ac" d="M 818.5,777.5 C 817.92,779.749 816.587,781.415 814.5,782.5C 815.08,780.251 816.413,778.585 818.5,777.5 Z"/></g>
<g><path style="opacity:1" fill="#6d6f77" d="M 836.5,783.5 C 835.243,786.427 833.243,788.761 830.5,790.5C 831.757,787.573 833.757,785.239 836.5,783.5 Z"/></g>
<g><path style="opacity:1" fill="#777a81" d="M 828.5,792.5 C 827.92,794.749 826.587,796.415 824.5,797.5C 825.08,795.251 826.413,793.585 828.5,792.5 Z"/></g>
<g><path style="opacity:1" fill="#c2c3c6" d="M 801.5,796.5 C 798.167,801.833 793.833,806.167 788.5,809.5C 792.5,804.833 796.833,800.5 801.5,796.5 Z"/></g>
<g><path style="opacity:1" fill="#686b73" d="M 823.5,798.5 C 821.57,802.1 818.903,805.1 815.5,807.5C 817.43,803.9 820.097,800.9 823.5,798.5 Z"/></g>
<g><path style="opacity:1" fill="#babbbf" d="M 784.5,813.5 C 782.1,816.903 779.1,819.57 775.5,821.5C 777.9,818.097 780.9,815.43 784.5,813.5 Z"/></g>
<g><path style="opacity:1" fill="#656770" d="M 801.5,821.5 C 799.1,824.903 796.1,827.57 792.5,829.5C 794.9,826.097 797.9,823.43 801.5,821.5 Z"/></g>
<g><path style="opacity:1" fill="#8b8d93" d="M 346.5,860.5 C 348.027,860.427 349.027,861.094 349.5,862.5C 347.973,862.573 346.973,861.906 346.5,860.5 Z"/></g>
<g><path style="opacity:1" fill="#71747b" d="M 749.5,862.5 C 748.198,864.822 746.198,866.155 743.5,866.5C 745.147,864.674 747.147,863.34 749.5,862.5 Z"/></g>
<g><path style="opacity:1" fill="#888a91" d="M 743.5,866.5 C 742.341,868.25 740.674,869.25 738.5,869.5C 739.659,867.75 741.326,866.75 743.5,866.5 Z"/></g>
<g><path style="opacity:1" fill="#999ba0" d="M 709.5,866.5 C 707.967,868.245 705.967,869.245 703.5,869.5C 705.033,867.755 707.033,866.755 709.5,866.5 Z"/></g>
<g><path style="opacity:1" fill="#96989e" d="M 703.5,869.5 C 701.967,871.245 699.967,872.245 697.5,872.5C 699.033,870.755 701.033,869.755 703.5,869.5 Z"/></g>
<g><path style="opacity:1" fill="#989a9f" d="M 697.5,872.5 C 695.967,874.245 693.967,875.245 691.5,875.5C 693.033,873.755 695.033,872.755 697.5,872.5 Z"/></g>
<g><path style="opacity:1" fill="#808289" d="M 376.5,876.5 C 379.481,876.182 381.815,877.182 383.5,879.5C 380.937,878.912 378.604,877.912 376.5,876.5 Z"/></g>
<g><path style="opacity:1" fill="#82848b" d="M 690.5,875.5 C 688.967,877.245 686.967,878.245 684.5,878.5C 686.033,876.755 688.033,875.755 690.5,875.5 Z"/></g>
<g><path style="opacity:1" fill="#686b73" d="M 728.5,875.5 C 726.911,878.08 724.578,879.413 721.5,879.5C 723.336,877.412 725.669,876.079 728.5,875.5 Z"/></g>
<g><path style="opacity:1" fill="#84868d" d="M 714.5,883.5 C 712.967,885.245 710.967,886.245 708.5,886.5C 710.033,884.755 712.033,883.755 714.5,883.5 Z"/></g>
<g><path style="opacity:1" fill="#bbbcc0" d="M 668.5,885.5 C 668.38,886.586 667.713,887.253 666.5,887.5C 663.481,888.17 660.481,888.837 657.5,889.5C 657.611,888.883 657.944,888.383 658.5,888C 661.852,887.162 665.185,886.329 668.5,885.5 Z"/></g>
<g><path style="opacity:1" fill="#7e8187" d="M 398.5,885.5 C 399.873,885.343 401.207,885.51 402.5,886C 404.431,886.902 406.097,888.069 407.5,889.5C 404.053,888.917 401.053,887.584 398.5,885.5 Z"/></g>
<g><path style="opacity:1" fill="#83858b" d="M 708.5,886.5 C 706.967,888.245 704.967,889.245 702.5,889.5C 704.033,887.755 706.033,886.755 708.5,886.5 Z"/></g>
<g><path style="opacity:1" fill="#8b8e94" d="M 657.5,889.5 C 654.811,891.117 651.811,892.117 648.5,892.5C 651.008,890.446 654.008,889.446 657.5,889.5 Z"/></g>
<g><path style="opacity:1" fill="#797b82" d="M 702.5,889.5 C 700.967,891.245 698.967,892.245 696.5,892.5C 698.033,890.755 700.033,889.755 702.5,889.5 Z"/></g>
<g><path style="opacity:1" fill="#9ea1a5" d="M 370.5,892.5 C 372.967,892.755 374.967,893.755 376.5,895.5C 374.033,895.245 372.033,894.245 370.5,892.5 Z"/></g>
<g><path style="opacity:1" fill="#84878d" d="M 695.5,892.5 C 694.097,893.931 692.431,895.098 690.5,896C 689.207,896.49 687.873,896.657 686.5,896.5C 689.053,894.416 692.053,893.083 695.5,892.5 Z"/></g>
<g><path style="opacity:1" fill="#909298" d="M 648.5,892.5 C 637.606,896.752 626.273,899.752 614.5,901.5C 625.643,898.264 636.977,895.264 648.5,892.5 Z"/></g>
<g><path style="opacity:1" fill="#83858c" d="M 381.5,897.5 C 383.967,897.755 385.967,898.755 387.5,900.5C 385.033,900.245 383.033,899.245 381.5,897.5 Z"/></g>
<g><path style="opacity:1" fill="#808289" d="M 686.5,896.5 C 684.388,898.771 681.721,900.104 678.5,900.5C 680.837,898.604 683.504,897.27 686.5,896.5 Z"/></g>
<g><path style="opacity:1" fill="#5c6068" d="M 439.5,898.5 C 445.26,898.643 450.594,899.977 455.5,902.5C 449.949,901.584 444.615,900.25 439.5,898.5 Z"/></g>
<g><path style="opacity:1" fill="#888a91" d="M 676.5,900.5 C 674.967,902.245 672.967,903.245 670.5,903.5C 672.033,901.755 674.033,900.755 676.5,900.5 Z"/></g>
<g><path style="opacity:1" fill="#61636c" d="M 613.5,901.5 C 609.117,903.23 604.45,904.23 599.5,904.5C 599.918,903.778 600.584,903.278 601.5,903C 605.51,902.499 609.51,901.999 613.5,901.5 Z"/></g>
<g><path style="opacity:1" fill="#87898f" d="M 668.5,903.5 C 666.967,905.245 664.967,906.245 662.5,906.5C 664.033,904.755 666.033,903.755 668.5,903.5 Z"/></g>
<g><path style="opacity:1" fill="#7e8087" d="M 401.5,905.5 C 405.785,906.262 409.785,907.595 413.5,909.5C 409.778,908.983 406.112,908.15 402.5,907C 401.944,906.617 401.611,906.117 401.5,905.5 Z"/></g>
<g><path style="opacity:1" fill="#a4a6aa" d="M 478.5,906.5 C 481.807,907.051 485.14,907.384 488.5,907.5C 488.5,907.833 488.5,908.167 488.5,908.5C 485.813,908.664 483.146,908.497 480.5,908C 479.584,907.722 478.918,907.222 478.5,906.5 Z"/></g>
<g><path style="opacity:1" fill="#63666e" d="M 488.5,908.5 C 488.5,908.167 488.5,907.833 488.5,907.5C 493.414,907.362 498.081,908.028 502.5,909.5C 498.466,909.495 494.466,909.162 490.5,908.5C 489.833,908.5 489.167,908.5 488.5,908.5 Z"/></g>
<g><path style="opacity:1" fill="#8c8e94" d="M 579.5,907.5 C 575.081,908.972 570.414,909.638 565.5,909.5C 569.9,907.896 574.566,907.229 579.5,907.5 Z"/></g>
<g><path style="opacity:1" fill="#97999e" d="M 414.5,909.5 C 418.656,909.846 422.323,911.18 425.5,913.5C 422.279,912.495 418.946,911.661 415.5,911C 414.944,910.617 414.611,910.117 414.5,909.5 Z"/></g>
<g><path style="opacity:1" fill="#b7b8bc" d="M 490.5,908.5 C 494.466,909.162 498.466,909.495 502.5,909.5C 517.151,910.328 531.817,910.661 546.5,910.5C 528.654,911.674 510.654,911.507 492.5,910C 491.584,909.722 490.918,909.222 490.5,908.5 Z"/></g>
<g><path style="opacity:1" fill="#7c7e85" d="M 659.5,907.5 C 648.436,912.327 636.769,915.66 624.5,917.5C 636.109,914.173 647.776,910.84 659.5,907.5 Z"/></g>
<g><path style="opacity:1" fill="#bfc0c4" d="M 435.5,915.5 C 441.212,915.776 446.545,917.11 451.5,919.5C 445.92,918.621 440.587,917.288 435.5,915.5 Z"/></g>
<g><path style="opacity:1" fill="#95979d" d="M 620.5,918.5 C 617.373,919.581 614.04,920.247 610.5,920.5C 610.918,919.778 611.584,919.278 612.5,919C 615.146,918.503 617.813,918.336 620.5,918.5 Z"/></g>
<g><path style="opacity:1" fill="#bfc0c3" d="M 461.5,921.5 C 467.511,921.801 473.511,922.301 479.5,923C 481.32,923.2 482.653,924.034 483.5,925.5C 476.076,924.49 468.742,923.157 461.5,921.5 Z"/></g>
<g><path style="opacity:1" fill="#9b9da2" d="M 607.5,920.5 C 607.082,921.222 606.416,921.722 605.5,922C 601.83,922.548 598.163,923.048 594.5,923.5C 598.542,921.763 602.876,920.763 607.5,920.5 Z"/></g>
<g><path style="opacity:1" fill="#8a8c92" d="M 593.5,923.5 C 588.417,925.078 583.084,925.745 577.5,925.5C 582.616,924.194 587.949,923.527 593.5,923.5 Z"/></g>
<g><path style="opacity:1" fill="#686b72" d="M 485.5,925.5 C 491.161,925.907 496.828,926.24 502.5,926.5C 504.167,927.167 505.833,927.833 507.5,928.5C 499.9,928.412 492.566,927.412 485.5,925.5 Z"/></g>
<g><path style="opacity:1" fill="#cecfd1" d="M 502.5,926.5 C 511.717,926.236 520.717,926.903 529.5,928.5C 522.167,928.5 514.833,928.5 507.5,928.5C 505.833,927.833 504.167,927.167 502.5,926.5 Z"/></g>
<g><path style="opacity:1" fill="#7e8087" d="M 577.5,925.5 C 577.082,926.222 576.416,926.722 575.5,927C 568.165,927.548 560.831,928.048 553.5,928.5C 561.243,926.626 569.243,925.626 577.5,925.5 Z"/></g>
</svg>
