<?xml version="1.0" encoding="UTF-8"?>
<!DOCTYPE svg PUBLIC "-//W3C//DTD SVG 1.1//EN" "http://www.w3.org/Graphics/SVG/1.1/DTD/svg11.dtd">
<svg xmlns="http://www.w3.org/2000/svg" version="1.1" width="1067px" height="1067px" style="shape-rendering:geometricPrecision; text-rendering:geometricPrecision; image-rendering:optimizeQuality; fill-rule:evenodd; clip-rule:evenodd" xmlns:xlink="http://www.w3.org/1999/xlink">
<g><path style="opacity:0.999" fill="#fefefe" d="M 1066.5,218.5 C 1066.5,428.833 1066.5,639.167 1066.5,849.5C 1050.32,946.376 996.982,1013.88 906.5,1052C 887.808,1058.59 868.808,1063.42 849.5,1066.5C 639.167,1066.5 428.833,1066.5 218.5,1066.5C 121.586,1050.3 54.0863,996.971 16,906.5C 8.00078,884.837 3.00078,862.503 1,839.5C 0.333333,635.833 0.333333,432.167 1,228.5C 10.617,142.639 52.117,77.4727 125.5,33C 154.493,16.6689 185.493,6.3356 218.5,2C 323.648,0.844227 428.815,0.344227 534,0.5C 639.185,0.344227 744.352,0.844227 849.5,2C 946.642,17.7898 1014.14,70.9565 1052,161.5C 1058.59,180.192 1063.42,199.192 1066.5,218.5 Z"/></g>
<g><path style="opacity:1" fill="#7cbfef" d="M 720.5,177.5 C 708.309,173.898 695.975,173.565 683.5,176.5C 685.761,174.745 688.428,173.578 691.5,173C 698.889,172.199 706.223,172.533 713.5,174C 716.178,174.672 718.511,175.839 720.5,177.5 Z"/></g>
<g><path style="opacity:1" fill="#3b82b2" d="M 699.5,181.5 C 705.5,184.167 709.833,188.5 712.5,194.5C 712.833,197.167 713.167,199.833 713.5,202.5C 712.883,202.389 712.383,202.056 712,201.5C 710.653,219.479 709.82,237.479 709.5,255.5C 703.167,255.5 696.833,255.5 690.5,255.5C 690.167,255.5 689.833,255.5 689.5,255.5C 689.544,250.182 690.878,245.348 693.5,241C 691.197,233.444 690.864,225.777 692.5,218C 691.951,211.797 691.284,205.631 690.5,199.5C 692.743,198.526 695.076,198.192 697.5,198.5C 697.807,192.907 697.473,187.407 696.5,182C 697.448,181.517 698.448,181.351 699.5,181.5 Z"/></g>
<g><path style="opacity:1" fill="#3c88bb" d="M 678.5,178.5 C 682.846,178.334 687.179,178.501 691.5,179C 694.457,179.279 697.123,180.113 699.5,181.5C 698.448,181.351 697.448,181.517 696.5,182C 697.473,187.407 697.807,192.907 697.5,198.5C 695.076,198.192 692.743,198.526 690.5,199.5C 691.284,205.631 691.951,211.797 692.5,218C 690.864,225.777 691.197,233.444 693.5,241C 690.878,245.348 689.544,250.182 689.5,255.5C 657.123,255.181 624.79,255.515 592.5,256.5C 620.264,229.398 648.93,203.398 678.5,178.5 Z"/></g>
<g><path style="opacity:1" fill="#54b3f3" d="M 720.5,177.5 C 767.896,199.406 814.896,222.073 861.5,245.5C 813.183,244.529 764.85,244.196 716.5,244.5C 715.608,270.821 715.275,297.155 715.5,323.5C 715.167,323.5 714.833,323.5 714.5,323.5C 714.667,281.499 714.5,239.499 714,197.5C 713.768,196.263 713.268,195.263 712.5,194.5C 709.833,188.5 705.5,184.167 699.5,181.5C 697.123,180.113 694.457,179.279 691.5,179C 687.179,178.501 682.846,178.334 678.5,178.5C 679.78,177.069 681.447,176.402 683.5,176.5C 695.975,173.565 708.309,173.898 720.5,177.5 Z"/></g>
<g><path style="opacity:1" fill="#4eb0f3" d="M 861.5,245.5 C 877.42,250.42 888.087,260.753 893.5,276.5C 893.41,279.152 894.076,281.485 895.5,283.5C 895.5,309.167 895.5,334.833 895.5,360.5C 894.668,335.67 894.168,310.67 894,285.5C 893.5,301.83 893.333,318.163 893.5,334.5C 892.676,338.312 892.176,342.312 892,346.5C 891.501,342.514 891.334,338.514 891.5,334.5C 833.167,334.5 774.833,334.5 716.5,334.5C 716.666,338.514 716.499,342.514 716,346.5C 715.5,338.841 715.334,331.174 715.5,323.5C 715.275,297.155 715.608,270.821 716.5,244.5C 764.85,244.196 813.183,244.529 861.5,245.5 Z"/></g>
<g><path style="opacity:1" fill="#3584ba" d="M 689.5,255.5 C 689.833,255.5 690.167,255.5 690.5,255.5C 688.952,274.464 688.285,293.464 688.5,312.5C 687.5,312.5 686.5,312.5 685.5,312.5C 685.5,319.833 685.5,327.167 685.5,334.5C 683.167,334.5 680.833,334.5 678.5,334.5C 620.804,334.179 563.137,334.512 505.5,335.5C 530.312,311.859 555.645,288.692 581.5,266C 583.874,263.961 585.874,261.628 587.5,259C 589.078,257.906 590.745,257.072 592.5,256.5C 624.79,255.515 657.123,255.181 689.5,255.5 Z"/></g>
<g><path style="opacity:1" fill="#337bab" d="M 713.5,202.5 C 713.5,257.833 713.5,313.167 713.5,368.5C 712.833,368.5 712.5,368.833 712.5,369.5C 708.857,372.135 705.19,374.801 701.5,377.5C 701.508,355.827 701.841,334.16 702.5,312.5C 703.5,312.5 704.5,312.5 705.5,312.5C 705.5,304.833 705.5,297.167 705.5,289.5C 706.5,289.5 707.5,289.5 708.5,289.5C 708.486,278.154 708.819,266.821 709.5,255.5C 709.82,237.479 710.653,219.479 712,201.5C 712.383,202.056 712.883,202.389 713.5,202.5 Z"/></g>
<g><path style="opacity:1" fill="#9ec6e1" d="M 893.5,276.5 C 894.924,278.515 895.59,280.848 895.5,283.5C 894.076,281.485 893.41,279.152 893.5,276.5 Z"/></g>
<g><path style="opacity:1" fill="#3d8fc6" d="M 712.5,194.5 C 713.268,195.263 713.768,196.263 714,197.5C 714.5,239.499 714.667,281.499 714.5,323.5C 714.5,338.5 714.5,353.5 714.5,368.5C 714.167,368.5 713.833,368.5 713.5,368.5C 713.5,313.167 713.5,257.833 713.5,202.5C 713.167,199.833 712.833,197.167 712.5,194.5 Z"/></g>
<g><path style="opacity:1" fill="#2e81b8" d="M 678.5,334.5 C 678.5,345.833 678.5,357.167 678.5,368.5C 677.5,368.5 676.5,368.5 675.5,368.5C 676.011,377.122 675.344,385.622 673.5,394C 673.648,395.256 673.982,396.423 674.5,397.5C 670.386,401.064 666.052,404.397 661.5,407.5C 661.351,406.448 661.517,405.448 662,404.5C 662.333,404.833 662.667,405.167 663,405.5C 663.374,404.584 663.874,403.75 664.5,403C 587.167,402.5 509.834,402.333 432.5,402.5C 435.991,398.509 439.657,394.676 443.5,391C 464.012,372.321 484.679,353.821 505.5,335.5C 563.137,334.512 620.804,334.179 678.5,334.5 Z"/></g>
<g><path style="opacity:1" fill="#317eb2" d="M 690.5,255.5 C 696.833,255.5 703.167,255.5 709.5,255.5C 708.819,266.821 708.486,278.154 708.5,289.5C 707.5,289.5 706.5,289.5 705.5,289.5C 705.5,297.167 705.5,304.833 705.5,312.5C 704.5,312.5 703.5,312.5 702.5,312.5C 701.841,334.16 701.508,355.827 701.5,377.5C 693.043,384.896 684.043,391.562 674.5,397.5C 673.982,396.423 673.648,395.256 673.5,394C 675.344,385.622 676.011,377.122 675.5,368.5C 676.5,368.5 677.5,368.5 678.5,368.5C 678.5,357.167 678.5,345.833 678.5,334.5C 680.833,334.5 683.167,334.5 685.5,334.5C 685.5,327.167 685.5,319.833 685.5,312.5C 686.5,312.5 687.5,312.5 688.5,312.5C 688.285,293.464 688.952,274.464 690.5,255.5 Z"/></g>
<g><path style="opacity:1" fill="#49aff2" d="M 714.5,323.5 C 714.833,323.5 715.167,323.5 715.5,323.5C 715.334,331.174 715.5,338.841 716,346.5C 716.499,342.514 716.666,338.514 716.5,334.5C 774.833,334.5 833.167,334.5 891.5,334.5C 891.334,338.514 891.501,342.514 892,346.5C 892.176,342.312 892.676,338.312 893.5,334.5C 893.5,342.167 893.5,349.833 893.5,357.5C 834.5,357.5 775.5,357.5 716.5,357.5C 715.738,376.49 715.405,395.49 715.5,414.5C 715.5,440.833 715.5,467.167 715.5,493.5C 715.5,504.833 715.5,516.167 715.5,527.5C 715.5,538.833 715.5,550.167 715.5,561.5C 715.5,591.5 715.5,621.5 715.5,651.5C 715.5,665.833 715.5,680.167 715.5,694.5C 715.737,695.791 715.404,696.791 714.5,697.5C 714.5,587.833 714.5,478.167 714.5,368.5C 714.5,353.5 714.5,338.5 714.5,323.5 Z"/></g>
<g><path style="opacity:1" fill="#bed7e9" d="M 234.5,346.5 C 240.379,345.239 246.379,345.406 252.5,347C 253.381,347.708 254.047,348.542 254.5,349.5C 248.158,346.965 241.491,345.965 234.5,346.5 Z"/></g>
<g><path style="opacity:1" fill="#3092d5" d="M 234.5,346.5 C 241.491,345.965 248.158,346.965 254.5,349.5C 278.759,366.764 302.426,384.764 325.5,403.5C 274.36,402.17 223.527,402.17 173,403.5C 172.76,405.852 171.927,407.852 170.5,409.5C 170.764,404.446 172.264,399.779 175,395.5C 190.382,380.282 206.216,365.615 222.5,351.5C 226.043,348.729 230.043,347.062 234.5,346.5 Z"/></g>
<g><path style="opacity:1" fill="#46adf2" d="M 895.5,360.5 C 895.5,393.5 895.5,426.5 895.5,459.5C 894.936,440.647 894.27,425.647 893.5,414.5C 892.677,417.977 892.177,421.644 892,425.5C 891.501,421.848 891.335,418.182 891.5,414.5C 832.833,414.5 774.167,414.5 715.5,414.5C 715.405,395.49 715.738,376.49 716.5,357.5C 775.5,357.5 834.5,357.5 893.5,357.5C 893.5,349.833 893.5,342.167 893.5,334.5C 893.333,318.163 893.5,301.83 894,285.5C 894.168,310.67 894.668,335.67 895.5,360.5 Z"/></g>
<g><path style="opacity:1" fill="#fefefe" d="M 712.5,369.5 C 713.666,477.999 713.833,586.666 713,695.5C 712.329,694.748 711.496,694.414 710.5,694.5C 705.5,691.167 700.5,687.833 695.5,684.5C 675.733,669.245 656.066,653.745 636.5,638C 626.453,631.649 616.787,624.815 607.5,617.5C 585.475,600.147 563.141,583.147 540.5,566.5C 529.071,556.738 517.071,547.738 504.5,539.5C 502.284,536.923 499.951,534.59 497.5,532.5C 504.5,527.167 511.5,521.833 518.5,516.5C 533.67,505.156 548.67,493.656 563.5,482C 573.303,475.353 582.637,468.186 591.5,460.5C 615.425,443.57 638.758,425.904 661.5,407.5C 666.052,404.397 670.386,401.064 674.5,397.5C 684.043,391.562 693.043,384.896 701.5,377.5C 705.19,374.801 708.857,372.135 712.5,369.5 Z"/></g>
<g><path style="opacity:1" fill="#bce1f9" d="M 712.5,369.5 C 712.5,368.833 712.833,368.5 713.5,368.5C 713.833,368.5 714.167,368.5 714.5,368.5C 714.5,478.167 714.5,587.833 714.5,697.5C 712.596,697.262 711.262,696.262 710.5,694.5C 711.496,694.414 712.329,694.748 713,695.5C 713.833,586.666 713.666,477.999 712.5,369.5 Z"/></g>
<g><path style="opacity:1" fill="#297eb7" d="M 432.5,402.5 C 509.834,402.333 587.167,402.5 664.5,403C 663.874,403.75 663.374,404.584 663,405.5C 662.667,405.167 662.333,404.833 662,404.5C 661.517,405.448 661.351,406.448 661.5,407.5C 638.758,425.904 615.425,443.57 591.5,460.5C 552.335,459.667 513.002,459.167 473.5,459C 469.549,456.386 465.883,453.386 462.5,450C 459.167,449 455.833,448 452.5,447C 443.454,439.941 434.454,432.941 425.5,426C 420.499,425.942 415.665,425.109 411,423.5C 408.611,425.399 406.111,427.066 403.5,428.5C 412.565,419.099 422.231,410.432 432.5,402.5 Z"/></g>
<g><path style="opacity:1" fill="#2b90d4" d="M 325.5,403.5 C 335.423,409.762 344.756,416.762 353.5,424.5C 294.237,425.329 234.904,425.829 175.5,426C 176.833,428.307 178.666,430.141 181,431.5C 181.608,433.154 182.108,434.821 182.5,436.5C 174.643,429.278 170.643,420.278 170.5,409.5C 171.927,407.852 172.76,405.852 173,403.5C 223.527,402.17 274.36,402.17 325.5,403.5 Z"/></g>
<g><path style="opacity:1" fill="#41abf2" d="M 715.5,414.5 C 774.167,414.5 832.833,414.5 891.5,414.5C 891.335,418.182 891.501,421.848 892,425.5C 892.177,421.644 892.677,417.977 893.5,414.5C 893.5,440.833 893.5,467.167 893.5,493.5C 834.167,493.5 774.833,493.5 715.5,493.5C 715.5,467.167 715.5,440.833 715.5,414.5 Z"/></g>
<g><path style="opacity:1" fill="#288ed4" d="M 353.5,424.5 C 362.623,431.117 371.623,437.951 380.5,445C 381.745,445.791 383.078,446.291 384.5,446.5C 393.912,454.72 403.578,462.72 413.5,470.5C 412.504,470.586 411.671,470.252 411,469.5C 348.237,470.331 285.404,470.831 222.5,471C 223.252,471.671 223.586,472.504 223.5,473.5C 209.603,461.391 195.937,449.058 182.5,436.5C 182.108,434.821 181.608,433.154 181,431.5C 178.666,430.141 176.833,428.307 175.5,426C 234.904,425.829 294.237,425.329 353.5,424.5 Z"/></g>
<g><path style="opacity:1" fill="#238cd2" d="M 413.5,470.5 C 441.219,491.552 469.219,512.219 497.5,532.5C 499.951,534.59 502.284,536.923 504.5,539.5C 434.529,538.51 364.529,538.176 294.5,538.5C 291.113,537.113 288.779,534.78 287.5,531.5C 265.868,512.536 244.534,493.203 223.5,473.5C 223.586,472.504 223.252,471.671 222.5,471C 285.404,470.831 348.237,470.331 411,469.5C 411.671,470.252 412.504,470.586 413.5,470.5 Z"/></g>
<g><path style="opacity:1" fill="#2474aa" d="M 518.5,516.5 C 511.5,521.833 504.5,527.167 497.5,532.5C 469.219,512.219 441.219,491.552 413.5,470.5C 403.578,462.72 393.912,454.72 384.5,446.5C 388.533,441.466 393.2,437.133 398.5,433.5C 400.563,432.451 402.563,432.784 404.5,434.5C 415.128,442.428 425.128,450.428 434.5,458.5C 443.843,460.341 451.51,465.008 457.5,472.5C 458.086,472.291 458.586,471.957 459,471.5C 461.671,474.55 464.504,477.383 467.5,480C 471.822,481.162 475.822,482.996 479.5,485.5C 484.826,490.122 490.159,494.788 495.5,499.5C 496.086,499.291 496.586,498.957 497,498.5C 498.658,500.165 500.325,501.832 502,503.5C 507.58,505.853 512.746,508.853 517.5,512.5C 518.246,513.736 518.579,515.07 518.5,516.5 Z"/></g>
<g><path style="opacity:1" fill="#267ab3" d="M 591.5,460.5 C 582.637,468.186 573.303,475.353 563.5,482C 548.67,493.656 533.67,505.156 518.5,516.5C 518.579,515.07 518.246,513.736 517.5,512.5C 512.746,508.853 507.58,505.853 502,503.5C 500.325,501.832 498.658,500.165 497,498.5C 496.586,498.957 496.086,499.291 495.5,499.5C 490.159,494.788 484.826,490.122 479.5,485.5C 475.822,482.996 471.822,481.162 467.5,480C 464.504,477.383 461.671,474.55 459,471.5C 458.586,471.957 458.086,472.291 457.5,472.5C 451.51,465.008 443.843,460.341 434.5,458.5C 425.128,450.428 415.128,442.428 404.5,434.5C 402.563,432.784 400.563,432.451 398.5,433.5C 399.833,431.5 401.5,429.833 403.5,428.5C 406.111,427.066 408.611,425.399 411,423.5C 415.665,425.109 420.499,425.942 425.5,426C 434.454,432.941 443.454,439.941 452.5,447C 455.833,448 459.167,449 462.5,450C 465.883,453.386 469.549,456.386 473.5,459C 513.002,459.167 552.335,459.667 591.5,460.5 Z"/></g>
<g><path style="opacity:1" fill="#3da9f1" d="M 895.5,459.5 C 895.5,500.833 895.5,542.167 895.5,583.5C 894.668,557.337 894.168,531.003 894,504.5C 893.5,512.159 893.334,519.826 893.5,527.5C 834.167,527.5 774.833,527.5 715.5,527.5C 715.5,516.167 715.5,504.833 715.5,493.5C 774.833,493.5 834.167,493.5 893.5,493.5C 893.5,467.167 893.5,440.833 893.5,414.5C 894.27,425.647 894.936,440.647 895.5,459.5 Z"/></g>
<g><path style="opacity:1" fill="#35a5f1" d="M 895.5,583.5 C 895.5,649.167 895.5,714.833 895.5,780.5C 895.167,780.5 894.833,780.5 894.5,780.5C 894.5,755.5 894.5,730.5 894.5,705.5C 894.667,672.498 894.5,639.498 894,606.5C 893.5,621.496 893.333,636.496 893.5,651.5C 834.167,651.5 774.833,651.5 715.5,651.5C 715.5,621.5 715.5,591.5 715.5,561.5C 774.833,561.5 834.167,561.5 893.5,561.5C 893.5,550.167 893.5,538.833 893.5,527.5C 893.334,519.826 893.5,512.159 894,504.5C 894.168,531.003 894.668,557.337 895.5,583.5 Z"/></g>
<g><path style="opacity:1" fill="#39a8f2" d="M 715.5,527.5 C 774.833,527.5 834.167,527.5 893.5,527.5C 893.5,538.833 893.5,550.167 893.5,561.5C 834.167,561.5 774.833,561.5 715.5,561.5C 715.5,550.167 715.5,538.833 715.5,527.5 Z"/></g>
<g><path style="opacity:1" fill="#1c6da4" d="M 287.5,531.5 C 288.779,534.78 291.113,537.113 294.5,538.5C 297.296,541.797 300.296,544.964 303.5,548C 310.017,553.024 316.35,558.191 322.5,563.5C 339.918,581.23 358.252,598.063 377.5,614C 378.665,615.992 379.998,617.825 381.5,619.5C 376.771,624.561 371.438,628.894 365.5,632.5C 360.261,627.409 354.594,622.742 348.5,618.5C 342.599,612.77 337.265,606.603 332.5,600C 325.963,595.741 320.296,590.574 315.5,584.5C 317.006,583.253 318.506,583.253 320,584.5C 320.667,583.833 320.667,583.167 320,582.5C 306.693,569.861 293.36,557.194 280,544.5C 280.483,542.463 281.316,540.463 282.5,538.5C 283.833,537.067 285.333,535.733 287,534.5C 287.483,533.552 287.649,532.552 287.5,531.5 Z"/></g>
<g><path style="opacity:1" fill="#1f8ad1" d="M 294.5,538.5 C 364.529,538.176 434.529,538.51 504.5,539.5C 517.071,547.738 529.071,556.738 540.5,566.5C 539.127,566.657 537.793,566.49 536.5,566C 535.417,563.944 533.75,562.611 531.5,562C 496.667,561.833 461.833,561.667 427,561.5C 391.827,561.5 356.994,562.167 322.5,563.5C 316.35,558.191 310.017,553.024 303.5,548C 300.296,544.964 297.296,541.797 294.5,538.5 Z"/></g>
<g><path style="opacity:1" fill="#1c71ac" d="M 282.5,538.5 C 281.316,540.463 280.483,542.463 280,544.5C 293.36,557.194 306.693,569.861 320,582.5C 320.667,583.167 320.667,583.833 320,584.5C 318.506,583.253 317.006,583.253 315.5,584.5C 320.296,590.574 325.963,595.741 332.5,600C 337.265,606.603 342.599,612.77 348.5,618.5C 354.594,622.742 360.261,627.409 365.5,632.5C 360.205,636.488 354.872,640.488 349.5,644.5C 343.47,639.64 337.803,634.14 332.5,628C 327.652,625.65 323.985,622.15 321.5,617.5C 323.379,617.607 323.712,617.107 322.5,616C 315.882,611.717 310.215,606.383 305.5,600C 302.978,599.39 300.978,598.057 299.5,596C 300.624,595.751 301.624,595.251 302.5,594.5C 300.766,592.766 298.766,591.432 296.5,590.5C 286.966,580.409 276.966,570.909 266.5,562C 269.882,561.824 273.215,561.324 276.5,560.5C 273.975,557.144 270.975,554.478 267.5,552.5C 272.474,547.861 277.474,543.195 282.5,538.5 Z"/></g>
<g><path style="opacity:1" fill="#1d75b1" d="M 267.5,552.5 C 270.975,554.478 273.975,557.144 276.5,560.5C 273.215,561.324 269.882,561.824 266.5,562C 276.966,570.909 286.966,580.409 296.5,590.5C 298.766,591.432 300.766,592.766 302.5,594.5C 301.624,595.251 300.624,595.751 299.5,596C 300.978,598.057 302.978,599.39 305.5,600C 310.215,606.383 315.882,611.717 322.5,616C 323.712,617.107 323.379,617.607 321.5,617.5C 279.655,617.519 237.989,617.519 196.5,617.5C 219.545,594.985 243.212,573.319 267.5,552.5 Z"/></g>
<g><path style="opacity:1" fill="#1b88d1" d="M 540.5,566.5 C 563.141,583.147 585.475,600.147 607.5,617.5C 532.826,616.836 458.493,617.503 384.5,619.5C 383.5,619.5 382.5,619.5 381.5,619.5C 379.998,617.825 378.665,615.992 377.5,614C 358.252,598.063 339.918,581.23 322.5,563.5C 356.994,562.167 391.827,561.5 427,561.5C 461.833,561.667 496.667,561.833 531.5,562C 533.75,562.611 535.417,563.944 536.5,566C 537.793,566.49 539.127,566.657 540.5,566.5 Z"/></g>
<g><path style="opacity:1" fill="#2fa3f1" d="M 894.5,705.5 C 893.596,706.209 893.263,707.209 893.5,708.5C 834.5,708.5 775.5,708.5 716.5,708.5C 716.819,703.637 716.486,698.97 715.5,694.5C 715.5,680.167 715.5,665.833 715.5,651.5C 774.833,651.5 834.167,651.5 893.5,651.5C 893.333,636.496 893.5,621.496 894,606.5C 894.5,639.498 894.667,672.498 894.5,705.5 Z"/></g>
<g><path style="opacity:1" fill="#1772b0" d="M 196.5,617.5 C 237.989,617.519 279.655,617.519 321.5,617.5C 323.985,622.15 327.652,625.65 332.5,628C 337.803,634.14 343.47,639.64 349.5,644.5C 336.135,655.194 322.468,665.528 308.5,675.5C 287.503,674.833 266.336,674.5 245,674.5C 223.489,674.5 202.323,675.167 181.5,676.5C 177.333,672.996 174.333,668.662 172.5,663.5C 171.232,656.504 171.232,649.504 172.5,642.5C 178.444,632.353 186.444,624.02 196.5,617.5 Z"/></g>
<g><path style="opacity:1" fill="#1685d0" d="M 607.5,617.5 C 616.787,624.815 626.453,631.649 636.5,638C 656.066,653.745 675.733,669.245 695.5,684.5C 693.685,683.37 691.685,682.704 689.5,682.5C 689.737,683.791 689.404,684.791 688.5,685.5C 611.332,685.167 534.332,685.501 457.5,686.5C 442.457,673.451 427.79,660.117 413.5,646.5C 412.089,644.086 410.089,642.419 407.5,641.5C 399.148,634.813 391.481,627.48 384.5,619.5C 458.493,617.503 532.826,616.836 607.5,617.5 Z"/></g>
<g><path style="opacity:1" fill="#73aeda" d="M 407.5,641.5 C 410.089,642.419 412.089,644.086 413.5,646.5C 410.911,645.581 408.911,643.914 407.5,641.5 Z"/></g>
<g><path style="opacity:1" fill="#5d99c6" d="M 172.5,642.5 C 171.232,649.504 171.232,656.504 172.5,663.5C 171.778,663.082 171.278,662.416 171,661.5C 170.833,658.833 170.667,656.167 170.5,653.5C 170.294,649.531 170.961,645.865 172.5,642.5 Z"/></g>
<g><path style="opacity:1" fill="#1570af" d="M 308.5,675.5 C 289.783,690.218 270.783,704.551 251.5,718.5C 245.14,719.671 238.807,719.671 232.5,718.5C 228.396,718.116 224.729,716.616 221.5,714C 214.082,707.619 207.082,700.785 200.5,693.5C 199.089,691.086 197.089,689.419 194.5,688.5C 190.141,684.472 185.807,680.472 181.5,676.5C 202.323,675.167 223.489,674.5 245,674.5C 266.336,674.5 287.503,674.833 308.5,675.5 Z"/></g>
<g><path style="opacity:1" fill="#1082ce" d="M 688.5,685.5 C 688.5,708.167 688.5,730.833 688.5,753.5C 685.833,753.5 683.167,753.5 680.5,753.5C 631.499,753.333 582.499,753.5 533.5,754C 535.863,754.589 536.863,756.089 536.5,758.5C 509.542,735.21 483.209,711.21 457.5,686.5C 534.332,685.501 611.332,685.167 688.5,685.5 Z"/></g>
<g><path style="opacity:1" fill="#68a0ca" d="M 194.5,688.5 C 197.089,689.419 199.089,691.086 200.5,693.5C 197.911,692.581 195.911,690.914 194.5,688.5 Z"/></g>
<g><path style="opacity:1" fill="#117ac1" d="M 695.5,684.5 C 700.5,687.833 705.5,691.167 710.5,694.5C 711.262,696.262 712.596,697.262 714.5,697.5C 714.5,704.833 714.5,712.167 714.5,719.5C 714.5,746.167 714.5,772.833 714.5,799.5C 714.831,821.673 714.497,843.673 713.5,865.5C 713.667,816.832 713.5,768.166 713,719.5C 712.846,730.892 712.012,742.226 710.5,753.5C 709.669,746.189 709.169,738.856 709,731.5C 708.501,735.152 708.335,738.818 708.5,742.5C 706.5,742.5 704.5,742.5 702.5,742.5C 702.5,746.167 702.5,749.833 702.5,753.5C 701.167,753.5 699.833,753.5 698.5,753.5C 695.167,753.5 691.833,753.5 688.5,753.5C 688.5,730.833 688.5,708.167 688.5,685.5C 689.404,684.791 689.737,683.791 689.5,682.5C 691.685,682.704 693.685,683.37 695.5,684.5 Z"/></g>
<g><path style="opacity:1" fill="#28a0f0" d="M 894.5,705.5 C 894.5,730.5 894.5,755.5 894.5,780.5C 893.908,783.127 893.575,785.794 893.5,788.5C 889.457,800.87 881.791,810.204 870.5,816.5C 871.598,815.603 871.598,814.77 870.5,814C 872.332,813.252 873.999,812.252 875.5,811C 822.501,810.5 769.501,810.333 716.5,810.5C 716.666,818.174 716.5,825.841 716,833.5C 715.831,821.993 715.331,810.659 714.5,799.5C 714.5,772.833 714.5,746.167 714.5,719.5C 715.331,734.661 715.831,749.995 716,765.5C 716.5,754.172 716.667,742.838 716.5,731.5C 775.5,731.5 834.5,731.5 893.5,731.5C 893.5,723.833 893.5,716.167 893.5,708.5C 893.263,707.209 893.596,706.209 894.5,705.5 Z"/></g>
<g><path style="opacity:1" fill="#2ca2f1" d="M 715.5,694.5 C 716.486,698.97 716.819,703.637 716.5,708.5C 775.5,708.5 834.5,708.5 893.5,708.5C 893.5,716.167 893.5,723.833 893.5,731.5C 834.5,731.5 775.5,731.5 716.5,731.5C 716.667,742.838 716.5,754.172 716,765.5C 715.831,749.995 715.331,734.661 714.5,719.5C 714.5,712.167 714.5,704.833 714.5,697.5C 715.404,696.791 715.737,695.791 715.5,694.5 Z"/></g>
<g><path style="opacity:1" fill="#a3c7df" d="M 232.5,718.5 C 238.807,719.671 245.14,719.671 251.5,718.5C 248.114,719.97 244.447,720.637 240.5,720.5C 238.167,720.333 235.833,720.167 233.5,720C 232.944,719.617 232.611,719.117 232.5,718.5 Z"/></g>
<g><path style="opacity:1" fill="#0b7fcd" d="M 680.5,753.5 C 680.5,761.167 680.5,768.833 680.5,776.5C 678.833,776.5 677.167,776.5 675.5,776.5C 674.891,791.503 674.224,806.503 673.5,821.5C 651.141,820.844 629.141,821.511 607.5,823.5C 602.206,819.873 597.539,815.54 593.5,810.5C 592.415,808.413 590.749,807.08 588.5,806.5C 578.48,797.811 568.813,788.811 559.5,779.5C 558.415,777.413 556.749,776.08 554.5,775.5C 548.458,769.824 542.458,764.158 536.5,758.5C 536.863,756.089 535.863,754.589 533.5,754C 582.499,753.5 631.499,753.333 680.5,753.5 Z"/></g>
<g><path style="opacity:1" fill="#0873bb" d="M 713.5,865.5 C 712.781,870.275 710.948,874.608 708,878.5C 706.143,881.2 703.643,882.866 700.5,883.5C 699.844,882.378 699.511,881.045 699.5,879.5C 701.185,865.905 702.019,852.238 702,838.5C 702.323,835.859 703.323,833.525 705,831.5C 705.498,828.183 705.665,824.85 705.5,821.5C 701.833,821.5 698.167,821.5 694.5,821.5C 694.5,810.167 694.5,798.833 694.5,787.5C 695.833,787.5 697.167,787.5 698.5,787.5C 698.5,776.167 698.5,764.833 698.5,753.5C 699.833,753.5 701.167,753.5 702.5,753.5C 702.5,749.833 702.5,746.167 702.5,742.5C 704.5,742.5 706.5,742.5 708.5,742.5C 708.335,738.818 708.501,735.152 709,731.5C 709.169,738.856 709.669,746.189 710.5,753.5C 712.012,742.226 712.846,730.892 713,719.5C 713.5,768.166 713.667,816.832 713.5,865.5 Z"/></g>
<g><path style="opacity:1" fill="#65a6d7" d="M 554.5,775.5 C 556.749,776.08 558.415,777.413 559.5,779.5C 557.251,778.92 555.585,777.587 554.5,775.5 Z"/></g>
<g><path style="opacity:1" fill="#8bbee0" d="M 894.5,780.5 C 894.833,780.5 895.167,780.5 895.5,780.5C 895.706,783.495 895.04,786.162 893.5,788.5C 893.575,785.794 893.908,783.127 894.5,780.5 Z"/></g>
<g><path style="opacity:1" fill="#259eef" d="M 714.5,799.5 C 715.331,810.659 715.831,821.993 716,833.5C 716.5,825.841 716.666,818.174 716.5,810.5C 769.501,810.333 822.501,810.5 875.5,811C 873.999,812.252 872.332,813.252 870.5,814C 871.598,814.77 871.598,815.603 870.5,816.5C 858.67,821.989 847.004,827.656 835.5,833.5C 833.03,833.654 831.03,834.654 829.5,836.5C 820.239,840.344 811.239,844.678 802.5,849.5C 799.057,850.059 796.057,851.393 793.5,853.5C 768.108,865.845 742.775,878.178 717.5,890.5C 708.538,891.629 699.538,892.296 690.5,892.5C 685.712,891.351 681.378,889.351 677.5,886.5C 682.529,888.508 687.529,888.841 692.5,887.5C 695.539,886.722 698.206,885.388 700.5,883.5C 703.643,882.866 706.143,881.2 708,878.5C 710.948,874.608 712.781,870.275 713.5,865.5C 714.497,843.673 714.831,821.673 714.5,799.5 Z"/></g>
<g><path style="opacity:1" fill="#64a9de" d="M 588.5,806.5 C 590.749,807.08 592.415,808.413 593.5,810.5C 591.251,809.92 589.585,808.587 588.5,806.5 Z"/></g>
<g><path style="opacity:1" fill="#0a7bca" d="M 680.5,753.5 C 683.167,753.5 685.833,753.5 688.5,753.5C 691.833,753.5 695.167,753.5 698.5,753.5C 698.5,764.833 698.5,776.167 698.5,787.5C 697.167,787.5 695.833,787.5 694.5,787.5C 694.5,798.833 694.5,810.167 694.5,821.5C 693.5,821.5 692.5,821.5 691.5,821.5C 690.687,829.138 690.354,836.804 690.5,844.5C 689.167,844.5 687.833,844.5 686.5,844.5C 684.934,856.495 683.434,868.495 682,880.5C 681.801,882.402 680.967,883.902 679.5,885C 683.546,887.174 687.879,888.007 692.5,887.5C 687.529,888.841 682.529,888.508 677.5,886.5C 675.246,885.876 673.579,884.543 672.5,882.5C 671.415,880.413 669.749,879.08 667.5,878.5C 646.9,860.904 626.9,842.57 607.5,823.5C 629.141,821.511 651.141,820.844 673.5,821.5C 674.224,806.503 674.891,791.503 675.5,776.5C 677.167,776.5 678.833,776.5 680.5,776.5C 680.5,768.833 680.5,761.167 680.5,753.5 Z"/></g>
<g><path style="opacity:1" fill="#0374bf" d="M 694.5,821.5 C 698.167,821.5 701.833,821.5 705.5,821.5C 705.665,824.85 705.498,828.183 705,831.5C 703.323,833.525 702.323,835.859 702,838.5C 702.019,852.238 701.185,865.905 699.5,879.5C 699.511,881.045 699.844,882.378 700.5,883.5C 698.206,885.388 695.539,886.722 692.5,887.5C 687.879,888.007 683.546,887.174 679.5,885C 680.967,883.902 681.801,882.402 682,880.5C 683.434,868.495 684.934,856.495 686.5,844.5C 687.833,844.5 689.167,844.5 690.5,844.5C 690.354,836.804 690.687,829.138 691.5,821.5C 692.5,821.5 693.5,821.5 694.5,821.5 Z"/></g>
<g><path style="opacity:1" fill="#b6d3e9" d="M 835.5,833.5 C 834.077,835.545 832.077,836.545 829.5,836.5C 831.03,834.654 833.03,833.654 835.5,833.5 Z"/></g>
<g><path style="opacity:1" fill="#a0c7e4" d="M 802.5,849.5 C 799.918,851.742 796.918,853.076 793.5,853.5C 796.057,851.393 799.057,850.059 802.5,849.5 Z"/></g>
<g><path style="opacity:1" fill="#5b9dd2" d="M 667.5,878.5 C 669.749,879.08 671.415,880.413 672.5,882.5C 670.251,881.92 668.585,880.587 667.5,878.5 Z"/></g>
<g><path style="opacity:1" fill="#6cb3e9" d="M 717.5,890.5 C 713.767,891.977 709.767,892.811 705.5,893C 700.316,893.816 695.316,893.65 690.5,892.5C 699.538,892.296 708.538,891.629 717.5,890.5 Z"/></g>
</svg>
