<?xml version="1.0" encoding="UTF-8"?>
<!DOCTYPE svg PUBLIC "-//W3C//DTD SVG 1.1//EN" "http://www.w3.org/Graphics/SVG/1.1/DTD/svg11.dtd">
<svg xmlns="http://www.w3.org/2000/svg" version="1.1" width="1067px" height="1067px" style="shape-rendering:geometricPrecision; text-rendering:geometricPrecision; image-rendering:optimizeQuality; fill-rule:evenodd; clip-rule:evenodd" xmlns:xlink="http://www.w3.org/1999/xlink">
<g><path style="opacity:0.999" fill="#242938" d="M 1066.5,218.5 C 1066.5,428.833 1066.5,639.167 1066.5,849.5C 1050.32,946.376 996.982,1013.88 906.5,1052C 887.808,1058.59 868.808,1063.42 849.5,1066.5C 639.167,1066.5 428.833,1066.5 218.5,1066.5C 121.586,1050.3 54.0863,996.971 16,906.5C 8.00078,884.837 3.00078,862.503 1,839.5C 0.333333,635.833 0.333333,432.167 1,228.5C 10.617,142.639 52.117,77.4727 125.5,33C 154.493,16.6689 185.493,6.3356 218.5,2C 323.648,0.844227 428.815,0.344227 534,0.5C 639.185,0.344227 744.352,0.844227 849.5,2C 946.642,17.7898 1014.14,70.9565 1052,161.5C 1058.59,180.192 1063.42,199.192 1066.5,218.5 Z"/></g>
<g><path style="opacity:1" fill="#7151a9" d="M 687.5,185.5 C 687.559,187.765 686.726,188.098 685,186.5C 683.739,186.759 682.739,187.426 682,188.5C 670.803,204.564 664.803,222.564 664,242.5C 662.874,282.483 662.374,322.483 662.5,362.5C 662.503,398.571 662.836,434.571 663.5,470.5C 642.219,490.778 620.886,511.111 599.5,531.5C 557.116,490.447 514.449,449.78 471.5,409.5C 533.876,335.282 597.209,261.782 661.5,189C 669.651,184.42 678.318,183.253 687.5,185.5 Z"/></g>
<g><path style="opacity:1" fill="#6e4fa5" d="M 687.5,185.5 C 692.784,188.137 697.784,191.137 702.5,194.5C 701.833,194.5 701.5,194.833 701.5,195.5C 700.637,194.537 699.97,194.537 699.5,195.5C 700.193,196.518 700.859,197.518 701.5,198.5C 689.406,208.969 682.739,222.135 681.5,238C 679.792,248.384 678.625,258.884 678,269.5C 677.833,300.333 677.667,331.167 677.5,362C 677.5,393.174 678.167,424.007 679.5,454.5C 674.5,460.167 669.167,465.5 663.5,470.5C 662.836,434.571 662.503,398.571 662.5,362.5C 662.374,322.483 662.874,282.483 664,242.5C 664.803,222.564 670.803,204.564 682,188.5C 682.739,187.426 683.739,186.759 685,186.5C 686.726,188.098 687.559,187.765 687.5,185.5 Z"/></g>
<g><path style="opacity:1" fill="#6b4d9f" d="M 701.5,198.5 C 707.281,207.629 706.781,216.296 700,224.5C 693.798,238.458 690.464,253.124 690,268.5C 689.171,327.237 689.338,385.904 690.5,444.5C 687.457,448.544 683.791,451.877 679.5,454.5C 678.167,424.007 677.5,393.174 677.5,362C 677.667,331.167 677.833,300.333 678,269.5C 678.625,258.884 679.792,248.384 681.5,238C 682.739,222.135 689.406,208.969 701.5,198.5 Z"/></g>
<g><path style="opacity:1" fill="#d099fb" d="M 702.5,194.5 C 757.013,230.837 811.68,267.004 866.5,303C 873.16,307.326 877.993,313.159 881,320.5C 881.5,394.833 881.667,469.166 881.5,543.5C 880.511,538.025 880.178,532.358 880.5,526.5C 880.5,485.167 880.5,443.833 880.5,402.5C 823.5,402.5 766.5,402.5 709.5,402.5C 709.827,412.015 709.494,421.348 708.5,430.5C 708.672,429.508 708.338,428.842 707.5,428.5C 707.5,364.5 707.5,300.5 707.5,236.5C 707.666,226.828 707.5,217.161 707,207.5C 705.963,203.095 704.129,199.095 701.5,195.5C 701.5,194.833 701.833,194.5 702.5,194.5 Z"/></g>
<g><path style="opacity:1" fill="#664999" d="M 701.5,195.5 C 704.129,199.095 705.963,203.095 707,207.5C 707.5,217.161 707.666,226.828 707.5,236.5C 705.695,243.768 704.861,251.435 705,259.5C 704.667,256.833 704.333,254.167 704,251.5C 702.443,257.734 701.443,264.067 701,270.5C 700.333,324.5 700.333,378.5 701,432.5C 701.671,431.748 702.504,431.414 703.5,431.5C 699.5,436.167 695.167,440.5 690.5,444.5C 689.338,385.904 689.171,327.237 690,268.5C 690.464,253.124 693.798,238.458 700,224.5C 706.781,216.296 707.281,207.629 701.5,198.5C 700.859,197.518 700.193,196.518 699.5,195.5C 699.97,194.537 700.637,194.537 701.5,195.5 Z"/></g>
<g><path style="opacity:1" fill="#624692" d="M 707.5,236.5 C 707.5,300.5 707.5,364.5 707.5,428.5C 707.5,428.833 707.5,429.167 707.5,429.5C 705.938,429.733 704.605,430.4 703.5,431.5C 702.504,431.414 701.671,431.748 701,432.5C 700.333,378.5 700.333,324.5 701,270.5C 701.443,264.067 702.443,257.734 704,251.5C 704.333,254.167 704.667,256.833 705,259.5C 704.861,251.435 705.695,243.768 707.5,236.5 Z"/></g>
<g><path style="opacity:1" fill="#8565af" d="M 335.5,286.5 C 329.378,286.268 323.378,286.935 317.5,288.5C 323.272,285.52 329.272,284.853 335.5,286.5 Z"/></g>
<g><path style="opacity:1" fill="#ac7de0" d="M 335.5,286.5 C 339.806,287.658 343.806,289.491 347.5,292C 362.006,305.339 376.006,319.173 389.5,333.5C 391.051,336.563 393.218,339.229 396,341.5C 396.667,342.167 396.667,342.833 396,343.5C 359.144,376.166 322.644,409.166 286.5,442.5C 268.051,420.549 249.051,399.049 229.5,378C 226.929,376.546 224.262,375.38 221.5,374.5C 215.104,373.592 208.771,373.259 202.5,373.5C 240.552,344.781 278.885,316.448 317.5,288.5C 323.378,286.935 329.378,286.268 335.5,286.5 Z"/></g>
<g><path style="opacity:1" fill="#a97bde" d="M 389.5,333.5 C 412.779,354.443 435.445,376.11 457.5,398.5C 456.504,398.586 455.671,398.252 455,397.5C 416.167,432 377.333,466.5 338.5,501C 340.464,502.451 341.797,504.284 342.5,506.5C 330.176,492.541 317.843,478.541 305.5,464.5C 305.5,463.833 305.167,463.5 304.5,463.5C 298.5,456.5 292.5,449.5 286.5,442.5C 322.644,409.166 359.144,376.166 396,343.5C 396.667,342.833 396.667,342.167 396,341.5C 393.218,339.229 391.051,336.563 389.5,333.5 Z"/></g>
<g><path style="opacity:1" fill="#563e84" d="M 202.5,373.5 C 208.771,373.259 215.104,373.592 221.5,374.5C 220.448,374.351 219.448,374.517 218.5,375C 226.947,377.432 233.781,382.265 239,389.5C 260.045,414.944 281.545,439.944 303.5,464.5C 303.5,469.5 303.5,474.5 303.5,479.5C 278.758,452.104 254.425,424.27 230.5,396C 225.009,391.418 219.009,387.585 212.5,384.5C 210.457,382.792 208.79,380.792 207.5,378.5C 203.904,377.921 200.238,377.921 196.5,378.5C 198.091,376.367 200.091,374.701 202.5,373.5 Z"/></g>
<g><path style="opacity:1" fill="#5d428e" d="M 303.5,479.5 C 303.5,518.5 303.5,557.5 303.5,596.5C 280.095,622.989 256.928,649.655 234,676.5C 226.528,684.31 217.694,689.643 207.5,692.5C 205.602,691.904 203.935,691.904 202.5,692.5C 193.957,687.787 188.123,680.787 185,671.5C 184.333,578.833 184.333,486.167 185,393.5C 187.228,387.125 191.061,382.125 196.5,378.5C 200.238,377.921 203.904,377.921 207.5,378.5C 208.79,380.792 210.457,382.792 212.5,384.5C 219.009,387.585 225.009,391.418 230.5,396C 254.425,424.27 278.758,452.104 303.5,479.5 Z"/></g>
<g><path style="opacity:1" fill="#a578dc" d="M 457.5,398.5 C 461.921,401.71 465.921,405.377 469.5,409.5C 512.776,450.107 555.776,491.107 598.5,532.5C 601.5,535.833 604.5,539.167 607.5,542.5C 607.062,542.435 606.728,542.601 606.5,543C 608.833,545.333 611.167,547.667 613.5,550C 570.115,588.724 526.782,627.391 483.5,666C 481.463,665.517 479.463,664.684 477.5,663.5C 474.806,661.473 472.473,659.139 470.5,656.5C 435.833,616.167 401.167,575.833 366.5,535.5C 366.167,534.5 365.5,533.833 364.5,533.5C 357.167,524.5 349.833,515.5 342.5,506.5C 341.797,504.284 340.464,502.451 338.5,501C 377.333,466.5 416.167,432 455,397.5C 455.671,398.252 456.504,398.586 457.5,398.5 Z"/></g>
<g><path style="opacity:1" fill="#48336e" d="M 221.5,374.5 C 224.262,375.38 226.929,376.546 229.5,378C 249.051,399.049 268.051,420.549 286.5,442.5C 292.5,449.5 298.5,456.5 304.5,463.5C 303.833,463.5 303.5,463.833 303.5,464.5C 281.545,439.944 260.045,414.944 239,389.5C 233.781,382.265 226.947,377.432 218.5,375C 219.448,374.517 220.448,374.351 221.5,374.5 Z"/></g>
<g><path style="opacity:1" fill="#242938" d="M 707.5,429.5 C 707.833,498.669 707.499,567.669 706.5,636.5C 703.5,633.833 700.5,631.167 697.5,628.5C 692.131,622.13 686.131,616.463 679.5,611.5C 676.167,607.5 672.5,603.833 668.5,600.5C 648.778,580.443 628.445,561.109 607.5,542.5C 604.5,539.167 601.5,535.833 598.5,532.5C 599.167,532.5 599.5,532.167 599.5,531.5C 620.886,511.111 642.219,490.778 663.5,470.5C 669.167,465.5 674.5,460.167 679.5,454.5C 683.791,451.877 687.457,448.544 690.5,444.5C 695.167,440.5 699.5,436.167 703.5,431.5C 704.605,430.4 705.938,429.733 707.5,429.5 Z"/></g>
<g><path style="opacity:1" fill="#cc96f9" d="M 880.5,526.5 C 823.5,526.5 766.5,526.5 709.5,526.5C 709.831,557.671 709.498,588.671 708.5,619.5C 708.5,556.5 708.5,493.5 708.5,430.5C 709.494,421.348 709.827,412.015 709.5,402.5C 766.5,402.5 823.5,402.5 880.5,402.5C 880.5,443.833 880.5,485.167 880.5,526.5 Z"/></g>
<g><path style="opacity:1" fill="#242938" d="M 305.5,464.5 C 317.843,478.541 330.176,492.541 342.5,506.5C 349.833,515.5 357.167,524.5 364.5,533.5C 362.833,534.5 361.5,535.833 360.5,537.5C 358.167,540.167 355.833,542.833 353.5,545.5C 337.393,564.727 321.06,583.727 304.5,602.5C 303.662,602.158 303.328,601.492 303.5,600.5C 304.167,555.167 304.833,509.833 305.5,464.5 Z"/></g>
<g><path style="opacity:1" fill="#9b75c1" d="M 707.5,428.5 C 708.338,428.842 708.672,429.508 708.5,430.5C 708.5,493.5 708.5,556.5 708.5,619.5C 708.5,625.5 708.5,631.5 708.5,637.5C 708.167,637.5 707.833,637.5 707.5,637.5C 707.167,637.5 706.833,637.5 706.5,637.5C 706.5,637.167 706.5,636.833 706.5,636.5C 707.499,567.669 707.833,498.669 707.5,429.5C 707.5,429.167 707.5,428.833 707.5,428.5 Z"/></g>
<g><path style="opacity:1" fill="#373155" d="M 304.5,463.5 C 305.167,463.5 305.5,463.833 305.5,464.5C 304.833,509.833 304.167,555.167 303.5,600.5C 303.5,599.167 303.5,597.833 303.5,596.5C 303.5,557.5 303.5,518.5 303.5,479.5C 303.5,474.5 303.5,469.5 303.5,464.5C 303.5,463.833 303.833,463.5 304.5,463.5 Z"/></g>
<g><path style="opacity:1" fill="#644794" d="M 469.5,409.5 C 470.167,409.5 470.833,409.5 471.5,409.5C 514.449,449.78 557.116,490.447 599.5,531.5C 599.5,532.167 599.167,532.5 598.5,532.5C 555.776,491.107 512.776,450.107 469.5,409.5 Z"/></g>
<g><path style="opacity:1" fill="#c994f6" d="M 880.5,526.5 C 880.178,532.358 880.511,538.025 881.5,543.5C 881.5,609.5 881.5,675.5 881.5,741.5C 880.502,710.671 880.169,679.671 880.5,648.5C 823.5,648.5 766.5,648.5 709.5,648.5C 709.5,682.833 709.5,717.167 709.5,751.5C 709.667,786.168 709.5,820.835 709,855.5C 708.5,782.834 708.333,710.167 708.5,637.5C 708.5,631.5 708.5,625.5 708.5,619.5C 709.498,588.671 709.831,557.671 709.5,526.5C 766.5,526.5 823.5,526.5 880.5,526.5 Z"/></g>
<g><path style="opacity:1" fill="#654897" d="M 364.5,533.5 C 365.5,533.833 366.167,534.5 366.5,535.5C 365.475,535.897 365.308,536.563 366,537.5C 400.774,577.098 434.941,617.098 468.5,657.5C 467.5,659.167 466.167,660.5 464.5,661.5C 463.91,660.234 463.41,658.901 463,657.5C 428.129,617.82 393.963,577.82 360.5,537.5C 361.5,535.833 362.833,534.5 364.5,533.5 Z"/></g>
<g><path style="opacity:1" fill="#6d4ea3" d="M 360.5,537.5 C 393.963,577.82 428.129,617.82 463,657.5C 463.41,658.901 463.91,660.234 464.5,661.5C 462.192,663.471 459.858,665.471 457.5,667.5C 422.611,627.257 387.944,586.591 353.5,545.5C 355.833,542.833 358.167,540.167 360.5,537.5 Z"/></g>
<g><path style="opacity:1" fill="#7152a9" d="M 353.5,545.5 C 387.944,586.591 422.611,627.257 457.5,667.5C 421.033,703.133 384.366,738.633 347.5,774C 336.867,780.488 325.867,781.155 314.5,776C 276.958,748.401 239.625,720.568 202.5,692.5C 203.935,691.904 205.602,691.904 207.5,692.5C 216.929,694.343 225.262,692.009 232.5,685.5C 256.523,657.814 280.523,630.147 304.5,602.5C 321.06,583.727 337.393,564.727 353.5,545.5 Z"/></g>
<g><path style="opacity:1" fill="#9f74d8" d="M 607.5,542.5 C 628.445,561.109 648.778,580.443 668.5,600.5C 667.502,600.344 666.502,600.844 665.5,602C 666.668,603.871 666.168,605.371 664,606.5C 663.462,677.854 661.962,749.187 659.5,820.5C 657.987,822.535 657.321,824.869 657.5,827.5C 659.271,845.671 664.271,862.838 672.5,879C 672.164,880.03 671.497,880.53 670.5,880.5C 663.562,879.074 658.062,875.407 654,869.5C 594.914,800.957 536.081,732.29 477.5,663.5C 479.463,664.684 481.463,665.517 483.5,666C 526.782,627.391 570.115,588.724 613.5,550C 611.167,547.667 608.833,545.333 606.5,543C 606.728,542.601 607.062,542.435 607.5,542.5 Z"/></g>
<g><path style="opacity:1" fill="#563d83" d="M 303.5,596.5 C 303.5,597.833 303.5,599.167 303.5,600.5C 303.328,601.492 303.662,602.158 304.5,602.5C 280.523,630.147 256.523,657.814 232.5,685.5C 225.262,692.009 216.929,694.343 207.5,692.5C 217.694,689.643 226.528,684.31 234,676.5C 256.928,649.655 280.095,622.989 303.5,596.5 Z"/></g>
<g><path style="opacity:1" fill="#583f83" d="M 366.5,535.5 C 401.167,575.833 435.833,616.167 470.5,656.5C 469.833,656.833 469.167,657.167 468.5,657.5C 434.941,617.098 400.774,577.098 366,537.5C 365.308,536.563 365.475,535.897 366.5,535.5 Z"/></g>
<g><path style="opacity:1" fill="#996fd1" d="M 668.5,600.5 C 672.5,603.833 676.167,607.5 679.5,611.5C 677.985,663.242 676.652,715.242 675.5,767.5C 675.538,779.016 675.871,790.516 676.5,802C 676.397,803.561 676.063,805.061 675.5,806.5C 673.077,807.918 671.411,809.918 670.5,812.5C 671.784,824.988 673.951,837.321 677,849.5C 679.248,855.829 682.415,861.663 686.5,867C 685.044,867.423 684.544,868.256 685,869.5C 687.285,871.907 689.451,874.407 691.5,877C 690.748,877.671 690.414,878.504 690.5,879.5C 683.783,881.554 677.116,881.888 670.5,880.5C 671.497,880.53 672.164,880.03 672.5,879C 664.271,862.838 659.271,845.671 657.5,827.5C 657.321,824.869 657.987,822.535 659.5,820.5C 661.962,749.187 663.462,677.854 664,606.5C 666.168,605.371 666.668,603.871 665.5,602C 666.502,600.844 667.502,600.344 668.5,600.5 Z"/></g>
<g><path style="opacity:1" fill="#946bca" d="M 679.5,611.5 C 686.131,616.463 692.131,622.13 697.5,628.5C 697.565,628.938 697.399,629.272 697,629.5C 694.667,627.167 692.333,624.833 690,622.5C 689.211,679.167 688.878,735.833 689,792.5C 690.343,805.934 692.343,819.268 695,832.5C 697.281,838.755 700.781,844.088 705.5,848.5C 706.913,858.094 704.246,866.26 697.5,873C 698.056,873.383 698.389,873.883 698.5,874.5C 695.869,876.153 693.203,877.819 690.5,879.5C 690.414,878.504 690.748,877.671 691.5,877C 689.451,874.407 687.285,871.907 685,869.5C 684.544,868.256 685.044,867.423 686.5,867C 682.415,861.663 679.248,855.829 677,849.5C 673.951,837.321 671.784,824.988 670.5,812.5C 671.411,809.918 673.077,807.918 675.5,806.5C 676.063,805.061 676.397,803.561 676.5,802C 675.871,790.516 675.538,779.016 675.5,767.5C 676.652,715.242 677.985,663.242 679.5,611.5 Z"/></g>
<g><path style="opacity:1" fill="#c691f4" d="M 881.5,741.5 C 880.923,745.983 879.256,749.983 876.5,753.5C 821.049,751.511 765.383,750.844 709.5,751.5C 709.5,717.167 709.5,682.833 709.5,648.5C 766.5,648.5 823.5,648.5 880.5,648.5C 880.169,679.671 880.502,710.671 881.5,741.5 Z"/></g>
<g><path style="opacity:1" fill="#8d67c1" d="M 697.5,628.5 C 700.5,631.167 703.5,633.833 706.5,636.5C 706.5,636.833 706.5,637.167 706.5,637.5C 705.668,661.33 705.168,685.33 705,709.5C 703.122,711.043 701.622,712.876 700.5,715C 701.656,736.433 701.656,757.933 700.5,779.5C 700.48,790.615 701.48,801.615 703.5,812.5C 700.685,816.999 701.185,821.333 705,825.5C 705.5,833.159 705.666,840.826 705.5,848.5C 700.781,844.088 697.281,838.755 695,832.5C 692.343,819.268 690.343,805.934 689,792.5C 688.878,735.833 689.211,679.167 690,622.5C 692.333,624.833 694.667,627.167 697,629.5C 697.399,629.272 697.565,628.938 697.5,628.5 Z"/></g>
<g><path style="opacity:1" fill="#8662b7" d="M 706.5,637.5 C 706.833,637.5 707.167,637.5 707.5,637.5C 707.667,711.501 707.5,785.501 707,859.5C 706.011,864.312 703.844,868.479 700.5,872C 700.728,872.399 701.062,872.565 701.5,872.5C 700.71,873.401 699.71,874.068 698.5,874.5C 698.389,873.883 698.056,873.383 697.5,873C 704.246,866.26 706.913,858.094 705.5,848.5C 705.666,840.826 705.5,833.159 705,825.5C 701.185,821.333 700.685,816.999 703.5,812.5C 701.48,801.615 700.48,790.615 700.5,779.5C 701.656,757.933 701.656,736.433 700.5,715C 701.622,712.876 703.122,711.043 705,709.5C 705.168,685.33 705.668,661.33 706.5,637.5 Z"/></g>
<g><path style="opacity:1" fill="#c38ff2" d="M 707.5,637.5 C 707.833,637.5 708.167,637.5 708.5,637.5C 708.333,710.167 708.5,782.834 709,855.5C 709.5,820.835 709.667,786.168 709.5,751.5C 765.383,750.844 821.049,751.511 876.5,753.5C 873.667,757.165 870.334,760.332 866.5,763C 811.346,799.33 756.346,835.83 701.5,872.5C 701.062,872.565 700.728,872.399 700.5,872C 703.844,868.479 706.011,864.312 707,859.5C 707.5,785.501 707.667,711.501 707.5,637.5 Z"/></g>
</svg>
