<?xml version="1.0" encoding="UTF-8"?>
<!DOCTYPE svg PUBLIC "-//W3C//DTD SVG 1.1//EN" "http://www.w3.org/Graphics/SVG/1.1/DTD/svg11.dtd">
<svg xmlns="http://www.w3.org/2000/svg" version="1.1" width="1067px" height="1067px" style="shape-rendering:geometricPrecision; text-rendering:geometricPrecision; image-rendering:optimizeQuality; fill-rule:evenodd; clip-rule:evenodd" xmlns:xlink="http://www.w3.org/1999/xlink">
<g><path style="opacity:0.999" fill="#242938" d="M 1066.5,218.5 C 1066.5,428.833 1066.5,639.167 1066.5,849.5C 1050.32,946.376 996.982,1013.88 906.5,1052C 887.808,1058.59 868.808,1063.42 849.5,1066.5C 639.167,1066.5 428.833,1066.5 218.5,1066.5C 121.586,1050.3 54.0863,996.971 16,906.5C 8.00078,884.837 3.00078,862.503 1,839.5C 0.333333,635.833 0.333333,432.167 1,228.5C 10.617,142.639 52.117,77.4727 125.5,33C 154.493,16.6689 185.493,6.3356 218.5,2C 323.648,0.844227 428.815,0.344227 534,0.5C 639.185,0.344227 744.352,0.844227 849.5,2C 946.642,17.7898 1014.14,70.9565 1052,161.5C 1058.59,180.192 1063.42,199.192 1066.5,218.5 Z"/></g>
<g><path style="opacity:1" fill="#3b82b2" d="M 699.5,181.5 C 705.5,184.167 709.833,188.5 712.5,194.5C 712.833,197.167 713.167,199.833 713.5,202.5C 712.883,202.389 712.383,202.056 712,201.5C 710.653,219.479 709.82,237.479 709.5,255.5C 703.167,255.5 696.833,255.5 690.5,255.5C 690.167,255.5 689.833,255.5 689.5,255.5C 689.544,250.182 690.878,245.348 693.5,241C 691.197,233.444 690.864,225.777 692.5,218C 691.951,211.797 691.284,205.631 690.5,199.5C 692.743,198.526 695.076,198.192 697.5,198.5C 697.807,192.907 697.473,187.407 696.5,182C 697.448,181.517 698.448,181.351 699.5,181.5 Z"/></g>
<g><path style="opacity:1" fill="#3c86b8" d="M 713.5,175.5 C 712.504,175.414 711.671,175.748 711,176.5C 707.598,175.211 703.931,174.544 700,174.5C 695.415,174.431 690.915,174.931 686.5,176C 686.167,176.333 685.833,176.667 685.5,177C 690.712,177.293 695.378,178.793 699.5,181.5C 698.448,181.351 697.448,181.517 696.5,182C 697.473,187.407 697.807,192.907 697.5,198.5C 695.076,198.192 692.743,198.526 690.5,199.5C 691.284,205.631 691.951,211.797 692.5,218C 690.864,225.777 691.197,233.444 693.5,241C 690.878,245.348 689.544,250.182 689.5,255.5C 681.833,255.5 674.167,255.5 666.5,255.5C 666.5,251.833 666.5,248.167 666.5,244.5C 668.5,244.5 670.5,244.5 672.5,244.5C 671.597,229.012 669.597,213.679 666.5,198.5C 664.712,198.215 663.045,198.548 661.5,199.5C 663.324,202.901 664.324,206.568 664.5,210.5C 657.167,210.5 649.833,210.5 642.5,210.5C 645.296,207.203 648.296,204.036 651.5,201C 660.5,193.333 669.5,185.667 678.5,178C 685.662,174.282 693.329,172.448 701.5,172.5C 705.931,172.274 709.931,173.274 713.5,175.5 Z"/></g>
<g><path style="opacity:1" fill="#52b2f2" d="M 713.5,175.5 C 724.064,179.535 734.564,183.868 745,188.5C 782.094,206.237 818.927,224.237 855.5,242.5C 856.091,243.151 856.757,243.818 857.5,244.5C 857,244.833 856.5,245.167 856,245.5C 809.53,244.507 763.03,244.174 716.5,244.5C 715.608,270.821 715.275,297.155 715.5,323.5C 715.167,323.5 714.833,323.5 714.5,323.5C 714.667,281.499 714.5,239.499 714,197.5C 713.768,196.263 713.268,195.263 712.5,194.5C 709.833,188.5 705.5,184.167 699.5,181.5C 695.378,178.793 690.712,177.293 685.5,177C 685.833,176.667 686.167,176.333 686.5,176C 690.915,174.931 695.415,174.431 700,174.5C 703.931,174.544 707.598,175.211 711,176.5C 711.671,175.748 712.504,175.414 713.5,175.5 Z"/></g>
<g><path style="opacity:1" fill="#4db0f2" d="M 855.5,242.5 C 866.46,246.621 876.294,252.621 885,260.5C 889.708,266.801 892.541,273.801 893.5,281.5C 893.5,282.833 893.5,284.167 893.5,285.5C 893.5,301.833 893.5,318.167 893.5,334.5C 892.676,338.312 892.176,342.312 892,346.5C 891.501,342.514 891.334,338.514 891.5,334.5C 833.167,334.5 774.833,334.5 716.5,334.5C 716.666,338.514 716.499,342.514 716,346.5C 715.5,338.841 715.334,331.174 715.5,323.5C 715.275,297.155 715.608,270.821 716.5,244.5C 763.03,244.174 809.53,244.507 856,245.5C 856.5,245.167 857,244.833 857.5,244.5C 856.757,243.818 856.091,243.151 855.5,242.5 Z"/></g>
<g><path style="opacity:1" fill="#3886bb" d="M 666.5,255.5 C 666.5,263.167 666.5,270.833 666.5,278.5C 634.165,278.667 601.832,278.5 569.5,278C 570.252,277.329 570.586,276.496 570.5,275.5C 594.449,253.89 618.449,232.224 642.5,210.5C 649.833,210.5 657.167,210.5 664.5,210.5C 664.324,206.568 663.324,202.901 661.5,199.5C 663.045,198.548 664.712,198.215 666.5,198.5C 669.597,213.679 671.597,229.012 672.5,244.5C 670.5,244.5 668.5,244.5 666.5,244.5C 666.5,248.167 666.5,251.833 666.5,255.5 Z"/></g>
<g><path style="opacity:1" fill="#3484b9" d="M 666.5,255.5 C 674.167,255.5 681.833,255.5 689.5,255.5C 689.833,255.5 690.167,255.5 690.5,255.5C 688.952,274.464 688.285,293.464 688.5,312.5C 687.5,312.5 686.5,312.5 685.5,312.5C 685.5,319.833 685.5,327.167 685.5,334.5C 683.167,334.5 680.833,334.5 678.5,334.5C 622.163,334.833 565.829,334.5 509.5,333.5C 510.857,331.814 512.19,330.148 513.5,328.5C 532.173,310.494 551.173,292.828 570.5,275.5C 570.586,276.496 570.252,277.329 569.5,278C 601.832,278.5 634.165,278.667 666.5,278.5C 666.5,270.833 666.5,263.167 666.5,255.5 Z"/></g>
<g><path style="opacity:1" fill="#357fb2" d="M 690.5,255.5 C 696.833,255.5 703.167,255.5 709.5,255.5C 708.819,266.821 708.486,278.154 708.5,289.5C 707.5,289.5 706.5,289.5 705.5,289.5C 705.5,297.167 705.5,304.833 705.5,312.5C 704.5,312.5 703.5,312.5 702.5,312.5C 702.825,320.019 702.492,327.352 701.5,334.5C 696.167,334.5 690.833,334.5 685.5,334.5C 685.5,327.167 685.5,319.833 685.5,312.5C 686.5,312.5 687.5,312.5 688.5,312.5C 688.285,293.464 688.952,274.464 690.5,255.5 Z"/></g>
<g><path style="opacity:1" fill="#3d8fc6" d="M 712.5,194.5 C 713.268,195.263 713.768,196.263 714,197.5C 714.5,239.499 714.667,281.499 714.5,323.5C 714.5,338.5 714.5,353.5 714.5,368.5C 714.167,368.5 713.833,368.5 713.5,368.5C 713.5,313.167 713.5,257.833 713.5,202.5C 713.167,199.833 712.833,197.167 712.5,194.5 Z"/></g>
<g><path style="opacity:1" fill="#2e80b8" d="M 513.5,328.5 C 512.19,330.148 510.857,331.814 509.5,333.5C 565.829,334.5 622.163,334.833 678.5,334.5C 678.5,345.833 678.5,357.167 678.5,368.5C 677.5,368.5 676.5,368.5 675.5,368.5C 676.011,377.122 675.344,385.622 673.5,394C 673.648,395.256 673.982,396.423 674.5,397.5C 671.81,400.185 668.81,402.518 665.5,404.5C 663.621,404.607 663.288,404.107 664.5,403C 587.332,402.833 510.332,402.333 433.5,401.5C 459.588,376.407 486.254,352.073 513.5,328.5 Z"/></g>
<g><path style="opacity:1" fill="#2f7eb3" d="M 678.5,334.5 C 680.833,334.5 683.167,334.5 685.5,334.5C 690.833,334.5 696.167,334.5 701.5,334.5C 701.5,338.5 701.5,342.5 701.5,346.5C 700.5,346.5 699.5,346.5 698.5,346.5C 698.5,350.167 698.5,353.833 698.5,357.5C 696.167,357.5 693.833,357.5 691.5,357.5C 691.5,365.167 691.5,372.833 691.5,380.5C 690.5,380.5 689.5,380.5 688.5,380.5C 688.343,381.873 688.51,383.207 689,384.5C 689.977,383.226 690.811,383.226 691.5,384.5C 686.412,389.549 680.745,393.883 674.5,397.5C 673.982,396.423 673.648,395.256 673.5,394C 675.344,385.622 676.011,377.122 675.5,368.5C 676.5,368.5 677.5,368.5 678.5,368.5C 678.5,357.167 678.5,345.833 678.5,334.5 Z"/></g>
<g><path style="opacity:1" fill="#49aff3" d="M 714.5,323.5 C 714.833,323.5 715.167,323.5 715.5,323.5C 715.334,331.174 715.5,338.841 716,346.5C 716.499,342.514 716.666,338.514 716.5,334.5C 774.833,334.5 833.167,334.5 891.5,334.5C 891.334,338.514 891.501,342.514 892,346.5C 892.176,342.312 892.676,338.312 893.5,334.5C 893.5,342.167 893.5,349.833 893.5,357.5C 834.5,357.5 775.5,357.5 716.5,357.5C 716.821,362.695 716.487,367.695 715.5,372.5C 715.768,370.901 715.434,369.568 714.5,368.5C 714.5,353.5 714.5,338.5 714.5,323.5 Z"/></g>
<g><path style="opacity:1" fill="#307aad" d="M 713.5,202.5 C 713.5,257.833 713.5,313.167 713.5,368.5C 712.833,368.5 712.5,368.833 712.5,369.5C 705.778,374.888 698.778,379.888 691.5,384.5C 690.811,383.226 689.977,383.226 689,384.5C 688.51,383.207 688.343,381.873 688.5,380.5C 689.5,380.5 690.5,380.5 691.5,380.5C 691.5,372.833 691.5,365.167 691.5,357.5C 693.833,357.5 696.167,357.5 698.5,357.5C 698.5,353.833 698.5,350.167 698.5,346.5C 699.5,346.5 700.5,346.5 701.5,346.5C 701.5,342.5 701.5,338.5 701.5,334.5C 702.492,327.352 702.825,320.019 702.5,312.5C 703.5,312.5 704.5,312.5 705.5,312.5C 705.5,304.833 705.5,297.167 705.5,289.5C 706.5,289.5 707.5,289.5 708.5,289.5C 708.486,278.154 708.819,266.821 709.5,255.5C 709.82,237.479 710.653,219.479 712,201.5C 712.383,202.056 712.883,202.389 713.5,202.5 Z"/></g>
<g><path style="opacity:1" fill="#2d90d3" d="M 324.5,402.5 C 274.116,401.841 223.95,402.507 174,404.5C 173.667,403.833 173.333,403.167 173,402.5C 172.963,404.974 172.13,406.974 170.5,408.5C 171.444,403.029 173.611,398.029 177,393.5C 190.866,379.966 205.032,366.799 219.5,354C 228.621,346.684 238.955,344.517 250.5,347.5C 275.751,365.09 300.418,383.423 324.5,402.5 Z"/></g>
<g><path style="opacity:1" fill="#46adf2" d="M 893.5,285.5 C 894.499,326.33 894.832,367.33 894.5,408.5C 893.539,410.265 893.205,412.265 893.5,414.5C 892.677,417.977 892.177,421.644 892,425.5C 891.501,421.848 891.335,418.182 891.5,414.5C 832.833,414.5 774.167,414.5 715.5,414.5C 715.5,400.5 715.5,386.5 715.5,372.5C 716.487,367.695 716.821,362.695 716.5,357.5C 775.5,357.5 834.5,357.5 893.5,357.5C 893.5,349.833 893.5,342.167 893.5,334.5C 893.5,318.167 893.5,301.833 893.5,285.5 Z"/></g>
<g><path style="opacity:1" fill="#242938" d="M 712.5,369.5 C 713.167,423.666 713.5,477.999 713.5,532.5C 713.5,587.171 712.833,641.504 711.5,695.5C 705.11,690.444 698.443,685.777 691.5,681.5C 685.478,676.15 679.145,671.15 672.5,666.5C 650.784,649.449 628.784,632.783 606.5,616.5C 581.789,597.123 556.789,578.123 531.5,559.5C 522.524,552.865 513.524,546.198 504.5,539.5C 502.54,537.844 500.54,536.177 498.5,534.5C 498.393,532.097 499.393,530.264 501.5,529C 507.747,524.723 513.747,520.223 519.5,515.5C 543.808,497.519 567.808,479.186 591.5,460.5C 616.379,442.311 641.045,423.645 665.5,404.5C 668.81,402.518 671.81,400.185 674.5,397.5C 680.745,393.883 686.412,389.549 691.5,384.5C 698.778,379.888 705.778,374.888 712.5,369.5 Z"/></g>
<g><path style="opacity:1" fill="#297db6" d="M 433.5,401.5 C 510.332,402.333 587.332,402.833 664.5,403C 663.288,404.107 663.621,404.607 665.5,404.5C 641.045,423.645 616.379,442.311 591.5,460.5C 552.335,459.667 513.002,459.167 473.5,459C 469.549,456.386 465.883,453.386 462.5,450C 459.167,449 455.833,448 452.5,447C 440.306,438.288 428.306,429.455 416.5,420.5C 416.291,419.914 415.957,419.414 415.5,419C 417.141,417.871 418.141,416.371 418.5,414.5C 422.874,409.387 427.874,405.054 433.5,401.5 Z"/></g>
<g><path style="opacity:1" fill="#359de5" d="M 893.5,281.5 C 894.268,282.263 894.768,283.263 895,284.5C 895.5,403.166 895.667,521.833 895.5,640.5C 895.167,640.5 894.833,640.5 894.5,640.5C 894.5,629.167 894.5,617.833 894.5,606.5C 894.5,572.5 894.5,538.5 894.5,504.5C 894.5,472.5 894.5,440.5 894.5,408.5C 894.832,367.33 894.499,326.33 893.5,285.5C 893.5,284.167 893.5,282.833 893.5,281.5 Z"/></g>
<g><path style="opacity:1" fill="#2a8fd3" d="M 324.5,402.5 C 335.718,410.602 346.718,418.935 357.5,427.5C 355.571,427.769 353.905,427.269 352.5,426C 293.332,425.168 234.332,425.335 175.5,426.5C 171.102,421.399 169.435,415.399 170.5,408.5C 172.13,406.974 172.963,404.974 173,402.5C 173.333,403.167 173.667,403.833 174,404.5C 223.95,402.507 274.116,401.841 324.5,402.5 Z"/></g>
<g><path style="opacity:1" fill="#41abf2" d="M 715.5,414.5 C 774.167,414.5 832.833,414.5 891.5,414.5C 891.335,418.182 891.501,421.848 892,425.5C 892.177,421.644 892.677,417.977 893.5,414.5C 893.5,440.833 893.5,467.167 893.5,493.5C 834.167,493.5 774.833,493.5 715.5,493.5C 715.5,467.167 715.5,440.833 715.5,414.5 Z"/></g>
<g><path style="opacity:1" fill="#278ed3" d="M 357.5,427.5 C 366.117,433.45 374.451,439.783 382.5,446.5C 393.014,454.258 403.347,462.258 413.5,470.5C 349.345,470.488 285.011,470.488 220.5,470.5C 205.544,457.713 191.044,444.379 177,430.5C 176.209,429.255 175.709,427.922 175.5,426.5C 234.332,425.335 293.332,425.168 352.5,426C 353.905,427.269 355.571,427.769 357.5,427.5 Z"/></g>
<g><path style="opacity:1" fill="#228bd2" d="M 413.5,470.5 C 441.983,491.581 470.316,512.915 498.5,534.5C 500.54,536.177 502.54,537.844 504.5,539.5C 434.529,538.51 364.529,538.176 294.5,538.5C 291.806,536.473 289.473,534.139 287.5,531.5C 264.816,511.479 242.482,491.146 220.5,470.5C 285.011,470.488 349.345,470.488 413.5,470.5 Z"/></g>
<g><path style="opacity:1" fill="#2473a8" d="M 400.5,431.5 C 408.21,438.708 416.376,445.375 425,451.5C 425.333,451.167 425.667,450.833 426,450.5C 429.937,456.288 435.437,459.455 442.5,460C 443.978,462.057 445.978,463.39 448.5,464C 451.818,466.44 454.818,469.273 457.5,472.5C 458.086,472.291 458.586,471.957 459,471.5C 461.671,474.55 464.504,477.383 467.5,480C 469.5,480.667 471.5,481.333 473.5,482C 477.558,485.39 481.891,488.39 486.5,491C 489.118,494.296 492.118,497.13 495.5,499.5C 496.086,499.291 496.586,498.957 497,498.5C 499.163,501.317 501.663,503.817 504.5,506C 509.218,509.626 514.218,512.793 519.5,515.5C 513.747,520.223 507.747,524.723 501.5,529C 499.393,530.264 498.393,532.097 498.5,534.5C 470.316,512.915 441.983,491.581 413.5,470.5C 403.347,462.258 393.014,454.258 382.5,446.5C 388.496,441.505 394.496,436.505 400.5,431.5 Z"/></g>
<g><path style="opacity:1" fill="#2579b3" d="M 418.5,414.5 C 418.141,416.371 417.141,417.871 415.5,419C 415.957,419.414 416.291,419.914 416.5,420.5C 428.306,429.455 440.306,438.288 452.5,447C 455.833,448 459.167,449 462.5,450C 465.883,453.386 469.549,456.386 473.5,459C 513.002,459.167 552.335,459.667 591.5,460.5C 567.808,479.186 543.808,497.519 519.5,515.5C 514.218,512.793 509.218,509.626 504.5,506C 501.663,503.817 499.163,501.317 497,498.5C 496.586,498.957 496.086,499.291 495.5,499.5C 492.118,497.13 489.118,494.296 486.5,491C 481.891,488.39 477.558,485.39 473.5,482C 471.5,481.333 469.5,480.667 467.5,480C 464.504,477.383 461.671,474.55 459,471.5C 458.586,471.957 458.086,472.291 457.5,472.5C 454.818,469.273 451.818,466.44 448.5,464C 445.978,463.39 443.978,462.057 442.5,460C 435.437,459.455 429.937,456.288 426,450.5C 425.667,450.833 425.333,451.167 425,451.5C 416.376,445.375 408.21,438.708 400.5,431.5C 406.076,425.38 412.076,419.713 418.5,414.5 Z"/></g>
<g><path style="opacity:1" fill="#3ca9f1" d="M 894.5,408.5 C 894.5,440.5 894.5,472.5 894.5,504.5C 893.508,511.982 893.175,519.648 893.5,527.5C 834.167,527.5 774.833,527.5 715.5,527.5C 715.5,516.167 715.5,504.833 715.5,493.5C 774.833,493.5 834.167,493.5 893.5,493.5C 893.5,467.167 893.5,440.833 893.5,414.5C 893.205,412.265 893.539,410.265 894.5,408.5 Z"/></g>
<g><path style="opacity:1" fill="#35a5f1" d="M 714.5,368.5 C 715.434,369.568 715.768,370.901 715.5,372.5C 715.5,386.5 715.5,400.5 715.5,414.5C 715.5,440.833 715.5,467.167 715.5,493.5C 715.5,504.833 715.5,516.167 715.5,527.5C 715.5,538.833 715.5,550.167 715.5,561.5C 774.833,561.5 834.167,561.5 893.5,561.5C 893.5,550.167 893.5,538.833 893.5,527.5C 893.175,519.648 893.508,511.982 894.5,504.5C 894.5,538.5 894.5,572.5 894.5,606.5C 893.504,621.324 893.171,636.324 893.5,651.5C 834.167,651.5 774.833,651.5 715.5,651.5C 715.5,665.833 715.5,680.167 715.5,694.5C 715.737,695.791 715.404,696.791 714.5,697.5C 714.5,587.833 714.5,478.167 714.5,368.5 Z"/></g>
<g><path style="opacity:1" fill="#39a8f2" d="M 715.5,527.5 C 774.833,527.5 834.167,527.5 893.5,527.5C 893.5,538.833 893.5,550.167 893.5,561.5C 834.167,561.5 774.833,561.5 715.5,561.5C 715.5,550.167 715.5,538.833 715.5,527.5 Z"/></g>
<g><path style="opacity:1" fill="#1b6da4" d="M 287.5,531.5 C 289.473,534.139 291.806,536.473 294.5,538.5C 297.296,541.797 300.296,544.964 303.5,548C 310.017,553.024 316.35,558.191 322.5,563.5C 340.703,581.28 359.37,598.613 378.5,615.5C 379.94,617.949 381.94,619.615 384.5,620.5C 383.127,620.343 381.793,620.51 380.5,621C 375.47,624.842 370.47,628.675 365.5,632.5C 360.261,627.409 354.594,622.742 348.5,618.5C 342.599,612.77 337.265,606.603 332.5,600C 325.963,595.741 320.296,590.574 315.5,584.5C 317.006,583.253 318.506,583.253 320,584.5C 320.667,583.833 320.667,583.167 320,582.5C 310.218,574.052 301.052,564.885 292.5,555C 291.5,554.667 290.5,554.333 289.5,554C 285.905,549.896 281.905,546.396 277.5,543.5C 280.772,540.614 283.938,537.614 287,534.5C 287.483,533.552 287.649,532.552 287.5,531.5 Z"/></g>
<g><path style="opacity:1" fill="#1e89d1" d="M 294.5,538.5 C 364.529,538.176 434.529,538.51 504.5,539.5C 513.524,546.198 522.524,552.865 531.5,559.5C 461.833,560.833 392.167,562.167 322.5,563.5C 316.35,558.191 310.017,553.024 303.5,548C 300.296,544.964 297.296,541.797 294.5,538.5 Z"/></g>
<g><path style="opacity:1" fill="#1b71ab" d="M 277.5,543.5 C 281.905,546.396 285.905,549.896 289.5,554C 290.5,554.333 291.5,554.667 292.5,555C 301.052,564.885 310.218,574.052 320,582.5C 320.667,583.167 320.667,583.833 320,584.5C 318.506,583.253 317.006,583.253 315.5,584.5C 320.296,590.574 325.963,595.741 332.5,600C 337.265,606.603 342.599,612.77 348.5,618.5C 354.594,622.742 360.261,627.409 365.5,632.5C 360.013,637.076 354.347,641.409 348.5,645.5C 348.318,642.297 346.652,640.464 343.5,640C 339.805,635.974 336.138,631.974 332.5,628C 327.652,625.65 323.985,622.15 321.5,617.5C 323.379,617.607 323.712,617.107 322.5,616C 315.882,611.717 310.215,606.383 305.5,600C 302.978,599.39 300.978,598.057 299.5,596C 300.624,595.751 301.624,595.251 302.5,594.5C 300.766,592.766 298.766,591.432 296.5,590.5C 286.966,580.409 276.966,570.909 266.5,562C 269.882,561.824 273.215,561.324 276.5,560.5C 274.396,557.225 271.563,554.891 268,553.5C 266.516,555.934 264.349,557.267 261.5,557.5C 266.512,552.49 271.845,547.823 277.5,543.5 Z"/></g>
<g><path style="opacity:1" fill="#1a74b0" d="M 321.5,617.5 C 280.594,617.17 239.761,617.503 199,618.5C 198.517,617.552 198.351,616.552 198.5,615.5C 218.889,595.477 239.889,576.144 261.5,557.5C 264.349,557.267 266.516,555.934 268,553.5C 271.563,554.891 274.396,557.225 276.5,560.5C 273.215,561.324 269.882,561.824 266.5,562C 276.966,570.909 286.966,580.409 296.5,590.5C 298.766,591.432 300.766,592.766 302.5,594.5C 301.624,595.251 300.624,595.751 299.5,596C 300.978,598.057 302.978,599.39 305.5,600C 310.215,606.383 315.882,611.717 322.5,616C 323.712,617.107 323.379,617.607 321.5,617.5 Z"/></g>
<g><path style="opacity:1" fill="#2a5376" d="M 712.5,369.5 C 712.5,368.833 712.833,368.5 713.5,368.5C 713.833,368.5 714.167,368.5 714.5,368.5C 714.5,478.167 714.5,587.833 714.5,697.5C 713.391,697.443 712.391,697.11 711.5,696.5C 711.5,696.167 711.5,695.833 711.5,695.5C 712.833,641.504 713.5,587.171 713.5,532.5C 713.5,477.999 713.167,423.666 712.5,369.5 Z"/></g>
<g><path style="opacity:1" fill="#1b88d1" d="M 531.5,559.5 C 556.789,578.123 581.789,597.123 606.5,616.5C 532.167,617.164 457.833,617.83 383.5,618.5C 382.06,617.048 380.394,616.048 378.5,615.5C 359.37,598.613 340.703,581.28 322.5,563.5C 392.167,562.167 461.833,560.833 531.5,559.5 Z"/></g>
<g><path style="opacity:1" fill="#2fa3f1" d="M 894.5,606.5 C 894.5,617.833 894.5,629.167 894.5,640.5C 894.802,663.2 894.469,685.866 893.5,708.5C 834.5,708.5 775.5,708.5 716.5,708.5C 716.819,703.637 716.486,698.97 715.5,694.5C 715.5,680.167 715.5,665.833 715.5,651.5C 774.833,651.5 834.167,651.5 893.5,651.5C 893.171,636.324 893.504,621.324 894.5,606.5 Z"/></g>
<g><path style="opacity:1" fill="#1671af" d="M 198.5,615.5 C 198.351,616.552 198.517,617.552 199,618.5C 239.761,617.503 280.594,617.17 321.5,617.5C 323.985,622.15 327.652,625.65 332.5,628C 336.138,631.974 339.805,635.974 343.5,640C 346.652,640.464 348.318,642.297 348.5,645.5C 335.711,655.647 322.711,665.313 309.5,674.5C 265.791,674.823 222.124,674.489 178.5,673.5C 168.424,661.04 167.924,648.04 177,634.5C 184.038,627.958 191.205,621.625 198.5,615.5 Z"/></g>
<g><path style="opacity:1" fill="#1585d0" d="M 378.5,615.5 C 380.394,616.048 382.06,617.048 383.5,618.5C 457.833,617.83 532.167,617.164 606.5,616.5C 628.784,632.783 650.784,649.449 672.5,666.5C 673.092,669.127 673.425,671.794 673.5,674.5C 672.5,674.5 671.5,674.5 670.5,674.5C 670.5,678.167 670.5,681.833 670.5,685.5C 599.331,685.167 528.331,685.501 457.5,686.5C 433.141,664.472 408.808,642.472 384.5,620.5C 381.94,619.615 379.94,617.949 378.5,615.5 Z"/></g>
<g><path style="opacity:1" fill="#126ead" d="M 178.5,673.5 C 222.124,674.489 265.791,674.823 309.5,674.5C 292.613,688.215 275.28,701.382 257.5,714C 256.374,716.655 254.374,718.155 251.5,718.5C 245.14,719.671 238.807,719.671 232.5,718.5C 227.645,717.503 223.312,715.336 219.5,712C 205.911,698.906 192.245,686.073 178.5,673.5 Z"/></g>
<g><path style="opacity:1" fill="#0f81ce" d="M 672.5,666.5 C 679.145,671.15 685.478,676.15 691.5,681.5C 690.313,682.534 689.48,683.867 689,685.5C 688.5,708.164 688.333,730.831 688.5,753.5C 685.833,753.5 683.167,753.5 680.5,753.5C 630.791,753.176 581.125,753.509 531.5,754.5C 506.533,732.202 481.867,709.535 457.5,686.5C 528.331,685.501 599.331,685.167 670.5,685.5C 670.5,681.833 670.5,678.167 670.5,674.5C 671.5,674.5 672.5,674.5 673.5,674.5C 673.425,671.794 673.092,669.127 672.5,666.5 Z"/></g>
<g><path style="opacity:1" fill="#0f79c0" d="M 691.5,681.5 C 698.443,685.777 705.11,690.444 711.5,695.5C 711.5,695.833 711.5,696.167 711.5,696.5C 710.523,711.929 709.523,727.263 708.5,742.5C 706.5,742.5 704.5,742.5 702.5,742.5C 702.5,746.167 702.5,749.833 702.5,753.5C 701.167,753.5 699.833,753.5 698.5,753.5C 695.167,753.5 691.833,753.5 688.5,753.5C 688.333,730.831 688.5,708.164 689,685.5C 689.48,683.867 690.313,682.534 691.5,681.5 Z"/></g>
<g><path style="opacity:1" fill="#28a0f0" d="M 894.5,640.5 C 894.833,640.5 895.167,640.5 895.5,640.5C 895.5,687.167 895.5,733.833 895.5,780.5C 894.076,782.515 893.41,784.848 893.5,787.5C 890.657,798.216 884.657,806.549 875.5,812.5C 874.262,812.19 874.262,811.69 875.5,811C 822.501,810.5 769.501,810.333 716.5,810.5C 716.667,823.837 716.5,837.171 716,850.5C 715.832,833.328 715.332,816.328 714.5,799.5C 714.5,772.833 714.5,746.167 714.5,719.5C 715.331,734.661 715.831,749.995 716,765.5C 716.5,754.172 716.667,742.838 716.5,731.5C 775.5,731.5 834.5,731.5 893.5,731.5C 893.5,723.833 893.5,716.167 893.5,708.5C 894.469,685.866 894.802,663.2 894.5,640.5 Z"/></g>
<g><path style="opacity:1" fill="#2ca2f1" d="M 715.5,694.5 C 716.486,698.97 716.819,703.637 716.5,708.5C 775.5,708.5 834.5,708.5 893.5,708.5C 893.5,716.167 893.5,723.833 893.5,731.5C 834.5,731.5 775.5,731.5 716.5,731.5C 716.667,742.838 716.5,754.172 716,765.5C 715.831,749.995 715.331,734.661 714.5,719.5C 714.5,712.167 714.5,704.833 714.5,697.5C 715.404,696.791 715.737,695.791 715.5,694.5 Z"/></g>
<g><path style="opacity:1" fill="#1d4262" d="M 232.5,718.5 C 238.807,719.671 245.14,719.671 251.5,718.5C 248.305,720.03 244.805,720.696 241,720.5C 238.5,720.333 236,720.167 233.5,720C 232.944,719.617 232.611,719.117 232.5,718.5 Z"/></g>
<g><path style="opacity:1" fill="#0a7ecd" d="M 680.5,753.5 C 680.5,761.167 680.5,768.833 680.5,776.5C 678.833,776.5 677.167,776.5 675.5,776.5C 674.891,791.503 674.224,806.503 673.5,821.5C 651.092,821.178 628.758,821.511 606.5,822.5C 581.526,799.862 556.526,777.195 531.5,754.5C 581.125,753.509 630.791,753.176 680.5,753.5 Z"/></g>
<g><path style="opacity:1" fill="#0979c5" d="M 680.5,753.5 C 683.167,753.5 685.833,753.5 688.5,753.5C 691.833,753.5 695.167,753.5 698.5,753.5C 698.5,764.833 698.5,776.167 698.5,787.5C 697.167,787.5 695.833,787.5 694.5,787.5C 694.5,798.833 694.5,810.167 694.5,821.5C 693.5,821.5 692.5,821.5 691.5,821.5C 685.5,821.5 679.5,821.5 673.5,821.5C 674.224,806.503 674.891,791.503 675.5,776.5C 677.167,776.5 678.833,776.5 680.5,776.5C 680.5,768.833 680.5,761.167 680.5,753.5 Z"/></g>
<g><path style="opacity:1" fill="#0974bc" d="M 711.5,696.5 C 712.391,697.11 713.391,697.443 714.5,697.5C 714.5,704.833 714.5,712.167 714.5,719.5C 714.5,746.167 714.5,772.833 714.5,799.5C 714.667,821.503 714.5,843.503 714,865.5C 712.835,870.168 710.835,874.501 708,878.5C 706.143,881.2 703.643,882.866 700.5,883.5C 699.844,882.378 699.511,881.045 699.5,879.5C 701.185,865.905 702.019,852.238 702,838.5C 702.323,835.859 703.323,833.525 705,831.5C 705.498,828.183 705.665,824.85 705.5,821.5C 701.833,821.5 698.167,821.5 694.5,821.5C 694.5,810.167 694.5,798.833 694.5,787.5C 695.833,787.5 697.167,787.5 698.5,787.5C 698.5,776.167 698.5,764.833 698.5,753.5C 699.833,753.5 701.167,753.5 702.5,753.5C 702.5,749.833 702.5,746.167 702.5,742.5C 704.5,742.5 706.5,742.5 708.5,742.5C 709.523,727.263 710.523,711.929 711.5,696.5 Z"/></g>
<g><path style="opacity:1" fill="#205782" d="M 895.5,780.5 C 895.829,783.228 895.163,785.562 893.5,787.5C 893.41,784.848 894.076,782.515 895.5,780.5 Z"/></g>
<g><path style="opacity:1" fill="#239def" d="M 714.5,799.5 C 715.332,816.328 715.832,833.328 716,850.5C 716.5,837.171 716.667,823.837 716.5,810.5C 769.501,810.333 822.501,810.5 875.5,811C 874.262,811.69 874.262,812.19 875.5,812.5C 867.964,817.101 860.297,821.434 852.5,825.5C 850.821,825.285 849.821,825.952 849.5,827.5C 844.28,828.449 839.614,830.449 835.5,833.5C 833.03,833.654 831.03,834.654 829.5,836.5C 795.911,852.121 762.577,868.121 729.5,884.5C 727.03,884.654 725.03,885.654 723.5,887.5C 717.75,889.971 711.75,891.637 705.5,892.5C 698.422,892.554 691.422,891.887 684.5,890.5C 684.158,889.662 683.492,889.328 682.5,889.5C 687.897,887.952 693.564,886.452 699.5,885C 700.056,884.617 700.389,884.117 700.5,883.5C 703.643,882.866 706.143,881.2 708,878.5C 710.835,874.501 712.835,870.168 714,865.5C 714.5,843.503 714.667,821.503 714.5,799.5 Z"/></g>
<g><path style="opacity:1" fill="#047ac9" d="M 673.5,821.5 C 679.5,821.5 685.5,821.5 691.5,821.5C 690.687,829.138 690.354,836.804 690.5,844.5C 689.167,844.5 687.833,844.5 686.5,844.5C 684.827,857.845 683.16,871.179 681.5,884.5C 678.763,884.599 676.096,884.265 673.5,883.5C 650.764,863.422 628.431,843.089 606.5,822.5C 628.758,821.511 651.092,821.178 673.5,821.5 Z"/></g>
<g><path style="opacity:1" fill="#0374bf" d="M 691.5,821.5 C 692.5,821.5 693.5,821.5 694.5,821.5C 698.167,821.5 701.833,821.5 705.5,821.5C 705.665,824.85 705.498,828.183 705,831.5C 703.323,833.525 702.323,835.859 702,838.5C 702.019,852.238 701.185,865.905 699.5,879.5C 699.511,881.045 699.844,882.378 700.5,883.5C 700.389,884.117 700.056,884.617 699.5,885C 693.564,886.452 687.897,887.952 682.5,889.5C 678.954,888.281 675.954,886.281 673.5,883.5C 676.096,884.265 678.763,884.599 681.5,884.5C 683.16,871.179 684.827,857.845 686.5,844.5C 687.833,844.5 689.167,844.5 690.5,844.5C 690.354,836.804 690.687,829.138 691.5,821.5 Z"/></g>
<g><path style="opacity:1" fill="#215c88" d="M 852.5,825.5 C 851.71,826.401 850.71,827.068 849.5,827.5C 849.821,825.952 850.821,825.285 852.5,825.5 Z"/></g>
<g><path style="opacity:1" fill="#1f537d" d="M 835.5,833.5 C 833.97,835.346 831.97,836.346 829.5,836.5C 831.03,834.654 833.03,833.654 835.5,833.5 Z"/></g>
<g><path style="opacity:1" fill="#1e5079" d="M 729.5,884.5 C 727.97,886.346 725.97,887.346 723.5,887.5C 725.03,885.654 727.03,884.654 729.5,884.5 Z"/></g>
<g><path style="opacity:1" fill="#1d6aa2" d="M 684.5,890.5 C 691.422,891.887 698.422,892.554 705.5,892.5C 698.335,893.986 691.335,893.319 684.5,890.5 Z"/></g>
</svg>
