<?xml version="1.0" encoding="UTF-8"?>
<!DOCTYPE svg PUBLIC "-//W3C//DTD SVG 1.1//EN" "http://www.w3.org/Graphics/SVG/1.1/DTD/svg11.dtd">
<svg xmlns="http://www.w3.org/2000/svg" version="1.1" width="1067px" height="1067px" style="shape-rendering:geometricPrecision; text-rendering:geometricPrecision; image-rendering:optimizeQuality; fill-rule:evenodd; clip-rule:evenodd" xmlns:xlink="http://www.w3.org/1999/xlink">
<g><path style="opacity:0.999" fill="#fefefe" d="M 1066.5,218.5 C 1066.5,428.833 1066.5,639.167 1066.5,849.5C 1050.32,946.376 996.982,1013.88 906.5,1052C 887.808,1058.59 868.808,1063.42 849.5,1066.5C 639.167,1066.5 428.833,1066.5 218.5,1066.5C 121.586,1050.3 54.0863,996.971 16,906.5C 8.00078,884.837 3.00078,862.503 1,839.5C 0.333333,635.833 0.333333,432.167 1,228.5C 10.617,142.639 52.117,77.4727 125.5,33C 154.493,16.6689 185.493,6.3356 218.5,2C 323.648,0.844227 428.815,0.344227 534,0.5C 639.185,0.344227 744.352,0.844227 849.5,2C 946.642,17.7898 1014.14,70.9565 1052,161.5C 1058.59,180.192 1063.42,199.192 1066.5,218.5 Z"/></g>
<g><path style="opacity:1" fill="#7252aa" d="M 683.5,184.5 C 683.649,185.552 683.483,186.552 683,187.5C 676.485,196.373 671.485,206.04 668,216.5C 665.311,229.366 663.644,242.366 663,255.5C 662.17,327.237 662.337,398.904 663.5,470.5C 644.465,489.87 624.798,508.536 604.5,526.5C 604.67,525.178 604.337,524.011 603.5,523C 575.508,496.71 547.508,470.377 519.5,444C 506.344,430.682 492.678,417.182 478.5,403.5C 477.378,404.63 476.044,405.297 474.5,405.5C 533.831,336.667 592.998,267.667 652,198.5C 656.244,193.585 661.077,189.419 666.5,186C 672.072,184.649 677.738,184.149 683.5,184.5 Z"/></g>
<g><path style="opacity:1" fill="#6e4fa5" d="M 683.5,184.5 C 689.924,186.21 695.591,189.21 700.5,193.5C 699.233,192.913 698.233,192.913 697.5,193.5C 699.082,195.015 700.416,196.681 701.5,198.5C 689.406,208.969 682.739,222.135 681.5,238C 679.792,248.384 678.625,258.884 678,269.5C 677.833,300.333 677.667,331.167 677.5,362C 677.507,393.38 678.174,424.546 679.5,455.5C 674.167,460.5 668.833,465.5 663.5,470.5C 662.337,398.904 662.17,327.237 663,255.5C 663.644,242.366 665.311,229.366 668,216.5C 671.485,206.04 676.485,196.373 683,187.5C 683.483,186.552 683.649,185.552 683.5,184.5 Z"/></g>
<g><path style="opacity:1" fill="#6b4da0" d="M 701.5,198.5 C 707.281,207.629 706.781,216.296 700,224.5C 693.798,238.458 690.464,253.124 690,268.5C 689.171,327.237 689.338,385.904 690.5,444.5C 687.167,448.5 683.5,452.167 679.5,455.5C 678.174,424.546 677.507,393.38 677.5,362C 677.667,331.167 677.833,300.333 678,269.5C 678.625,258.884 679.792,248.384 681.5,238C 682.739,222.135 689.406,208.969 701.5,198.5 Z"/></g>
<g><path style="opacity:1" fill="#d099fb" d="M 700.5,193.5 C 755.948,229.731 811.281,266.231 866.5,303C 873.16,307.326 877.993,313.159 881,320.5C 881.5,394.833 881.667,469.166 881.5,543.5C 880.511,538.025 880.178,532.358 880.5,526.5C 880.5,485.167 880.5,443.833 880.5,402.5C 823.5,402.5 766.5,402.5 709.5,402.5C 709.827,412.015 709.494,421.348 708.5,430.5C 708.672,429.508 708.338,428.842 707.5,428.5C 707.5,364.5 707.5,300.5 707.5,236.5C 707.666,226.828 707.5,217.161 707,207.5C 705.629,202.426 703.462,197.76 700.5,193.5 Z"/></g>
<g><path style="opacity:1" fill="#664999" d="M 700.5,193.5 C 703.462,197.76 705.629,202.426 707,207.5C 707.5,217.161 707.666,226.828 707.5,236.5C 705.695,243.768 704.861,251.435 705,259.5C 704.667,256.833 704.333,254.167 704,251.5C 702.443,257.734 701.443,264.067 701,270.5C 700.333,324.5 700.333,378.5 701,432.5C 701.977,431.226 702.811,431.226 703.5,432.5C 699.167,436.5 694.833,440.5 690.5,444.5C 689.338,385.904 689.171,327.237 690,268.5C 690.464,253.124 693.798,238.458 700,224.5C 706.781,216.296 707.281,207.629 701.5,198.5C 700.416,196.681 699.082,195.015 697.5,193.5C 698.233,192.913 699.233,192.913 700.5,193.5 Z"/></g>
<g><path style="opacity:1" fill="#624792" d="M 707.5,236.5 C 707.5,300.5 707.5,364.5 707.5,428.5C 706.833,428.5 706.5,428.833 706.5,429.5C 705.833,430.833 704.833,431.833 703.5,432.5C 702.811,431.226 701.977,431.226 701,432.5C 700.333,378.5 700.333,324.5 701,270.5C 701.443,264.067 702.443,257.734 704,251.5C 704.333,254.167 704.667,256.833 705,259.5C 704.861,251.435 705.695,243.768 707.5,236.5 Z"/></g>
<g><path style="opacity:1" fill="#bc9ae2" d="M 335.5,286.5 C 329.378,286.268 323.378,286.935 317.5,288.5C 323.272,285.52 329.272,284.853 335.5,286.5 Z"/></g>
<g><path style="opacity:1" fill="#ac7de0" d="M 335.5,286.5 C 339.806,287.658 343.806,289.491 347.5,292C 364.699,308.367 381.699,324.867 398.5,341.5C 371.38,365.779 344.047,389.946 316.5,414C 306.355,423.311 296.355,432.811 286.5,442.5C 268.051,420.549 249.051,399.049 229.5,378C 226.929,376.546 224.262,375.38 221.5,374.5C 214.509,372.989 207.509,373.322 200.5,375.5C 238.927,345.781 277.927,316.781 317.5,288.5C 323.378,286.935 329.378,286.268 335.5,286.5 Z"/></g>
<g><path style="opacity:1" fill="#a97bde" d="M 398.5,341.5 C 418.497,360.164 438.164,379.164 457.5,398.5C 456.504,398.586 455.671,398.252 455,397.5C 416.167,432 377.333,466.5 338.5,501C 340.464,502.451 341.797,504.284 342.5,506.5C 330.176,492.541 317.843,478.541 305.5,464.5C 305.158,463.662 304.492,463.328 303.5,463.5C 298.236,456.229 292.569,449.229 286.5,442.5C 296.355,432.811 306.355,423.311 316.5,414C 344.047,389.946 371.38,365.779 398.5,341.5 Z"/></g>
<g><path style="opacity:1" fill="#563d84" d="M 221.5,374.5 C 220.448,374.351 219.448,374.517 218.5,375C 226.947,377.432 233.781,382.265 239,389.5C 260.045,414.944 281.545,439.944 303.5,464.5C 303.5,469.5 303.5,474.5 303.5,479.5C 280.491,453.988 257.991,427.988 236,401.5C 229,394.744 221.167,389.077 212.5,384.5C 210.457,382.792 208.79,380.792 207.5,378.5C 204.546,377.853 201.546,377.686 198.5,378C 199.381,377.292 200.047,376.458 200.5,375.5C 207.509,373.322 214.509,372.989 221.5,374.5 Z"/></g>
<g><path style="opacity:1" fill="#5d428e" d="M 200.5,375.5 C 200.047,376.458 199.381,377.292 198.5,378C 201.546,377.686 204.546,377.853 207.5,378.5C 208.79,380.792 210.457,382.792 212.5,384.5C 221.167,389.077 229,394.744 236,401.5C 257.991,427.988 280.491,453.988 303.5,479.5C 303.5,518.5 303.5,557.5 303.5,596.5C 280.095,622.989 256.928,649.655 234,676.5C 226.528,684.31 217.694,689.643 207.5,692.5C 205.602,691.904 203.935,691.904 202.5,692.5C 194.727,687.558 188.894,680.892 185,672.5C 184.333,579.5 184.333,486.5 185,393.5C 188.244,385.762 193.41,379.762 200.5,375.5 Z"/></g>
<g><path style="opacity:1" fill="#a578dc" d="M 457.5,398.5 C 462.127,401.791 466.46,405.458 470.5,409.5C 513.14,450.472 555.807,491.472 598.5,532.5C 603.973,538.395 609.64,544.061 615.5,549.5C 614.417,549.539 613.417,549.873 612.5,550.5C 569.228,589.948 525.562,628.781 481.5,667C 483.141,668.129 484.141,669.629 484.5,671.5C 479.833,666.5 475.167,661.5 470.5,656.5C 435.471,615.808 400.471,575.141 365.5,534.5C 365.5,533.833 365.167,533.5 364.5,533.5C 357.143,524.481 349.81,515.481 342.5,506.5C 341.797,504.284 340.464,502.451 338.5,501C 377.333,466.5 416.167,432 455,397.5C 455.671,398.252 456.504,398.586 457.5,398.5 Z"/></g>
<g><path style="opacity:1" fill="#48336e" d="M 221.5,374.5 C 224.262,375.38 226.929,376.546 229.5,378C 249.051,399.049 268.051,420.549 286.5,442.5C 292.569,449.229 298.236,456.229 303.5,463.5C 303.5,463.833 303.5,464.167 303.5,464.5C 281.545,439.944 260.045,414.944 239,389.5C 233.781,382.265 226.947,377.432 218.5,375C 219.448,374.517 220.448,374.351 221.5,374.5 Z"/></g>
<g><path style="opacity:1" fill="#6d4ea4" d="M 604.5,526.5 C 603.167,528.5 601.5,530.167 599.5,531.5C 557.11,490.441 514.443,449.774 471.5,409.5C 471.738,407.596 472.738,406.262 474.5,405.5C 476.044,405.297 477.378,404.63 478.5,403.5C 492.678,417.182 506.344,430.682 519.5,444C 547.508,470.377 575.508,496.71 603.5,523C 604.337,524.011 604.67,525.178 604.5,526.5 Z"/></g>
<g><path style="opacity:1" fill="#fefefe" d="M 706.5,429.5 C 707.833,498.5 707.833,567.5 706.5,636.5C 703.526,633.862 700.526,631.195 697.5,628.5C 692.11,622.108 686.11,616.441 679.5,611.5C 676.167,607.5 672.5,603.833 668.5,600.5C 651.163,583.164 633.497,566.164 615.5,549.5C 609.64,544.061 603.973,538.395 598.5,532.5C 599.167,532.5 599.5,532.167 599.5,531.5C 601.5,530.167 603.167,528.5 604.5,526.5C 624.798,508.536 644.465,489.87 663.5,470.5C 668.833,465.5 674.167,460.5 679.5,455.5C 683.5,452.167 687.167,448.5 690.5,444.5C 694.833,440.5 699.167,436.5 703.5,432.5C 704.833,431.833 705.833,430.833 706.5,429.5 Z"/></g>
<g><path style="opacity:1" fill="#cfa8ef" d="M 706.5,429.5 C 706.5,428.833 706.833,428.5 707.5,428.5C 708.338,428.842 708.672,429.508 708.5,430.5C 708.5,493.5 708.5,556.5 708.5,619.5C 708.5,625.5 708.5,631.5 708.5,637.5C 708.167,637.5 707.833,637.5 707.5,637.5C 707.167,637.5 706.833,637.5 706.5,637.5C 706.5,637.167 706.5,636.833 706.5,636.5C 707.833,567.5 707.833,498.5 706.5,429.5 Z"/></g>
<g><path style="opacity:1" fill="#cc96f9" d="M 880.5,526.5 C 823.5,526.5 766.5,526.5 709.5,526.5C 709.831,557.671 709.498,588.671 708.5,619.5C 708.5,556.5 708.5,493.5 708.5,430.5C 709.494,421.348 709.827,412.015 709.5,402.5C 766.5,402.5 823.5,402.5 880.5,402.5C 880.5,443.833 880.5,485.167 880.5,526.5 Z"/></g>
<g><path style="opacity:1" fill="#fefdfe" d="M 305.5,464.5 C 317.843,478.541 330.176,492.541 342.5,506.5C 349.81,515.481 357.143,524.481 364.5,533.5C 363.5,533.833 362.833,534.5 362.5,535.5C 359.529,538.808 356.529,542.141 353.5,545.5C 337.126,563.872 321.126,582.539 305.5,601.5C 304.167,555.833 304.167,510.167 305.5,464.5 Z"/></g>
<g><path style="opacity:1" fill="#c6bcd7" d="M 303.5,463.5 C 304.492,463.328 305.158,463.662 305.5,464.5C 304.167,510.167 304.167,555.833 305.5,601.5C 305.158,602.338 304.492,602.672 303.5,602.5C 303.5,600.5 303.5,598.5 303.5,596.5C 303.5,557.5 303.5,518.5 303.5,479.5C 303.5,474.5 303.5,469.5 303.5,464.5C 303.5,464.167 303.5,463.833 303.5,463.5 Z"/></g>
<g><path style="opacity:1" fill="#644794" d="M 470.5,409.5 C 470.833,409.5 471.167,409.5 471.5,409.5C 514.443,449.774 557.11,490.441 599.5,531.5C 599.5,532.167 599.167,532.5 598.5,532.5C 555.807,491.472 513.14,450.472 470.5,409.5 Z"/></g>
<g><path style="opacity:1" fill="#c994f6" d="M 880.5,526.5 C 880.178,532.358 880.511,538.025 881.5,543.5C 881.5,609.5 881.5,675.5 881.5,741.5C 880.502,710.671 880.169,679.671 880.5,648.5C 823.5,648.5 766.5,648.5 709.5,648.5C 709.5,682.833 709.5,717.167 709.5,751.5C 709.667,786.168 709.5,820.835 709,855.5C 708.5,782.834 708.333,710.167 708.5,637.5C 708.5,631.5 708.5,625.5 708.5,619.5C 709.498,588.671 709.831,557.671 709.5,526.5C 766.5,526.5 823.5,526.5 880.5,526.5 Z"/></g>
<g><path style="opacity:1" fill="#654997" d="M 364.5,533.5 C 365.167,533.5 365.5,533.833 365.5,534.5C 364.475,534.897 364.308,535.563 365,536.5C 400.107,576.431 434.607,616.764 468.5,657.5C 467.5,659.167 466.167,660.5 464.5,661.5C 463.91,660.234 463.41,658.901 463,657.5C 430.235,620.411 397.902,583.078 366,545.5C 364.359,543.045 362.859,540.545 361.5,538C 362.999,537.162 363.332,536.329 362.5,535.5C 362.833,534.5 363.5,533.833 364.5,533.5 Z"/></g>
<g><path style="opacity:1" fill="#6d4fa3" d="M 362.5,535.5 C 363.332,536.329 362.999,537.162 361.5,538C 362.859,540.545 364.359,543.045 366,545.5C 397.902,583.078 430.235,620.411 463,657.5C 463.41,658.901 463.91,660.234 464.5,661.5C 462.766,664.2 460.432,666.2 457.5,667.5C 422.611,627.257 387.944,586.591 353.5,545.5C 356.529,542.141 359.529,538.808 362.5,535.5 Z"/></g>
<g><path style="opacity:1" fill="#7252aa" d="M 353.5,545.5 C 387.944,586.591 422.611,627.257 457.5,667.5C 421.033,703.133 384.366,738.633 347.5,774C 336.047,782.261 324.38,782.594 312.5,775C 275.673,747.668 239.007,720.168 202.5,692.5C 203.935,691.904 205.602,691.904 207.5,692.5C 216.929,694.343 225.262,692.009 232.5,685.5C 256.587,658.089 280.253,630.422 303.5,602.5C 304.492,602.672 305.158,602.338 305.5,601.5C 321.126,582.539 337.126,563.872 353.5,545.5 Z"/></g>
<g><path style="opacity:1" fill="#9f74d8" d="M 615.5,549.5 C 633.497,566.164 651.163,583.164 668.5,600.5C 667.502,600.344 666.502,600.844 665.5,602C 666.668,603.871 666.168,605.371 664,606.5C 663.462,677.854 661.962,749.187 659.5,820.5C 657.987,822.535 657.321,824.869 657.5,827.5C 659.271,845.671 664.271,862.838 672.5,879C 672.164,880.03 671.497,880.53 670.5,880.5C 663.296,878.637 657.462,874.637 653,868.5C 596.601,802.941 540.434,737.275 484.5,671.5C 484.141,669.629 483.141,668.129 481.5,667C 525.562,628.781 569.228,589.948 612.5,550.5C 613.417,549.873 614.417,549.539 615.5,549.5 Z"/></g>
<g><path style="opacity:1" fill="#563d83" d="M 303.5,596.5 C 303.5,598.5 303.5,600.5 303.5,602.5C 280.253,630.422 256.587,658.089 232.5,685.5C 225.262,692.009 216.929,694.343 207.5,692.5C 217.694,689.643 226.528,684.31 234,676.5C 256.928,649.655 280.095,622.989 303.5,596.5 Z"/></g>
<g><path style="opacity:1" fill="#583f83" d="M 365.5,534.5 C 400.471,575.141 435.471,615.808 470.5,656.5C 469.833,656.833 469.167,657.167 468.5,657.5C 434.607,616.764 400.107,576.431 365,536.5C 364.308,535.563 364.475,534.897 365.5,534.5 Z"/></g>
<g><path style="opacity:1" fill="#996fd1" d="M 668.5,600.5 C 672.5,603.833 676.167,607.5 679.5,611.5C 677.985,663.242 676.652,715.242 675.5,767.5C 675.538,779.016 675.871,790.516 676.5,802C 676.397,803.561 676.063,805.061 675.5,806.5C 673.077,807.918 671.411,809.918 670.5,812.5C 671.784,824.988 673.951,837.321 677,849.5C 679.248,855.829 682.415,861.663 686.5,867C 685.044,867.423 684.544,868.256 685,869.5C 687.333,872.167 689.667,874.833 692,877.5C 692.671,876.748 693.504,876.414 694.5,876.5C 692.3,878.64 689.633,880.14 686.5,881C 680.984,881.817 675.65,881.651 670.5,880.5C 671.497,880.53 672.164,880.03 672.5,879C 664.271,862.838 659.271,845.671 657.5,827.5C 657.321,824.869 657.987,822.535 659.5,820.5C 661.962,749.187 663.462,677.854 664,606.5C 666.168,605.371 666.668,603.871 665.5,602C 666.502,600.844 667.502,600.344 668.5,600.5 Z"/></g>
<g><path style="opacity:1" fill="#946cca" d="M 679.5,611.5 C 686.11,616.441 692.11,622.108 697.5,628.5C 697.565,628.938 697.399,629.272 697,629.5C 694.667,627.167 692.333,624.833 690,622.5C 689.211,679.167 688.878,735.833 689,792.5C 690.343,805.934 692.343,819.268 695,832.5C 697.281,838.755 700.781,844.088 705.5,848.5C 706.876,857.532 704.542,865.365 698.5,872C 699.094,872.464 699.761,872.631 700.5,872.5C 700.5,872.833 700.5,873.167 700.5,873.5C 698.784,875.025 696.784,876.025 694.5,876.5C 693.504,876.414 692.671,876.748 692,877.5C 689.667,874.833 687.333,872.167 685,869.5C 684.544,868.256 685.044,867.423 686.5,867C 682.415,861.663 679.248,855.829 677,849.5C 673.951,837.321 671.784,824.988 670.5,812.5C 671.411,809.918 673.077,807.918 675.5,806.5C 676.063,805.061 676.397,803.561 676.5,802C 675.871,790.516 675.538,779.016 675.5,767.5C 676.652,715.242 677.985,663.242 679.5,611.5 Z"/></g>
<g><path style="opacity:1" fill="#c691f4" d="M 881.5,741.5 C 880.645,747.547 877.978,752.547 873.5,756.5C 873.703,754.956 874.37,753.622 875.5,752.5C 820.171,751.5 764.837,751.167 709.5,751.5C 709.5,717.167 709.5,682.833 709.5,648.5C 766.5,648.5 823.5,648.5 880.5,648.5C 880.169,679.671 880.502,710.671 881.5,741.5 Z"/></g>
<g><path style="opacity:1" fill="#8d67c1" d="M 697.5,628.5 C 700.526,631.195 703.526,633.862 706.5,636.5C 706.5,636.833 706.5,637.167 706.5,637.5C 705.668,661.33 705.168,685.33 705,709.5C 703.122,711.043 701.622,712.876 700.5,715C 701.656,736.433 701.656,757.933 700.5,779.5C 700.48,790.615 701.48,801.615 703.5,812.5C 700.685,816.999 701.185,821.333 705,825.5C 705.5,833.159 705.666,840.826 705.5,848.5C 700.781,844.088 697.281,838.755 695,832.5C 692.343,819.268 690.343,805.934 689,792.5C 688.878,735.833 689.211,679.167 690,622.5C 692.333,624.833 694.667,627.167 697,629.5C 697.399,629.272 697.565,628.938 697.5,628.5 Z"/></g>
<g><path style="opacity:1" fill="#8661b7" d="M 706.5,637.5 C 706.833,637.5 707.167,637.5 707.5,637.5C 707.667,711.501 707.5,785.501 707,859.5C 705.874,864.418 703.708,868.752 700.5,872.5C 699.761,872.631 699.094,872.464 698.5,872C 704.542,865.365 706.876,857.532 705.5,848.5C 705.666,840.826 705.5,833.159 705,825.5C 701.185,821.333 700.685,816.999 703.5,812.5C 701.48,801.615 700.48,790.615 700.5,779.5C 701.656,757.933 701.656,736.433 700.5,715C 701.622,712.876 703.122,711.043 705,709.5C 705.168,685.33 705.668,661.33 706.5,637.5 Z"/></g>
<g><path style="opacity:1" fill="#c38ff2" d="M 707.5,637.5 C 707.833,637.5 708.167,637.5 708.5,637.5C 708.333,710.167 708.5,782.834 709,855.5C 709.5,820.835 709.667,786.168 709.5,751.5C 764.837,751.167 820.171,751.5 875.5,752.5C 874.37,753.622 873.703,754.956 873.5,756.5C 871.621,759.115 869.288,761.281 866.5,763C 811.013,799.663 755.68,836.496 700.5,873.5C 700.5,873.167 700.5,872.833 700.5,872.5C 703.708,868.752 705.874,864.418 707,859.5C 707.5,785.501 707.667,711.501 707.5,637.5 Z"/></g>
</svg>
