<?xml version="1.0" encoding="UTF-8"?>
<!DOCTYPE svg PUBLIC "-//W3C//DTD SVG 1.1//EN" "http://www.w3.org/Graphics/SVG/1.1/DTD/svg11.dtd">
<svg xmlns="http://www.w3.org/2000/svg" version="1.1" width="1067px" height="1067px" style="shape-rendering:geometricPrecision; text-rendering:geometricPrecision; image-rendering:optimizeQuality; fill-rule:evenodd; clip-rule:evenodd" xmlns:xlink="http://www.w3.org/1999/xlink">
<g><path style="opacity:0.999" fill="#fefefe" d="M 1066.5,218.5 C 1066.5,428.833 1066.5,639.167 1066.5,849.5C 1050.32,946.376 996.982,1013.88 906.5,1052C 887.808,1058.59 868.808,1063.42 849.5,1066.5C 639.167,1066.5 428.833,1066.5 218.5,1066.5C 121.586,1050.3 54.0863,996.971 16,906.5C 8.00078,884.837 3.00078,862.503 1,839.5C 0.333333,635.833 0.333333,432.167 1,228.5C 10.617,142.639 52.117,77.4727 125.5,33C 154.493,16.6689 185.493,6.3356 218.5,2C 323.648,0.844227 428.815,0.344227 534,0.5C 639.185,0.344227 744.352,0.844227 849.5,2C 946.642,17.7898 1014.14,70.9565 1052,161.5C 1058.59,180.192 1063.42,199.192 1066.5,218.5 Z"/></g>
<g><path style="opacity:1" fill="#41b883" d="M 304.5,206.5 C 380.138,337.773 456.305,468.773 533,599.5C 609.029,468.772 684.529,337.772 759.5,206.5C 810.168,206.333 860.834,206.5 911.5,207C 785.207,424.418 659.04,641.918 533,859.5C 406.96,641.918 280.793,424.418 154.5,207C 204.499,206.5 254.499,206.333 304.5,206.5 Z"/></g>
<g><path style="opacity:1" fill="#35485e" d="M 304.5,206.5 C 351.171,206.167 397.838,206.5 444.5,207.5C 473.748,257.665 503.248,307.665 533,357.5C 562.086,307.663 590.919,257.663 619.5,207.5C 666.162,206.5 712.829,206.167 759.5,206.5C 684.529,337.772 609.029,468.772 533,599.5C 456.305,468.773 380.138,337.773 304.5,206.5 Z"/></g>
</svg>
