<?xml version="1.0" encoding="UTF-8"?>
<!DOCTYPE svg PUBLIC "-//W3C//DTD SVG 1.1//EN" "http://www.w3.org/Graphics/SVG/1.1/DTD/svg11.dtd">
<svg xmlns="http://www.w3.org/2000/svg" version="1.1" width="1067px" height="1067px" style="shape-rendering:geometricPrecision; text-rendering:geometricPrecision; image-rendering:optimizeQuality; fill-rule:evenodd; clip-rule:evenodd" xmlns:xlink="http://www.w3.org/1999/xlink">
<g><path style="opacity:0.999" fill="#000000" d="M 1066.5,218.5 C 1066.5,428.833 1066.5,639.167 1066.5,849.5C 1050.32,946.376 996.982,1013.88 906.5,1052C 887.808,1058.59 868.808,1063.42 849.5,1066.5C 639.167,1066.5 428.833,1066.5 218.5,1066.5C 121.586,1050.3 54.0863,996.971 16,906.5C 8.00078,884.837 3.00078,862.503 1,839.5C 0.333333,635.833 0.333333,432.167 1,228.5C 10.617,142.639 52.117,77.4727 125.5,33C 154.493,16.6689 185.493,6.3356 218.5,2C 323.648,0.844227 428.815,0.344227 534,0.5C 639.185,0.344227 744.352,0.844227 849.5,2C 946.642,17.7898 1014.14,70.9565 1052,161.5C 1058.59,180.192 1063.42,199.192 1066.5,218.5 Z"/></g>
<g><path style="opacity:1" fill="#7f7f7f" d="M 401.5,209.5 C 326.159,208.836 251.159,209.503 176.5,211.5C 175.522,211.189 174.855,210.522 174.5,209.5C 250.332,208.168 325.999,208.168 401.5,209.5 Z"/></g>
<g><path style="opacity:1" fill="#808080" d="M 847.5,211.5 C 829.846,210.167 811.846,209.5 793.5,209.5C 775.33,209.5 757.33,209.833 739.5,210.5C 738.833,210.833 738.167,211.167 737.5,211.5C 737.414,210.504 737.748,209.671 738.5,209C 775.165,208.5 811.832,208.333 848.5,208.5C 848.737,209.791 848.404,210.791 847.5,211.5 Z"/></g>
<g><path style="opacity:1" fill="#e9e9e9" d="M 401.5,209.5 C 402.167,209.5 402.5,209.833 402.5,210.5C 402.5,210.833 402.5,211.167 402.5,211.5C 364.904,210.836 327.237,210.503 289.5,210.5C 251.827,210.5 214.494,211.167 177.5,212.5C 176.833,212.5 176.5,212.167 176.5,211.5C 251.159,209.503 326.159,208.836 401.5,209.5 Z"/></g>
<g><path style="opacity:1" fill="#e9e9e9" d="M 739.5,210.5 C 757.33,209.833 775.33,209.5 793.5,209.5C 811.846,209.5 829.846,210.167 847.5,211.5C 847.167,211.5 846.833,211.5 846.5,211.5C 811.004,210.502 775.337,210.168 739.5,210.5 Z"/></g>
<g><path style="opacity:1" fill="#fdfdfd" d="M 402.5,211.5 C 402.833,212.5 403.5,213.167 404.5,213.5C 411.186,221.525 417.519,229.859 423.5,238.5C 423.427,240.027 424.094,241.027 425.5,241.5C 426.167,241.5 426.5,241.833 426.5,242.5C 426.738,244.404 427.738,245.738 429.5,246.5C 433.548,250.254 436.882,254.587 439.5,259.5C 439.738,261.404 440.738,262.738 442.5,263.5C 446.853,268.527 450.853,273.86 454.5,279.5C 454.427,281.027 455.094,282.027 456.5,282.5C 457.5,282.833 458.167,283.5 458.5,284.5C 458.427,286.027 459.094,287.027 460.5,287.5C 464.897,291.959 468.564,296.959 471.5,302.5C 472.08,304.749 473.413,306.415 475.5,307.5C 478.516,310.52 481.183,313.854 483.5,317.5C 483.427,319.027 484.094,320.027 485.5,320.5C 485.738,322.404 486.738,323.738 488.5,324.5C 488.738,326.404 489.738,327.738 491.5,328.5C 495.064,332.614 498.397,336.948 501.5,341.5C 501.427,343.027 502.094,344.027 503.5,344.5C 506.516,347.52 509.183,350.854 511.5,354.5C 511.427,356.027 512.094,357.027 513.5,357.5C 514.167,357.5 514.5,357.833 514.5,358.5C 514.427,360.027 515.094,361.027 516.5,361.5C 523.186,369.525 529.519,377.859 535.5,386.5C 535.427,388.027 536.094,389.027 537.5,389.5C 539.262,390.262 540.262,391.596 540.5,393.5C 541.08,395.749 542.413,397.415 544.5,398.5C 545.167,398.5 545.5,398.833 545.5,399.5C 545.427,401.027 546.094,402.027 547.5,402.5C 550.99,406.795 554.49,411.128 558,415.5C 561.313,411.019 565.147,407.019 569.5,403.5C 571.587,402.415 572.92,400.749 573.5,398.5C 574.5,397.167 575.5,395.833 576.5,394.5C 578.5,394.5 579.5,393.5 579.5,391.5C 582.458,386.874 586.124,382.874 590.5,379.5C 591.906,379.027 592.573,378.027 592.5,376.5C 594.167,374.5 595.833,372.5 597.5,370.5C 599.833,370.167 601.167,368.833 601.5,366.5C 606.825,359.843 612.491,353.51 618.5,347.5C 620.587,346.415 621.92,344.749 622.5,342.5C 623.5,341.167 624.5,339.833 625.5,338.5C 627.5,338.5 628.5,337.5 628.5,335.5C 634.5,328.5 640.5,321.5 646.5,314.5C 648.833,314.167 650.167,312.833 650.5,310.5C 655.825,303.843 661.491,297.51 667.5,291.5C 669.587,290.415 670.92,288.749 671.5,286.5C 672.5,285.167 673.5,283.833 674.5,282.5C 676.833,282.167 678.167,280.833 678.5,278.5C 678.833,277.5 679.5,276.833 680.5,276.5C 681.906,276.027 682.573,275.027 682.5,273.5C 686.597,268.313 690.93,263.313 695.5,258.5C 698.5,257.5 700.5,255.5 701.5,252.5C 706.157,246.511 711.157,240.844 716.5,235.5C 718.587,234.415 719.92,232.749 720.5,230.5C 721.5,229.167 722.5,227.833 723.5,226.5C 725.5,226.5 726.5,225.5 726.5,223.5C 727.167,222.167 728.167,221.167 729.5,220.5C 731.587,219.415 732.92,217.749 733.5,215.5C 734.5,213.833 735.833,212.5 737.5,211.5C 738.167,211.167 738.833,210.833 739.5,210.5C 775.337,210.168 811.004,210.502 846.5,211.5C 845.167,213.167 843.833,214.833 842.5,216.5C 841.094,216.973 840.427,217.973 840.5,219.5C 838.167,221.167 836.167,223.167 834.5,225.5C 833.094,225.973 832.427,226.973 832.5,228.5C 826.158,234.843 820.158,241.509 814.5,248.5C 813.094,248.973 812.427,249.973 812.5,251.5C 803.51,261.459 794.51,271.459 785.5,281.5C 784.094,281.973 783.427,282.973 783.5,284.5C 777.491,290.51 771.825,296.843 766.5,303.5C 764.413,304.585 763.08,306.251 762.5,308.5C 754.275,317.271 746.275,326.271 738.5,335.5C 736.413,336.585 735.08,338.251 734.5,340.5C 728.491,346.51 722.825,352.843 717.5,359.5C 716.094,359.973 715.427,360.973 715.5,362.5C 706.14,371.56 697.473,381.227 689.5,391.5C 687.413,392.585 686.08,394.251 685.5,396.5C 679.491,402.51 673.825,408.843 668.5,415.5C 666.413,416.585 665.08,418.251 664.5,420.5C 655.862,430.141 647.195,439.808 638.5,449.5C 637.094,449.973 636.427,450.973 636.5,452.5C 630.491,458.51 624.825,464.843 619.5,471.5C 618.094,471.973 617.427,472.973 617.5,474.5C 614.142,476.86 611.475,479.86 609.5,483.5C 611.859,486.851 614.192,490.185 616.5,493.5C 616.427,495.027 617.094,496.027 618.5,496.5C 619.167,496.5 619.5,496.833 619.5,497.5C 619.427,499.027 620.094,500.027 621.5,500.5C 628.186,508.525 634.519,516.859 640.5,525.5C 640.427,527.027 641.094,528.027 642.5,528.5C 643.167,528.5 643.5,528.833 643.5,529.5C 643.738,531.404 644.738,532.738 646.5,533.5C 649.185,536.19 651.518,539.19 653.5,542.5C 653.427,544.027 654.094,545.027 655.5,545.5C 656.5,545.833 657.167,546.5 657.5,547.5C 657.427,549.027 658.094,550.027 659.5,550.5C 665.064,557.282 670.398,564.282 675.5,571.5C 675.427,573.027 676.094,574.027 677.5,574.5C 684.186,582.525 690.519,590.859 696.5,599.5C 696.427,601.027 697.094,602.027 698.5,602.5C 699.5,602.833 700.167,603.5 700.5,604.5C 700.427,606.027 701.094,607.027 702.5,607.5C 702.738,609.404 703.738,610.738 705.5,611.5C 705.738,613.404 706.738,614.738 708.5,615.5C 716.155,625.461 723.822,635.461 731.5,645.5C 731.427,647.027 732.094,648.027 733.5,648.5C 740.186,656.525 746.519,664.859 752.5,673.5C 752.427,675.027 753.094,676.027 754.5,676.5C 756.262,677.262 757.262,678.596 757.5,680.5C 758.08,682.749 759.413,684.415 761.5,685.5C 762.167,685.5 762.5,685.833 762.5,686.5C 762.427,688.027 763.094,689.027 764.5,689.5C 772.64,699.101 780.307,709.101 787.5,719.5C 787.427,721.027 788.094,722.027 789.5,722.5C 789.738,724.404 790.738,725.738 792.5,726.5C 792.738,728.404 793.738,729.738 795.5,730.5C 799.064,734.614 802.397,738.948 805.5,743.5C 805.427,745.027 806.094,746.027 807.5,746.5C 808.167,746.5 808.5,746.833 808.5,747.5C 808.427,749.027 809.094,750.027 810.5,750.5C 813.516,753.52 816.183,756.854 818.5,760.5C 818.427,762.027 819.094,763.027 820.5,763.5C 825.186,768.858 829.519,774.525 833.5,780.5C 833.427,782.027 834.094,783.027 835.5,783.5C 836.167,783.5 836.5,783.833 836.5,784.5C 836.427,786.027 837.094,787.027 838.5,787.5C 840.633,789.091 842.299,791.091 843.5,793.5C 843.427,795.027 844.094,796.027 845.5,796.5C 845.738,798.404 846.738,799.738 848.5,800.5C 848.738,802.404 849.738,803.738 851.5,804.5C 855.064,808.614 858.397,812.948 861.5,817.5C 861.427,819.027 862.094,820.027 863.5,820.5C 865.543,821.579 866.876,823.246 867.5,825.5C 867.427,827.027 868.094,828.027 869.5,828.5C 870.5,828.833 871.167,829.5 871.5,830.5C 871.427,832.027 872.094,833.027 873.5,833.5C 874.167,833.5 874.5,833.833 874.5,834.5C 874.427,836.027 875.094,837.027 876.5,837.5C 880.546,842.214 884.212,847.214 887.5,852.5C 887.414,853.496 887.748,854.329 888.5,855C 815.501,855.5 742.501,855.667 669.5,855.5C 660.5,844.167 651.5,832.833 642.5,821.5C 642.573,819.973 641.906,818.973 640.5,818.5C 640.5,817.833 640.167,817.5 639.5,817.5C 639.573,815.973 638.906,814.973 637.5,814.5C 636.299,812.091 634.633,810.091 632.5,808.5C 632.573,806.973 631.906,805.973 630.5,805.5C 617.519,787.857 604.185,770.524 590.5,753.5C 590.573,751.973 589.906,750.973 588.5,750.5C 576.155,734.461 563.822,718.461 551.5,702.5C 551.573,700.973 550.906,699.973 549.5,699.5C 549.5,698.833 549.167,698.5 548.5,698.5C 548.573,696.973 547.906,695.973 546.5,695.5C 545.299,693.091 543.633,691.091 541.5,689.5C 541.573,687.973 540.906,686.973 539.5,686.5C 528.852,671.858 517.852,657.524 506.5,643.5C 506.573,641.973 505.906,640.973 504.5,640.5C 502.469,637.81 500.469,635.143 498.5,632.5C 497.947,630.448 496.947,630.115 495.5,631.5C 492.543,635.792 489.21,639.792 485.5,643.5C 484.094,643.973 483.427,644.973 483.5,646.5C 481.833,647.5 480.5,648.833 479.5,650.5C 477.413,651.585 476.08,653.251 475.5,655.5C 469.491,661.51 463.825,667.843 458.5,674.5C 457.094,674.973 456.427,675.973 456.5,677.5C 449.492,684.508 442.826,691.842 436.5,699.5C 435.094,699.973 434.427,700.973 434.5,702.5C 432.833,703.5 431.5,704.833 430.5,706.5C 428.413,707.585 427.08,709.251 426.5,711.5C 420.491,717.51 414.825,723.843 409.5,730.5C 408.094,730.973 407.427,731.973 407.5,733.5C 400.492,740.508 393.826,747.842 387.5,755.5C 386.094,755.973 385.427,756.973 385.5,758.5C 383.833,759.5 382.5,760.833 381.5,762.5C 379.413,763.585 378.08,765.251 377.5,767.5C 371.491,773.51 365.825,779.843 360.5,786.5C 359.094,786.973 358.427,787.973 358.5,789.5C 351.492,796.508 344.826,803.842 338.5,811.5C 337.094,811.973 336.427,812.973 336.5,814.5C 334.833,815.5 333.5,816.833 332.5,818.5C 330.413,819.585 329.08,821.251 328.5,823.5C 322.491,829.51 316.825,835.843 311.5,842.5C 309.738,843.262 308.738,844.596 308.5,846.5C 305.272,849.306 302.272,852.306 299.5,855.5C 263.329,855.832 227.329,855.498 191.5,854.5C 197.761,845.902 204.761,837.902 212.5,830.5C 214.587,829.415 215.92,827.749 216.5,825.5C 219.041,821.748 222.041,818.415 225.5,815.5C 226.906,815.027 227.573,814.027 227.5,812.5C 228.5,810.833 229.833,809.5 231.5,808.5C 233.587,807.415 234.92,805.749 235.5,803.5C 243.942,793.604 252.609,783.937 261.5,774.5C 263.587,773.415 264.92,771.749 265.5,769.5C 268.041,765.748 271.041,762.415 274.5,759.5C 275.906,759.027 276.573,758.027 276.5,756.5C 277.5,754.833 278.833,753.5 280.5,752.5C 282.587,751.415 283.92,749.749 284.5,747.5C 290.158,740.509 296.158,733.843 302.5,727.5C 303.906,727.027 304.573,726.027 304.5,724.5C 305.833,722.5 307.5,720.833 309.5,719.5C 311.587,718.415 312.92,716.749 313.5,714.5C 316.51,711.126 319.51,707.792 322.5,704.5C 323.906,704.027 324.573,703.027 324.5,701.5C 326.167,699.167 328.167,697.167 330.5,695.5C 332.587,694.415 333.92,692.749 334.5,690.5C 339.825,683.843 345.491,677.51 351.5,671.5C 352.906,671.027 353.573,670.027 353.5,668.5C 354.833,666.5 356.5,664.833 358.5,663.5C 360.587,662.415 361.92,660.749 362.5,658.5C 365.51,655.126 368.51,651.792 371.5,648.5C 372.906,648.027 373.573,647.027 373.5,645.5C 375.167,643.167 377.167,641.167 379.5,639.5C 381.587,638.415 382.92,636.749 383.5,634.5C 388.853,627.817 394.52,621.484 400.5,615.5C 401.906,615.027 402.573,614.027 402.5,612.5C 403.833,610.5 405.5,608.833 407.5,607.5C 409.587,606.415 410.92,604.749 411.5,602.5C 414.041,598.748 417.041,595.415 420.5,592.5C 421.906,592.027 422.573,591.027 422.5,589.5C 424.167,587.167 426.167,585.167 428.5,583.5C 430.587,582.415 431.92,580.749 432.5,578.5C 435.041,574.748 438.041,571.415 441.5,568.5C 442.906,568.027 443.573,567.027 443.5,565.5C 444.709,563.565 444.542,561.565 443,559.5C 434.589,549.267 426.422,538.934 418.5,528.5C 418.573,526.973 417.906,525.973 416.5,525.5C 415.299,523.091 413.633,521.091 411.5,519.5C 411.573,517.973 410.906,516.973 409.5,516.5C 407.183,512.854 404.516,509.52 401.5,506.5C 401.573,504.973 400.906,503.973 399.5,503.5C 386.519,485.857 373.185,468.524 359.5,451.5C 359.573,449.973 358.906,448.973 357.5,448.5C 344.519,430.857 331.185,413.524 317.5,396.5C 317.573,394.973 316.906,393.973 315.5,393.5C 314.299,391.091 312.633,389.091 310.5,387.5C 310.573,385.973 309.906,384.973 308.5,384.5C 295.519,366.857 282.185,349.524 268.5,332.5C 268.573,330.973 267.906,329.973 266.5,329.5C 253.519,311.857 240.185,294.524 226.5,277.5C 226.573,275.973 225.906,274.973 224.5,274.5C 223.299,272.091 221.633,270.091 219.5,268.5C 219.573,266.973 218.906,265.973 217.5,265.5C 204.167,247.833 190.833,230.167 177.5,212.5C 214.494,211.167 251.827,210.5 289.5,210.5C 327.237,210.503 364.904,210.836 402.5,211.5 Z"/></g>
<g><path style="opacity:1" fill="#979797" d="M 402.5,210.5 C 403.906,210.973 404.573,211.973 404.5,213.5C 403.5,213.167 402.833,212.5 402.5,211.5C 402.5,211.167 402.5,210.833 402.5,210.5 Z"/></g>
<g><path style="opacity:1" fill="#525252" d="M 842.5,216.5 C 842.573,218.027 841.906,219.027 840.5,219.5C 840.427,217.973 841.094,216.973 842.5,216.5 Z"/></g>
<g><path style="opacity:1" fill="#a7a7a7" d="M 733.5,215.5 C 732.92,217.749 731.587,219.415 729.5,220.5C 730.08,218.251 731.413,216.585 733.5,215.5 Z"/></g>
<g><path style="opacity:1" fill="#a9a9a9" d="M 726.5,223.5 C 726.5,225.5 725.5,226.5 723.5,226.5C 724.167,225.167 725.167,224.167 726.5,223.5 Z"/></g>
<g><path style="opacity:1" fill="#626262" d="M 834.5,225.5 C 834.573,227.027 833.906,228.027 832.5,228.5C 832.427,226.973 833.094,225.973 834.5,225.5 Z"/></g>
<g><path style="opacity:1" fill="#a8a8a8" d="M 720.5,230.5 C 719.92,232.749 718.587,234.415 716.5,235.5C 717.08,233.251 718.413,231.585 720.5,230.5 Z"/></g>
<g><path style="opacity:1" fill="#a9a9a9" d="M 423.5,238.5 C 424.906,238.973 425.573,239.973 425.5,241.5C 424.094,241.027 423.427,240.027 423.5,238.5 Z"/></g>
<g><path style="opacity:1" fill="#a5a5a5" d="M 426.5,242.5 C 428.262,243.262 429.262,244.596 429.5,246.5C 427.738,245.738 426.738,244.404 426.5,242.5 Z"/></g>
<g><path style="opacity:1" fill="#585858" d="M 814.5,248.5 C 814.573,250.027 813.906,251.027 812.5,251.5C 812.427,249.973 813.094,248.973 814.5,248.5 Z"/></g>
<g><path style="opacity:1" fill="#b7b7b7" d="M 701.5,252.5 C 700.5,255.5 698.5,257.5 695.5,258.5C 697.167,256.167 699.167,254.167 701.5,252.5 Z"/></g>
<g><path style="opacity:1" fill="#a0a0a0" d="M 439.5,259.5 C 441.262,260.262 442.262,261.596 442.5,263.5C 440.738,262.738 439.738,261.404 439.5,259.5 Z"/></g>
<g><path style="opacity:1" fill="#494949" d="M 217.5,265.5 C 218.906,265.973 219.573,266.973 219.5,268.5C 218.094,268.027 217.427,267.027 217.5,265.5 Z"/></g>
<g><path style="opacity:1" fill="#a7a7a7" d="M 368.5,271.5 C 346.807,270.844 325.474,271.511 304.5,273.5C 303.596,272.791 303.263,271.791 303.5,270.5C 325.34,270.169 347.006,270.503 368.5,271.5 Z"/></g>
<g><path style="opacity:1" fill="#212121" d="M 368.5,271.5 C 369.338,271.842 369.672,272.508 369.5,273.5C 348.069,272.174 326.736,272.174 305.5,273.5C 305.167,273.5 304.833,273.5 304.5,273.5C 325.474,271.511 346.807,270.844 368.5,271.5 Z"/></g>
<g><path style="opacity:1" fill="#020202" d="M 369.5,273.5 C 377.155,283.461 384.822,293.461 392.5,303.5C 392.427,305.027 393.094,306.027 394.5,306.5C 403.519,317.525 412.186,328.858 420.5,340.5C 420.427,342.027 421.094,343.027 422.5,343.5C 432.155,356.128 441.822,368.795 451.5,381.5C 451.427,383.027 452.094,384.027 453.5,384.5C 459.064,391.282 464.398,398.282 469.5,405.5C 469.427,407.027 470.094,408.027 471.5,408.5C 472.167,408.5 472.5,408.833 472.5,409.5C 472.427,411.027 473.094,412.027 474.5,412.5C 482.155,422.461 489.822,432.461 497.5,442.5C 497.427,444.027 498.094,445.027 499.5,445.5C 502.516,448.52 505.183,451.854 507.5,455.5C 507.427,457.027 508.094,458.027 509.5,458.5C 515.064,465.282 520.398,472.282 525.5,479.5C 525.427,481.027 526.094,482.027 527.5,482.5C 528.167,482.5 528.5,482.833 528.5,483.5C 528.427,485.027 529.094,486.027 530.5,486.5C 531.5,486.833 532.167,487.5 532.5,488.5C 532.427,490.027 533.094,491.027 534.5,491.5C 550.135,512.143 565.802,532.809 581.5,553.5C 581.427,555.027 582.094,556.027 583.5,556.5C 593.155,569.128 602.822,581.795 612.5,594.5C 612.427,596.027 613.094,597.027 614.5,597.5C 615.167,597.5 615.5,597.833 615.5,598.5C 615.427,600.027 616.094,601.027 617.5,601.5C 624.519,609.857 631.185,618.524 637.5,627.5C 637.427,629.027 638.094,630.027 639.5,630.5C 642.064,633.28 644.397,636.28 646.5,639.5C 646.427,641.027 647.094,642.027 648.5,642.5C 655.519,650.857 662.185,659.524 668.5,668.5C 668.427,670.027 669.094,671.027 670.5,671.5C 687.731,693.615 704.731,715.948 721.5,738.5C 721.427,740.027 722.094,741.027 723.5,741.5C 724.167,741.5 724.5,741.833 724.5,742.5C 724.427,744.027 725.094,745.027 726.5,745.5C 732.064,752.282 737.398,759.282 742.5,766.5C 742.427,768.027 743.094,769.027 744.5,769.5C 749.518,775.19 754.185,781.19 758.5,787.5C 758.804,788.15 759.137,788.817 759.5,789.5C 739.511,790.5 719.511,790.833 699.5,790.5C 699.573,788.973 698.906,787.973 697.5,787.5C 697.573,785.973 696.906,784.973 695.5,784.5C 692.305,779.431 688.638,774.765 684.5,770.5C 683.92,768.251 682.587,766.585 680.5,765.5C 680.573,763.973 679.906,762.973 678.5,762.5C 678.5,761.833 678.167,761.5 677.5,761.5C 677.573,759.973 676.906,758.973 675.5,758.5C 674.299,756.091 672.633,754.091 670.5,752.5C 670.573,750.973 669.906,749.973 668.5,749.5C 660.186,737.858 651.519,726.525 642.5,715.5C 642.573,713.973 641.906,712.973 640.5,712.5C 640.167,711.5 639.5,710.833 638.5,710.5C 638.573,708.973 637.906,707.973 636.5,707.5C 636.5,706.833 636.167,706.5 635.5,706.5C 635.262,704.596 634.262,703.262 632.5,702.5C 632.573,700.973 631.906,699.973 630.5,699.5C 630.167,698.5 629.5,697.833 628.5,697.5C 628.573,695.973 627.906,694.973 626.5,694.5C 626.5,693.833 626.167,693.5 625.5,693.5C 625.573,691.973 624.906,690.973 623.5,690.5C 617.822,683.128 612.155,675.795 606.5,668.5C 606.573,666.973 605.906,665.973 604.5,665.5C 600.822,660.794 597.156,656.128 593.5,651.5C 593.573,649.973 592.906,648.973 591.5,648.5C 591.167,647.5 590.5,646.833 589.5,646.5C 589.573,644.973 588.906,643.973 587.5,643.5C 586.876,641.246 585.543,639.579 583.5,638.5C 583.573,636.973 582.906,635.973 581.5,635.5C 581.167,634.5 580.5,633.833 579.5,633.5C 579.573,631.973 578.906,630.973 577.5,630.5C 569.186,618.858 560.519,607.525 551.5,596.5C 551.573,594.973 550.906,593.973 549.5,593.5C 548.299,591.091 546.633,589.091 544.5,587.5C 543.92,585.251 542.587,583.585 540.5,582.5C 540.262,580.596 539.262,579.262 537.5,578.5C 537.573,576.973 536.906,575.973 535.5,575.5C 535.5,574.833 535.167,574.5 534.5,574.5C 534.573,572.973 533.906,571.973 532.5,571.5C 532.167,570.5 531.5,569.833 530.5,569.5C 530.573,567.973 529.906,566.973 528.5,566.5C 524.519,560.525 520.186,554.858 515.5,549.5C 515.573,547.973 514.906,546.973 513.5,546.5C 511.183,542.854 508.516,539.52 505.5,536.5C 505.262,534.596 504.262,533.262 502.5,532.5C 502.573,530.973 501.906,529.973 500.5,529.5C 500.167,528.5 499.5,527.833 498.5,527.5C 498.573,525.973 497.906,524.973 496.5,524.5C 496.5,523.833 496.167,523.5 495.5,523.5C 495.262,521.596 494.262,520.262 492.5,519.5C 492.262,517.596 491.262,516.262 489.5,515.5C 489.5,514.833 489.167,514.5 488.5,514.5C 488.573,512.973 487.906,511.973 486.5,511.5C 484.183,507.854 481.516,504.52 478.5,501.5C 478.573,499.973 477.906,498.973 476.5,498.5C 470.185,489.524 463.519,480.857 456.5,472.5C 456.262,470.596 455.262,469.262 453.5,468.5C 452.92,466.251 451.587,464.585 449.5,463.5C 449.262,461.596 448.262,460.262 446.5,459.5C 446.573,457.973 445.906,456.973 444.5,456.5C 444.5,455.833 444.167,455.5 443.5,455.5C 443.262,453.596 442.262,452.262 440.5,451.5C 440.5,450.833 440.167,450.5 439.5,450.5C 439.573,448.973 438.906,447.973 437.5,447.5C 430.307,437.101 422.64,427.101 414.5,417.5C 414.262,415.596 413.262,414.262 411.5,413.5C 411.573,411.973 410.906,410.973 409.5,410.5C 409.167,409.5 408.5,408.833 407.5,408.5C 407.262,406.596 406.262,405.262 404.5,404.5C 404.262,402.596 403.262,401.262 401.5,400.5C 401.573,398.973 400.906,397.973 399.5,397.5C 399.167,396.5 398.5,395.833 397.5,395.5C 397.573,393.973 396.906,392.973 395.5,392.5C 395.5,391.833 395.167,391.5 394.5,391.5C 394.262,389.596 393.262,388.262 391.5,387.5C 391.573,385.973 390.906,384.973 389.5,384.5C 389.167,383.5 388.5,382.833 387.5,382.5C 387.573,380.973 386.906,379.973 385.5,379.5C 379.185,370.524 372.519,361.857 365.5,353.5C 365.573,351.973 364.906,350.973 363.5,350.5C 363.5,349.833 363.167,349.5 362.5,349.5C 361.92,347.251 360.587,345.585 358.5,344.5C 358.262,342.596 357.262,341.262 355.5,340.5C 355.573,338.973 354.906,337.973 353.5,337.5C 353.5,336.833 353.167,336.5 352.5,336.5C 352.262,334.596 351.262,333.262 349.5,332.5C 347.518,329.19 345.185,326.19 342.5,323.5C 342.262,321.596 341.262,320.262 339.5,319.5C 333.519,310.859 327.186,302.525 320.5,294.5C 320.573,292.973 319.906,291.973 318.5,291.5C 318.167,290.5 317.5,289.833 316.5,289.5C 316.262,287.596 315.262,286.262 313.5,285.5C 313.573,283.973 312.906,282.973 311.5,282.5C 311.167,281.5 310.5,280.833 309.5,280.5C 309.573,278.973 308.906,277.973 307.5,277.5C 307.5,276.833 307.167,276.5 306.5,276.5C 306.443,275.391 306.11,274.391 305.5,273.5C 326.736,272.174 348.069,272.174 369.5,273.5 Z"/></g>
<g><path style="opacity:1" fill="#999999" d="M 304.5,273.5 C 304.833,273.5 305.167,273.5 305.5,273.5C 306.11,274.391 306.443,275.391 306.5,276.5C 305.094,276.027 304.427,275.027 304.5,273.5 Z"/></g>
<g><path style="opacity:1" fill="#a0a0a0" d="M 682.5,273.5 C 682.573,275.027 681.906,276.027 680.5,276.5C 680.427,274.973 681.094,273.973 682.5,273.5 Z"/></g>
<g><path style="opacity:1" fill="#585858" d="M 224.5,274.5 C 225.906,274.973 226.573,275.973 226.5,277.5C 225.094,277.027 224.427,276.027 224.5,274.5 Z"/></g>
<g><path style="opacity:1" fill="#a9a9a9" d="M 307.5,277.5 C 308.906,277.973 309.573,278.973 309.5,280.5C 308.094,280.027 307.427,279.027 307.5,277.5 Z"/></g>
<g><path style="opacity:1" fill="#ababab" d="M 454.5,279.5 C 455.906,279.973 456.573,280.973 456.5,282.5C 455.094,282.027 454.427,281.027 454.5,279.5 Z"/></g>
<g><path style="opacity:1" fill="#ababab" d="M 678.5,278.5 C 678.167,280.833 676.833,282.167 674.5,282.5C 675.5,280.833 676.833,279.5 678.5,278.5 Z"/></g>
<g><path style="opacity:1" fill="#626262" d="M 785.5,281.5 C 785.573,283.027 784.906,284.027 783.5,284.5C 783.427,282.973 784.094,281.973 785.5,281.5 Z"/></g>
<g><path style="opacity:1" fill="#a0a0a0" d="M 311.5,282.5 C 312.906,282.973 313.573,283.973 313.5,285.5C 312.094,285.027 311.427,284.027 311.5,282.5 Z"/></g>
<g><path style="opacity:1" fill="#9a9a9a" d="M 458.5,284.5 C 459.906,284.973 460.573,285.973 460.5,287.5C 459.094,287.027 458.427,286.027 458.5,284.5 Z"/></g>
<g><path style="opacity:1" fill="#acacac" d="M 313.5,285.5 C 315.262,286.262 316.262,287.596 316.5,289.5C 314.738,288.738 313.738,287.404 313.5,285.5 Z"/></g>
<g><path style="opacity:1" fill="#a8a8a8" d="M 671.5,286.5 C 670.92,288.749 669.587,290.415 667.5,291.5C 668.08,289.251 669.413,287.585 671.5,286.5 Z"/></g>
<g><path style="opacity:1" fill="#8a8a8a" d="M 318.5,291.5 C 319.906,291.973 320.573,292.973 320.5,294.5C 319.094,294.027 318.427,293.027 318.5,291.5 Z"/></g>
<g><path style="opacity:1" fill="#bebebe" d="M 471.5,302.5 C 473.587,303.585 474.92,305.251 475.5,307.5C 473.413,306.415 472.08,304.749 471.5,302.5 Z"/></g>
<g><path style="opacity:1" fill="#595959" d="M 392.5,303.5 C 393.906,303.973 394.573,304.973 394.5,306.5C 393.094,306.027 392.427,305.027 392.5,303.5 Z"/></g>
<g><path style="opacity:1" fill="#5b5b5b" d="M 766.5,303.5 C 765.92,305.749 764.587,307.415 762.5,308.5C 763.08,306.251 764.413,304.585 766.5,303.5 Z"/></g>
<g><path style="opacity:1" fill="#adadad" d="M 650.5,310.5 C 650.167,312.833 648.833,314.167 646.5,314.5C 647.5,312.833 648.833,311.5 650.5,310.5 Z"/></g>
<g><path style="opacity:1" fill="#9c9c9c" d="M 483.5,317.5 C 484.906,317.973 485.573,318.973 485.5,320.5C 484.094,320.027 483.427,319.027 483.5,317.5 Z"/></g>
<g><path style="opacity:1" fill="#a8a8a8" d="M 339.5,319.5 C 341.262,320.262 342.262,321.596 342.5,323.5C 340.738,322.738 339.738,321.404 339.5,319.5 Z"/></g>
<g><path style="opacity:1" fill="#a8a8a8" d="M 485.5,320.5 C 487.262,321.262 488.262,322.596 488.5,324.5C 486.738,323.738 485.738,322.404 485.5,320.5 Z"/></g>
<g><path style="opacity:1" fill="#a6a6a6" d="M 488.5,324.5 C 490.262,325.262 491.262,326.596 491.5,328.5C 489.738,327.738 488.738,326.404 488.5,324.5 Z"/></g>
<g><path style="opacity:1" fill="#505050" d="M 266.5,329.5 C 267.906,329.973 268.573,330.973 268.5,332.5C 267.094,332.027 266.427,331.027 266.5,329.5 Z"/></g>
<g><path style="opacity:1" fill="#a1a1a1" d="M 349.5,332.5 C 351.262,333.262 352.262,334.596 352.5,336.5C 350.738,335.738 349.738,334.404 349.5,332.5 Z"/></g>
<g><path style="opacity:1" fill="#a9a9a9" d="M 628.5,335.5 C 628.5,337.5 627.5,338.5 625.5,338.5C 626.167,337.167 627.167,336.167 628.5,335.5 Z"/></g>
<g><path style="opacity:1" fill="#a4a4a4" d="M 353.5,337.5 C 354.906,337.973 355.573,338.973 355.5,340.5C 354.094,340.027 353.427,339.027 353.5,337.5 Z"/></g>
<g><path style="opacity:1" fill="#585858" d="M 738.5,335.5 C 737.92,337.749 736.587,339.415 734.5,340.5C 735.08,338.251 736.413,336.585 738.5,335.5 Z"/></g>
<g><path style="opacity:1" fill="#5a5a5a" d="M 420.5,340.5 C 421.906,340.973 422.573,341.973 422.5,343.5C 421.094,343.027 420.427,342.027 420.5,340.5 Z"/></g>
<g><path style="opacity:1" fill="#a8a8a8" d="M 501.5,341.5 C 502.906,341.973 503.573,342.973 503.5,344.5C 502.094,344.027 501.427,343.027 501.5,341.5 Z"/></g>
<g><path style="opacity:1" fill="#a8a8a8" d="M 622.5,342.5 C 621.92,344.749 620.587,346.415 618.5,347.5C 619.08,345.251 620.413,343.585 622.5,342.5 Z"/></g>
<g><path style="opacity:1" fill="#a7a7a7" d="M 358.5,344.5 C 360.587,345.585 361.92,347.251 362.5,349.5C 360.413,348.415 359.08,346.749 358.5,344.5 Z"/></g>
<g><path style="opacity:1" fill="#909090" d="M 363.5,350.5 C 364.906,350.973 365.573,351.973 365.5,353.5C 364.094,353.027 363.427,352.027 363.5,350.5 Z"/></g>
<g><path style="opacity:1" fill="#919191" d="M 511.5,354.5 C 512.906,354.973 513.573,355.973 513.5,357.5C 512.094,357.027 511.427,356.027 511.5,354.5 Z"/></g>
<g><path style="opacity:1" fill="#989898" d="M 514.5,358.5 C 515.906,358.973 516.573,359.973 516.5,361.5C 515.094,361.027 514.427,360.027 514.5,358.5 Z"/></g>
<g><path style="opacity:1" fill="#474747" d="M 717.5,359.5 C 717.573,361.027 716.906,362.027 715.5,362.5C 715.427,360.973 716.094,359.973 717.5,359.5 Z"/></g>
<g><path style="opacity:1" fill="#adadad" d="M 601.5,366.5 C 601.167,368.833 599.833,370.167 597.5,370.5C 598.5,368.833 599.833,367.5 601.5,366.5 Z"/></g>
<g><path style="opacity:1" fill="#a2a2a2" d="M 592.5,376.5 C 592.573,378.027 591.906,379.027 590.5,379.5C 590.427,377.973 591.094,376.973 592.5,376.5 Z"/></g>
<g><path style="opacity:1" fill="#ababab" d="M 385.5,379.5 C 386.906,379.973 387.573,380.973 387.5,382.5C 386.094,382.027 385.427,381.027 385.5,379.5 Z"/></g>
<g><path style="opacity:1" fill="#5a5a5a" d="M 451.5,381.5 C 452.906,381.973 453.573,382.973 453.5,384.5C 452.094,384.027 451.427,383.027 451.5,381.5 Z"/></g>
<g><path style="opacity:1" fill="#494949" d="M 308.5,384.5 C 309.906,384.973 310.573,385.973 310.5,387.5C 309.094,387.027 308.427,386.027 308.5,384.5 Z"/></g>
<g><path style="opacity:1" fill="#9e9e9e" d="M 389.5,384.5 C 390.906,384.973 391.573,385.973 391.5,387.5C 390.094,387.027 389.427,386.027 389.5,384.5 Z"/></g>
<g><path style="opacity:1" fill="#a8a8a8" d="M 535.5,386.5 C 536.906,386.973 537.573,387.973 537.5,389.5C 536.094,389.027 535.427,388.027 535.5,386.5 Z"/></g>
<g><path style="opacity:1" fill="#aaaaaa" d="M 391.5,387.5 C 393.262,388.262 394.262,389.596 394.5,391.5C 392.738,390.738 391.738,389.404 391.5,387.5 Z"/></g>
<g><path style="opacity:1" fill="#a5a5a5" d="M 395.5,392.5 C 396.906,392.973 397.573,393.973 397.5,395.5C 396.094,395.027 395.427,394.027 395.5,392.5 Z"/></g>
<g><path style="opacity:1" fill="#a9a9a9" d="M 579.5,391.5 C 579.5,393.5 578.5,394.5 576.5,394.5C 577.167,393.167 578.167,392.167 579.5,391.5 Z"/></g>
<g><path style="opacity:1" fill="#585858" d="M 315.5,393.5 C 316.906,393.973 317.573,394.973 317.5,396.5C 316.094,396.027 315.427,395.027 315.5,393.5 Z"/></g>
<g><path style="opacity:1" fill="#585858" d="M 689.5,391.5 C 688.92,393.749 687.587,395.415 685.5,396.5C 686.08,394.251 687.413,392.585 689.5,391.5 Z"/></g>
<g><path style="opacity:1" fill="#ababab" d="M 540.5,393.5 C 542.587,394.585 543.92,396.251 544.5,398.5C 542.413,397.415 541.08,395.749 540.5,393.5 Z"/></g>
<g><path style="opacity:1" fill="#959595" d="M 399.5,397.5 C 400.906,397.973 401.573,398.973 401.5,400.5C 400.094,400.027 399.427,399.027 399.5,397.5 Z"/></g>
<g><path style="opacity:1" fill="#959595" d="M 545.5,399.5 C 546.906,399.973 547.573,400.973 547.5,402.5C 546.094,402.027 545.427,401.027 545.5,399.5 Z"/></g>
<g><path style="opacity:1" fill="#aaaaaa" d="M 401.5,400.5 C 403.262,401.262 404.262,402.596 404.5,404.5C 402.738,403.738 401.738,402.404 401.5,400.5 Z"/></g>
<g><path style="opacity:1" fill="#a8a8a8" d="M 573.5,398.5 C 572.92,400.749 571.587,402.415 569.5,403.5C 570.08,401.251 571.413,399.585 573.5,398.5 Z"/></g>
<g><path style="opacity:1" fill="#aaaaaa" d="M 404.5,404.5 C 406.262,405.262 407.262,406.596 407.5,408.5C 405.738,407.738 404.738,406.404 404.5,404.5 Z"/></g>
<g><path style="opacity:1" fill="#454545" d="M 469.5,405.5 C 470.906,405.973 471.573,406.973 471.5,408.5C 470.094,408.027 469.427,407.027 469.5,405.5 Z"/></g>
<g><path style="opacity:1" fill="#474747" d="M 472.5,409.5 C 473.906,409.973 474.573,410.973 474.5,412.5C 473.094,412.027 472.427,411.027 472.5,409.5 Z"/></g>
<g><path style="opacity:1" fill="#8b8b8b" d="M 409.5,410.5 C 410.906,410.973 411.573,411.973 411.5,413.5C 410.094,413.027 409.427,412.027 409.5,410.5 Z"/></g>
<g><path style="opacity:1" fill="#aaaaaa" d="M 411.5,413.5 C 413.262,414.262 414.262,415.596 414.5,417.5C 412.738,416.738 411.738,415.404 411.5,413.5 Z"/></g>
<g><path style="opacity:1" fill="#5b5b5b" d="M 668.5,415.5 C 667.92,417.749 666.587,419.415 664.5,420.5C 665.08,418.251 666.413,416.585 668.5,415.5 Z"/></g>
<g><path style="opacity:1" fill="#494949" d="M 497.5,442.5 C 498.906,442.973 499.573,443.973 499.5,445.5C 498.094,445.027 497.427,444.027 497.5,442.5 Z"/></g>
<g><path style="opacity:1" fill="#a9a9a9" d="M 437.5,447.5 C 438.906,447.973 439.573,448.973 439.5,450.5C 438.094,450.027 437.427,449.027 437.5,447.5 Z"/></g>
<g><path style="opacity:1" fill="#4f4f4f" d="M 357.5,448.5 C 358.906,448.973 359.573,449.973 359.5,451.5C 358.094,451.027 357.427,450.027 357.5,448.5 Z"/></g>
<g><path style="opacity:1" fill="#626262" d="M 638.5,449.5 C 638.573,451.027 637.906,452.027 636.5,452.5C 636.427,450.973 637.094,449.973 638.5,449.5 Z"/></g>
<g><path style="opacity:1" fill="#a2a2a2" d="M 440.5,451.5 C 442.262,452.262 443.262,453.596 443.5,455.5C 441.738,454.738 440.738,453.404 440.5,451.5 Z"/></g>
<g><path style="opacity:1" fill="#616161" d="M 507.5,455.5 C 508.906,455.973 509.573,456.973 509.5,458.5C 508.094,458.027 507.427,457.027 507.5,455.5 Z"/></g>
<g><path style="opacity:1" fill="#a3a3a3" d="M 444.5,456.5 C 445.906,456.973 446.573,457.973 446.5,459.5C 445.094,459.027 444.427,458.027 444.5,456.5 Z"/></g>
<g><path style="opacity:1" fill="#a7a7a7" d="M 449.5,463.5 C 451.587,464.585 452.92,466.251 453.5,468.5C 451.413,467.415 450.08,465.749 449.5,463.5 Z"/></g>
<g><path style="opacity:1" fill="#a9a9a9" d="M 453.5,468.5 C 455.262,469.262 456.262,470.596 456.5,472.5C 454.738,471.738 453.738,470.404 453.5,468.5 Z"/></g>
<g><path style="opacity:1" fill="#474747" d="M 619.5,471.5 C 619.573,473.027 618.906,474.027 617.5,474.5C 617.427,472.973 618.094,471.973 619.5,471.5 Z"/></g>
<g><path style="opacity:1" fill="#535353" d="M 525.5,479.5 C 526.906,479.973 527.573,480.973 527.5,482.5C 526.094,482.027 525.427,481.027 525.5,479.5 Z"/></g>
<g><path style="opacity:1" fill="#4b4b4b" d="M 528.5,483.5 C 529.906,483.973 530.573,484.973 530.5,486.5C 529.094,486.027 528.427,485.027 528.5,483.5 Z"/></g>
<g><path style="opacity:1" fill="#595959" d="M 532.5,488.5 C 533.906,488.973 534.573,489.973 534.5,491.5C 533.094,491.027 532.427,490.027 532.5,488.5 Z"/></g>
<g><path style="opacity:1" fill="#a0a0a0" d="M 616.5,493.5 C 617.906,493.973 618.573,494.973 618.5,496.5C 617.094,496.027 616.427,495.027 616.5,493.5 Z"/></g>
<g><path style="opacity:1" fill="#989898" d="M 619.5,497.5 C 620.906,497.973 621.573,498.973 621.5,500.5C 620.094,500.027 619.427,499.027 619.5,497.5 Z"/></g>
<g><path style="opacity:1" fill="#ababab" d="M 476.5,498.5 C 477.906,498.973 478.573,499.973 478.5,501.5C 477.094,501.027 476.427,500.027 476.5,498.5 Z"/></g>
<g><path style="opacity:1" fill="#494949" d="M 399.5,503.5 C 400.906,503.973 401.573,504.973 401.5,506.5C 400.094,506.027 399.427,505.027 399.5,503.5 Z"/></g>
<g><path style="opacity:1" fill="#a6a6a6" d="M 486.5,511.5 C 487.906,511.973 488.573,512.973 488.5,514.5C 487.094,514.027 486.427,513.027 486.5,511.5 Z"/></g>
<g><path style="opacity:1" fill="#a1a1a1" d="M 489.5,515.5 C 491.262,516.262 492.262,517.596 492.5,519.5C 490.738,518.738 489.738,517.404 489.5,515.5 Z"/></g>
<g><path style="opacity:1" fill="#505050" d="M 409.5,516.5 C 410.906,516.973 411.573,517.973 411.5,519.5C 410.094,519.027 409.427,518.027 409.5,516.5 Z"/></g>
<g><path style="opacity:1" fill="#ababab" d="M 492.5,519.5 C 494.262,520.262 495.262,521.596 495.5,523.5C 493.738,522.738 492.738,521.404 492.5,519.5 Z"/></g>
<g><path style="opacity:1" fill="#a0a0a0" d="M 496.5,524.5 C 497.906,524.973 498.573,525.973 498.5,527.5C 497.094,527.027 496.427,526.027 496.5,524.5 Z"/></g>
<g><path style="opacity:1" fill="#5a5a5a" d="M 416.5,525.5 C 417.906,525.973 418.573,526.973 418.5,528.5C 417.094,528.027 416.427,527.027 416.5,525.5 Z"/></g>
<g><path style="opacity:1" fill="#aaaaaa" d="M 640.5,525.5 C 641.906,525.973 642.573,526.973 642.5,528.5C 641.094,528.027 640.427,527.027 640.5,525.5 Z"/></g>
<g><path style="opacity:1" fill="#8b8b8b" d="M 500.5,529.5 C 501.906,529.973 502.573,530.973 502.5,532.5C 501.094,532.027 500.427,531.027 500.5,529.5 Z"/></g>
<g><path style="opacity:1" fill="#acacac" d="M 643.5,529.5 C 645.262,530.262 646.262,531.596 646.5,533.5C 644.738,532.738 643.738,531.404 643.5,529.5 Z"/></g>
<g><path style="opacity:1" fill="#aaaaaa" d="M 502.5,532.5 C 504.262,533.262 505.262,534.596 505.5,536.5C 503.738,535.738 502.738,534.404 502.5,532.5 Z"/></g>
<g><path style="opacity:1" fill="#9c9c9c" d="M 653.5,542.5 C 654.906,542.973 655.573,543.973 655.5,545.5C 654.094,545.027 653.427,544.027 653.5,542.5 Z"/></g>
<g><path style="opacity:1" fill="#8f8f8f" d="M 513.5,546.5 C 514.906,546.973 515.573,547.973 515.5,549.5C 514.094,549.027 513.427,548.027 513.5,546.5 Z"/></g>
<g><path style="opacity:1" fill="#8c8c8c" d="M 657.5,547.5 C 658.906,547.973 659.573,548.973 659.5,550.5C 658.094,550.027 657.427,549.027 657.5,547.5 Z"/></g>
<g><path style="opacity:1" fill="#535353" d="M 581.5,553.5 C 582.906,553.973 583.573,554.973 583.5,556.5C 582.094,556.027 581.427,555.027 581.5,553.5 Z"/></g>
<g><path style="opacity:1" fill="#9e9e9e" d="M 443.5,565.5 C 443.573,567.027 442.906,568.027 441.5,568.5C 441.427,566.973 442.094,565.973 443.5,565.5 Z"/></g>
<g><path style="opacity:1" fill="#a9a9a9" d="M 528.5,566.5 C 529.906,566.973 530.573,567.973 530.5,569.5C 529.094,569.027 528.427,568.027 528.5,566.5 Z"/></g>
<g><path style="opacity:1" fill="#9b9b9b" d="M 532.5,571.5 C 533.906,571.973 534.573,572.973 534.5,574.5C 533.094,574.027 532.427,573.027 532.5,571.5 Z"/></g>
<g><path style="opacity:1" fill="#9b9b9b" d="M 675.5,571.5 C 676.906,571.973 677.573,572.973 677.5,574.5C 676.094,574.027 675.427,573.027 675.5,571.5 Z"/></g>
<g><path style="opacity:1" fill="#a4a4a4" d="M 535.5,575.5 C 536.906,575.973 537.573,576.973 537.5,578.5C 536.094,578.027 535.427,577.027 535.5,575.5 Z"/></g>
<g><path style="opacity:1" fill="#a4a4a4" d="M 432.5,578.5 C 431.92,580.749 430.587,582.415 428.5,583.5C 429.08,581.251 430.413,579.585 432.5,578.5 Z"/></g>
<g><path style="opacity:1" fill="#a7a7a7" d="M 540.5,582.5 C 542.587,583.585 543.92,585.251 544.5,587.5C 542.413,586.415 541.08,584.749 540.5,582.5 Z"/></g>
<g><path style="opacity:1" fill="#919191" d="M 422.5,589.5 C 422.573,591.027 421.906,592.027 420.5,592.5C 420.427,590.973 421.094,589.973 422.5,589.5 Z"/></g>
<g><path style="opacity:1" fill="#919191" d="M 549.5,593.5 C 550.906,593.973 551.573,594.973 551.5,596.5C 550.094,596.027 549.427,595.027 549.5,593.5 Z"/></g>
<g><path style="opacity:1" fill="#515151" d="M 612.5,594.5 C 613.906,594.973 614.573,595.973 614.5,597.5C 613.094,597.027 612.427,596.027 612.5,594.5 Z"/></g>
<g><path style="opacity:1" fill="#4f4f4f" d="M 615.5,598.5 C 616.906,598.973 617.573,599.973 617.5,601.5C 616.094,601.027 615.427,600.027 615.5,598.5 Z"/></g>
<g><path style="opacity:1" fill="#a7a7a7" d="M 696.5,599.5 C 697.906,599.973 698.573,600.973 698.5,602.5C 697.094,602.027 696.427,601.027 696.5,599.5 Z"/></g>
<g><path style="opacity:1" fill="#a4a4a4" d="M 411.5,602.5 C 410.92,604.749 409.587,606.415 407.5,607.5C 408.08,605.251 409.413,603.585 411.5,602.5 Z"/></g>
<g><path style="opacity:1" fill="#9c9c9c" d="M 700.5,604.5 C 701.906,604.973 702.573,605.973 702.5,607.5C 701.094,607.027 700.427,606.027 700.5,604.5 Z"/></g>
<g><path style="opacity:1" fill="#a7a7a7" d="M 702.5,607.5 C 704.262,608.262 705.262,609.596 705.5,611.5C 703.738,610.738 702.738,609.404 702.5,607.5 Z"/></g>
<g><path style="opacity:1" fill="#9d9d9d" d="M 402.5,612.5 C 402.573,614.027 401.906,615.027 400.5,615.5C 400.427,613.973 401.094,612.973 402.5,612.5 Z"/></g>
<g><path style="opacity:1" fill="#a5a5a5" d="M 705.5,611.5 C 707.262,612.262 708.262,613.596 708.5,615.5C 706.738,614.738 705.738,613.404 705.5,611.5 Z"/></g>
<g><path style="opacity:1" fill="#4f4f4f" d="M 637.5,627.5 C 638.906,627.973 639.573,628.973 639.5,630.5C 638.094,630.027 637.427,629.027 637.5,627.5 Z"/></g>
<g><path style="opacity:1" fill="#a0a0a0" d="M 495.5,631.5 C 496.947,630.115 497.947,630.448 498.5,632.5C 497.609,631.89 496.609,631.557 495.5,631.5 Z"/></g>
<g><path style="opacity:1" fill="#a6a6a6" d="M 577.5,630.5 C 578.906,630.973 579.573,631.973 579.5,633.5C 578.094,633.027 577.427,632.027 577.5,630.5 Z"/></g>
<g><path style="opacity:1" fill="#9a9a9a" d="M 581.5,635.5 C 582.906,635.973 583.573,636.973 583.5,638.5C 582.094,638.027 581.427,637.027 581.5,635.5 Z"/></g>
<g><path style="opacity:1" fill="#a4a4a4" d="M 383.5,634.5 C 382.92,636.749 381.587,638.415 379.5,639.5C 380.08,637.251 381.413,635.585 383.5,634.5 Z"/></g>
<g><path style="opacity:1" fill="#595959" d="M 504.5,640.5 C 505.906,640.973 506.573,641.973 506.5,643.5C 505.094,643.027 504.427,642.027 504.5,640.5 Z"/></g>
<g><path style="opacity:1" fill="#4d4d4d" d="M 646.5,639.5 C 647.906,639.973 648.573,640.973 648.5,642.5C 647.094,642.027 646.427,641.027 646.5,639.5 Z"/></g>
<g><path style="opacity:1" fill="#5a5a5a" d="M 485.5,643.5 C 485.573,645.027 484.906,646.027 483.5,646.5C 483.427,644.973 484.094,643.973 485.5,643.5 Z"/></g>
<g><path style="opacity:1" fill="#a0a0a0" d="M 587.5,643.5 C 588.906,643.973 589.573,644.973 589.5,646.5C 588.094,646.027 587.427,645.027 587.5,643.5 Z"/></g>
<g><path style="opacity:1" fill="#929292" d="M 373.5,645.5 C 373.573,647.027 372.906,648.027 371.5,648.5C 371.427,646.973 372.094,645.973 373.5,645.5 Z"/></g>
<g><path style="opacity:1" fill="#999999" d="M 731.5,645.5 C 732.906,645.973 733.573,646.973 733.5,648.5C 732.094,648.027 731.427,647.027 731.5,645.5 Z"/></g>
<g><path style="opacity:1" fill="#8b8b8b" d="M 591.5,648.5 C 592.906,648.973 593.573,649.973 593.5,651.5C 592.094,651.027 591.427,650.027 591.5,648.5 Z"/></g>
<g><path style="opacity:1" fill="#595959" d="M 479.5,650.5 C 478.92,652.749 477.587,654.415 475.5,655.5C 476.08,653.251 477.413,651.585 479.5,650.5 Z"/></g>
<g><path style="opacity:1" fill="#a4a4a4" d="M 362.5,658.5 C 361.92,660.749 360.587,662.415 358.5,663.5C 359.08,661.251 360.413,659.585 362.5,658.5 Z"/></g>
<g><path style="opacity:1" fill="#909090" d="M 604.5,665.5 C 605.906,665.973 606.573,666.973 606.5,668.5C 605.094,668.027 604.427,667.027 604.5,665.5 Z"/></g>
<g><path style="opacity:1" fill="#9d9d9d" d="M 353.5,668.5 C 353.573,670.027 352.906,671.027 351.5,671.5C 351.427,669.973 352.094,668.973 353.5,668.5 Z"/></g>
<g><path style="opacity:1" fill="#515151" d="M 668.5,668.5 C 669.906,668.973 670.573,669.973 670.5,671.5C 669.094,671.027 668.427,670.027 668.5,668.5 Z"/></g>
<g><path style="opacity:1" fill="#a9a9a9" d="M 752.5,673.5 C 753.906,673.973 754.573,674.973 754.5,676.5C 753.094,676.027 752.427,675.027 752.5,673.5 Z"/></g>
<g><path style="opacity:1" fill="#474747" d="M 458.5,674.5 C 458.573,676.027 457.906,677.027 456.5,677.5C 456.427,675.973 457.094,674.973 458.5,674.5 Z"/></g>
<g><path style="opacity:1" fill="#ababab" d="M 757.5,680.5 C 759.587,681.585 760.92,683.251 761.5,685.5C 759.413,684.415 758.08,682.749 757.5,680.5 Z"/></g>
<g><path style="opacity:1" fill="#454545" d="M 539.5,686.5 C 540.906,686.973 541.573,687.973 541.5,689.5C 540.094,689.027 539.427,688.027 539.5,686.5 Z"/></g>
<g><path style="opacity:1" fill="#959595" d="M 762.5,686.5 C 763.906,686.973 764.573,687.973 764.5,689.5C 763.094,689.027 762.427,688.027 762.5,686.5 Z"/></g>
<g><path style="opacity:1" fill="#9a9a9a" d="M 623.5,690.5 C 624.906,690.973 625.573,691.973 625.5,693.5C 624.094,693.027 623.427,692.027 623.5,690.5 Z"/></g>
<g><path style="opacity:1" fill="#a5a5a5" d="M 334.5,690.5 C 333.92,692.749 332.587,694.415 330.5,695.5C 331.08,693.251 332.413,691.585 334.5,690.5 Z"/></g>
<g><path style="opacity:1" fill="#a5a5a5" d="M 626.5,694.5 C 627.906,694.973 628.573,695.973 628.5,697.5C 627.094,697.027 626.427,696.027 626.5,694.5 Z"/></g>
<g><path style="opacity:1" fill="#505050" d="M 546.5,695.5 C 547.906,695.973 548.573,696.973 548.5,698.5C 547.094,698.027 546.427,697.027 546.5,695.5 Z"/></g>
<g><path style="opacity:1" fill="#5b5b5b" d="M 436.5,699.5 C 436.573,701.027 435.906,702.027 434.5,702.5C 434.427,700.973 435.094,699.973 436.5,699.5 Z"/></g>
<g><path style="opacity:1" fill="#4c4c4c" d="M 549.5,699.5 C 550.906,699.973 551.573,700.973 551.5,702.5C 550.094,702.027 549.427,701.027 549.5,699.5 Z"/></g>
<g><path style="opacity:1" fill="#9d9d9d" d="M 630.5,699.5 C 631.906,699.973 632.573,700.973 632.5,702.5C 631.094,702.027 630.427,701.027 630.5,699.5 Z"/></g>
<g><path style="opacity:1" fill="#929292" d="M 324.5,701.5 C 324.573,703.027 323.906,704.027 322.5,704.5C 322.427,702.973 323.094,701.973 324.5,701.5 Z"/></g>
<g><path style="opacity:1" fill="#a1a1a1" d="M 632.5,702.5 C 634.262,703.262 635.262,704.596 635.5,706.5C 633.738,705.738 632.738,704.404 632.5,702.5 Z"/></g>
<g><path style="opacity:1" fill="#9d9d9d" d="M 636.5,707.5 C 637.906,707.973 638.573,708.973 638.5,710.5C 637.094,710.027 636.427,709.027 636.5,707.5 Z"/></g>
<g><path style="opacity:1" fill="#585858" d="M 430.5,706.5 C 429.92,708.749 428.587,710.415 426.5,711.5C 427.08,709.251 428.413,707.585 430.5,706.5 Z"/></g>
<g><path style="opacity:1" fill="#919191" d="M 640.5,712.5 C 641.906,712.973 642.573,713.973 642.5,715.5C 641.094,715.027 640.427,714.027 640.5,712.5 Z"/></g>
<g><path style="opacity:1" fill="#a0a0a0" d="M 313.5,714.5 C 312.92,716.749 311.587,718.415 309.5,719.5C 310.08,717.251 311.413,715.585 313.5,714.5 Z"/></g>
<g><path style="opacity:1" fill="#999999" d="M 787.5,719.5 C 788.906,719.973 789.573,720.973 789.5,722.5C 788.094,722.027 787.427,721.027 787.5,719.5 Z"/></g>
<g><path style="opacity:1" fill="#ababab" d="M 789.5,722.5 C 791.262,723.262 792.262,724.596 792.5,726.5C 790.738,725.738 789.738,724.404 789.5,722.5 Z"/></g>
<g><path style="opacity:1" fill="#9d9d9d" d="M 304.5,724.5 C 304.573,726.027 303.906,727.027 302.5,727.5C 302.427,725.973 303.094,724.973 304.5,724.5 Z"/></g>
<g><path style="opacity:1" fill="#a8a8a8" d="M 792.5,726.5 C 794.262,727.262 795.262,728.596 795.5,730.5C 793.738,729.738 792.738,728.404 792.5,726.5 Z"/></g>
<g><path style="opacity:1" fill="#474747" d="M 409.5,730.5 C 409.573,732.027 408.906,733.027 407.5,733.5C 407.427,731.973 408.094,730.973 409.5,730.5 Z"/></g>
<g><path style="opacity:1" fill="#555555" d="M 721.5,738.5 C 722.906,738.973 723.573,739.973 723.5,741.5C 722.094,741.027 721.427,740.027 721.5,738.5 Z"/></g>
<g><path style="opacity:1" fill="#555555" d="M 724.5,742.5 C 725.906,742.973 726.573,743.973 726.5,745.5C 725.094,745.027 724.427,744.027 724.5,742.5 Z"/></g>
<g><path style="opacity:1" fill="#a3a3a3" d="M 805.5,743.5 C 806.906,743.973 807.573,744.973 807.5,746.5C 806.094,746.027 805.427,745.027 805.5,743.5 Z"/></g>
<g><path style="opacity:1" fill="#acacac" d="M 808.5,747.5 C 809.906,747.973 810.573,748.973 810.5,750.5C 809.094,750.027 808.427,749.027 808.5,747.5 Z"/></g>
<g><path style="opacity:1" fill="#949494" d="M 284.5,747.5 C 283.92,749.749 282.587,751.415 280.5,752.5C 281.08,750.251 282.413,748.585 284.5,747.5 Z"/></g>
<g><path style="opacity:1" fill="#a6a6a6" d="M 668.5,749.5 C 669.906,749.973 670.573,750.973 670.5,752.5C 669.094,752.027 668.427,751.027 668.5,749.5 Z"/></g>
<g><path style="opacity:1" fill="#4d4d4d" d="M 588.5,750.5 C 589.906,750.973 590.573,751.973 590.5,753.5C 589.094,753.027 588.427,752.027 588.5,750.5 Z"/></g>
<g><path style="opacity:1" fill="#5b5b5b" d="M 387.5,755.5 C 387.573,757.027 386.906,758.027 385.5,758.5C 385.427,756.973 386.094,755.973 387.5,755.5 Z"/></g>
<g><path style="opacity:1" fill="#9e9e9e" d="M 276.5,756.5 C 276.573,758.027 275.906,759.027 274.5,759.5C 274.427,757.973 275.094,756.973 276.5,756.5 Z"/></g>
<g><path style="opacity:1" fill="#a3a3a3" d="M 675.5,758.5 C 676.906,758.973 677.573,759.973 677.5,761.5C 676.094,761.027 675.427,760.027 675.5,758.5 Z"/></g>
<g><path style="opacity:1" fill="#929292" d="M 818.5,760.5 C 819.906,760.973 820.573,761.973 820.5,763.5C 819.094,763.027 818.427,762.027 818.5,760.5 Z"/></g>
<g><path style="opacity:1" fill="#a6a6a6" d="M 678.5,762.5 C 679.906,762.973 680.573,763.973 680.5,765.5C 679.094,765.027 678.427,764.027 678.5,762.5 Z"/></g>
<g><path style="opacity:1" fill="#585858" d="M 381.5,762.5 C 380.92,764.749 379.587,766.415 377.5,767.5C 378.08,765.251 379.413,763.585 381.5,762.5 Z"/></g>
<g><path style="opacity:1" fill="#484848" d="M 742.5,766.5 C 743.906,766.973 744.573,767.973 744.5,769.5C 743.094,769.027 742.427,768.027 742.5,766.5 Z"/></g>
<g><path style="opacity:1" fill="#a6a6a6" d="M 680.5,765.5 C 682.587,766.585 683.92,768.251 684.5,770.5C 682.413,769.415 681.08,767.749 680.5,765.5 Z"/></g>
<g><path style="opacity:1" fill="#b0b0b0" d="M 265.5,769.5 C 264.92,771.749 263.587,773.415 261.5,774.5C 262.08,772.251 263.413,770.585 265.5,769.5 Z"/></g>
<g><path style="opacity:1" fill="#a4a4a4" d="M 833.5,780.5 C 834.906,780.973 835.573,781.973 835.5,783.5C 834.094,783.027 833.427,782.027 833.5,780.5 Z"/></g>
<g><path style="opacity:1" fill="#a0a0a0" d="M 836.5,784.5 C 837.906,784.973 838.573,785.973 838.5,787.5C 837.094,787.027 836.427,786.027 836.5,784.5 Z"/></g>
<g><path style="opacity:1" fill="#949494" d="M 695.5,784.5 C 696.906,784.973 697.573,785.973 697.5,787.5C 696.094,787.027 695.427,786.027 695.5,784.5 Z"/></g>
<g><path style="opacity:1" fill="#484848" d="M 360.5,786.5 C 360.573,788.027 359.906,789.027 358.5,789.5C 358.427,787.973 359.094,786.973 360.5,786.5 Z"/></g>
<g><path style="opacity:1" fill="#6e6e6e" d="M 758.5,787.5 C 759.833,787.5 760.5,788.167 760.5,789.5C 740.861,791.488 720.861,792.155 700.5,791.5C 699.833,791.5 699.5,791.167 699.5,790.5C 719.511,790.833 739.511,790.5 759.5,789.5C 759.137,788.817 758.804,788.15 758.5,787.5 Z"/></g>
<g><path style="opacity:1" fill="#d2d2d2" d="M 760.5,789.5 C 761.404,790.209 761.737,791.209 761.5,792.5C 740.993,792.83 720.66,792.497 700.5,791.5C 720.861,792.155 740.861,791.488 760.5,789.5 Z"/></g>
<g><path style="opacity:1" fill="#9c9c9c" d="M 843.5,793.5 C 844.906,793.973 845.573,794.973 845.5,796.5C 844.094,796.027 843.427,795.027 843.5,793.5 Z"/></g>
<g><path style="opacity:1" fill="#a2a2a2" d="M 845.5,796.5 C 847.262,797.262 848.262,798.596 848.5,800.5C 846.738,799.738 845.738,798.404 845.5,796.5 Z"/></g>
<g><path style="opacity:1" fill="#aaaaaa" d="M 848.5,800.5 C 850.262,801.262 851.262,802.596 851.5,804.5C 849.738,803.738 848.738,802.404 848.5,800.5 Z"/></g>
<g><path style="opacity:1" fill="#949494" d="M 235.5,803.5 C 234.92,805.749 233.587,807.415 231.5,808.5C 232.08,806.251 233.413,804.585 235.5,803.5 Z"/></g>
<g><path style="opacity:1" fill="#454545" d="M 630.5,805.5 C 631.906,805.973 632.573,806.973 632.5,808.5C 631.094,808.027 630.427,807.027 630.5,805.5 Z"/></g>
<g><path style="opacity:1" fill="#5b5b5b" d="M 338.5,811.5 C 338.573,813.027 337.906,814.027 336.5,814.5C 336.427,812.973 337.094,811.973 338.5,811.5 Z"/></g>
<g><path style="opacity:1" fill="#9f9f9f" d="M 227.5,812.5 C 227.573,814.027 226.906,815.027 225.5,815.5C 225.427,813.973 226.094,812.973 227.5,812.5 Z"/></g>
<g><path style="opacity:1" fill="#505050" d="M 637.5,814.5 C 638.906,814.973 639.573,815.973 639.5,817.5C 638.094,817.027 637.427,816.027 637.5,814.5 Z"/></g>
<g><path style="opacity:1" fill="#a1a1a1" d="M 861.5,817.5 C 862.906,817.973 863.573,818.973 863.5,820.5C 862.094,820.027 861.427,819.027 861.5,817.5 Z"/></g>
<g><path style="opacity:1" fill="#4d4d4d" d="M 640.5,818.5 C 641.906,818.973 642.573,819.973 642.5,821.5C 641.094,821.027 640.427,820.027 640.5,818.5 Z"/></g>
<g><path style="opacity:1" fill="#585858" d="M 332.5,818.5 C 331.92,820.749 330.587,822.415 328.5,823.5C 329.08,821.251 330.413,819.585 332.5,818.5 Z"/></g>
<g><path style="opacity:1" fill="#a4a4a4" d="M 867.5,825.5 C 868.906,825.973 869.573,826.973 869.5,828.5C 868.094,828.027 867.427,827.027 867.5,825.5 Z"/></g>
<g><path style="opacity:1" fill="#b0b0b0" d="M 216.5,825.5 C 215.92,827.749 214.587,829.415 212.5,830.5C 213.08,828.251 214.413,826.585 216.5,825.5 Z"/></g>
<g><path style="opacity:1" fill="#909090" d="M 871.5,830.5 C 872.906,830.973 873.573,831.973 873.5,833.5C 872.094,833.027 871.427,832.027 871.5,830.5 Z"/></g>
<g><path style="opacity:1" fill="#929292" d="M 874.5,834.5 C 875.906,834.973 876.573,835.973 876.5,837.5C 875.094,837.027 874.427,836.027 874.5,834.5 Z"/></g>
<g><path style="opacity:1" fill="#4c4c4c" d="M 311.5,842.5 C 311.262,844.404 310.262,845.738 308.5,846.5C 308.738,844.596 309.738,843.262 311.5,842.5 Z"/></g>
<g><path style="opacity:1" fill="#e9e9e9" d="M 887.5,852.5 C 888.5,852.833 889.167,853.5 889.5,854.5C 816.841,856.497 743.841,857.164 670.5,856.5C 669.833,856.5 669.5,856.167 669.5,855.5C 742.501,855.667 815.501,855.5 888.5,855C 887.748,854.329 887.414,853.496 887.5,852.5 Z"/></g>
<g><path style="opacity:1" fill="#e9e9e9" d="M 190.5,854.5 C 190.833,854.5 191.167,854.5 191.5,854.5C 227.329,855.498 263.329,855.832 299.5,855.5C 299.5,855.833 299.5,856.167 299.5,856.5C 262.818,857.16 226.485,856.494 190.5,854.5 Z"/></g>
<g><path style="opacity:1" fill="#7f7f7f" d="M 190.5,854.5 C 226.485,856.494 262.818,857.16 299.5,856.5C 263.004,857.498 226.337,857.832 189.5,857.5C 189.263,856.209 189.596,855.209 190.5,854.5 Z"/></g>
<g><path style="opacity:1" fill="#7f7f7f" d="M 889.5,854.5 C 890.478,854.811 891.145,855.478 891.5,856.5C 817.668,857.832 744.001,857.832 670.5,856.5C 743.841,857.164 816.841,856.497 889.5,854.5 Z"/></g>
</svg>
