<?xml version="1.0" encoding="UTF-8"?>
<!DOCTYPE svg PUBLIC "-//W3C//DTD SVG 1.1//EN" "http://www.w3.org/Graphics/SVG/1.1/DTD/svg11.dtd">
<svg xmlns="http://www.w3.org/2000/svg" version="1.1" width="1067px" height="1067px" style="shape-rendering:geometricPrecision; text-rendering:geometricPrecision; image-rendering:optimizeQuality; fill-rule:evenodd; clip-rule:evenodd" xmlns:xlink="http://www.w3.org/1999/xlink">
<g><path style="opacity:0.999" fill="#f6f6f6" d="M 1066.5,218.5 C 1066.5,428.833 1066.5,639.167 1066.5,849.5C 1050.32,946.376 996.982,1013.88 906.5,1052C 887.808,1058.59 868.808,1063.42 849.5,1066.5C 639.167,1066.5 428.833,1066.5 218.5,1066.5C 121.586,1050.3 54.0863,996.971 16,906.5C 8.00078,884.837 3.00078,862.503 1,839.5C 0.333333,635.833 0.333333,432.167 1,228.5C 10.617,142.639 52.117,77.4727 125.5,33C 154.493,16.6689 185.493,6.3356 218.5,2C 323.648,0.844227 428.815,0.344227 534,0.5C 639.185,0.344227 744.352,0.844227 849.5,2C 946.642,17.7898 1014.14,70.9565 1052,161.5C 1058.59,180.192 1063.42,199.192 1066.5,218.5 Z"/></g>
<g><path style="opacity:1" fill="#7b7b7b" d="M 401.5,209.5 C 326.159,208.836 251.159,209.503 176.5,211.5C 175.522,211.189 174.855,210.522 174.5,209.5C 250.332,208.168 325.999,208.168 401.5,209.5 Z"/></g>
<g><path style="opacity:1" fill="#7b7b7b" d="M 738.5,209.5 C 775.002,208.17 811.669,208.17 848.5,209.5C 848.376,210.107 848.043,210.44 847.5,210.5C 811.337,209.502 775.004,209.168 738.5,209.5 Z"/></g>
<g><path style="opacity:1" fill="#141414" d="M 401.5,209.5 C 402.338,209.842 402.672,210.508 402.5,211.5C 327.402,210.169 252.402,210.169 177.5,211.5C 177.167,211.5 176.833,211.5 176.5,211.5C 251.159,209.503 326.159,208.836 401.5,209.5 Z"/></g>
<g><path style="opacity:1" fill="#010101" d="M 738.5,209.5 C 775.004,209.168 811.337,209.502 847.5,210.5C 845.833,212.5 844.167,214.5 842.5,216.5C 841.094,216.973 840.427,217.973 840.5,219.5C 838.167,221.167 836.167,223.167 834.5,225.5C 833.094,225.973 832.427,226.973 832.5,228.5C 830.833,229.5 829.5,230.833 828.5,232.5C 827.094,232.973 826.427,233.973 826.5,235.5C 824.5,236.833 822.833,238.5 821.5,240.5C 820.094,240.973 819.427,241.973 819.5,243.5C 817.833,244.5 816.5,245.833 815.5,247.5C 813.413,248.585 812.08,250.251 811.5,252.5C 809.833,253.5 808.5,254.833 807.5,256.5C 805.738,257.262 804.738,258.596 804.5,260.5C 801.139,262.895 798.472,265.895 796.5,269.5C 793.757,271.239 791.757,273.573 790.5,276.5C 788.5,277.833 786.833,279.5 785.5,281.5C 784.094,281.973 783.427,282.973 783.5,284.5C 781.833,285.5 780.5,286.833 779.5,288.5C 778.094,288.973 777.427,289.973 777.5,291.5C 775.5,292.833 773.833,294.5 772.5,296.5C 771.094,296.973 770.427,297.973 770.5,299.5C 768.833,300.5 767.5,301.833 766.5,303.5C 764.413,304.585 763.08,306.251 762.5,308.5C 760.833,309.5 759.5,310.833 758.5,312.5C 756.738,313.262 755.738,314.596 755.5,316.5C 752.139,318.895 749.472,321.895 747.5,325.5C 744.757,327.239 742.757,329.573 741.5,332.5C 740.167,333.167 739.167,334.167 738.5,335.5C 736.413,336.585 735.08,338.251 734.5,340.5C 732.473,341.861 730.806,343.527 729.5,345.5C 728.094,345.973 727.427,346.973 727.5,348.5C 725.833,349.5 724.5,350.833 723.5,352.5C 722.094,352.973 721.427,353.973 721.5,355.5C 719.833,356.5 718.5,357.833 717.5,359.5C 715.413,360.585 714.08,362.251 713.5,364.5C 711.833,365.5 710.5,366.833 709.5,368.5C 707.738,369.262 706.738,370.596 706.5,372.5C 704.5,373.833 702.833,375.5 701.5,377.5C 700.094,377.973 699.427,378.973 699.5,380.5C 697.833,381.5 696.5,382.833 695.5,384.5C 694.094,384.973 693.427,385.973 693.5,387.5C 691.167,389.167 689.167,391.167 687.5,393.5C 686.094,393.973 685.427,394.973 685.5,396.5C 683.833,397.5 682.5,398.833 681.5,400.5C 680.094,400.973 679.427,401.973 679.5,403.5C 677.5,404.833 675.833,406.5 674.5,408.5C 673.094,408.973 672.427,409.973 672.5,411.5C 670.833,412.5 669.5,413.833 668.5,415.5C 666.413,416.585 665.08,418.251 664.5,420.5C 662.833,421.5 661.5,422.833 660.5,424.5C 658.738,425.262 657.738,426.596 657.5,428.5C 654.139,430.895 651.472,433.895 649.5,437.5C 646.757,439.239 644.757,441.573 643.5,444.5C 641.5,445.833 639.833,447.5 638.5,449.5C 637.094,449.973 636.427,450.973 636.5,452.5C 634.473,453.861 632.806,455.527 631.5,457.5C 630.094,457.973 629.427,458.973 629.5,460.5C 627.833,461.5 626.5,462.833 625.5,464.5C 624.094,464.973 623.427,465.973 623.5,467.5C 621.833,468.5 620.5,469.833 619.5,471.5C 617.413,472.585 616.08,474.251 615.5,476.5C 612.313,478.344 610.313,481.011 609.5,484.5C 609.427,486.027 610.094,487.027 611.5,487.5C 621.155,500.128 630.822,512.795 640.5,525.5C 640.427,527.027 641.094,528.027 642.5,528.5C 643.167,528.5 643.5,528.833 643.5,529.5C 643.427,531.027 644.094,532.027 645.5,532.5C 652.519,540.857 659.185,549.524 665.5,558.5C 665.427,560.027 666.094,561.027 667.5,561.5C 677.155,574.128 686.822,586.795 696.5,599.5C 696.427,601.027 697.094,602.027 698.5,602.5C 707.519,613.525 716.186,624.858 724.5,636.5C 724.427,638.027 725.094,639.027 726.5,639.5C 735.519,650.525 744.186,661.858 752.5,673.5C 752.427,675.027 753.094,676.027 754.5,676.5C 763.519,687.525 772.186,698.858 780.5,710.5C 780.427,712.027 781.094,713.027 782.5,713.5C 791.519,724.525 800.186,735.858 808.5,747.5C 808.427,749.027 809.094,750.027 810.5,750.5C 811.803,752.142 813.136,753.809 814.5,755.5C 814.427,757.027 815.094,758.027 816.5,758.5C 823.519,766.857 830.185,775.524 836.5,784.5C 836.427,786.027 837.094,787.027 838.5,787.5C 855.211,808.878 871.544,830.545 887.5,852.5C 887.414,853.496 887.748,854.329 888.5,855C 815.501,855.5 742.501,855.667 669.5,855.5C 668.5,853.833 667.167,852.5 665.5,851.5C 662.975,847.104 659.975,843.104 656.5,839.5C 656.573,837.973 655.906,836.973 654.5,836.5C 652.183,832.854 649.516,829.52 646.5,826.5C 645.92,824.251 644.587,822.585 642.5,821.5C 636.543,812.877 630.21,804.544 623.5,796.5C 622.92,794.251 621.587,792.585 619.5,791.5C 618.214,788.883 616.547,786.55 614.5,784.5C 614.573,782.973 613.906,781.973 612.5,781.5C 612.167,780.5 611.5,779.833 610.5,779.5C 610.573,777.973 609.906,776.973 608.5,776.5C 607.396,774.611 606.063,772.945 604.5,771.5C 604.573,769.973 603.906,768.973 602.5,768.5C 601.299,766.091 599.633,764.091 597.5,762.5C 597.573,760.973 596.906,759.973 595.5,759.5C 590.306,751.767 584.639,744.433 578.5,737.5C 577.92,735.251 576.587,733.585 574.5,732.5C 571.975,728.104 568.975,724.104 565.5,720.5C 565.573,718.973 564.906,717.973 563.5,717.5C 561.183,713.854 558.516,710.52 555.5,707.5C 554.92,705.251 553.587,703.585 551.5,702.5C 549.984,699.467 547.984,696.8 545.5,694.5C 544.92,692.251 543.587,690.585 541.5,689.5C 535.878,681.212 529.878,673.212 523.5,665.5C 523.573,663.973 522.906,662.973 521.5,662.5C 520.299,660.091 518.633,658.091 516.5,656.5C 516.573,654.973 515.906,653.973 514.5,653.5C 514.5,652.833 514.167,652.5 513.5,652.5C 513.573,650.973 512.906,649.973 511.5,649.5C 510.299,647.091 508.633,645.091 506.5,643.5C 506.573,641.973 505.906,640.973 504.5,640.5C 502.853,637.527 500.853,634.86 498.5,632.5C 497.947,630.448 496.947,630.115 495.5,631.5C 492.785,634.214 490.451,637.214 488.5,640.5C 485.757,642.239 483.757,644.573 482.5,647.5C 481.167,648.167 480.167,649.167 479.5,650.5C 477.413,651.585 476.08,653.251 475.5,655.5C 473.473,656.861 471.806,658.527 470.5,660.5C 469.094,660.973 468.427,661.973 468.5,663.5C 466.833,664.5 465.5,665.833 464.5,667.5C 463.094,667.973 462.427,668.973 462.5,670.5C 460.833,671.5 459.5,672.833 458.5,674.5C 456.413,675.585 455.08,677.251 454.5,679.5C 452.833,680.5 451.5,681.833 450.5,683.5C 448.738,684.262 447.738,685.596 447.5,687.5C 444.139,689.895 441.472,692.895 439.5,696.5C 436.757,698.239 434.757,700.573 433.5,703.5C 432.167,704.167 431.167,705.167 430.5,706.5C 428.413,707.585 427.08,709.251 426.5,711.5C 424.833,712.5 423.5,713.833 422.5,715.5C 421.094,715.973 420.427,716.973 420.5,718.5C 418.5,719.833 416.833,721.5 415.5,723.5C 414.094,723.973 413.427,724.973 413.5,726.5C 411.833,727.5 410.5,728.833 409.5,730.5C 407.413,731.585 406.08,733.251 405.5,735.5C 403.833,736.5 402.5,737.833 401.5,739.5C 399.738,740.262 398.738,741.596 398.5,743.5C 395.119,745.88 392.453,748.88 390.5,752.5C 387.757,754.239 385.757,756.573 384.5,759.5C 383.167,760.167 382.167,761.167 381.5,762.5C 379.413,763.585 378.08,765.251 377.5,767.5C 375.833,768.5 374.5,769.833 373.5,771.5C 372.094,771.973 371.427,772.973 371.5,774.5C 369.5,775.833 367.833,777.5 366.5,779.5C 365.094,779.973 364.427,780.973 364.5,782.5C 362.833,783.5 361.5,784.833 360.5,786.5C 358.413,787.585 357.08,789.251 356.5,791.5C 354.833,792.5 353.5,793.833 352.5,795.5C 350.738,796.262 349.738,797.596 349.5,799.5C 346.119,801.88 343.453,804.88 341.5,808.5C 338.757,810.239 336.757,812.573 335.5,815.5C 334.167,816.167 333.167,817.167 332.5,818.5C 330.413,819.585 329.08,821.251 328.5,823.5C 326.833,824.5 325.5,825.833 324.5,827.5C 323.094,827.973 322.427,828.973 322.5,830.5C 320.5,831.833 318.833,833.5 317.5,835.5C 316.094,835.973 315.427,836.973 315.5,838.5C 313.833,839.5 312.5,840.833 311.5,842.5C 309.413,843.585 308.08,845.251 307.5,847.5C 305.833,848.5 304.5,849.833 303.5,851.5C 301.738,852.262 300.738,853.596 300.5,855.5C 299.833,855.5 299.5,855.833 299.5,856.5C 262.818,857.16 226.485,856.494 190.5,854.5C 190.833,854.5 191.167,854.5 191.5,854.5C 193.587,853.415 194.92,851.749 195.5,849.5C 198.142,845.225 201.475,841.558 205.5,838.5C 206.906,838.027 207.573,837.027 207.5,835.5C 208.833,833.5 210.5,831.833 212.5,830.5C 214.587,829.415 215.92,827.749 216.5,825.5C 221.825,818.843 227.491,812.51 233.5,806.5C 234.906,806.027 235.573,805.027 235.5,803.5C 241.492,796.175 247.825,789.175 254.5,782.5C 255.906,782.027 256.573,781.027 256.5,779.5C 257.833,777.5 259.5,775.833 261.5,774.5C 263.587,773.415 264.92,771.749 265.5,769.5C 270.825,762.843 276.491,756.51 282.5,750.5C 283.906,750.027 284.573,749.027 284.5,747.5C 286.167,745.5 287.833,743.5 289.5,741.5C 291.833,741.167 293.167,739.833 293.5,737.5C 299.158,730.509 305.158,723.843 311.5,717.5C 312.906,717.027 313.573,716.027 313.5,714.5C 328.824,696.511 344.491,678.844 360.5,661.5C 361.906,661.027 362.573,660.027 362.5,658.5C 377.824,640.511 393.491,622.844 409.5,605.5C 410.906,605.027 411.573,604.027 411.5,602.5C 422.811,589.52 434.144,576.52 445.5,563.5C 441.495,557.506 437.161,551.839 432.5,546.5C 431.92,544.251 430.587,542.585 428.5,541.5C 427.92,539.251 426.587,537.585 424.5,536.5C 424.573,534.973 423.906,533.973 422.5,533.5C 421.92,531.251 420.587,529.585 418.5,528.5C 418.573,526.973 417.906,525.973 416.5,525.5C 414.183,521.854 411.516,518.52 408.5,515.5C 408.573,513.973 407.906,512.973 406.5,512.5C 400.185,503.524 393.519,494.857 386.5,486.5C 385.92,484.251 384.587,482.585 382.5,481.5C 381.92,479.251 380.587,477.585 378.5,476.5C 378.573,474.973 377.906,473.973 376.5,473.5C 376.262,471.596 375.262,470.262 373.5,469.5C 373.262,467.596 372.262,466.262 370.5,465.5C 370.5,464.833 370.167,464.5 369.5,464.5C 369.573,462.973 368.906,461.973 367.5,461.5C 367.5,460.833 367.167,460.5 366.5,460.5C 366.262,458.596 365.262,457.262 363.5,456.5C 363.573,454.973 362.906,453.973 361.5,453.5C 360.299,451.091 358.633,449.091 356.5,447.5C 356.573,445.973 355.906,444.973 354.5,444.5C 349.306,436.767 343.639,429.433 337.5,422.5C 336.92,420.251 335.587,418.585 333.5,417.5C 333.573,415.973 332.906,414.973 331.5,414.5C 330.92,412.251 329.587,410.585 327.5,409.5C 327.573,407.973 326.906,406.973 325.5,406.5C 323.183,402.854 320.516,399.52 317.5,396.5C 317.573,394.973 316.906,393.973 315.5,393.5C 309.185,384.524 302.519,375.857 295.5,367.5C 294.92,365.251 293.587,363.585 291.5,362.5C 290.92,360.251 289.587,358.585 287.5,357.5C 286.214,354.883 284.547,352.55 282.5,350.5C 282.262,348.596 281.262,347.262 279.5,346.5C 279.5,345.833 279.167,345.5 278.5,345.5C 278.573,343.973 277.906,342.973 276.5,342.5C 276.5,341.833 276.167,341.5 275.5,341.5C 275.573,339.973 274.906,338.973 273.5,338.5C 273.5,337.833 273.167,337.5 272.5,337.5C 272.573,335.973 271.906,334.973 270.5,334.5C 269.299,332.091 267.633,330.091 265.5,328.5C 265.573,326.973 264.906,325.973 263.5,325.5C 259.519,319.525 255.186,313.858 250.5,308.5C 249.92,306.251 248.587,304.585 246.5,303.5C 245.92,301.251 244.587,299.585 242.5,298.5C 242.573,296.973 241.906,295.973 240.5,295.5C 239.92,293.251 238.587,291.585 236.5,290.5C 236.573,288.973 235.906,287.973 234.5,287.5C 232.183,283.854 229.516,280.52 226.5,277.5C 226.573,275.973 225.906,274.973 224.5,274.5C 221.305,269.431 217.638,264.765 213.5,260.5C 213.573,258.973 212.906,257.973 211.5,257.5C 209.518,254.19 207.185,251.19 204.5,248.5C 203.92,246.251 202.587,244.585 200.5,243.5C 199.92,241.251 198.587,239.585 196.5,238.5C 196.573,236.973 195.906,235.973 194.5,235.5C 194.262,233.596 193.262,232.262 191.5,231.5C 191.262,229.596 190.262,228.262 188.5,227.5C 187.516,225.52 186.183,223.853 184.5,222.5C 184.262,220.596 183.262,219.262 181.5,218.5C 181.573,216.973 180.906,215.973 179.5,215.5C 178.4,214.395 177.733,213.062 177.5,211.5C 252.402,210.169 327.402,210.169 402.5,211.5C 409.851,220.19 416.851,229.19 423.5,238.5C 423.427,240.027 424.094,241.027 425.5,241.5C 426.167,241.5 426.5,241.833 426.5,242.5C 426.427,244.027 427.094,245.027 428.5,245.5C 435.519,253.857 442.185,262.524 448.5,271.5C 448.427,273.027 449.094,274.027 450.5,274.5C 453.156,277.794 455.822,281.127 458.5,284.5C 458.427,286.027 459.094,287.027 460.5,287.5C 475.519,306.526 490.186,325.859 504.5,345.5C 504.427,347.027 505.094,348.027 506.5,348.5C 515.64,359.435 524.307,370.768 532.5,382.5C 532.427,384.027 533.094,385.027 534.5,385.5C 535.167,385.5 535.5,385.833 535.5,386.5C 535.427,388.027 536.094,389.027 537.5,389.5C 544.494,397.999 551.327,406.666 558,415.5C 559.351,413.982 560.851,412.649 562.5,411.5C 563.906,411.027 564.573,410.027 564.5,408.5C 566.167,406.167 568.167,404.167 570.5,402.5C 571.906,402.027 572.573,401.027 572.5,399.5C 573.833,397.5 575.5,395.833 577.5,394.5C 578.906,394.027 579.573,393.027 579.5,391.5C 582.811,386.555 586.811,382.222 591.5,378.5C 592.906,378.027 593.573,377.027 593.5,375.5C 594.833,373.833 596.167,372.167 597.5,370.5C 599.833,370.167 601.167,368.833 601.5,366.5C 604.142,362.225 607.475,358.558 611.5,355.5C 612.906,355.027 613.573,354.027 613.5,352.5C 615.167,350.167 617.167,348.167 619.5,346.5C 621.262,345.738 622.262,344.404 622.5,342.5C 623.5,340.833 624.833,339.5 626.5,338.5C 627.906,338.027 628.573,337.027 628.5,335.5C 631.811,330.555 635.811,326.222 640.5,322.5C 641.906,322.027 642.573,321.027 642.5,319.5C 643.833,317.833 645.167,316.167 646.5,314.5C 648.833,314.167 650.167,312.833 650.5,310.5C 653.142,306.225 656.475,302.558 660.5,299.5C 661.906,299.027 662.573,298.027 662.5,296.5C 664.167,294.167 666.167,292.167 668.5,290.5C 670.262,289.738 671.262,288.404 671.5,286.5C 672.5,285.167 673.5,283.833 674.5,282.5C 676.833,282.167 678.167,280.833 678.5,278.5C 684.167,271.833 689.833,265.167 695.5,258.5C 697.833,258.167 699.167,256.833 699.5,254.5C 702.142,250.225 705.475,246.558 709.5,243.5C 710.906,243.027 711.573,242.027 711.5,240.5C 712.833,238.5 714.5,236.833 716.5,235.5C 718.587,234.415 719.92,232.749 720.5,230.5C 721.5,228.833 722.833,227.5 724.5,226.5C 725.906,226.027 726.573,225.027 726.5,223.5C 730.126,218.539 734.126,213.872 738.5,209.5 Z"/></g>
<g><path style="opacity:1" fill="#999999" d="M 179.5,215.5 C 180.906,215.973 181.573,216.973 181.5,218.5C 180.094,218.027 179.427,217.027 179.5,215.5 Z"/></g>
<g><path style="opacity:1" fill="#a3a3a3" d="M 842.5,216.5 C 842.573,218.027 841.906,219.027 840.5,219.5C 840.427,217.973 841.094,216.973 842.5,216.5 Z"/></g>
<g><path style="opacity:1" fill="#a5a5a5" d="M 181.5,218.5 C 183.262,219.262 184.262,220.596 184.5,222.5C 182.738,221.738 181.738,220.404 181.5,218.5 Z"/></g>
<g><path style="opacity:1" fill="#4a4a4a" d="M 726.5,223.5 C 726.573,225.027 725.906,226.027 724.5,226.5C 724.427,224.973 725.094,223.973 726.5,223.5 Z"/></g>
<g><path style="opacity:1" fill="#949494" d="M 834.5,225.5 C 834.573,227.027 833.906,228.027 832.5,228.5C 832.427,226.973 833.094,225.973 834.5,225.5 Z"/></g>
<g><path style="opacity:1" fill="#989898" d="M 188.5,227.5 C 190.262,228.262 191.262,229.596 191.5,231.5C 189.738,230.738 188.738,229.404 188.5,227.5 Z"/></g>
<g><path style="opacity:1" fill="#a4a4a4" d="M 191.5,231.5 C 193.262,232.262 194.262,233.596 194.5,235.5C 192.738,234.738 191.738,233.404 191.5,231.5 Z"/></g>
<g><path style="opacity:1" fill="#505050" d="M 720.5,230.5 C 719.92,232.749 718.587,234.415 716.5,235.5C 717.08,233.251 718.413,231.585 720.5,230.5 Z"/></g>
<g><path style="opacity:1" fill="#9f9f9f" d="M 828.5,232.5 C 828.573,234.027 827.906,235.027 826.5,235.5C 826.427,233.973 827.094,232.973 828.5,232.5 Z"/></g>
<g><path style="opacity:1" fill="#bbbbbb" d="M 196.5,238.5 C 198.587,239.585 199.92,241.251 200.5,243.5C 198.413,242.415 197.08,240.749 196.5,238.5 Z"/></g>
<g><path style="opacity:1" fill="#4f4f4f" d="M 423.5,238.5 C 424.906,238.973 425.573,239.973 425.5,241.5C 424.094,241.027 423.427,240.027 423.5,238.5 Z"/></g>
<g><path style="opacity:1" fill="#4b4b4b" d="M 711.5,240.5 C 711.573,242.027 710.906,243.027 709.5,243.5C 709.427,241.973 710.094,240.973 711.5,240.5 Z"/></g>
<g><path style="opacity:1" fill="#9b9b9b" d="M 821.5,240.5 C 821.573,242.027 820.906,243.027 819.5,243.5C 819.427,241.973 820.094,240.973 821.5,240.5 Z"/></g>
<g><path style="opacity:1" fill="#a6a6a6" d="M 200.5,243.5 C 202.587,244.585 203.92,246.251 204.5,248.5C 202.413,247.415 201.08,245.749 200.5,243.5 Z"/></g>
<g><path style="opacity:1" fill="#474747" d="M 426.5,242.5 C 427.906,242.973 428.573,243.973 428.5,245.5C 427.094,245.027 426.427,244.027 426.5,242.5 Z"/></g>
<g><path style="opacity:1" fill="#9a9a9a" d="M 815.5,247.5 C 814.92,249.749 813.587,251.415 811.5,252.5C 812.08,250.251 813.413,248.585 815.5,247.5 Z"/></g>
<g><path style="opacity:1" fill="#4b4b4b" d="M 699.5,254.5 C 699.167,256.833 697.833,258.167 695.5,258.5C 696.5,256.833 697.833,255.5 699.5,254.5 Z"/></g>
<g><path style="opacity:1" fill="#a3a3a3" d="M 211.5,257.5 C 212.906,257.973 213.573,258.973 213.5,260.5C 212.094,260.027 211.427,259.027 211.5,257.5 Z"/></g>
<g><path style="opacity:1" fill="#a0a0a0" d="M 807.5,256.5 C 807.262,258.404 806.262,259.738 804.5,260.5C 804.738,258.596 805.738,257.262 807.5,256.5 Z"/></g>
<g><path style="opacity:1" fill="#dbdbdb" d="M 369.5,273.5 C 358.741,272.844 347.907,272.511 337,272.5C 326.145,272.501 315.645,273.168 305.5,274.5C 304.733,273.828 304.066,272.995 303.5,272C 314.5,271.833 325.5,271.667 336.5,271.5C 347.854,271.501 358.854,272.168 369.5,273.5 Z"/></g>
<g><path style="opacity:1" fill="#fcfcfc" d="M 369.5,273.5 C 370.08,275.749 371.413,277.415 373.5,278.5C 373.427,280.027 374.094,281.027 375.5,281.5C 376.5,281.833 377.167,282.5 377.5,283.5C 377.427,285.027 378.094,286.027 379.5,286.5C 379.427,288.027 380.094,289.027 381.5,289.5C 385.638,293.765 389.305,298.431 392.5,303.5C 392.427,305.027 393.094,306.027 394.5,306.5C 397.516,309.52 400.183,312.854 402.5,316.5C 402.427,318.027 403.094,319.027 404.5,319.5C 410.064,326.282 415.398,333.282 420.5,340.5C 420.427,342.027 421.094,343.027 422.5,343.5C 426.638,347.765 430.305,352.431 433.5,357.5C 433.427,359.027 434.094,360.027 435.5,360.5C 440.186,365.858 444.519,371.525 448.5,377.5C 448.427,379.027 449.094,380.027 450.5,380.5C 451.167,380.5 451.5,380.833 451.5,381.5C 451.427,383.027 452.094,384.027 453.5,384.5C 461.64,394.101 469.307,404.101 476.5,414.5C 476.427,416.027 477.094,417.027 478.5,417.5C 479.167,417.5 479.5,417.833 479.5,418.5C 479.427,420.027 480.094,421.027 481.5,421.5C 483.514,423.183 485.18,425.183 486.5,427.5C 486.427,429.027 487.094,430.027 488.5,430.5C 495.186,438.525 501.519,446.859 507.5,455.5C 507.427,457.027 508.094,458.027 509.5,458.5C 515.064,465.282 520.398,472.282 525.5,479.5C 525.427,481.027 526.094,482.027 527.5,482.5C 529.633,484.091 531.299,486.091 532.5,488.5C 532.427,490.027 533.094,491.027 534.5,491.5C 536.063,492.945 537.396,494.611 538.5,496.5C 538.427,498.027 539.094,499.027 540.5,499.5C 541.08,501.749 542.413,503.415 544.5,504.5C 546.853,506.86 548.853,509.527 550.5,512.5C 550.427,514.027 551.094,515.027 552.5,515.5C 556.638,519.765 560.305,524.431 563.5,529.5C 563.427,531.027 564.094,532.027 565.5,532.5C 571.064,539.282 576.398,546.282 581.5,553.5C 581.427,555.027 582.094,556.027 583.5,556.5C 585.633,558.091 587.299,560.091 588.5,562.5C 588.427,564.027 589.094,565.027 590.5,565.5C 592.063,566.945 593.396,568.611 594.5,570.5C 594.427,572.027 595.094,573.027 596.5,573.5C 597.08,575.749 598.413,577.415 600.5,578.5C 605.975,584.771 610.975,591.437 615.5,598.5C 615.738,600.404 616.738,601.738 618.5,602.5C 618.738,604.404 619.738,605.738 621.5,606.5C 622.906,606.973 623.573,607.973 623.5,609.5C 624.08,611.749 625.413,613.415 627.5,614.5C 632.186,619.858 636.519,625.525 640.5,631.5C 640.427,633.027 641.094,634.027 642.5,634.5C 645.516,637.52 648.183,640.854 650.5,644.5C 650.427,646.027 651.094,647.027 652.5,647.5C 656.064,651.614 659.397,655.948 662.5,660.5C 662.427,662.027 663.094,663.027 664.5,663.5C 666.543,664.579 667.876,666.246 668.5,668.5C 668.427,670.027 669.094,671.027 670.5,671.5C 673.975,675.104 676.975,679.104 679.5,683.5C 680.08,685.749 681.413,687.415 683.5,688.5C 687.064,692.614 690.397,696.948 693.5,701.5C 693.427,703.027 694.094,704.027 695.5,704.5C 698.516,707.52 701.183,710.854 703.5,714.5C 703.427,716.027 704.094,717.027 705.5,717.5C 712.186,725.525 718.519,733.859 724.5,742.5C 724.427,744.027 725.094,745.027 726.5,745.5C 730.638,749.765 734.305,754.431 737.5,759.5C 737.427,761.027 738.094,762.027 739.5,762.5C 744.186,767.858 748.519,773.525 752.5,779.5C 752.427,781.027 753.094,782.027 754.5,782.5C 756.633,784.091 758.299,786.091 759.5,788.5C 739.861,790.488 719.861,791.155 699.5,790.5C 690.307,777.435 680.64,764.768 670.5,752.5C 670.573,750.973 669.906,749.973 668.5,749.5C 655.519,731.857 642.185,714.524 628.5,697.5C 628.573,695.973 627.906,694.973 626.5,694.5C 625.299,692.091 623.633,690.091 621.5,688.5C 621.573,686.973 620.906,685.973 619.5,685.5C 617.183,681.854 614.516,678.52 611.5,675.5C 611.573,673.973 610.906,672.973 609.5,672.5C 600.852,660.524 591.852,648.857 582.5,637.5C 582.573,635.973 581.906,634.973 580.5,634.5C 580.5,633.833 580.167,633.5 579.5,633.5C 579.573,631.973 578.906,630.973 577.5,630.5C 577.5,629.833 577.167,629.5 576.5,629.5C 576.573,627.973 575.906,626.973 574.5,626.5C 562.155,610.461 549.822,594.461 537.5,578.5C 537.573,576.973 536.906,575.973 535.5,575.5C 533.183,571.854 530.516,568.52 527.5,565.5C 527.573,563.973 526.906,562.973 525.5,562.5C 524.299,560.091 522.633,558.091 520.5,556.5C 520.573,554.973 519.906,553.973 518.5,553.5C 509.852,541.524 500.852,529.857 491.5,518.5C 491.573,516.973 490.906,515.973 489.5,515.5C 489.5,514.833 489.167,514.5 488.5,514.5C 488.573,512.973 487.906,511.973 486.5,511.5C 486.5,510.833 486.167,510.5 485.5,510.5C 485.573,508.973 484.906,507.973 483.5,507.5C 482.299,505.091 480.633,503.091 478.5,501.5C 478.573,499.973 477.906,498.973 476.5,498.5C 466.731,485.281 456.731,472.281 446.5,459.5C 446.573,457.973 445.906,456.973 444.5,456.5C 444.167,455.5 443.5,454.833 442.5,454.5C 442.573,452.973 441.906,451.973 440.5,451.5C 439.136,449.809 437.803,448.142 436.5,446.5C 436.573,444.973 435.906,443.973 434.5,443.5C 433.299,441.091 431.633,439.091 429.5,437.5C 429.573,435.973 428.906,434.973 427.5,434.5C 417.731,421.281 407.731,408.281 397.5,395.5C 397.573,393.973 396.906,392.973 395.5,392.5C 393.183,388.854 390.516,385.52 387.5,382.5C 387.573,380.973 386.906,379.973 385.5,379.5C 375.731,366.281 365.731,353.281 355.5,340.5C 355.573,338.973 354.906,337.973 353.5,337.5C 351.183,333.854 348.516,330.52 345.5,327.5C 345.573,325.973 344.906,324.973 343.5,324.5C 343.167,323.5 342.5,322.833 341.5,322.5C 341.573,320.973 340.906,319.973 339.5,319.5C 339.5,318.833 339.167,318.5 338.5,318.5C 338.573,316.973 337.906,315.973 336.5,315.5C 334.183,311.854 331.516,308.52 328.5,305.5C 328.573,303.973 327.906,302.973 326.5,302.5C 321.306,294.767 315.639,287.433 309.5,280.5C 309.573,278.973 308.906,277.973 307.5,277.5C 306.833,276.5 306.167,275.5 305.5,274.5C 315.645,273.168 326.145,272.501 337,272.5C 347.907,272.511 358.741,272.844 369.5,273.5 Z"/></g>
<g><path style="opacity:1" fill="#4a4a4a" d="M 448.5,271.5 C 449.906,271.973 450.573,272.973 450.5,274.5C 449.094,274.027 448.427,273.027 448.5,271.5 Z"/></g>
<g><path style="opacity:1" fill="#a9a9a9" d="M 796.5,269.5 C 795.243,272.427 793.243,274.761 790.5,276.5C 791.757,273.573 793.757,271.239 796.5,269.5 Z"/></g>
<g><path style="opacity:1" fill="#9e9e9e" d="M 224.5,274.5 C 225.906,274.973 226.573,275.973 226.5,277.5C 225.094,277.027 224.427,276.027 224.5,274.5 Z"/></g>
<g><path style="opacity:1" fill="#a1a1a1" d="M 369.5,273.5 C 371.587,274.585 372.92,276.251 373.5,278.5C 371.413,277.415 370.08,275.749 369.5,273.5 Z"/></g>
<g><path style="opacity:1" fill="#525252" d="M 307.5,277.5 C 308.906,277.973 309.573,278.973 309.5,280.5C 308.094,280.027 307.427,279.027 307.5,277.5 Z"/></g>
<g><path style="opacity:1" fill="#474747" d="M 678.5,278.5 C 678.167,280.833 676.833,282.167 674.5,282.5C 675.5,280.833 676.833,279.5 678.5,278.5 Z"/></g>
<g><path style="opacity:1" fill="#ababab" d="M 373.5,278.5 C 374.906,278.973 375.573,279.973 375.5,281.5C 374.094,281.027 373.427,280.027 373.5,278.5 Z"/></g>
<g><path style="opacity:1" fill="#949494" d="M 785.5,281.5 C 785.573,283.027 784.906,284.027 783.5,284.5C 783.427,282.973 784.094,281.973 785.5,281.5 Z"/></g>
<g><path style="opacity:1" fill="#919191" d="M 377.5,283.5 C 378.906,283.973 379.573,284.973 379.5,286.5C 378.094,286.027 377.427,285.027 377.5,283.5 Z"/></g>
<g><path style="opacity:1" fill="#5f5f5f" d="M 458.5,284.5 C 459.906,284.973 460.573,285.973 460.5,287.5C 459.094,287.027 458.427,286.027 458.5,284.5 Z"/></g>
<g><path style="opacity:1" fill="#acacac" d="M 379.5,286.5 C 380.906,286.973 381.573,287.973 381.5,289.5C 380.094,289.027 379.427,288.027 379.5,286.5 Z"/></g>
<g><path style="opacity:1" fill="#9b9b9b" d="M 234.5,287.5 C 235.906,287.973 236.573,288.973 236.5,290.5C 235.094,290.027 234.427,289.027 234.5,287.5 Z"/></g>
<g><path style="opacity:1" fill="#464646" d="M 671.5,286.5 C 671.262,288.404 670.262,289.738 668.5,290.5C 668.738,288.596 669.738,287.262 671.5,286.5 Z"/></g>
<g><path style="opacity:1" fill="#9f9f9f" d="M 779.5,288.5 C 779.573,290.027 778.906,291.027 777.5,291.5C 777.427,289.973 778.094,288.973 779.5,288.5 Z"/></g>
<g><path style="opacity:1" fill="#9a9a9a" d="M 236.5,290.5 C 238.587,291.585 239.92,293.251 240.5,295.5C 238.413,294.415 237.08,292.749 236.5,290.5 Z"/></g>
<g><path style="opacity:1" fill="#a4a4a4" d="M 240.5,295.5 C 241.906,295.973 242.573,296.973 242.5,298.5C 241.094,298.027 240.427,297.027 240.5,295.5 Z"/></g>
<g><path style="opacity:1" fill="#4e4e4e" d="M 662.5,296.5 C 662.573,298.027 661.906,299.027 660.5,299.5C 660.427,297.973 661.094,296.973 662.5,296.5 Z"/></g>
<g><path style="opacity:1" fill="#9b9b9b" d="M 772.5,296.5 C 772.573,298.027 771.906,299.027 770.5,299.5C 770.427,297.973 771.094,296.973 772.5,296.5 Z"/></g>
<g><path style="opacity:1" fill="#ababab" d="M 242.5,298.5 C 244.587,299.585 245.92,301.251 246.5,303.5C 244.413,302.415 243.08,300.749 242.5,298.5 Z"/></g>
<g><path style="opacity:1" fill="#484848" d="M 326.5,302.5 C 327.906,302.973 328.573,303.973 328.5,305.5C 327.094,305.027 326.427,304.027 326.5,302.5 Z"/></g>
<g><path style="opacity:1" fill="#a1a1a1" d="M 392.5,303.5 C 393.906,303.973 394.573,304.973 394.5,306.5C 393.094,306.027 392.427,305.027 392.5,303.5 Z"/></g>
<g><path style="opacity:1" fill="#919191" d="M 246.5,303.5 C 248.587,304.585 249.92,306.251 250.5,308.5C 248.413,307.415 247.08,305.749 246.5,303.5 Z"/></g>
<g><path style="opacity:1" fill="#9a9a9a" d="M 766.5,303.5 C 765.92,305.749 764.587,307.415 762.5,308.5C 763.08,306.251 764.413,304.585 766.5,303.5 Z"/></g>
<g><path style="opacity:1" fill="#4b4b4b" d="M 650.5,310.5 C 650.167,312.833 648.833,314.167 646.5,314.5C 647.5,312.833 648.833,311.5 650.5,310.5 Z"/></g>
<g><path style="opacity:1" fill="#a0a0a0" d="M 758.5,312.5 C 758.262,314.404 757.262,315.738 755.5,316.5C 755.738,314.596 756.738,313.262 758.5,312.5 Z"/></g>
<g><path style="opacity:1" fill="#4b4b4b" d="M 336.5,315.5 C 337.906,315.973 338.573,316.973 338.5,318.5C 337.094,318.027 336.427,317.027 336.5,315.5 Z"/></g>
<g><path style="opacity:1" fill="#909090" d="M 402.5,316.5 C 403.906,316.973 404.573,317.973 404.5,319.5C 403.094,319.027 402.427,318.027 402.5,316.5 Z"/></g>
<g><path style="opacity:1" fill="#474747" d="M 339.5,319.5 C 340.906,319.973 341.573,320.973 341.5,322.5C 340.094,322.027 339.427,321.027 339.5,319.5 Z"/></g>
<g><path style="opacity:1" fill="#454545" d="M 642.5,319.5 C 642.573,321.027 641.906,322.027 640.5,322.5C 640.427,320.973 641.094,319.973 642.5,319.5 Z"/></g>
<g><path style="opacity:1" fill="#a3a3a3" d="M 263.5,325.5 C 264.906,325.973 265.573,326.973 265.5,328.5C 264.094,328.027 263.427,327.027 263.5,325.5 Z"/></g>
<g><path style="opacity:1" fill="#4f4f4f" d="M 343.5,324.5 C 344.906,324.973 345.573,325.973 345.5,327.5C 344.094,327.027 343.427,326.027 343.5,324.5 Z"/></g>
<g><path style="opacity:1" fill="#a9a9a9" d="M 747.5,325.5 C 746.243,328.427 744.243,330.761 741.5,332.5C 742.757,329.573 744.757,327.239 747.5,325.5 Z"/></g>
<g><path style="opacity:1" fill="#999999" d="M 270.5,334.5 C 271.906,334.973 272.573,335.973 272.5,337.5C 271.094,337.027 270.427,336.027 270.5,334.5 Z"/></g>
<g><path style="opacity:1" fill="#4a4a4a" d="M 628.5,335.5 C 628.573,337.027 627.906,338.027 626.5,338.5C 626.427,336.973 627.094,335.973 628.5,335.5 Z"/></g>
<g><path style="opacity:1" fill="#575757" d="M 353.5,337.5 C 354.906,337.973 355.573,338.973 355.5,340.5C 354.094,340.027 353.427,339.027 353.5,337.5 Z"/></g>
<g><path style="opacity:1" fill="#9d9d9d" d="M 738.5,335.5 C 737.92,337.749 736.587,339.415 734.5,340.5C 735.08,338.251 736.413,336.585 738.5,335.5 Z"/></g>
<g><path style="opacity:1" fill="#989898" d="M 273.5,338.5 C 274.906,338.973 275.573,339.973 275.5,341.5C 274.094,341.027 273.427,340.027 273.5,338.5 Z"/></g>
<g><path style="opacity:1" fill="#a1a1a1" d="M 420.5,340.5 C 421.906,340.973 422.573,341.973 422.5,343.5C 421.094,343.027 420.427,342.027 420.5,340.5 Z"/></g>
<g><path style="opacity:1" fill="#999999" d="M 276.5,342.5 C 277.906,342.973 278.573,343.973 278.5,345.5C 277.094,345.027 276.427,344.027 276.5,342.5 Z"/></g>
<g><path style="opacity:1" fill="#474747" d="M 622.5,342.5 C 622.262,344.404 621.262,345.738 619.5,346.5C 619.738,344.596 620.738,343.262 622.5,342.5 Z"/></g>
<g><path style="opacity:1" fill="#949494" d="M 729.5,345.5 C 729.573,347.027 728.906,348.027 727.5,348.5C 727.427,346.973 728.094,345.973 729.5,345.5 Z"/></g>
<g><path style="opacity:1" fill="#979797" d="M 279.5,346.5 C 281.262,347.262 282.262,348.596 282.5,350.5C 280.738,349.738 279.738,348.404 279.5,346.5 Z"/></g>
<g><path style="opacity:1" fill="#484848" d="M 504.5,345.5 C 505.906,345.973 506.573,346.973 506.5,348.5C 505.094,348.027 504.427,347.027 504.5,345.5 Z"/></g>
<g><path style="opacity:1" fill="#4e4e4e" d="M 613.5,352.5 C 613.573,354.027 612.906,355.027 611.5,355.5C 611.427,353.973 612.094,352.973 613.5,352.5 Z"/></g>
<g><path style="opacity:1" fill="#9a9a9a" d="M 723.5,352.5 C 723.573,354.027 722.906,355.027 721.5,355.5C 721.427,353.973 722.094,352.973 723.5,352.5 Z"/></g>
<g><path style="opacity:1" fill="#bbbbbb" d="M 287.5,357.5 C 289.587,358.585 290.92,360.251 291.5,362.5C 289.413,361.415 288.08,359.749 287.5,357.5 Z"/></g>
<g><path style="opacity:1" fill="#909090" d="M 433.5,357.5 C 434.906,357.973 435.573,358.973 435.5,360.5C 434.094,360.027 433.427,359.027 433.5,357.5 Z"/></g>
<g><path style="opacity:1" fill="#9a9a9a" d="M 717.5,359.5 C 716.92,361.749 715.587,363.415 713.5,364.5C 714.08,362.251 715.413,360.585 717.5,359.5 Z"/></g>
<g><path style="opacity:1" fill="#a6a6a6" d="M 291.5,362.5 C 293.587,363.585 294.92,365.251 295.5,367.5C 293.413,366.415 292.08,364.749 291.5,362.5 Z"/></g>
<g><path style="opacity:1" fill="#4b4b4b" d="M 601.5,366.5 C 601.167,368.833 599.833,370.167 597.5,370.5C 598.5,368.833 599.833,367.5 601.5,366.5 Z"/></g>
<g><path style="opacity:1" fill="#9f9f9f" d="M 709.5,368.5 C 709.262,370.404 708.262,371.738 706.5,372.5C 706.738,370.596 707.738,369.262 709.5,368.5 Z"/></g>
<g><path style="opacity:1" fill="#454545" d="M 593.5,375.5 C 593.573,377.027 592.906,378.027 591.5,378.5C 591.427,376.973 592.094,375.973 593.5,375.5 Z"/></g>
<g><path style="opacity:1" fill="#9d9d9d" d="M 448.5,377.5 C 449.906,377.973 450.573,378.973 450.5,380.5C 449.094,380.027 448.427,379.027 448.5,377.5 Z"/></g>
<g><path style="opacity:1" fill="#919191" d="M 701.5,377.5 C 701.573,379.027 700.906,380.027 699.5,380.5C 699.427,378.973 700.094,377.973 701.5,377.5 Z"/></g>
<g><path style="opacity:1" fill="#515151" d="M 385.5,379.5 C 386.906,379.973 387.573,380.973 387.5,382.5C 386.094,382.027 385.427,381.027 385.5,379.5 Z"/></g>
<g><path style="opacity:1" fill="#a1a1a1" d="M 451.5,381.5 C 452.906,381.973 453.573,382.973 453.5,384.5C 452.094,384.027 451.427,383.027 451.5,381.5 Z"/></g>
<g><path style="opacity:1" fill="#535353" d="M 532.5,382.5 C 533.906,382.973 534.573,383.973 534.5,385.5C 533.094,385.027 532.427,384.027 532.5,382.5 Z"/></g>
<g><path style="opacity:1" fill="#9c9c9c" d="M 695.5,384.5 C 695.573,386.027 694.906,387.027 693.5,387.5C 693.427,385.973 694.094,384.973 695.5,384.5 Z"/></g>
<g><path style="opacity:1" fill="#505050" d="M 535.5,386.5 C 536.906,386.973 537.573,387.973 537.5,389.5C 536.094,389.027 535.427,388.027 535.5,386.5 Z"/></g>
<g><path style="opacity:1" fill="#4a4a4a" d="M 579.5,391.5 C 579.573,393.027 578.906,394.027 577.5,394.5C 577.427,392.973 578.094,391.973 579.5,391.5 Z"/></g>
<g><path style="opacity:1" fill="#565656" d="M 395.5,392.5 C 396.906,392.973 397.573,393.973 397.5,395.5C 396.094,395.027 395.427,394.027 395.5,392.5 Z"/></g>
<g><path style="opacity:1" fill="#9e9e9e" d="M 315.5,393.5 C 316.906,393.973 317.573,394.973 317.5,396.5C 316.094,396.027 315.427,395.027 315.5,393.5 Z"/></g>
<g><path style="opacity:1" fill="#949494" d="M 687.5,393.5 C 687.573,395.027 686.906,396.027 685.5,396.5C 685.427,394.973 686.094,393.973 687.5,393.5 Z"/></g>
<g><path style="opacity:1" fill="#505050" d="M 572.5,399.5 C 572.573,401.027 571.906,402.027 570.5,402.5C 570.427,400.973 571.094,399.973 572.5,399.5 Z"/></g>
<g><path style="opacity:1" fill="#9f9f9f" d="M 681.5,400.5 C 681.573,402.027 680.906,403.027 679.5,403.5C 679.427,401.973 680.094,400.973 681.5,400.5 Z"/></g>
<g><path style="opacity:1" fill="#9b9b9b" d="M 325.5,406.5 C 326.906,406.973 327.573,407.973 327.5,409.5C 326.094,409.027 325.427,408.027 325.5,406.5 Z"/></g>
<g><path style="opacity:1" fill="#4f4f4f" d="M 564.5,408.5 C 564.573,410.027 563.906,411.027 562.5,411.5C 562.427,409.973 563.094,408.973 564.5,408.5 Z"/></g>
<g><path style="opacity:1" fill="#9b9b9b" d="M 674.5,408.5 C 674.573,410.027 673.906,411.027 672.5,411.5C 672.427,409.973 673.094,408.973 674.5,408.5 Z"/></g>
<g><path style="opacity:1" fill="#9a9a9a" d="M 327.5,409.5 C 329.587,410.585 330.92,412.251 331.5,414.5C 329.413,413.415 328.08,411.749 327.5,409.5 Z"/></g>
<g><path style="opacity:1" fill="#a3a3a3" d="M 331.5,414.5 C 332.906,414.973 333.573,415.973 333.5,417.5C 332.094,417.027 331.427,416.027 331.5,414.5 Z"/></g>
<g><path style="opacity:1" fill="#9d9d9d" d="M 476.5,414.5 C 477.906,414.973 478.573,415.973 478.5,417.5C 477.094,417.027 476.427,416.027 476.5,414.5 Z"/></g>
<g><path style="opacity:1" fill="#acacac" d="M 333.5,417.5 C 335.587,418.585 336.92,420.251 337.5,422.5C 335.413,421.415 334.08,419.749 333.5,417.5 Z"/></g>
<g><path style="opacity:1" fill="#9a9a9a" d="M 668.5,415.5 C 667.92,417.749 666.587,419.415 664.5,420.5C 665.08,418.251 666.413,416.585 668.5,415.5 Z"/></g>
<g><path style="opacity:1" fill="#9c9c9c" d="M 479.5,418.5 C 480.906,418.973 481.573,419.973 481.5,421.5C 480.094,421.027 479.427,420.027 479.5,418.5 Z"/></g>
<g><path style="opacity:1" fill="#a0a0a0" d="M 660.5,424.5 C 660.262,426.404 659.262,427.738 657.5,428.5C 657.738,426.596 658.738,425.262 660.5,424.5 Z"/></g>
<g><path style="opacity:1" fill="#8a8a8a" d="M 486.5,427.5 C 487.906,427.973 488.573,428.973 488.5,430.5C 487.094,430.027 486.427,429.027 486.5,427.5 Z"/></g>
<g><path style="opacity:1" fill="#4b4b4b" d="M 427.5,434.5 C 428.906,434.973 429.573,435.973 429.5,437.5C 428.094,437.027 427.427,436.027 427.5,434.5 Z"/></g>
<g><path style="opacity:1" fill="#aaaaaa" d="M 649.5,437.5 C 648.243,440.427 646.243,442.761 643.5,444.5C 644.757,441.573 646.757,439.239 649.5,437.5 Z"/></g>
<g><path style="opacity:1" fill="#4c4c4c" d="M 434.5,443.5 C 435.906,443.973 436.573,444.973 436.5,446.5C 435.094,446.027 434.427,445.027 434.5,443.5 Z"/></g>
<g><path style="opacity:1" fill="#a3a3a3" d="M 354.5,444.5 C 355.906,444.973 356.573,445.973 356.5,447.5C 355.094,447.027 354.427,446.027 354.5,444.5 Z"/></g>
<g><path style="opacity:1" fill="#949494" d="M 638.5,449.5 C 638.573,451.027 637.906,452.027 636.5,452.5C 636.427,450.973 637.094,449.973 638.5,449.5 Z"/></g>
<g><path style="opacity:1" fill="#4e4e4e" d="M 440.5,451.5 C 441.906,451.973 442.573,452.973 442.5,454.5C 441.094,454.027 440.427,453.027 440.5,451.5 Z"/></g>
<g><path style="opacity:1" fill="#9a9a9a" d="M 361.5,453.5 C 362.906,453.973 363.573,454.973 363.5,456.5C 362.094,456.027 361.427,455.027 361.5,453.5 Z"/></g>
<g><path style="opacity:1" fill="#9b9b9b" d="M 507.5,455.5 C 508.906,455.973 509.573,456.973 509.5,458.5C 508.094,458.027 507.427,457.027 507.5,455.5 Z"/></g>
<g><path style="opacity:1" fill="#575757" d="M 444.5,456.5 C 445.906,456.973 446.573,457.973 446.5,459.5C 445.094,459.027 444.427,458.027 444.5,456.5 Z"/></g>
<g><path style="opacity:1" fill="#a3a3a3" d="M 363.5,456.5 C 365.262,457.262 366.262,458.596 366.5,460.5C 364.738,459.738 363.738,458.404 363.5,456.5 Z"/></g>
<g><path style="opacity:1" fill="#959595" d="M 631.5,457.5 C 631.573,459.027 630.906,460.027 629.5,460.5C 629.427,458.973 630.094,457.973 631.5,457.5 Z"/></g>
<g><path style="opacity:1" fill="#9a9a9a" d="M 367.5,461.5 C 368.906,461.973 369.573,462.973 369.5,464.5C 368.094,464.027 367.427,463.027 367.5,461.5 Z"/></g>
<g><path style="opacity:1" fill="#9b9b9b" d="M 625.5,464.5 C 625.573,466.027 624.906,467.027 623.5,467.5C 623.427,465.973 624.094,464.973 625.5,464.5 Z"/></g>
<g><path style="opacity:1" fill="#979797" d="M 370.5,465.5 C 372.262,466.262 373.262,467.596 373.5,469.5C 371.738,468.738 370.738,467.404 370.5,465.5 Z"/></g>
<g><path style="opacity:1" fill="#a4a4a4" d="M 373.5,469.5 C 375.262,470.262 376.262,471.596 376.5,473.5C 374.738,472.738 373.738,471.404 373.5,469.5 Z"/></g>
<g><path style="opacity:1" fill="#9a9a9a" d="M 619.5,471.5 C 618.92,473.749 617.587,475.415 615.5,476.5C 616.08,474.251 617.413,472.585 619.5,471.5 Z"/></g>
<g><path style="opacity:1" fill="#bbbbbb" d="M 378.5,476.5 C 380.587,477.585 381.92,479.251 382.5,481.5C 380.413,480.415 379.08,478.749 378.5,476.5 Z"/></g>
<g><path style="opacity:1" fill="#a8a8a8" d="M 525.5,479.5 C 526.906,479.973 527.573,480.973 527.5,482.5C 526.094,482.027 525.427,481.027 525.5,479.5 Z"/></g>
<g><path style="opacity:1" fill="#a6a6a6" d="M 382.5,481.5 C 384.587,482.585 385.92,484.251 386.5,486.5C 384.413,485.415 383.08,483.749 382.5,481.5 Z"/></g>
<g><path style="opacity:1" fill="#4b4b4b" d="M 609.5,484.5 C 610.906,484.973 611.573,485.973 611.5,487.5C 610.094,487.027 609.427,486.027 609.5,484.5 Z"/></g>
<g><path style="opacity:1" fill="#a2a2a2" d="M 532.5,488.5 C 533.906,488.973 534.573,489.973 534.5,491.5C 533.094,491.027 532.427,490.027 532.5,488.5 Z"/></g>
<g><path style="opacity:1" fill="#9f9f9f" d="M 538.5,496.5 C 539.906,496.973 540.573,497.973 540.5,499.5C 539.094,499.027 538.427,498.027 538.5,496.5 Z"/></g>
<g><path style="opacity:1" fill="#505050" d="M 476.5,498.5 C 477.906,498.973 478.573,499.973 478.5,501.5C 477.094,501.027 476.427,500.027 476.5,498.5 Z"/></g>
<g><path style="opacity:1" fill="#9b9b9b" d="M 540.5,499.5 C 542.587,500.585 543.92,502.251 544.5,504.5C 542.413,503.415 541.08,501.749 540.5,499.5 Z"/></g>
<g><path style="opacity:1" fill="#585858" d="M 483.5,507.5 C 484.906,507.973 485.573,508.973 485.5,510.5C 484.094,510.027 483.427,509.027 483.5,507.5 Z"/></g>
<g><path style="opacity:1" fill="#565656" d="M 486.5,511.5 C 487.906,511.973 488.573,512.973 488.5,514.5C 487.094,514.027 486.427,513.027 486.5,511.5 Z"/></g>
<g><path style="opacity:1" fill="#9e9e9e" d="M 406.5,512.5 C 407.906,512.973 408.573,513.973 408.5,515.5C 407.094,515.027 406.427,514.027 406.5,512.5 Z"/></g>
<g><path style="opacity:1" fill="#ababab" d="M 550.5,512.5 C 551.906,512.973 552.573,513.973 552.5,515.5C 551.094,515.027 550.427,514.027 550.5,512.5 Z"/></g>
<g><path style="opacity:1" fill="#4c4c4c" d="M 489.5,515.5 C 490.906,515.973 491.573,516.973 491.5,518.5C 490.094,518.027 489.427,517.027 489.5,515.5 Z"/></g>
<g><path style="opacity:1" fill="#9c9c9c" d="M 416.5,525.5 C 417.906,525.973 418.573,526.973 418.5,528.5C 417.094,528.027 416.427,527.027 416.5,525.5 Z"/></g>
<g><path style="opacity:1" fill="#4f4f4f" d="M 640.5,525.5 C 641.906,525.973 642.573,526.973 642.5,528.5C 641.094,528.027 640.427,527.027 640.5,525.5 Z"/></g>
<g><path style="opacity:1" fill="#9d9d9d" d="M 563.5,529.5 C 564.906,529.973 565.573,530.973 565.5,532.5C 564.094,532.027 563.427,531.027 563.5,529.5 Z"/></g>
<g><path style="opacity:1" fill="#9a9a9a" d="M 418.5,528.5 C 420.587,529.585 421.92,531.251 422.5,533.5C 420.413,532.415 419.08,530.749 418.5,528.5 Z"/></g>
<g><path style="opacity:1" fill="#464646" d="M 643.5,529.5 C 644.906,529.973 645.573,530.973 645.5,532.5C 644.094,532.027 643.427,531.027 643.5,529.5 Z"/></g>
<g><path style="opacity:1" fill="#a3a3a3" d="M 422.5,533.5 C 423.906,533.973 424.573,534.973 424.5,536.5C 423.094,536.027 422.427,535.027 422.5,533.5 Z"/></g>
<g><path style="opacity:1" fill="#acacac" d="M 424.5,536.5 C 426.587,537.585 427.92,539.251 428.5,541.5C 426.413,540.415 425.08,538.749 424.5,536.5 Z"/></g>
<g><path style="opacity:1" fill="#919191" d="M 428.5,541.5 C 430.587,542.585 431.92,544.251 432.5,546.5C 430.413,545.415 429.08,543.749 428.5,541.5 Z"/></g>
<g><path style="opacity:1" fill="#4b4b4b" d="M 518.5,553.5 C 519.906,553.973 520.573,554.973 520.5,556.5C 519.094,556.027 518.427,555.027 518.5,553.5 Z"/></g>
<g><path style="opacity:1" fill="#a8a8a8" d="M 581.5,553.5 C 582.906,553.973 583.573,554.973 583.5,556.5C 582.094,556.027 581.427,555.027 581.5,553.5 Z"/></g>
<g><path style="opacity:1" fill="#494949" d="M 665.5,558.5 C 666.906,558.973 667.573,559.973 667.5,561.5C 666.094,561.027 665.427,560.027 665.5,558.5 Z"/></g>
<g><path style="opacity:1" fill="#4c4c4c" d="M 525.5,562.5 C 526.906,562.973 527.573,563.973 527.5,565.5C 526.094,565.027 525.427,564.027 525.5,562.5 Z"/></g>
<g><path style="opacity:1" fill="#909090" d="M 588.5,562.5 C 589.906,562.973 590.573,563.973 590.5,565.5C 589.094,565.027 588.427,564.027 588.5,562.5 Z"/></g>
<g><path style="opacity:1" fill="#a0a0a0" d="M 594.5,570.5 C 595.906,570.973 596.573,571.973 596.5,573.5C 595.094,573.027 594.427,572.027 594.5,570.5 Z"/></g>
<g><path style="opacity:1" fill="#575757" d="M 535.5,575.5 C 536.906,575.973 537.573,576.973 537.5,578.5C 536.094,578.027 535.427,577.027 535.5,575.5 Z"/></g>
<g><path style="opacity:1" fill="#989898" d="M 596.5,573.5 C 598.587,574.585 599.92,576.251 600.5,578.5C 598.413,577.415 597.08,575.749 596.5,573.5 Z"/></g>
<g><path style="opacity:1" fill="#a3a3a3" d="M 615.5,598.5 C 617.262,599.262 618.262,600.596 618.5,602.5C 616.738,601.738 615.738,600.404 615.5,598.5 Z"/></g>
<g><path style="opacity:1" fill="#515151" d="M 696.5,599.5 C 697.906,599.973 698.573,600.973 698.5,602.5C 697.094,602.027 696.427,601.027 696.5,599.5 Z"/></g>
<g><path style="opacity:1" fill="#474747" d="M 411.5,602.5 C 411.573,604.027 410.906,605.027 409.5,605.5C 409.427,603.973 410.094,602.973 411.5,602.5 Z"/></g>
<g><path style="opacity:1" fill="#ababab" d="M 618.5,602.5 C 620.262,603.262 621.262,604.596 621.5,606.5C 619.738,605.738 618.738,604.404 618.5,602.5 Z"/></g>
<g><path style="opacity:1" fill="#b8b8b8" d="M 623.5,609.5 C 625.587,610.585 626.92,612.251 627.5,614.5C 625.413,613.415 624.08,611.749 623.5,609.5 Z"/></g>
<g><path style="opacity:1" fill="#585858" d="M 574.5,626.5 C 575.906,626.973 576.573,627.973 576.5,629.5C 575.094,629.027 574.427,628.027 574.5,626.5 Z"/></g>
<g><path style="opacity:1" fill="#5a5a5a" d="M 495.5,631.5 C 496.947,630.115 497.947,630.448 498.5,632.5C 497.609,631.89 496.609,631.557 495.5,631.5 Z"/></g>
<g><path style="opacity:1" fill="#555555" d="M 577.5,630.5 C 578.906,630.973 579.573,631.973 579.5,633.5C 578.094,633.027 577.427,632.027 577.5,630.5 Z"/></g>
<g><path style="opacity:1" fill="#acacac" d="M 640.5,631.5 C 641.906,631.973 642.573,632.973 642.5,634.5C 641.094,634.027 640.427,633.027 640.5,631.5 Z"/></g>
<g><path style="opacity:1" fill="#454545" d="M 580.5,634.5 C 581.906,634.973 582.573,635.973 582.5,637.5C 581.094,637.027 580.427,636.027 580.5,634.5 Z"/></g>
<g><path style="opacity:1" fill="#4c4c4c" d="M 724.5,636.5 C 725.906,636.973 726.573,637.973 726.5,639.5C 725.094,639.027 724.427,638.027 724.5,636.5 Z"/></g>
<g><path style="opacity:1" fill="#9d9d9d" d="M 504.5,640.5 C 505.906,640.973 506.573,641.973 506.5,643.5C 505.094,643.027 504.427,642.027 504.5,640.5 Z"/></g>
<g><path style="opacity:1" fill="#a9a9a9" d="M 488.5,640.5 C 487.243,643.427 485.243,645.761 482.5,647.5C 483.757,644.573 485.757,642.239 488.5,640.5 Z"/></g>
<g><path style="opacity:1" fill="#949494" d="M 650.5,644.5 C 651.906,644.973 652.573,645.973 652.5,647.5C 651.094,647.027 650.427,646.027 650.5,644.5 Z"/></g>
<g><path style="opacity:1" fill="#999999" d="M 511.5,649.5 C 512.906,649.973 513.573,650.973 513.5,652.5C 512.094,652.027 511.427,651.027 511.5,649.5 Z"/></g>
<g><path style="opacity:1" fill="#9d9d9d" d="M 479.5,650.5 C 478.92,652.749 477.587,654.415 475.5,655.5C 476.08,653.251 477.413,651.585 479.5,650.5 Z"/></g>
<g><path style="opacity:1" fill="#969696" d="M 514.5,653.5 C 515.906,653.973 516.573,654.973 516.5,656.5C 515.094,656.027 514.427,655.027 514.5,653.5 Z"/></g>
<g><path style="opacity:1" fill="#464646" d="M 362.5,658.5 C 362.573,660.027 361.906,661.027 360.5,661.5C 360.427,659.973 361.094,658.973 362.5,658.5 Z"/></g>
<g><path style="opacity:1" fill="#939393" d="M 470.5,660.5 C 470.573,662.027 469.906,663.027 468.5,663.5C 468.427,661.973 469.094,660.973 470.5,660.5 Z"/></g>
<g><path style="opacity:1" fill="#a7a7a7" d="M 662.5,660.5 C 663.906,660.973 664.573,661.973 664.5,663.5C 663.094,663.027 662.427,662.027 662.5,660.5 Z"/></g>
<g><path style="opacity:1" fill="#8c8c8c" d="M 521.5,662.5 C 522.906,662.973 523.573,663.973 523.5,665.5C 522.094,665.027 521.427,664.027 521.5,662.5 Z"/></g>
<g><path style="opacity:1" fill="#9a9a9a" d="M 464.5,667.5 C 464.573,669.027 463.906,670.027 462.5,670.5C 462.427,668.973 463.094,667.973 464.5,667.5 Z"/></g>
<g><path style="opacity:1" fill="#aaaaaa" d="M 668.5,668.5 C 669.906,668.973 670.573,669.973 670.5,671.5C 669.094,671.027 668.427,670.027 668.5,668.5 Z"/></g>
<g><path style="opacity:1" fill="#4b4b4b" d="M 609.5,672.5 C 610.906,672.973 611.573,673.973 611.5,675.5C 610.094,675.027 609.427,674.027 609.5,672.5 Z"/></g>
<g><path style="opacity:1" fill="#505050" d="M 752.5,673.5 C 753.906,673.973 754.573,674.973 754.5,676.5C 753.094,676.027 752.427,675.027 752.5,673.5 Z"/></g>
<g><path style="opacity:1" fill="#9a9a9a" d="M 458.5,674.5 C 457.92,676.749 456.587,678.415 454.5,679.5C 455.08,677.251 456.413,675.585 458.5,674.5 Z"/></g>
<g><path style="opacity:1" fill="#b7b7b7" d="M 679.5,683.5 C 681.587,684.585 682.92,686.251 683.5,688.5C 681.413,687.415 680.08,685.749 679.5,683.5 Z"/></g>
<g><path style="opacity:1" fill="#a0a0a0" d="M 450.5,683.5 C 450.262,685.404 449.262,686.738 447.5,687.5C 447.738,685.596 448.738,684.262 450.5,683.5 Z"/></g>
<g><path style="opacity:1" fill="#4a4a4a" d="M 619.5,685.5 C 620.906,685.973 621.573,686.973 621.5,688.5C 620.094,688.027 619.427,687.027 619.5,685.5 Z"/></g>
<g><path style="opacity:1" fill="#aeaeae" d="M 541.5,689.5 C 543.587,690.585 544.92,692.251 545.5,694.5C 543.413,693.415 542.08,691.749 541.5,689.5 Z"/></g>
<g><path style="opacity:1" fill="#565656" d="M 626.5,694.5 C 627.906,694.973 628.573,695.973 628.5,697.5C 627.094,697.027 626.427,696.027 626.5,694.5 Z"/></g>
<g><path style="opacity:1" fill="#a9a9a9" d="M 439.5,696.5 C 438.243,699.427 436.243,701.761 433.5,703.5C 434.757,700.573 436.757,698.239 439.5,696.5 Z"/></g>
<g><path style="opacity:1" fill="#a8a8a8" d="M 693.5,701.5 C 694.906,701.973 695.573,702.973 695.5,704.5C 694.094,704.027 693.427,703.027 693.5,701.5 Z"/></g>
<g><path style="opacity:1" fill="#a7a7a7" d="M 551.5,702.5 C 553.587,703.585 554.92,705.251 555.5,707.5C 553.413,706.415 552.08,704.749 551.5,702.5 Z"/></g>
<g><path style="opacity:1" fill="#9d9d9d" d="M 430.5,706.5 C 429.92,708.749 428.587,710.415 426.5,711.5C 427.08,709.251 428.413,707.585 430.5,706.5 Z"/></g>
<g><path style="opacity:1" fill="#515151" d="M 780.5,710.5 C 781.906,710.973 782.573,711.973 782.5,713.5C 781.094,713.027 780.427,712.027 780.5,710.5 Z"/></g>
<g><path style="opacity:1" fill="#464646" d="M 313.5,714.5 C 313.573,716.027 312.906,717.027 311.5,717.5C 311.427,715.973 312.094,714.973 313.5,714.5 Z"/></g>
<g><path style="opacity:1" fill="#929292" d="M 703.5,714.5 C 704.906,714.973 705.573,715.973 705.5,717.5C 704.094,717.027 703.427,716.027 703.5,714.5 Z"/></g>
<g><path style="opacity:1" fill="#9e9e9e" d="M 422.5,715.5 C 422.573,717.027 421.906,718.027 420.5,718.5C 420.427,716.973 421.094,715.973 422.5,715.5 Z"/></g>
<g><path style="opacity:1" fill="#929292" d="M 563.5,717.5 C 564.906,717.973 565.573,718.973 565.5,720.5C 564.094,720.027 563.427,719.027 563.5,717.5 Z"/></g>
<g><path style="opacity:1" fill="#999999" d="M 415.5,723.5 C 415.573,725.027 414.906,726.027 413.5,726.5C 413.427,724.973 414.094,723.973 415.5,723.5 Z"/></g>
<g><path style="opacity:1" fill="#9a9a9a" d="M 409.5,730.5 C 408.92,732.749 407.587,734.415 405.5,735.5C 406.08,733.251 407.413,731.585 409.5,730.5 Z"/></g>
<g><path style="opacity:1" fill="#adadad" d="M 574.5,732.5 C 576.587,733.585 577.92,735.251 578.5,737.5C 576.413,736.415 575.08,734.749 574.5,732.5 Z"/></g>
<g><path style="opacity:1" fill="#454545" d="M 293.5,737.5 C 293.167,739.833 291.833,741.167 289.5,741.5C 290.5,739.833 291.833,738.5 293.5,737.5 Z"/></g>
<g><path style="opacity:1" fill="#9f9f9f" d="M 401.5,739.5 C 401.262,741.404 400.262,742.738 398.5,743.5C 398.738,741.596 399.738,740.262 401.5,739.5 Z"/></g>
<g><path style="opacity:1" fill="#a6a6a6" d="M 724.5,742.5 C 725.906,742.973 726.573,743.973 726.5,745.5C 725.094,745.027 724.427,744.027 724.5,742.5 Z"/></g>
<g><path style="opacity:1" fill="#4e4e4e" d="M 284.5,747.5 C 284.573,749.027 283.906,750.027 282.5,750.5C 282.427,748.973 283.094,747.973 284.5,747.5 Z"/></g>
<g><path style="opacity:1" fill="#4e4e4e" d="M 808.5,747.5 C 809.906,747.973 810.573,748.973 810.5,750.5C 809.094,750.027 808.427,749.027 808.5,747.5 Z"/></g>
<g><path style="opacity:1" fill="#555555" d="M 668.5,749.5 C 669.906,749.973 670.573,750.973 670.5,752.5C 669.094,752.027 668.427,751.027 668.5,749.5 Z"/></g>
<g><path style="opacity:1" fill="#a9a9a9" d="M 390.5,752.5 C 389.243,755.427 387.243,757.761 384.5,759.5C 385.757,756.573 387.757,754.239 390.5,752.5 Z"/></g>
<g><path style="opacity:1" fill="#555555" d="M 814.5,755.5 C 815.906,755.973 816.573,756.973 816.5,758.5C 815.094,758.027 814.427,757.027 814.5,755.5 Z"/></g>
<g><path style="opacity:1" fill="#9d9d9d" d="M 595.5,759.5 C 596.906,759.973 597.573,760.973 597.5,762.5C 596.094,762.027 595.427,761.027 595.5,759.5 Z"/></g>
<g><path style="opacity:1" fill="#979797" d="M 737.5,759.5 C 738.906,759.973 739.573,760.973 739.5,762.5C 738.094,762.027 737.427,761.027 737.5,759.5 Z"/></g>
<g><path style="opacity:1" fill="#9d9d9d" d="M 381.5,762.5 C 380.92,764.749 379.587,766.415 377.5,767.5C 378.08,765.251 379.413,763.585 381.5,762.5 Z"/></g>
<g><path style="opacity:1" fill="#989898" d="M 602.5,768.5 C 603.906,768.973 604.573,769.973 604.5,771.5C 603.094,771.027 602.427,770.027 602.5,768.5 Z"/></g>
<g><path style="opacity:1" fill="#484848" d="M 265.5,769.5 C 264.92,771.749 263.587,773.415 261.5,774.5C 262.08,772.251 263.413,770.585 265.5,769.5 Z"/></g>
<g><path style="opacity:1" fill="#9e9e9e" d="M 373.5,771.5 C 373.573,773.027 372.906,774.027 371.5,774.5C 371.427,772.973 372.094,771.973 373.5,771.5 Z"/></g>
<g><path style="opacity:1" fill="#999999" d="M 608.5,776.5 C 609.906,776.973 610.573,777.973 610.5,779.5C 609.094,779.027 608.427,778.027 608.5,776.5 Z"/></g>
<g><path style="opacity:1" fill="#4b4b4b" d="M 256.5,779.5 C 256.573,781.027 255.906,782.027 254.5,782.5C 254.427,780.973 255.094,779.973 256.5,779.5 Z"/></g>
<g><path style="opacity:1" fill="#9b9b9b" d="M 366.5,779.5 C 366.573,781.027 365.906,782.027 364.5,782.5C 364.427,780.973 365.094,779.973 366.5,779.5 Z"/></g>
<g><path style="opacity:1" fill="#a0a0a0" d="M 752.5,779.5 C 753.906,779.973 754.573,780.973 754.5,782.5C 753.094,782.027 752.427,781.027 752.5,779.5 Z"/></g>
<g><path style="opacity:1" fill="#8d8d8d" d="M 612.5,781.5 C 613.906,781.973 614.573,782.973 614.5,784.5C 613.094,784.027 612.427,783.027 612.5,781.5 Z"/></g>
<g><path style="opacity:1" fill="#595959" d="M 836.5,784.5 C 837.906,784.973 838.573,785.973 838.5,787.5C 837.094,787.027 836.427,786.027 836.5,784.5 Z"/></g>
<g><path style="opacity:1" fill="#9a9a9a" d="M 360.5,786.5 C 359.92,788.749 358.587,790.415 356.5,791.5C 357.08,789.251 358.413,787.585 360.5,786.5 Z"/></g>
<g><path style="opacity:1" fill="#919191" d="M 759.5,788.5 C 760.167,788.5 760.5,788.833 760.5,789.5C 740.861,791.488 720.861,792.155 700.5,791.5C 699.833,791.5 699.5,791.167 699.5,790.5C 719.861,791.155 739.861,790.488 759.5,788.5 Z"/></g>
<g><path style="opacity:1" fill="#2c2c2c" d="M 760.5,789.5 C 761.404,790.209 761.737,791.209 761.5,792.5C 740.993,792.83 720.66,792.497 700.5,791.5C 720.861,792.155 740.861,791.488 760.5,789.5 Z"/></g>
<g><path style="opacity:1" fill="#bababa" d="M 619.5,791.5 C 621.587,792.585 622.92,794.251 623.5,796.5C 621.413,795.415 620.08,793.749 619.5,791.5 Z"/></g>
<g><path style="opacity:1" fill="#9f9f9f" d="M 352.5,795.5 C 352.262,797.404 351.262,798.738 349.5,799.5C 349.738,797.596 350.738,796.262 352.5,795.5 Z"/></g>
<g><path style="opacity:1" fill="#4e4e4e" d="M 235.5,803.5 C 235.573,805.027 234.906,806.027 233.5,806.5C 233.427,804.973 234.094,803.973 235.5,803.5 Z"/></g>
<g><path style="opacity:1" fill="#a9a9a9" d="M 341.5,808.5 C 340.243,811.427 338.243,813.761 335.5,815.5C 336.757,812.573 338.757,810.239 341.5,808.5 Z"/></g>
<g><path style="opacity:1" fill="#9d9d9d" d="M 332.5,818.5 C 331.92,820.749 330.587,822.415 328.5,823.5C 329.08,821.251 330.413,819.585 332.5,818.5 Z"/></g>
<g><path style="opacity:1" fill="#a6a6a6" d="M 642.5,821.5 C 644.587,822.585 645.92,824.251 646.5,826.5C 644.413,825.415 643.08,823.749 642.5,821.5 Z"/></g>
<g><path style="opacity:1" fill="#484848" d="M 216.5,825.5 C 215.92,827.749 214.587,829.415 212.5,830.5C 213.08,828.251 214.413,826.585 216.5,825.5 Z"/></g>
<g><path style="opacity:1" fill="#9d9d9d" d="M 324.5,827.5 C 324.573,829.027 323.906,830.027 322.5,830.5C 322.427,828.973 323.094,827.973 324.5,827.5 Z"/></g>
<g><path style="opacity:1" fill="#4a4a4a" d="M 207.5,835.5 C 207.573,837.027 206.906,838.027 205.5,838.5C 205.427,836.973 206.094,835.973 207.5,835.5 Z"/></g>
<g><path style="opacity:1" fill="#9b9b9b" d="M 317.5,835.5 C 317.573,837.027 316.906,838.027 315.5,838.5C 315.427,836.973 316.094,835.973 317.5,835.5 Z"/></g>
<g><path style="opacity:1" fill="#929292" d="M 654.5,836.5 C 655.906,836.973 656.573,837.973 656.5,839.5C 655.094,839.027 654.427,838.027 654.5,836.5 Z"/></g>
<g><path style="opacity:1" fill="#9a9a9a" d="M 311.5,842.5 C 310.92,844.749 309.587,846.415 307.5,847.5C 308.08,845.251 309.413,843.585 311.5,842.5 Z"/></g>
<g><path style="opacity:1" fill="#4b4b4b" d="M 195.5,849.5 C 194.92,851.749 193.587,853.415 191.5,854.5C 192.08,852.251 193.413,850.585 195.5,849.5 Z"/></g>
<g><path style="opacity:1" fill="#aeaeae" d="M 665.5,851.5 C 667.167,852.5 668.5,853.833 669.5,855.5C 669.5,855.833 669.5,856.167 669.5,856.5C 667.413,855.415 666.08,853.749 665.5,851.5 Z"/></g>
<g><path style="opacity:1" fill="#9f9f9f" d="M 303.5,851.5 C 303.262,853.404 302.262,854.738 300.5,855.5C 300.738,853.596 301.738,852.262 303.5,851.5 Z"/></g>
<g><path style="opacity:1" fill="#141414" d="M 887.5,852.5 C 888.5,852.833 889.167,853.5 889.5,854.5C 816.508,856.497 743.174,857.164 669.5,856.5C 669.5,856.167 669.5,855.833 669.5,855.5C 742.501,855.667 815.501,855.5 888.5,855C 887.748,854.329 887.414,853.496 887.5,852.5 Z"/></g>
<g><path style="opacity:1" fill="#7b7b7b" d="M 190.5,854.5 C 226.485,856.494 262.818,857.16 299.5,856.5C 263.004,857.498 226.337,857.832 189.5,857.5C 189.263,856.209 189.596,855.209 190.5,854.5 Z"/></g>
<g><path style="opacity:1" fill="#7b7b7b" d="M 889.5,854.5 C 890.478,854.811 891.145,855.478 891.5,856.5C 817.334,857.832 743.334,857.832 669.5,856.5C 743.174,857.164 816.508,856.497 889.5,854.5 Z"/></g>
</svg>
