<?xml version="1.0" encoding="UTF-8"?>
<!DOCTYPE svg PUBLIC "-//W3C//DTD SVG 1.1//EN" "http://www.w3.org/Graphics/SVG/1.1/DTD/svg11.dtd">
<svg xmlns="http://www.w3.org/2000/svg" version="1.1" width="50px" height="50px" style="shape-rendering:geometricPrecision; text-rendering:geometricPrecision; image-rendering:optimizeQuality; fill-rule:evenodd; clip-rule:evenodd" xmlns:xlink="http://www.w3.org/1999/xlink">
<g><path style="opacity:0.978" fill="#2a2f3a" d="M 5.5,-0.5 C 18.1667,-0.5 30.8333,-0.5 43.5,-0.5C 45.8333,1.16667 47.8333,3.16667 49.5,5.5C 49.5,18.1667 49.5,30.8333 49.5,43.5C 47.8333,45.8333 45.8333,47.8333 43.5,49.5C 30.8333,49.5 18.1667,49.5 5.5,49.5C 2.79973,47.7656 0.799728,45.4323 -0.5,42.5C -0.5,30.5 -0.5,18.5 -0.5,6.5C 0.799728,3.56772 2.79973,1.23438 5.5,-0.5 Z"/></g>
<g><path style="opacity:1" fill="#36b0dd" d="M 19.5,8.5 C 23.1817,8.3347 26.8484,8.50137 30.5,9C 32.3262,12.3118 33.6595,15.8118 34.5,19.5C 31.2854,19.9049 28.2854,20.9049 25.5,22.5C 24.8333,22.5 24.5,22.1667 24.5,21.5C 23.0832,17.0116 21.4166,12.6782 19.5,8.5 Z"/></g>
<g><path style="opacity:1" fill="#145392" d="M 19.5,8.5 C 21.4166,12.6782 23.0832,17.0116 24.5,21.5C 23.7171,23.3432 23.0505,25.3432 22.5,27.5C 23.6888,28.4287 25.0222,28.762 26.5,28.5C 27.6772,30.6794 28.6772,33.0128 29.5,35.5C 29.5,36.8333 29.5,38.1667 29.5,39.5C 33.1667,39.5 36.8333,39.5 40.5,39.5C 36.3537,40.647 32.0204,40.8136 27.5,40C 26.944,39.6174 26.6107,39.1174 26.5,38.5C 27.0431,38.44 27.3764,38.1067 27.5,37.5C 26.5682,35.2046 25.7348,32.8713 25,30.5C 23.9887,29.6634 22.8221,29.33 21.5,29.5C 21.5858,28.5041 21.2524,27.6708 20.5,27C 17.846,26.0594 15.1794,25.2261 12.5,24.5C 14.2721,19.9472 15.7721,15.2805 17,10.5C 17.7083,9.61947 18.5416,8.9528 19.5,8.5 Z"/></g>
<g><path style="opacity:1" fill="#2a3443" d="M 24.5,21.5 C 24.5,22.1667 24.8333,22.5 25.5,22.5C 25.8333,24.5 26.1667,26.5 26.5,28.5C 25.0222,28.762 23.6888,28.4287 22.5,27.5C 23.0505,25.3432 23.7171,23.3432 24.5,21.5 Z"/></g>
<g><path style="opacity:1" fill="#2e9dd9" d="M 34.5,19.5 C 36.4285,23.2854 37.7618,27.2854 38.5,31.5C 35.7442,33.2038 32.7442,34.5371 29.5,35.5C 28.6772,33.0128 27.6772,30.6794 26.5,28.5C 26.1667,26.5 25.8333,24.5 25.5,22.5C 28.2854,20.9049 31.2854,19.9049 34.5,19.5 Z"/></g>
<g><path style="opacity:1" fill="#0076d1" d="M 21.5,29.5 C 22.8221,29.33 23.9887,29.6634 25,30.5C 25.7348,32.8713 26.5682,35.2046 27.5,37.5C 27.3764,38.1067 27.0431,38.44 26.5,38.5C 24.8333,37.1667 23.1667,35.8333 21.5,34.5C 20.3747,32.8712 19.0414,31.3712 17.5,30C 18.7932,29.51 20.1266,29.3433 21.5,29.5 Z"/></g>
<g><path style="opacity:1" fill="#0c5da7" d="M 12.5,24.5 C 15.1794,25.2261 17.846,26.0594 20.5,27C 21.2524,27.6708 21.5858,28.5041 21.5,29.5C 20.1266,29.3433 18.7932,29.51 17.5,30C 19.0414,31.3712 20.3747,32.8712 21.5,34.5C 20.0527,35.6222 19.0527,37.1222 18.5,39C 15.1832,39.4983 11.8499,39.665 8.5,39.5C 9.02075,34.273 10.3541,29.273 12.5,24.5 Z"/></g>
<g><path style="opacity:1" fill="#298ed3" d="M 38.5,31.5 C 40.0395,33.8383 40.7062,36.5049 40.5,39.5C 36.8333,39.5 33.1667,39.5 29.5,39.5C 29.5,38.1667 29.5,36.8333 29.5,35.5C 32.7442,34.5371 35.7442,33.2038 38.5,31.5 Z"/></g>
</svg>
